<svg width="16" height="16" viewBox="0 0 16 16" fill="none" xmlns="http://www.w3.org/2000/svg">
<path opacity="0.1" d="M2 8.2C2 7.07989 2 6.51984 2.21799 6.09202C2.40973 5.71569 2.71569 5.40973 3.09202 5.21799C3.51984 5 4.0799 5 5.2 5H10.8C11.9201 5 12.4802 5 12.908 5.21799C13.2843 5.40973 13.5903 5.71569 13.782 6.09202C14 6.51984 14 7.0799 14 8.2V14H2V8.2Z" fill="#525252"/>
<path fill-rule="evenodd" clip-rule="evenodd" d="M3.97475 1.25L4 1.25H12L12.0253 1.25C12.4697 1.24999 12.8408 1.24999 13.1454 1.27077C13.4625 1.2924 13.762 1.33905 14.0524 1.45933C14.7262 1.73844 15.2616 2.27379 15.5407 2.94762C15.661 3.23801 15.7076 3.53753 15.7292 3.85463C15.75 4.15925 15.75 4.53028 15.75 4.97474V5C15.75 5.41421 15.4142 5.75 15 5.75H14.75V10.8V10.8305V10.8305C14.75 11.3646 14.75 11.8104 14.7203 12.1747C14.6892 12.5546 14.6221 12.9112 14.4503 13.2485C14.1866 13.7659 13.7659 14.1866 13.2485 14.4503C12.9112 14.6221 12.5546 14.6892 12.1747 14.7203C11.8105 14.75 11.3646 14.75 10.8305 14.75H10.8305H10.8H5.2H5.16955H5.16946C4.63535 14.75 4.18954 14.75 3.82533 14.7203C3.44545 14.6892 3.08879 14.6221 2.75153 14.4503C2.23408 14.1866 1.81338 13.7659 1.54973 13.2485C1.37789 12.9112 1.31078 12.5546 1.27974 12.1747C1.24998 11.8104 1.24999 11.3646 1.25 10.8304L1.25 10.8V5.75H1C0.585787 5.75 0.250001 5.41421 0.250001 5L0.25 4.97475C0.249993 4.53029 0.249987 4.15925 0.27077 3.85463C0.292406 3.53753 0.339049 3.23801 0.459332 2.94762C0.73844 2.27379 1.27379 1.73844 1.94762 1.45933C2.23801 1.33905 2.53754 1.2924 2.85464 1.27077C3.15925 1.24999 3.53029 1.24999 3.97475 1.25ZM2.75 5.75H13.25V10.8C13.25 11.3724 13.2494 11.7566 13.2252 12.0525C13.2018 12.3396 13.1599 12.4769 13.1138 12.5675C12.9939 12.8027 12.8027 12.9939 12.5675 13.1138C12.4769 13.1599 12.3396 13.2018 12.0525 13.2252C11.7566 13.2494 11.3724 13.25 10.8 13.25H5.2C4.62757 13.25 4.24336 13.2494 3.94748 13.2252C3.66036 13.2018 3.52307 13.1599 3.43251 13.1138C3.19731 12.9939 3.00608 12.8027 2.88624 12.5675C2.8401 12.4769 2.79822 12.3396 2.77476 12.0525C2.75058 11.7566 2.75 11.3724 2.75 10.8V5.75ZM14.2451 4.25H14H2H1.75485C1.75741 4.14074 1.76132 4.04423 1.76729 3.95674C1.78372 3.71601 1.81319 3.5988 1.84515 3.52165C1.97202 3.21536 2.21536 2.97202 2.52165 2.84515C2.5988 2.81319 2.71602 2.78371 2.95674 2.76729C3.20421 2.75041 3.5238 2.75 4 2.75H12C12.4762 2.75 12.7958 2.75041 13.0433 2.76729C13.284 2.78371 13.4012 2.81319 13.4784 2.84515C13.7846 2.97202 14.028 3.21536 14.1549 3.52165C14.1868 3.5988 14.2163 3.71601 14.2327 3.95674C14.2387 4.04423 14.2426 4.14074 14.2451 4.25ZM6 7.25C5.58579 7.25 5.25 7.58579 5.25 8C5.25 8.41421 5.58579 8.75 6 8.75H10C10.4142 8.75 10.75 8.41421 10.75 8C10.75 7.58579 10.4142 7.25 10 7.25H6Z" fill="#525252"/>
</svg>
