<svg width="16" height="16" viewBox="0 0 16 16" fill="none" xmlns="http://www.w3.org/2000/svg">
<path fill-rule="evenodd" clip-rule="evenodd" d="M11 12.75L4 12.75C3.80109 12.75 3.61032 12.671 3.46967 12.5303C3.32902 12.3897 3.25 12.1989 3.25 12V5.00001C3.25 4.58579 3.58579 4.25001 4 4.25001C4.41421 4.25001 4.75 4.58579 4.75 5.00001V10.1893L11.4697 3.46967C11.7626 3.17678 12.2374 3.17678 12.5303 3.46967C12.8232 3.76256 12.8232 4.23744 12.5303 4.53033L5.81066 11.25L11 11.25C11.4142 11.25 11.75 11.5858 11.75 12C11.75 12.4142 11.4142 12.75 11 12.75Z" fill="#525252"/>
</svg>
