<svg width="16" height="16" viewBox="0 0 16 16" fill="none" xmlns="http://www.w3.org/2000/svg">
<path fill-rule="evenodd" clip-rule="evenodd" d="M5 12.75L12 12.75C12.1989 12.75 12.3897 12.671 12.5303 12.5303C12.671 12.3897 12.75 12.1989 12.75 12V5.00001C12.75 4.58579 12.4142 4.25001 12 4.25001C11.5858 4.25001 11.25 4.58579 11.25 5.00001V10.1893L4.53033 3.46967C4.23744 3.17678 3.76256 3.17678 3.46967 3.46967C3.17678 3.76256 3.17678 4.23744 3.46967 4.53033L10.1893 11.25L5 11.25C4.58579 11.25 4.25 11.5858 4.25 12C4.25 12.4142 4.58579 12.75 5 12.75Z" fill="#525252"/>
</svg>
