<svg width="16" height="16" viewBox="0 0 16 16" fill="none" xmlns="http://www.w3.org/2000/svg">
<g clip-path="url(#clip0_35_7198)">
<circle opacity="0.1" cx="8" cy="8" r="7" fill="#525252"/>
<path fill-rule="evenodd" clip-rule="evenodd" d="M1.75 8C1.75 4.54822 4.54822 1.75 8 1.75C11.4518 1.75 14.25 4.54822 14.25 8C14.25 11.4518 11.4518 14.25 8 14.25C4.54822 14.25 1.75 11.4518 1.75 8ZM8 0.25C3.71979 0.25 0.25 3.71979 0.25 8C0.25 12.2802 3.71979 15.75 8 15.75C12.2802 15.75 15.75 12.2802 15.75 8C15.75 3.71979 12.2802 0.25 8 0.25ZM11.5303 7.46967L8.53033 4.46967C8.23744 4.17678 7.76256 4.17678 7.46967 4.46967C7.17678 4.76256 7.17678 5.23744 7.46967 5.53033L9.18934 7.25H5C4.58579 7.25 4.25 7.58579 4.25 8C4.25 8.41421 4.58579 8.75 5 8.75H9.18934L7.46967 10.4697C7.17678 10.7626 7.17678 11.2374 7.46967 11.5303C7.76256 11.8232 8.23744 11.8232 8.53033 11.5303L11.5303 8.53033C11.8232 8.23744 11.8232 7.76256 11.5303 7.46967Z" fill="#525252"/>
</g>
<defs>
<clipPath id="clip0_35_7198">
<rect width="16" height="16" fill="white"/>
</clipPath>
</defs>
</svg>
