<svg width="16" height="16" viewBox="0 0 16 16" fill="none" xmlns="http://www.w3.org/2000/svg">
<path fill-rule="evenodd" clip-rule="evenodd" d="M11 3.25001L4 3.25C3.80109 3.25 3.61032 3.32902 3.46967 3.46967C3.32902 3.61032 3.25 3.80109 3.25 4V11C3.25 11.4142 3.58579 11.75 4 11.75C4.41421 11.75 4.75 11.4142 4.75 11V5.81066L11.4697 12.5303C11.7626 12.8232 12.2374 12.8232 12.5303 12.5303C12.8232 12.2374 12.8232 11.7626 12.5303 11.4697L5.81066 4.75L11 4.75001C11.4142 4.75001 11.75 4.41422 11.75 4.00001C11.75 3.5858 11.4142 3.25001 11 3.25001Z" fill="#525252"/>
</svg>
