<svg width="16" height="16" viewBox="0 0 16 16" fill="none" xmlns="http://www.w3.org/2000/svg">
<g clip-path="url(#clip0_35_7240)">
<circle opacity="0.1" cx="8" cy="8" r="7" fill="#525252"/>
<path fill-rule="evenodd" clip-rule="evenodd" d="M1.75 8C1.75 4.54822 4.54822 1.75 8 1.75C11.4518 1.75 14.25 4.54822 14.25 8C14.25 11.4518 11.4518 14.25 8 14.25C4.54822 14.25 1.75 11.4518 1.75 8ZM8 0.25C3.71979 0.25 0.25 3.71979 0.25 8C0.25 12.2802 3.71979 15.75 8 15.75C12.2802 15.75 15.75 12.2802 15.75 8C15.75 3.71979 12.2802 0.25 8 0.25ZM6.53033 5.46967C6.23744 5.17678 5.76256 5.17678 5.46967 5.46967C5.17678 5.76256 5.17678 6.23744 5.46967 6.53033L8.18934 9.25H6C5.58579 9.25 5.25 9.58579 5.25 10C5.25 10.4142 5.58579 10.75 6 10.75H10C10.1989 10.75 10.3897 10.671 10.5303 10.5303C10.671 10.3897 10.75 10.1989 10.75 10V6C10.75 5.58579 10.4142 5.25 10 5.25C9.58579 5.25 9.25 5.58579 9.25 6L9.25 8.18934L6.53033 5.46967Z" fill="#525252"/>
</g>
<defs>
<clipPath id="clip0_35_7240">
<rect width="16" height="16" fill="white"/>
</clipPath>
</defs>
</svg>
