<svg width="16" height="16" viewBox="0 0 16 16" fill="none" xmlns="http://www.w3.org/2000/svg">
<path fill-rule="evenodd" clip-rule="evenodd" d="M8.00001 2.25C8.41423 2.25 8.75001 2.58579 8.75001 3V6.70097L11.9552 4.85048C12.3139 4.64337 12.7726 4.76628 12.9797 5.125C13.1868 5.48372 13.0639 5.94241 12.7052 6.14952L9.50001 8.00001L12.7051 9.85048C13.0638 10.0576 13.1868 10.5163 12.9796 10.875C12.7725 11.2337 12.3138 11.3566 11.9551 11.1495L8.75001 9.29904V13C8.75001 13.4142 8.41423 13.75 8.00001 13.75C7.5858 13.75 7.25001 13.4142 7.25001 13V9.29905L4.0449 11.1495C3.68618 11.3566 3.22749 11.2337 3.02038 10.875C2.81327 10.5163 2.93618 10.0576 3.2949 9.85048L6.50001 8.00001L3.29488 6.14952C2.93616 5.94241 2.81325 5.48372 3.02036 5.125C3.22746 4.76628 3.68616 4.64337 4.04488 4.85048L7.25001 6.70097V3C7.25001 2.58579 7.5858 2.25 8.00001 2.25Z" fill="#525252"/>
</svg>
