<svg width="16" height="16" viewBox="0 0 16 16" fill="none" xmlns="http://www.w3.org/2000/svg">
<path opacity="0.1" d="M4.03922 4.20098C4.39205 3.75994 4.56846 3.53943 4.78743 3.3807C4.98141 3.24008 5.19908 3.13546 5.43007 3.07183C5.6908 3 5.9732 3 6.538 3H11.8C12.9201 3 13.4802 3 13.908 3.21799C14.2843 3.40973 14.5903 3.71569 14.782 4.09202C15 4.51984 15 5.07989 15 6.2V9.8C15 10.9201 15 11.4802 14.782 11.908C14.5903 12.2843 14.2843 12.5903 13.908 12.782C13.4802 13 12.9201 13 11.8 13H6.538C5.9732 13 5.6908 13 5.43007 12.9282C5.19908 12.8645 4.98141 12.7599 4.78743 12.6193C4.56846 12.4606 4.39205 12.2401 4.03922 11.799L1 8L4.03922 4.20098Z" fill="#525252"/>
<path fill-rule="evenodd" clip-rule="evenodd" d="M7.25301 2.24997L7.32548 2.25H11.8L11.8304 2.25C12.3646 2.24999 12.8104 2.24998 13.1747 2.27974C13.5546 2.31078 13.9112 2.37789 14.2485 2.54973C14.7659 2.81338 15.1866 3.23408 15.4503 3.75153C15.6221 4.08879 15.6892 4.44544 15.7203 4.82533C15.75 5.18955 15.75 5.63538 15.75 6.16951V6.16955V6.2V9.8V9.83045V9.83049C15.75 10.3646 15.75 10.8105 15.7203 11.1747C15.6892 11.5546 15.6221 11.9112 15.4503 12.2485C15.1866 12.7659 14.7659 13.1866 14.2485 13.4503C13.9112 13.6221 13.5546 13.6892 13.1747 13.7203C12.8104 13.75 12.3646 13.75 11.8305 13.75H11.8305H11.8H7.32548L7.25301 13.75H7.25299C6.83439 13.7503 6.50486 13.7505 6.18645 13.674C5.90585 13.6067 5.6376 13.4955 5.39156 13.3448C5.11235 13.1737 4.87948 12.9405 4.58365 12.6444L4.58364 12.6443L4.53241 12.5931L0.46967 8.53033C0.329018 8.38968 0.25 8.19891 0.25 8C0.25 7.80109 0.329018 7.61032 0.46967 7.46967L4.53241 3.40693L4.58364 3.35566C4.87947 3.05948 5.11235 2.82634 5.39156 2.65524C5.6376 2.50446 5.90585 2.39335 6.18645 2.32598C6.50487 2.24954 6.83439 2.24973 7.25301 2.24997ZM7.32548 3.75C6.8006 3.75 6.6604 3.75482 6.53662 3.78454C6.40908 3.81516 6.28714 3.86566 6.1753 3.9342C6.06676 4.00071 5.96422 4.09644 5.59307 4.46759L2.06066 8L5.59307 11.5324C5.96422 11.9036 6.06676 11.9993 6.1753 12.0658C6.28714 12.1343 6.40908 12.1848 6.53662 12.2155C6.6604 12.2452 6.8006 12.25 7.32548 12.25H11.8C12.3724 12.25 12.7566 12.2494 13.0525 12.2252C13.3396 12.2018 13.4769 12.1599 13.5675 12.1138C13.8027 11.9939 13.9939 11.8027 14.1138 11.5675C14.1599 11.4769 14.2018 11.3396 14.2252 11.0525C14.2494 10.7566 14.25 10.3724 14.25 9.8V6.2C14.25 5.62757 14.2494 5.24336 14.2252 4.94748C14.2018 4.66035 14.1599 4.52307 14.1138 4.43251C13.9939 4.19731 13.8027 4.00608 13.5675 3.88624C13.4769 3.8401 13.3396 3.79822 13.0525 3.77476C12.7566 3.75058 12.3724 3.75 11.8 3.75H7.32548ZM7.46967 5.46967C7.76256 5.17678 8.23744 5.17678 8.53033 5.46967L10 6.93934L11.4697 5.46967C11.7626 5.17678 12.2374 5.17678 12.5303 5.46967C12.8232 5.76256 12.8232 6.23744 12.5303 6.53033L11.0607 8L12.5303 9.46967C12.8232 9.76256 12.8232 10.2374 12.5303 10.5303C12.2374 10.8232 11.7626 10.8232 11.4697 10.5303L10 9.06066L8.53033 10.5303C8.23744 10.8232 7.76256 10.8232 7.46967 10.5303C7.17678 10.2374 7.17678 9.76256 7.46967 9.46967L8.93934 8L7.46967 6.53033C7.17678 6.23744 7.17678 5.76256 7.46967 5.46967Z" fill="#525252"/>
</svg>
