<svg width="16" height="16" viewBox="0 0 16 16" fill="none" xmlns="http://www.w3.org/2000/svg">
<g clip-path="url(#clip0_35_8555)">
<rect opacity="0.2" x="1" y="5" width="7" height="6" fill="#525252"/>
<path fill-rule="evenodd" clip-rule="evenodd" d="M3.97475 4.25L4 4.25H8H11L11.0253 4.25C11.4697 4.24999 11.8408 4.24999 12.1454 4.27077C12.4625 4.2924 12.762 4.33905 13.0524 4.45933C13.7262 4.73844 14.2616 5.27379 14.5407 5.94762C14.5488 5.96733 14.5567 5.98709 14.5642 6.00688C14.5796 6.00783 14.5948 6.00891 14.6098 6.01013C14.755 6.022 14.963 6.05244 15.181 6.16349C15.4632 6.3073 15.6927 6.53677 15.8365 6.81901C15.9476 7.03696 15.978 7.24495 15.9899 7.39017C16.0001 7.51549 16.0001 7.65774 16 7.77686L16 7.8V8.2L16 8.22314C16.0001 8.34225 16.0001 8.48451 15.9899 8.60983C15.978 8.75505 15.9476 8.96304 15.8365 9.18098C15.6927 9.46323 15.4632 9.6927 15.181 9.83651C14.963 9.94756 14.755 9.978 14.6098 9.98987C14.5948 9.99109 14.5796 9.99217 14.5642 9.99311C14.5567 10.0129 14.5488 10.0327 14.5407 10.0524C14.2616 10.7262 13.7262 11.2616 13.0524 11.5407C12.762 11.661 12.4625 11.7076 12.1454 11.7292C11.8408 11.75 11.4697 11.75 11.0253 11.75H11H8H4H3.97474C3.53028 11.75 3.15925 11.75 2.85464 11.7292C2.53754 11.7076 2.23801 11.661 1.94762 11.5407C1.27379 11.2616 0.73844 10.7262 0.459332 10.0524C0.339049 9.76199 0.292406 9.46246 0.27077 9.14536C0.249987 8.84075 0.249993 8.46971 0.25 8.02525L0.250001 8L0.25 7.97475C0.249993 7.53029 0.249987 7.15925 0.27077 6.85463C0.292406 6.53753 0.339049 6.23801 0.459332 5.94762C0.73844 5.27379 1.27379 4.73844 1.94762 4.45933C2.23801 4.33905 2.53754 4.2924 2.85464 4.27077C3.15925 4.24999 3.53029 4.24999 3.97475 4.25ZM4 5.75H7.25V10.25H4C3.5238 10.25 3.20421 10.2496 2.95674 10.2327C2.71602 10.2163 2.5988 10.1868 2.52165 10.1548C2.21536 10.028 1.97202 9.78464 1.84515 9.47835C1.81319 9.4012 1.78372 9.28398 1.76729 9.04326C1.75041 8.79579 1.75 8.4762 1.75 8C1.75 7.5238 1.75041 7.20421 1.76729 6.95674C1.78372 6.71601 1.81319 6.5988 1.84515 6.52165C1.97202 6.21536 2.21536 5.97202 2.52165 5.84515C2.5988 5.81319 2.71602 5.78371 2.95674 5.76729C3.20421 5.75041 3.5238 5.75 4 5.75ZM11 5.75H8.75V10.25H11C11.4762 10.25 11.7958 10.2496 12.0433 10.2327C12.284 10.2163 12.4012 10.1868 12.4784 10.1548C12.7846 10.028 13.028 9.78464 13.1549 9.47835C13.1868 9.4012 13.2163 9.28398 13.2327 9.04326C13.2496 8.79579 13.25 8.4762 13.25 8C13.25 7.5238 13.2496 7.20421 13.2327 6.95674C13.2163 6.71601 13.1868 6.5988 13.1549 6.52165C13.028 6.21536 12.7846 5.97202 12.4784 5.84515C12.4012 5.81319 12.284 5.78371 12.0433 5.76729C11.7958 5.75041 11.4762 5.75 11 5.75Z" fill="#525252"/>
</g>
<defs>
<clipPath id="clip0_35_8555">
<rect width="16" height="16" fill="white"/>
</clipPath>
</defs>
</svg>
