<svg width="16" height="16" viewBox="0 0 16 16" fill="none" xmlns="http://www.w3.org/2000/svg">
<rect opacity="0.2" x="1" y="5" width="4" height="6" fill="#525252"/>
<path fill-rule="evenodd" clip-rule="evenodd" d="M3.97475 4.25H4H5H11H11.0253H11.0253C11.4697 4.24999 11.8408 4.24999 12.1454 4.27077C12.4625 4.29241 12.762 4.33905 13.0524 4.45933C13.7262 4.73844 14.2616 5.27379 14.5407 5.94762C14.5839 6.05196 14.6176 6.15747 14.6441 6.26456C14.7655 6.27813 14.9145 6.30827 15.0675 6.38624C15.3027 6.50608 15.4939 6.69731 15.6138 6.93251C15.7039 7.10934 15.7301 7.28077 15.7407 7.41053C15.7501 7.52517 15.75 7.65762 15.75 7.77978L15.75 7.8V8.2L15.75 8.22022C15.75 8.34238 15.7501 8.47483 15.7407 8.58947C15.7301 8.71923 15.7039 8.89066 15.6138 9.06749C15.4939 9.30269 15.3027 9.49392 15.0675 9.61376C14.9145 9.69173 14.7655 9.72187 14.6441 9.73545C14.6176 9.84253 14.5839 9.94805 14.5407 10.0524C14.2616 10.7262 13.7262 11.2616 13.0524 11.5407C12.762 11.661 12.4625 11.7076 12.1454 11.7292C11.8408 11.75 11.4697 11.75 11.0253 11.75H11H5H4H3.97474C3.53028 11.75 3.15925 11.75 2.85464 11.7292C2.53754 11.7076 2.23801 11.661 1.94762 11.5407C1.27379 11.2616 0.73844 10.7262 0.459332 10.0524C0.339049 9.76199 0.292406 9.46247 0.27077 9.14537C0.249987 8.84076 0.249993 8.46972 0.25 8.02527V8.02525V8V7.97475V7.97474C0.249993 7.53028 0.249987 7.15925 0.27077 6.85464C0.292406 6.53754 0.339049 6.23801 0.459332 5.94762C0.73844 5.27379 1.27379 4.73844 1.94762 4.45933C2.23801 4.33905 2.53754 4.29241 2.85464 4.27077C3.15925 4.24999 3.53028 4.24999 3.97474 4.25H3.97475ZM4 5.75H4.25V10.25H4C3.5238 10.25 3.20421 10.2496 2.95674 10.2327C2.71602 10.2163 2.5988 10.1868 2.52165 10.1549C2.21536 10.028 1.97202 9.78464 1.84515 9.47835C1.81319 9.4012 1.78372 9.28399 1.76729 9.04326C1.75041 8.79579 1.75 8.4762 1.75 8C1.75 7.5238 1.75041 7.20421 1.76729 6.95674C1.78372 6.71602 1.81319 6.5988 1.84515 6.52165C1.97202 6.21536 2.21536 5.97202 2.52165 5.84515C2.5988 5.81319 2.71602 5.78372 2.95674 5.76729C3.20421 5.75041 3.5238 5.75 4 5.75ZM11 5.75H5.75V10.25H11C11.4762 10.25 11.7958 10.2496 12.0433 10.2327C12.284 10.2163 12.4012 10.1868 12.4784 10.1549C12.7846 10.028 13.028 9.78464 13.1549 9.47835C13.1868 9.4012 13.2163 9.28399 13.2327 9.04326C13.2496 8.79579 13.25 8.4762 13.25 8C13.25 7.5238 13.2496 7.20421 13.2327 6.95674C13.2163 6.71602 13.1868 6.5988 13.1549 6.52165C13.028 6.21536 12.7846 5.97202 12.4784 5.84515C12.4012 5.81319 12.284 5.78372 12.0433 5.76729C11.7958 5.75041 11.4762 5.75 11 5.75Z" fill="#525252"/>
</svg>
