<svg width="16" height="16" viewBox="0 0 16 16" fill="none" xmlns="http://www.w3.org/2000/svg">
<g clip-path="url(#clip0_35_8619)">
<rect x="1" y="5" width="13" height="6" rx="2" fill="#525252"/>
<path fill-rule="evenodd" clip-rule="evenodd" d="M4 4.25H3.97475H3.97474C3.53028 4.24999 3.15925 4.24999 2.85464 4.27077C2.53754 4.29241 2.23801 4.33905 1.94762 4.45933C1.27379 4.73844 0.73844 5.27379 0.459332 5.94762C0.339049 6.23801 0.292406 6.53754 0.27077 6.85464C0.249987 7.15925 0.249993 7.53028 0.25 7.97474V7.97475V8V8.02525V8.02527C0.249993 8.46972 0.249987 8.84076 0.27077 9.14537C0.292406 9.46247 0.339049 9.76199 0.459332 10.0524C0.73844 10.7262 1.27379 11.2616 1.94762 11.5407C2.23801 11.661 2.53754 11.7076 2.85464 11.7292C3.15925 11.75 3.53028 11.75 3.97474 11.75H4H11H11.0253C11.4697 11.75 11.8408 11.75 12.1454 11.7292C12.4625 11.7076 12.762 11.661 13.0524 11.5407C13.7262 11.2616 14.2616 10.7262 14.5407 10.0524C14.5481 10.0345 14.5552 10.0167 14.562 9.99874C15.3617 9.96622 16 9.30765 16 8.5V7.5C16 6.69235 15.3617 6.03378 14.562 6.00126C14.5552 5.98334 14.5481 5.96547 14.5407 5.94762C14.2616 5.27379 13.7262 4.73844 13.0524 4.45933C12.762 4.33905 12.4625 4.29241 12.1454 4.27077C11.8408 4.24999 11.4697 4.24999 11.0253 4.25H11.0253H11H4ZM13.2095 6.73497C13.194 6.63431 13.1749 6.57008 13.1549 6.52165C13.028 6.21536 12.7846 5.97202 12.4784 5.84515C12.4012 5.81319 12.284 5.78372 12.0433 5.76729C11.7958 5.75041 11.4762 5.75 11 5.75H4C3.5238 5.75 3.20421 5.75041 2.95674 5.76729C2.71602 5.78372 2.5988 5.81319 2.52165 5.84515C2.21536 5.97202 1.97202 6.21536 1.84515 6.52165C1.81319 6.5988 1.78372 6.71602 1.76729 6.95674C1.75041 7.20421 1.75 7.5238 1.75 8C1.75 8.4762 1.75041 8.79579 1.76729 9.04326C1.78372 9.28399 1.81319 9.4012 1.84515 9.47835C1.97202 9.78464 2.21536 10.028 2.52165 10.1549C2.5988 10.1868 2.71602 10.2163 2.95674 10.2327C3.20421 10.2496 3.5238 10.25 4 10.25H11C11.4762 10.25 11.7958 10.2496 12.0433 10.2327C12.284 10.2163 12.4012 10.1868 12.4784 10.1549C12.7846 10.028 13.028 9.78464 13.1549 9.47835C13.1749 9.42992 13.194 9.36569 13.2095 9.26503C13.0764 9.04103 13 8.77944 13 8.5V7.5C13 7.22056 13.0764 6.95897 13.2095 6.73497Z" fill="#525252"/>
</g>
<defs>
<clipPath id="clip0_35_8619">
<rect width="16" height="16" fill="white"/>
</clipPath>
</defs>
</svg>
