<svg width="16" height="16" viewBox="0 0 16 16" fill="none" xmlns="http://www.w3.org/2000/svg">
<path fill-rule="evenodd" clip-rule="evenodd" d="M4 4.25L3.97475 4.25C3.53029 4.24999 3.15925 4.24999 2.85464 4.27077C2.53754 4.2924 2.23801 4.33905 1.94762 4.45933C1.27379 4.73844 0.73844 5.27379 0.459332 5.94762C0.339049 6.23801 0.292406 6.53753 0.27077 6.85463C0.249987 7.15925 0.249993 7.53029 0.25 7.97475L0.250001 8L0.25 8.02525C0.249993 8.46971 0.249987 8.84075 0.27077 9.14536C0.292406 9.46246 0.339049 9.76199 0.459332 10.0524C0.73844 10.7262 1.27379 11.2616 1.94762 11.5407C2.23801 11.661 2.53754 11.7076 2.85464 11.7292C3.15925 11.75 3.53028 11.75 3.97474 11.75H4H11H11.0253C11.4697 11.75 11.8408 11.75 12.1454 11.7292C12.4625 11.7076 12.762 11.661 13.0524 11.5407C13.7262 11.2616 14.2616 10.7262 14.5407 10.0524C14.583 9.95016 14.6162 9.84682 14.6424 9.74197C15.2657 9.67127 15.75 9.14219 15.75 8.5V7.5C15.75 6.85781 15.2657 6.32873 14.6424 6.25803C14.6162 6.15318 14.583 6.04983 14.5407 5.94762C14.2616 5.27379 13.7262 4.73844 13.0524 4.45933C12.762 4.33905 12.4625 4.2924 12.1454 4.27077C11.8408 4.24999 11.4697 4.24999 11.0253 4.25L11 4.25H4ZM13.25 8C13.25 7.5238 13.2496 7.20421 13.2327 6.95674C13.2163 6.71601 13.1868 6.5988 13.1549 6.52165C13.028 6.21536 12.7846 5.97202 12.4784 5.84515C12.4012 5.81319 12.284 5.78371 12.0433 5.76729C11.7958 5.75041 11.4762 5.75 11 5.75H4C3.5238 5.75 3.20421 5.75041 2.95674 5.76729C2.71602 5.78371 2.5988 5.81319 2.52165 5.84515C2.21536 5.97202 1.97202 6.21536 1.84515 6.52165C1.81319 6.5988 1.78372 6.71601 1.76729 6.95674C1.75041 7.20421 1.75 7.5238 1.75 8C1.75 8.4762 1.75041 8.79579 1.76729 9.04326C1.78372 9.28398 1.81319 9.4012 1.84515 9.47835C1.97202 9.78464 2.21536 10.028 2.52165 10.1548C2.5988 10.1868 2.71602 10.2163 2.95674 10.2327C3.20421 10.2496 3.5238 10.25 4 10.25H11C11.4762 10.25 11.7958 10.2496 12.0433 10.2327C12.284 10.2163 12.4012 10.1868 12.4784 10.1548C12.7846 10.028 13.028 9.78464 13.1549 9.47835C13.1868 9.4012 13.2163 9.28398 13.2327 9.04326C13.2496 8.79579 13.25 8.4762 13.25 8Z" fill="#525252"/>
</svg>
