<svg width="16" height="16" viewBox="0 0 16 16" fill="none" xmlns="http://www.w3.org/2000/svg">
<path opacity="0.1" d="M3 4.2C3 3.07989 3 2.51984 3.21799 2.09202C3.40973 1.71569 3.71569 1.40973 4.09202 1.21799C4.51984 1 5.07989 1 6.2 1H9.8C10.9201 1 11.4802 1 11.908 1.21799C12.2843 1.40973 12.5903 1.71569 12.782 2.09202C13 2.51984 13 3.07989 13 4.2V15L8 11L3 15V4.2Z" fill="#525252"/>
<path fill-rule="evenodd" clip-rule="evenodd" d="M6.16957 0.25L6.2 0.25H9.8L9.83044 0.25C10.3646 0.249989 10.8104 0.24998 11.1747 0.279739C11.5546 0.310777 11.9112 0.377888 12.2485 0.549732C12.7659 0.813384 13.1866 1.23408 13.4503 1.75153C13.6221 2.08879 13.6892 2.44544 13.7203 2.82533C13.75 3.18956 13.75 3.6354 13.75 4.16955V4.2V15C13.75 15.2883 13.5847 15.5511 13.3249 15.676C13.065 15.8009 12.7566 15.7658 12.5315 15.5857L8 11.9605L3.46852 15.5857C3.24339 15.7658 2.93496 15.8009 2.67511 15.676C2.41526 15.5511 2.25 15.2883 2.25 15V4.2L2.25 4.16956C2.24999 3.63541 2.24998 3.18956 2.27974 2.82533C2.31078 2.44544 2.37789 2.08879 2.54973 1.75153C2.81338 1.23408 3.23408 0.813384 3.75153 0.549732C4.08879 0.377888 4.44545 0.310777 4.82533 0.279739C5.18956 0.24998 5.63541 0.249989 6.16957 0.25ZM4.94748 1.77476C4.66036 1.79822 4.52307 1.8401 4.43251 1.88624C4.19731 2.00608 4.00608 2.19731 3.88624 2.43251C3.8401 2.52307 3.79822 2.66035 3.77476 2.94748C3.75058 3.24336 3.75 3.62757 3.75 4.2V13.4395L7.53148 10.4143C7.80539 10.1952 8.19461 10.1952 8.46852 10.4143L12.25 13.4395V4.2C12.25 3.62757 12.2494 3.24336 12.2252 2.94748C12.2018 2.66035 12.1599 2.52307 12.1138 2.43251C11.9939 2.19731 11.8027 2.00608 11.5675 1.88624C11.4769 1.8401 11.3396 1.79822 11.0525 1.77476C10.7566 1.75058 10.3724 1.75 9.8 1.75H6.2C5.62757 1.75 5.24336 1.75058 4.94748 1.77476Z" fill="#525252"/>
</svg>
