<svg width="16" height="16" viewBox="0 0 16 16" fill="none" xmlns="http://www.w3.org/2000/svg">
<rect opacity="0.1" x="2" y="3" width="12" height="4" fill="#525252"/>
<path fill-rule="evenodd" clip-rule="evenodd" d="M5.75 1C5.75 0.585786 5.41421 0.25 5 0.25C4.58579 0.25 4.25 0.585786 4.25 1V2.25781C4.09769 2.26219 3.95624 2.26904 3.82533 2.27974C3.44545 2.31078 3.08879 2.37789 2.75153 2.54973C2.23408 2.81338 1.81338 3.23408 1.54973 3.75153C1.37789 4.08879 1.31078 4.44545 1.27974 4.82533C1.24998 5.18956 1.24999 5.63541 1.25 6.16957L1.25 6.2V7V11.8L1.25 11.8304C1.24999 12.3646 1.24998 12.8104 1.27974 13.1747C1.31078 13.5546 1.37789 13.9112 1.54973 14.2485C1.81338 14.7659 2.23408 15.1866 2.75153 15.4503C3.08879 15.6221 3.44545 15.6892 3.82533 15.7203C4.18955 15.75 4.63538 15.75 5.16951 15.75H5.16955H5.2H10.8H10.8305H10.8305C11.3646 15.75 11.8104 15.75 12.1747 15.7203C12.5546 15.6892 12.9112 15.6221 13.2485 15.4503C13.7659 15.1866 14.1866 14.7659 14.4503 14.2485C14.6221 13.9112 14.6892 13.5546 14.7203 13.1747C14.75 12.8105 14.75 12.3646 14.75 11.8305V11.8305V11.8V7V6.2V6.16955V6.16951C14.75 5.63538 14.75 5.18955 14.7203 4.82533C14.6892 4.44545 14.6221 4.08879 14.4503 3.75153C14.1866 3.23408 13.7659 2.81338 13.2485 2.54973C12.9112 2.37789 12.5546 2.31078 12.1747 2.27974C12.0438 2.26904 11.9023 2.26219 11.75 2.25781V1C11.75 0.585786 11.4142 0.25 11 0.25C10.5858 0.25 10.25 0.585786 10.25 1V2.25H5.75V1ZM3.43251 3.88624C3.52307 3.8401 3.66035 3.79822 3.94748 3.77476C4.24336 3.75058 4.62757 3.75 5.2 3.75H10.8C11.3724 3.75 11.7566 3.75058 12.0525 3.77476C12.3396 3.79822 12.4769 3.8401 12.5675 3.88624C12.8027 4.00608 12.9939 4.19731 13.1138 4.43251C13.1599 4.52307 13.2018 4.66035 13.2252 4.94748C13.2494 5.24336 13.25 5.62757 13.25 6.2V6.25H2.75V6.2C2.75 5.62757 2.75058 5.24336 2.77476 4.94748C2.79822 4.66035 2.8401 4.52307 2.88624 4.43251C3.00608 4.19731 3.19731 4.00608 3.43251 3.88624ZM2.75 7.75H13.25V11.8C13.25 12.3724 13.2494 12.7566 13.2252 13.0525C13.2018 13.3396 13.1599 13.4769 13.1138 13.5675C12.9939 13.8027 12.8027 13.9939 12.5675 14.1138C12.4769 14.1599 12.3396 14.2018 12.0525 14.2252C11.7566 14.2494 11.3724 14.25 10.8 14.25H5.2C4.62757 14.25 4.24336 14.2494 3.94748 14.2252C3.66035 14.2018 3.52307 14.1599 3.43251 14.1138C3.19731 13.9939 3.00608 13.8027 2.88624 13.5675C2.8401 13.4769 2.79822 13.3396 2.77476 13.0525C2.75058 12.7566 2.75 12.3724 2.75 11.8V7.75ZM5 9C4.44772 9 4 9.44771 4 10V11C4 11.5523 4.44772 12 5 12H6C6.55228 12 7 11.5523 7 11V10C7 9.44772 6.55228 9 6 9H5Z" fill="#525252"/>
</svg>
