<svg width="16" height="16" viewBox="0 0 16 16" fill="none" xmlns="http://www.w3.org/2000/svg">
<path opacity="0.1" fill-rule="evenodd" clip-rule="evenodd" d="M8.88197 2C9.56717 2 10.1936 2.38713 10.5 3C10.8064 3.61287 11.4328 4 12.118 4H12.5279C12.9666 4 13.1859 4 13.3687 4.03428C14.1794 4.18634 14.8137 4.82056 14.9657 5.63131C15 5.81406 15 6.03342 15 6.47214V10.8C15 11.9201 15 12.4802 14.782 12.908C14.5903 13.2843 14.2843 13.5903 13.908 13.782C13.4802 14 12.9201 14 11.8 14H4.2C3.0799 14 2.51984 14 2.09202 13.782C1.71569 13.5903 1.40973 13.2843 1.21799 12.908C1 12.4802 1 11.9201 1 10.8V6.47214C1 6.03342 1 5.81406 1.03428 5.63131C1.18634 4.82056 1.82056 4.18634 2.63131 4.03428C2.81406 4 3.03342 4 3.47214 4H3.88197C4.56717 4 5.19357 3.61287 5.5 3C5.80643 2.38713 6.43283 2 7.11803 2H8.88197ZM8 11C9.10457 11 10 10.1046 10 9C10 7.89543 9.10457 7 8 7C6.89543 7 6 7.89543 6 9C6 10.1046 6.89543 11 8 11Z" fill="#525252"/>
<path fill-rule="evenodd" clip-rule="evenodd" d="M4.82917 2.66459C5.26264 1.79764 6.14874 1.25 7.11802 1.25H8.88195C9.85124 1.25 10.7373 1.79764 11.1708 2.66459C11.3502 3.02337 11.7169 3.25 12.118 3.25H12.5279L12.597 3.24998C12.9679 3.2498 13.2539 3.24967 13.5069 3.29713C14.6217 3.50622 15.4938 4.37827 15.7029 5.49305C15.7503 5.74609 15.7502 6.03212 15.75 6.40294L15.75 6.47214V10.8V10.8305V10.8305C15.75 11.3646 15.75 11.8104 15.7202 12.1747C15.6892 12.5546 15.6221 12.9112 15.4503 13.2485C15.1866 13.7659 14.7659 14.1866 14.2485 14.4503C13.9112 14.6221 13.5545 14.6892 13.1747 14.7203C12.8104 14.75 12.3646 14.75 11.8305 14.75H11.8304H11.8H4.19999H4.16953H4.16949C3.63536 14.75 3.18954 14.75 2.82532 14.7203C2.44543 14.6892 2.08878 14.6221 1.75151 14.4503C1.23407 14.1866 0.81337 13.7659 0.549718 13.2485C0.377874 12.9112 0.310763 12.5546 0.279725 12.1747C0.249966 11.8104 0.249975 11.3646 0.249986 10.8304L0.249986 10.8V6.47214L0.249965 6.40295C0.249791 6.03212 0.249657 5.74609 0.297118 5.49305C0.506207 4.37827 1.37826 3.50622 2.49303 3.29713C2.74608 3.24967 3.03211 3.2498 3.40293 3.24998L3.47212 3.25H3.88195C4.28308 3.25 4.64978 3.02337 4.82917 2.66459ZM9.82917 3.33541C9.64978 2.97663 9.28308 2.75 8.88195 2.75H7.11802C6.71689 2.75 6.3502 2.97663 6.17081 3.33541C5.73733 4.20236 4.85124 4.75 3.88195 4.75H3.47212C2.9995 4.75 2.8665 4.75324 2.76955 4.77142C2.26284 4.86646 1.86645 5.26285 1.77141 5.76957C1.75323 5.86651 1.74999 5.99951 1.74999 6.47214V10.8C1.74999 11.3724 1.75057 11.7566 1.77474 12.0525C1.7982 12.3396 1.84009 12.4769 1.88623 12.5675C2.00607 12.8027 2.1973 12.9939 2.4325 13.1138C2.52306 13.1599 2.66034 13.2018 2.94746 13.2252C3.24334 13.2494 3.62756 13.25 4.19999 13.25H11.8C12.3724 13.25 12.7566 13.2494 13.0525 13.2252C13.3396 13.2018 13.4769 13.1599 13.5675 13.1138C13.8027 12.9939 13.9939 12.8027 14.1137 12.5675C14.1599 12.4769 14.2018 12.3396 14.2252 12.0525C14.2494 11.7566 14.25 11.3724 14.25 10.8V6.47214C14.25 5.99951 14.2467 5.86651 14.2286 5.76957C14.1335 5.26285 13.7371 4.86646 13.2304 4.77142C13.1335 4.75324 13.0005 4.75 12.5279 4.75H12.118C11.1487 4.75 10.2626 4.20236 9.82917 3.33541ZM7.99999 7.75C7.30963 7.75 6.74999 8.30964 6.74999 9C6.74999 9.69036 7.30963 10.25 7.99999 10.25C8.69034 10.25 9.24999 9.69036 9.24999 9C9.24999 8.30964 8.69034 7.75 7.99999 7.75ZM5.24999 9C5.24999 7.48122 6.4812 6.25 7.99999 6.25C9.51877 6.25 10.75 7.48122 10.75 9C10.75 10.5188 9.51877 11.75 7.99999 11.75C6.4812 11.75 5.24999 10.5188 5.24999 9ZM12 8C12.5523 8 13 7.55228 13 7C13 6.44772 12.5523 6 12 6C11.4477 6 11 6.44772 11 7C11 7.55228 11.4477 8 12 8Z" fill="#525252"/>
</svg>
