<svg width="16" height="16" viewBox="0 0 16 16" fill="none" xmlns="http://www.w3.org/2000/svg">
<g clip-path="url(#clip0_35_7678)">
<path opacity="0.2" d="M10.5 14C8.25 14 6 12.6 6 10.5H9.5L12 9L12.668 7.44131C14.0007 8.01184 15 9.10047 15 10.5C15 11.2849 14.6857 11.972 14.1745 12.5248C14.2736 13.0358 14.429 13.6357 14.6725 14.2605C14.8075 14.6069 14.5617 14.9976 14.1922 14.9567C12.9883 14.8237 12.1069 14.4002 11.4721 13.9138C11.1527 13.9706 10.8263 14 10.5 14Z" fill="#525252"/>
<path fill-rule="evenodd" clip-rule="evenodd" d="M1.75 6C1.75 4.77318 2.35746 3.72768 3.33546 2.96701C4.32158 2.20003 5.65739 1.75 7 1.75C8.34261 1.75 9.67842 2.20003 10.6645 2.96701C11.6425 3.72768 12.25 4.77318 12.25 6C12.25 7.22682 11.6425 8.27232 10.6645 9.03299C9.67842 9.79997 8.34261 10.25 7 10.25C6.0541 10.25 5.10642 10.0263 4.28096 9.62087C4.05943 9.51206 3.79855 9.5192 3.58331 9.63997C3.17846 9.86713 2.67706 10.06 2.05734 10.165C2.22613 9.60142 2.37133 9.01214 2.43103 8.40862C2.44758 8.24136 2.40746 8.07339 2.31712 7.93166C1.95734 7.36723 1.75 6.71958 1.75 6ZM7 0.25C5.34261 0.25 3.67842 0.799971 2.41454 1.78299C1.14254 2.77232 0.25 4.22682 0.25 6C0.25 6.92086 0.492078 7.76331 0.909054 8.49983C0.834822 9.01105 0.686497 9.54002 0.502987 10.112C0.254628 10.886 0.82304 11.8031 1.76314 11.7151C2.62552 11.6345 3.35589 11.4192 3.96952 11.1279C4.4316 11.3259 4.91783 11.4792 5.41653 11.5841C5.68586 12.4325 6.2589 13.1314 6.96566 13.6444C7.94779 14.3574 9.22994 14.75 10.5 14.75C10.5221 14.75 10.5442 14.749 10.5663 14.7471L11.3146 14.6807C11.7528 14.9086 12.8759 15.4505 14.0642 15.6619C14.5646 15.751 14.997 15.5193 15.239 15.1775C15.4717 14.849 15.5425 14.409 15.3951 13.9995C15.2282 13.536 15.0856 13.0389 14.9968 12.7093C15.4623 12.0913 15.75 11.3425 15.75 10.5C15.75 8.97242 14.8258 7.80393 13.6326 7.09232C13.7092 6.74374 13.75 6.37915 13.75 6C13.75 4.22682 12.8575 2.77232 11.5855 1.78299C10.3216 0.799971 8.65739 0.25 7 0.25ZM13.0811 8.51706C12.7035 9.17739 12.1869 9.74921 11.5855 10.217C10.3618 11.1687 8.76292 11.7146 7.15826 11.7483C7.33539 11.9984 7.56699 12.2274 7.84684 12.4306C8.54453 12.937 9.49904 13.2433 10.468 13.2499L11.2497 13.1806C11.5037 13.158 11.7493 13.214 11.9599 13.3254C12.2591 13.4835 13.01 13.8533 13.8362 14.0748C13.6948 13.6385 13.5818 13.2279 13.5152 12.9747C13.4033 12.5493 13.5348 12.1412 13.7606 11.856C14.0748 11.4592 14.25 11.0046 14.25 10.5C14.25 9.72604 13.8207 9.02536 13.0811 8.51706Z" fill="#525252"/>
</g>
<defs>
<clipPath id="clip0_35_7678">
<rect width="16" height="16" fill="white"/>
</clipPath>
</defs>
</svg>
