<svg width="16" height="16" viewBox="0 0 16 16" fill="none" xmlns="http://www.w3.org/2000/svg">
<g clip-path="url(#clip0_35_9068)">
<circle opacity="0.1" cx="8" cy="8" r="7" fill="#525252"/>
<path fill-rule="evenodd" clip-rule="evenodd" d="M1.75 8C1.75 4.54822 4.54822 1.75 8 1.75C11.4518 1.75 14.25 4.54822 14.25 8C14.25 11.4518 11.4518 14.25 8 14.25C4.54822 14.25 1.75 11.4518 1.75 8ZM8 0.25C3.71979 0.25 0.25 3.71979 0.25 8C0.25 12.2802 3.71979 15.75 8 15.75C12.2802 15.75 15.75 12.2802 15.75 8C15.75 3.71979 12.2802 0.25 8 0.25ZM11.5303 6.53033C11.8232 6.23744 11.8232 5.76256 11.5303 5.46967C11.2374 5.17678 10.7626 5.17678 10.4697 5.46967L7 8.93934L5.53033 7.46967C5.23743 7.17678 4.76256 7.17678 4.46967 7.46967C4.17677 7.76256 4.17677 8.23744 4.46967 8.53033L6.46967 10.5303C6.61032 10.671 6.80108 10.75 7 10.75C7.19891 10.75 7.38967 10.671 7.53033 10.5303L11.5303 6.53033Z" fill="#525252"/>
</g>
<defs>
<clipPath id="clip0_35_9068">
<rect width="16" height="16" fill="white"/>
</clipPath>
</defs>
</svg>
