<svg width="16" height="16" viewBox="0 0 16 16" fill="none" xmlns="http://www.w3.org/2000/svg">
<g clip-path="url(#clip0_35_9089)">
<path fill-rule="evenodd" clip-rule="evenodd" d="M5.7679 0.25L5.8 0.25H10.2L10.2321 0.25C11.0449 0.249992 11.7006 0.249986 12.2315 0.293363C12.7781 0.338025 13.2582 0.432385 13.7025 0.658726C14.4081 1.01825 14.9818 1.59193 15.3413 2.29754C15.5676 2.74175 15.662 3.22189 15.7066 3.76853C15.75 4.29944 15.75 4.95505 15.75 5.76788V5.8V10.2V10.2321C15.75 11.045 15.75 11.7006 15.7066 12.2315C15.662 12.7781 15.5676 13.2582 15.3413 13.7025C14.9818 14.4081 14.4081 14.9817 13.7025 15.3413C13.2582 15.5676 12.7781 15.662 12.2315 15.7066C11.7006 15.75 11.045 15.75 10.2321 15.75H10.2H5.8H5.76788C4.95505 15.75 4.29944 15.75 3.76853 15.7066C3.2219 15.662 2.74176 15.5676 2.29754 15.3413C1.59193 14.9817 1.01825 14.4081 0.658727 13.7025C0.432386 13.2582 0.338026 12.7781 0.293364 12.2315C0.249987 11.7006 0.249993 11.0449 0.250001 10.2321L0.250001 10.2V5.8L0.250001 5.7679C0.249993 4.95506 0.249987 4.29944 0.293364 3.76853C0.338026 3.22189 0.432386 2.74175 0.658727 2.29754C1.01825 1.59193 1.59193 1.01825 2.29754 0.658726C2.74176 0.432385 3.2219 0.338025 3.76853 0.293363C4.29944 0.249986 4.95506 0.249992 5.7679 0.25ZM3.89068 1.78838C3.43681 1.82546 3.17604 1.8946 2.97852 1.99524C2.55516 2.21095 2.21095 2.55516 1.99524 2.97852C1.8946 3.17604 1.82547 3.4368 1.78838 3.89068C1.75058 4.35331 1.75 4.94755 1.75 5.8V10.2C1.75 11.0525 1.75058 11.6467 1.78838 12.1093C1.82547 12.5632 1.8946 12.824 1.99524 13.0215C2.21095 13.4448 2.55516 13.789 2.97852 14.0048C3.17604 14.1054 3.43681 14.1745 3.89068 14.2116C4.35331 14.2494 4.94755 14.25 5.8 14.25H10.2C11.0525 14.25 11.6467 14.2494 12.1093 14.2116C12.5632 14.1745 12.824 14.1054 13.0215 14.0048C13.4448 13.789 13.7891 13.4448 14.0048 13.0215C14.1054 12.824 14.1745 12.5632 14.2116 12.1093C14.2494 11.6467 14.25 11.0525 14.25 10.2V5.8C14.25 4.94755 14.2494 4.35331 14.2116 3.89068C14.1745 3.4368 14.1054 3.17604 14.0048 2.97852C13.7891 2.55516 13.4448 2.21095 13.0215 1.99524C12.824 1.8946 12.5632 1.82546 12.1093 1.78838C11.6467 1.75058 11.0525 1.75 10.2 1.75H5.8C4.94755 1.75 4.35331 1.75058 3.89068 1.78838Z" fill="#525252"/>
</g>
<defs>
<clipPath id="clip0_35_9089">
<rect width="16" height="16" fill="white"/>
</clipPath>
</defs>
</svg>
