<svg width="16" height="16" viewBox="0 0 16 16" fill="none" xmlns="http://www.w3.org/2000/svg">
<g clip-path="url(#clip0_35_9149)">
<path fill-rule="evenodd" clip-rule="evenodd" d="M5.8 0.25L5.7679 0.25C4.95506 0.249992 4.29944 0.249986 3.76853 0.293363C3.22189 0.338025 2.74175 0.432385 2.29754 0.658726C1.59193 1.01825 1.01825 1.59193 0.658726 2.29754C0.432385 2.74175 0.338025 3.22189 0.293363 3.76853C0.249986 4.29944 0.249992 4.95506 0.25 5.7679L0.25 5.8V10.2L0.25 10.2321C0.249992 11.0449 0.249986 11.7006 0.293363 12.2315C0.338025 12.7781 0.432385 13.2582 0.658726 13.7025C1.01825 14.4081 1.59193 14.9817 2.29754 15.3413C2.74175 15.5676 3.22189 15.662 3.76853 15.7066C4.29944 15.75 4.95505 15.75 5.76788 15.75H5.8H10.2H10.2321C11.045 15.75 11.7006 15.75 12.2315 15.7066C12.7781 15.662 13.2582 15.5676 13.7025 15.3413C14.4081 14.9817 14.9817 14.4081 15.3413 13.7025C15.5676 13.2582 15.662 12.7781 15.7066 12.2315C15.75 11.7006 15.75 11.045 15.75 10.2321V10.2V5.8V5.76788C15.75 4.95505 15.75 4.29944 15.7066 3.76853C15.662 3.22189 15.5676 2.74175 15.3413 2.29754C14.9817 1.59193 14.4081 1.01825 13.7025 0.658726C13.2582 0.432385 12.7781 0.338025 12.2315 0.293363C11.7006 0.249986 11.0449 0.249992 10.2321 0.25L10.2 0.25H5.8ZM2.97852 1.99524C3.17604 1.8946 3.4368 1.82546 3.89068 1.78838C4.35331 1.75058 4.94755 1.75 5.8 1.75H10.2C11.0525 1.75 11.6467 1.75058 12.1093 1.78838C12.5632 1.82546 12.824 1.8946 13.0215 1.99524C13.4448 2.21095 13.789 2.55516 14.0048 2.97852C14.1054 3.17604 14.1745 3.4368 14.2116 3.89068C14.2494 4.35331 14.25 4.94755 14.25 5.8V10.2C14.25 11.0525 14.2494 11.6467 14.2116 12.1093C14.1745 12.5632 14.1054 12.824 14.0048 13.0215C13.789 13.4448 13.4448 13.789 13.0215 14.0048C12.824 14.1054 12.5632 14.1745 12.1093 14.2116C11.6467 14.2494 11.0525 14.25 10.2 14.25H5.8C4.94755 14.25 4.35331 14.2494 3.89068 14.2116C3.4368 14.1745 3.17604 14.1054 2.97852 14.0048C2.55516 13.789 2.21095 13.4448 1.99524 13.0215C1.8946 12.824 1.82546 12.5632 1.78838 12.1093C1.75058 11.6467 1.75 11.0525 1.75 10.2V5.8C1.75 4.94755 1.75058 4.35331 1.78838 3.89068C1.82546 3.4368 1.8946 3.17604 1.99524 2.97852C2.21095 2.55516 2.55516 2.21095 2.97852 1.99524ZM11.5303 6.53033C11.8232 6.23744 11.8232 5.76256 11.5303 5.46967C11.2374 5.17678 10.7626 5.17678 10.4697 5.46967L7 8.93934L5.53033 7.46967C5.23744 7.17678 4.76256 7.17678 4.46967 7.46967C4.17678 7.76256 4.17678 8.23744 4.46967 8.53033L6.46967 10.5303C6.61032 10.671 6.80109 10.75 7 10.75C7.19891 10.75 7.38968 10.671 7.53033 10.5303L11.5303 6.53033Z" fill="#525252"/>
</g>
<defs>
<clipPath id="clip0_35_9149">
<rect width="16" height="16" fill="white"/>
</clipPath>
</defs>
</svg>
