<svg width="16" height="16" viewBox="0 0 16 16" fill="none" xmlns="http://www.w3.org/2000/svg">
<g clip-path="url(#clip0_35_8939)">
<circle opacity="0.1" cx="8" cy="8" r="7" fill="#525252"/>
<path fill-rule="evenodd" clip-rule="evenodd" d="M1.75 8C1.75 4.54822 4.54822 1.75 8 1.75C11.4518 1.75 14.25 4.54822 14.25 8C14.25 11.4518 11.4518 14.25 8 14.25C4.54822 14.25 1.75 11.4518 1.75 8ZM8 0.25C3.71979 0.25 0.25 3.71979 0.25 8C0.25 12.2802 3.71979 15.75 8 15.75C12.2802 15.75 15.75 12.2802 15.75 8C15.75 3.71979 12.2802 0.25 8 0.25ZM8.75 4C8.75 3.58579 8.41421 3.25 8 3.25C7.58579 3.25 7.25 3.58579 7.25 4V8C7.25 8.19891 7.32902 8.38968 7.46967 8.53033L9.46967 10.5303C9.76256 10.8232 10.2374 10.8232 10.5303 10.5303C10.8232 10.2374 10.8232 9.76256 10.5303 9.46967L8.75 7.68934V4Z" fill="#525252"/>
</g>
<defs>
<clipPath id="clip0_35_8939">
<rect width="16" height="16" fill="white"/>
</clipPath>
</defs>
</svg>
