<svg width="16" height="16" viewBox="0 0 16 16" fill="none" xmlns="http://www.w3.org/2000/svg">
<g clip-path="url(#clip0_35_7977)">
<path fill-rule="evenodd" clip-rule="evenodd" d="M6 6.75H1C0.585786 6.75 0.25 6.41421 0.25 6C0.25 5.58579 0.585786 5.25 1 5.25H4.18934L0.46967 1.53033C0.176777 1.23744 0.176777 0.762563 0.46967 0.46967C0.762563 0.176777 1.23744 0.176777 1.53033 0.46967L5.25 4.18934V1C5.25 0.585786 5.58579 0.25 6 0.25C6.41421 0.25 6.75 0.585786 6.75 1V6C6.75 6.41421 6.41421 6.75 6 6.75ZM0.25 10C0.25 10.4142 0.585786 10.75 1 10.75H4.18934L0.46967 14.4697C0.176777 14.7626 0.176777 15.2374 0.46967 15.5303C0.762563 15.8232 1.23744 15.8232 1.53033 15.5303L5.25 11.8107V15C5.25 15.4142 5.58579 15.75 6 15.75C6.41421 15.75 6.75 15.4142 6.75 15V10C6.75 9.58579 6.41421 9.25 6 9.25H1C0.585786 9.25 0.25 9.58579 0.25 10ZM15 6.75H10C9.58579 6.75 9.25 6.41421 9.25 6V1C9.25 0.585786 9.58579 0.25 10 0.25C10.4142 0.25 10.75 0.585786 10.75 1V4.18934L14.4697 0.46967C14.7626 0.176777 15.2374 0.176777 15.5303 0.46967C15.8232 0.762563 15.8232 1.23744 15.5303 1.53033L11.8107 5.25H15C15.4142 5.25 15.75 5.58579 15.75 6C15.75 6.41421 15.4142 6.75 15 6.75ZM10 9.25H15C15.4142 9.25 15.75 9.58579 15.75 10C15.75 10.4142 15.4142 10.75 15 10.75H11.8107L15.5303 14.4697C15.8232 14.7626 15.8232 15.2374 15.5303 15.5303C15.2374 15.8232 14.7626 15.8232 14.4697 15.5303L10.75 11.8107V15C10.75 15.4142 10.4142 15.75 10 15.75C9.58579 15.75 9.25 15.4142 9.25 15V10C9.25 9.58579 9.58579 9.25 10 9.25Z" fill="#525252"/>
</g>
<defs>
<clipPath id="clip0_35_7977">
<rect width="16" height="16" fill="white"/>
</clipPath>
</defs>
</svg>
