<svg width="16" height="16" viewBox="0 0 16 16" fill="none" xmlns="http://www.w3.org/2000/svg">
<g clip-path="url(#clip0_35_9624)">
<path opacity="0.2" d="M12.9497 3.05025C10.2161 0.316582 5.78392 0.316582 3.05025 3.05025L12.9497 12.9497C15.6834 10.2161 15.6834 5.78392 12.9497 3.05025Z" fill="#525252"/>
<path fill-rule="evenodd" clip-rule="evenodd" d="M4.14266 3.082C5.20499 2.24761 6.54439 1.75 8 1.75C11.4518 1.75 14.25 4.54822 14.25 8C14.25 9.45561 13.7524 10.795 12.918 11.8573L4.14266 3.082ZM3.082 4.14266C2.24761 5.20499 1.75 6.54439 1.75 8C1.75 11.4518 4.54822 14.25 8 14.25C9.45561 14.25 10.795 13.7524 11.8573 12.918L3.082 4.14266ZM8 0.25C3.71979 0.25 0.25 3.71979 0.25 8C0.25 12.2802 3.71979 15.75 8 15.75C12.2802 15.75 15.75 12.2802 15.75 8C15.75 3.71979 12.2802 0.25 8 0.25Z" fill="#525252"/>
</g>
<defs>
<clipPath id="clip0_35_9624">
<rect width="16" height="16" fill="white"/>
</clipPath>
</defs>
</svg>
