<svg width="16" height="16" viewBox="0 0 16 16" fill="none" xmlns="http://www.w3.org/2000/svg">
<rect opacity="0.1" x="1" y="3" width="14" height="4" fill="#525252"/>
<path fill-rule="evenodd" clip-rule="evenodd" d="M4.2 2.25L4.16957 2.25C3.63541 2.24999 3.18956 2.24998 2.82533 2.27974C2.44545 2.31078 2.08879 2.37789 1.75153 2.54973C1.23408 2.81339 0.813385 3.23408 0.549733 3.75153C0.377889 4.08879 0.310778 4.44545 0.27974 4.82533C0.249981 5.18957 0.24999 5.63541 0.250001 6.16957L0.250001 6.2V7V9.8L0.250001 9.83044C0.24999 10.3646 0.249981 10.8104 0.27974 11.1747C0.310778 11.5546 0.377889 11.9112 0.549733 12.2485C0.813385 12.7659 1.23408 13.1866 1.75153 13.4503C2.08879 13.6221 2.44545 13.6892 2.82533 13.7203C3.18955 13.75 3.63538 13.75 4.16951 13.75H4.16955H4.2H11.8H11.8305H11.8305C12.3646 13.75 12.8105 13.75 13.1747 13.7203C13.5546 13.6892 13.9112 13.6221 14.2485 13.4503C14.7659 13.1866 15.1866 12.7659 15.4503 12.2485C15.6221 11.9112 15.6892 11.5546 15.7203 11.1747C15.75 10.8104 15.75 10.3646 15.75 9.83045V9.83041V9.8V7V6.2V6.1696V6.16956C15.75 5.63541 15.75 5.18956 15.7203 4.82533C15.6892 4.44545 15.6221 4.08879 15.4503 3.75153C15.1866 3.23408 14.7659 2.81339 14.2485 2.54973C13.9112 2.37789 13.5546 2.31078 13.1747 2.27974C12.8104 2.24998 12.3646 2.24999 11.8304 2.25L11.8 2.25H4.2ZM14.25 6.25V6.2C14.25 5.62757 14.2494 5.24336 14.2252 4.94748C14.2018 4.66036 14.1599 4.52307 14.1138 4.43251C13.9939 4.19731 13.8027 4.00609 13.5675 3.88624C13.4769 3.8401 13.3396 3.79822 13.0525 3.77476C12.7566 3.75059 12.3724 3.75 11.8 3.75H4.2C3.62757 3.75 3.24336 3.75059 2.94748 3.77476C2.66036 3.79822 2.52307 3.8401 2.43251 3.88624C2.19731 4.00609 2.00608 4.19731 1.88624 4.43251C1.8401 4.52307 1.79822 4.66036 1.77476 4.94748C1.75058 5.24336 1.75 5.62757 1.75 6.2V6.25H14.25ZM1.75 7.75H14.25V9.8C14.25 10.3724 14.2494 10.7566 14.2252 11.0525C14.2018 11.3396 14.1599 11.4769 14.1138 11.5675C13.9939 11.8027 13.8027 11.9939 13.5675 12.1138C13.4769 12.1599 13.3396 12.2018 13.0525 12.2252C12.7566 12.2494 12.3724 12.25 11.8 12.25H4.2C3.62757 12.25 3.24336 12.2494 2.94748 12.2252C2.66036 12.2018 2.52307 12.1599 2.43251 12.1138C2.19731 11.9939 2.00608 11.8027 1.88624 11.5675C1.8401 11.4769 1.79822 11.3396 1.77476 11.0525C1.75058 10.7566 1.75 10.3724 1.75 9.8V7.75Z" fill="#525252"/>
</svg>
