<svg width="16" height="16" viewBox="0 0 16 16" fill="none" xmlns="http://www.w3.org/2000/svg">
<g clip-path="url(#clip0_35_7366)">
<circle opacity="0.1" cx="8" cy="8" r="7" fill="#525252"/>
<path fill-rule="evenodd" clip-rule="evenodd" d="M8 1.75C4.54822 1.75 1.75 4.54822 1.75 8C1.75 11.4518 4.54822 14.25 8 14.25C11.4518 14.25 14.25 11.4518 14.25 8C14.25 4.54822 11.4518 1.75 8 1.75ZM0.25 8C0.25 3.71979 3.71979 0.25 8 0.25C12.2802 0.25 15.75 3.71979 15.75 8C15.75 12.2802 12.2802 15.75 8 15.75C3.71979 15.75 0.25 12.2802 0.25 8ZM5.46967 5.46967C5.76256 5.17678 6.23744 5.17678 6.53033 5.46967L8 6.93934L9.46967 5.46967C9.76256 5.17678 10.2374 5.17678 10.5303 5.46967C10.8232 5.76256 10.8232 6.23744 10.5303 6.53033L9.06066 8L10.5303 9.46967C10.8232 9.76256 10.8232 10.2374 10.5303 10.5303C10.2374 10.8232 9.76256 10.8232 9.46967 10.5303L8 9.06066L6.53033 10.5303C6.23744 10.8232 5.76256 10.8232 5.46967 10.5303C5.17678 10.2374 5.17678 9.76256 5.46967 9.46967L6.93934 8L5.46967 6.53033C5.17678 6.23744 5.17678 5.76256 5.46967 5.46967Z" fill="#525252"/>
</g>
<defs>
<clipPath id="clip0_35_7366">
<rect width="16" height="16" fill="white"/>
</clipPath>
</defs>
</svg>
