<svg width="16" height="16" viewBox="0 0 16 16" fill="none" xmlns="http://www.w3.org/2000/svg">
<path opacity="0.1" d="M8 14C11.3137 14 14 13.1046 14 12V4C14 4 11.5 6 8 6C4.5 6 2 4 2 4V12C2 13.1046 4.68629 14 8 14Z" fill="#525252"/>
<path fill-rule="evenodd" clip-rule="evenodd" d="M2.75516 4C2.76975 3.97141 2.81324 3.90711 2.93574 3.81057C3.14542 3.64532 3.49531 3.4637 3.99453 3.2973C4.98512 2.9671 6.40132 2.75 8 2.75C9.59868 2.75 11.0149 2.9671 12.0055 3.2973C12.5047 3.4637 12.8546 3.64532 13.0643 3.81057C13.1868 3.90711 13.2303 3.97141 13.2448 4C13.2303 4.02859 13.1868 4.09289 13.0643 4.18943C12.8546 4.35468 12.5047 4.5363 12.0055 4.7027C11.0149 5.0329 9.59868 5.25 8 5.25C6.40132 5.25 4.98512 5.0329 3.99453 4.7027C3.49531 4.5363 3.14542 4.35468 2.93574 4.18943C2.81324 4.09289 2.76975 4.02859 2.75516 4ZM13.2511 3.98554C13.2514 3.98388 13.2516 3.98305 13.2517 3.98306C13.2517 3.98306 13.2516 3.98389 13.2511 3.98554ZM2.74894 3.98558C2.74841 3.98391 2.74826 3.98306 2.74831 3.98306C2.74837 3.98305 2.74864 3.98389 2.74894 3.98558ZM3.52019 1.87427C4.70117 1.48061 6.28497 1.25 8 1.25C9.71503 1.25 11.2988 1.48061 12.4798 1.87427C13.0664 2.0698 13.5952 2.31915 13.9927 2.63245C14.3818 2.93909 14.75 3.39556 14.75 4V8V12C14.75 12.6044 14.3818 13.0609 13.9927 13.3675C13.5952 13.6809 13.0664 13.9302 12.4798 14.1257C11.2988 14.5194 9.71503 14.75 8 14.75C6.28497 14.75 4.70117 14.5194 3.52019 14.1257C2.93362 13.9302 2.40483 13.6809 2.00728 13.3675C1.61818 13.0609 1.25 12.6044 1.25 12V8V4C1.25 3.39556 1.61818 2.93909 2.00728 2.63245C2.40483 2.31915 2.93362 2.0698 3.52019 1.87427ZM2.75 9.81857V11.9886C2.75731 12.0078 2.79254 12.0766 2.93574 12.1894C3.14542 12.3547 3.49531 12.5363 3.99453 12.7027C4.98512 13.0329 6.40132 13.25 8 13.25C9.59868 13.25 11.0149 13.0329 12.0055 12.7027C12.5047 12.5363 12.8546 12.3547 13.0643 12.1894C13.2075 12.0766 13.2427 12.0078 13.25 11.9886V9.81857C13.0105 9.93316 12.7514 10.0352 12.4798 10.1257C11.2988 10.5194 9.71503 10.75 8 10.75C6.28497 10.75 4.70117 10.5194 3.52019 10.1257C3.24865 10.0352 2.98949 9.93316 2.75 9.81857ZM13.25 7.98859V5.81857C13.0105 5.93316 12.7514 6.03521 12.4798 6.12573C11.2988 6.51939 9.71503 6.75 8 6.75C6.28497 6.75 4.70117 6.51939 3.52019 6.12573C3.24865 6.03521 2.98949 5.93316 2.75 5.81857V7.98859C2.75731 8.00778 2.79254 8.07657 2.93574 8.18943C3.14542 8.35468 3.49531 8.5363 3.99453 8.7027C4.98512 9.0329 6.40132 9.25 8 9.25C9.59868 9.25 11.0149 9.0329 12.0055 8.7027C12.5047 8.5363 12.8546 8.35468 13.0643 8.18943C13.2075 8.07657 13.2427 8.00778 13.25 7.98859ZM13.2517 11.9831C13.2517 11.9831 13.2516 11.9839 13.2511 11.9855C13.2514 11.9839 13.2516 11.9831 13.2517 11.9831ZM2.74895 11.9856C2.74841 11.9839 2.74826 11.9831 2.74831 11.9831C2.74837 11.9831 2.74864 11.9839 2.74895 11.9856Z" fill="#525252"/>
</svg>
