<svg width="16" height="16" viewBox="0 0 16 16" fill="none" xmlns="http://www.w3.org/2000/svg">
<path opacity="0.1" d="M14 7L8 1V7H14Z" fill="#525252"/>
<path fill-rule="evenodd" clip-rule="evenodd" d="M6.67452 1.75001C6.80485 1.75001 6.91147 1.7503 7 1.75121V5.40001L7 5.4319V5.43194C6.99997 5.68431 6.99994 5.93009 7.01695 6.13824C7.03562 6.36683 7.07969 6.63656 7.21799 6.90799C7.40974 7.28431 7.7157 7.59027 8.09202 7.78202C8.36344 7.92032 8.63318 7.96438 8.86177 7.98306C9.06992 8.00007 9.3157 8.00004 9.56807 8.00001H9.5681L9.6 8.00001H13.2488C13.2497 8.08854 13.25 8.19516 13.25 8.32549V11.8C13.25 12.3724 13.2494 12.7566 13.2252 13.0525C13.2018 13.3397 13.1599 13.4769 13.1138 13.5675C12.9939 13.8027 12.8027 13.9939 12.5675 14.1138C12.4769 14.1599 12.3396 14.2018 12.0525 14.2252C11.7566 14.2494 11.3724 14.25 10.8 14.25H5.2C4.62757 14.25 4.24336 14.2494 3.94748 14.2252C3.66036 14.2018 3.52307 14.1599 3.43251 14.1138C3.19731 13.9939 3.00609 13.8027 2.88624 13.5675C2.8401 13.4769 2.79822 13.3397 2.77476 13.0525C2.75059 12.7566 2.75 12.3724 2.75 11.8V6.00001V4.20001C2.75 3.62758 2.75059 3.24336 2.77476 2.94748C2.79822 2.66036 2.8401 2.52308 2.88624 2.43252C3.00609 2.19732 3.19731 2.00609 3.43251 1.88625C3.52307 1.84011 3.66036 1.79822 3.94748 1.77476C4.24336 1.75059 4.62757 1.75001 5.2 1.75001H6.67452ZM9 3.06067L11.9393 6.00001H9.6C9.30347 6.00001 9.14122 5.99923 9.02464 5.9897L9.01145 5.98856L9.01031 5.97537C9.00078 5.85879 9 5.69653 9 5.40001V3.06067ZM6.74699 0.249979C7.16561 0.249736 7.49513 0.249544 7.81355 0.325989C8.09415 0.393355 8.3624 0.504467 8.60845 0.655246C8.88765 0.826346 9.12053 1.05949 9.41636 1.35567L9.46759 1.40693L13.5931 5.53242L13.6443 5.58364C13.9405 5.87948 14.1737 6.11235 14.3448 6.39156C14.4955 6.63761 14.6067 6.90586 14.674 7.18646C14.7505 7.50487 14.7503 7.83439 14.75 8.253V8.25302L14.75 8.32549V11.8V11.8305V11.8305C14.75 12.3646 14.75 12.8105 14.7203 13.1747C14.6892 13.5546 14.6221 13.9112 14.4503 14.2485C14.1866 14.7659 13.7659 15.1866 13.2485 15.4503C12.9112 15.6221 12.5546 15.6892 12.1747 15.7203C11.8105 15.75 11.3646 15.75 10.8305 15.75H10.8305H10.8H5.2H5.16955H5.16951C4.63538 15.75 4.18955 15.75 3.82533 15.7203C3.44545 15.6892 3.08879 15.6221 2.75153 15.4503C2.23408 15.1866 1.81339 14.7659 1.54973 14.2485C1.37789 13.9112 1.31078 13.5546 1.27974 13.1747C1.24998 12.8104 1.24999 12.3646 1.25 11.8304L1.25 11.8V6.00001V4.20001L1.25 4.16957C1.24999 3.63542 1.24998 3.18957 1.27974 2.82534C1.31078 2.44545 1.37789 2.0888 1.54973 1.75153C1.81339 1.23409 2.23408 0.81339 2.75153 0.549739C3.08879 0.377895 3.44545 0.310784 3.82533 0.279746C4.18957 0.249987 4.63541 0.249996 5.16957 0.250006L5.2 0.250007H6.67452L6.74699 0.249979ZM5 6.00001C5.55229 6.00001 6 5.55229 6 5.00001C6 4.44772 5.55229 4.00001 5 4.00001C4.44772 4.00001 4 4.44772 4 5.00001C4 5.55229 4.44772 6.00001 5 6.00001ZM4.25 11C4.25 10.5858 4.58579 10.25 5 10.25H11C11.4142 10.25 11.75 10.5858 11.75 11C11.75 11.4142 11.4142 11.75 11 11.75H5C4.58579 11.75 4.25 11.4142 4.25 11ZM5 7.25001C4.58579 7.25001 4.25 7.58579 4.25 8.00001C4.25 8.41422 4.58579 8.75001 5 8.75001H6C6.41422 8.75001 6.75 8.41422 6.75 8.00001C6.75 7.58579 6.41422 7.25001 6 7.25001H5Z" fill="#525252"/>
</svg>
