<svg width="16" height="16" viewBox="0 0 16 16" fill="none" xmlns="http://www.w3.org/2000/svg">
<path opacity="0.1" d="M14 7L8 1V7H14Z" fill="#525252"/>
<path fill-rule="evenodd" clip-rule="evenodd" d="M7 1.75121C6.91147 1.7503 6.80485 1.75001 6.67452 1.75001H5.2C4.62757 1.75001 4.24336 1.75059 3.94748 1.77476C3.66036 1.79822 3.52307 1.84011 3.43251 1.88625C3.19731 2.00609 3.00609 2.19732 2.88624 2.43252C2.8401 2.52308 2.79822 2.66036 2.77476 2.94748C2.75059 3.24336 2.75 3.62758 2.75 4.20001V6.00001V11.8C2.75 12.3724 2.75059 12.7566 2.77476 13.0525C2.79822 13.3397 2.8401 13.4769 2.88624 13.5675C3.00609 13.8027 3.19731 13.9939 3.43251 14.1138C3.52307 14.1599 3.66036 14.2018 3.94748 14.2252C4.24336 14.2494 4.62757 14.25 5.2 14.25H10.8C11.3724 14.25 11.7566 14.2494 12.0525 14.2252C12.3396 14.2018 12.4769 14.1599 12.5675 14.1138C12.8027 13.9939 12.9939 13.8027 13.1138 13.5675C13.1599 13.4769 13.2018 13.3397 13.2252 13.0525C13.2494 12.7566 13.25 12.3724 13.25 11.8V8.32549C13.25 8.19516 13.2497 8.08854 13.2488 8.00001H9.6L9.5681 8.00001H9.56807C9.3157 8.00004 9.06992 8.00007 8.86177 7.98306C8.63318 7.96438 8.36344 7.92032 8.09202 7.78202C7.7157 7.59027 7.40974 7.28431 7.21799 6.90799C7.07969 6.63656 7.03562 6.36683 7.01695 6.13824C6.99994 5.93009 6.99997 5.68431 7 5.43194V5.4319L7 5.40001V1.75121ZM11.9393 6.00001L9 3.06067V5.40001C9 5.69653 9.00078 5.85879 9.01031 5.97537L9.01145 5.98856L9.02464 5.9897C9.14122 5.99923 9.30347 6.00001 9.6 6.00001H11.9393ZM7.81355 0.325989C7.49513 0.249544 7.16561 0.249736 6.74699 0.249979L6.67452 0.250007H5.2L5.16957 0.250006C4.63541 0.249996 4.18957 0.249987 3.82533 0.279746C3.44545 0.310784 3.08879 0.377895 2.75153 0.549739C2.23408 0.81339 1.81339 1.23409 1.54973 1.75153C1.37789 2.0888 1.31078 2.44545 1.27974 2.82534C1.24998 3.18957 1.24999 3.63542 1.25 4.16957L1.25 4.20001V6.00001V11.8L1.25 11.8304C1.24999 12.3646 1.24998 12.8104 1.27974 13.1747C1.31078 13.5546 1.37789 13.9112 1.54973 14.2485C1.81339 14.7659 2.23408 15.1866 2.75153 15.4503C3.08879 15.6221 3.44545 15.6892 3.82533 15.7203C4.18955 15.75 4.63538 15.75 5.16951 15.75H5.16955H5.2H10.8H10.8305H10.8305C11.3646 15.75 11.8105 15.75 12.1747 15.7203C12.5546 15.6892 12.9112 15.6221 13.2485 15.4503C13.7659 15.1866 14.1866 14.7659 14.4503 14.2485C14.6221 13.9112 14.6892 13.5546 14.7203 13.1747C14.75 12.8105 14.75 12.3646 14.75 11.8305V11.8305V11.8V8.32549L14.75 8.25302V8.253C14.7503 7.83439 14.7505 7.50487 14.674 7.18646C14.6067 6.90586 14.4955 6.63761 14.3448 6.39156C14.1737 6.11235 13.9405 5.87948 13.6443 5.58364L13.5931 5.53242L9.46759 1.40693L9.41636 1.35567C9.12053 1.05949 8.88765 0.826346 8.60845 0.655246C8.3624 0.504467 8.09415 0.393355 7.81355 0.325989Z" fill="#525252"/>
</svg>
