<svg width="16" height="16" viewBox="0 0 16 16" fill="none" xmlns="http://www.w3.org/2000/svg">
<path fill-rule="evenodd" clip-rule="evenodd" d="M11.5303 6.53032C11.8232 6.23743 11.8232 5.76255 11.5303 5.46966C11.2374 5.17677 10.7626 5.17677 10.4697 5.46966L8.75 7.18934L8.75 2C8.75 1.58579 8.41421 1.25 8 1.25C7.58579 1.25 7.25 1.58579 7.25 2L7.25 7.18934L5.53033 5.46966C5.23744 5.17677 4.76256 5.17677 4.46967 5.46966C4.17678 5.76255 4.17678 6.23743 4.46967 6.53032L7.46967 9.53033C7.61032 9.67098 7.80109 9.75 8 9.75C8.19891 9.75 8.38968 9.67098 8.53033 9.53033L11.5303 6.53032ZM3.75 10C3.75 9.58579 3.41422 9.25 3 9.25C2.58579 9.25 2.25 9.58579 2.25 10V10.8L2.25 10.8304C2.24999 11.3646 2.24998 11.8104 2.27974 12.1747C2.31078 12.5546 2.37789 12.9112 2.54973 13.2485C2.81339 13.7659 3.23408 14.1866 3.75153 14.4503C4.08879 14.6221 4.44545 14.6892 4.82533 14.7203C5.18957 14.75 5.63542 14.75 6.16957 14.75H6.2H9.8H9.83043C10.3646 14.75 10.8104 14.75 11.1747 14.7203C11.5546 14.6892 11.9112 14.6221 12.2485 14.4503C12.7659 14.1866 13.1866 13.7659 13.4503 13.2485C13.6221 12.9112 13.6892 12.5546 13.7203 12.1747C13.75 11.8105 13.75 11.3646 13.75 10.8305V10.8305V10.8V10C13.75 9.58579 13.4142 9.25 13 9.25C12.5858 9.25 12.25 9.58579 12.25 10V10.8C12.25 11.3724 12.2494 11.7566 12.2252 12.0525C12.2018 12.3396 12.1599 12.4769 12.1138 12.5675C11.9939 12.8027 11.8027 12.9939 11.5675 13.1138C11.4769 13.1599 11.3396 13.2018 11.0525 13.2252C10.7566 13.2494 10.3724 13.25 9.8 13.25H6.2C5.62757 13.25 5.24336 13.2494 4.94748 13.2252C4.66036 13.2018 4.52307 13.1599 4.43251 13.1138C4.19731 12.9939 4.00609 12.8027 3.88624 12.5675C3.8401 12.4769 3.79822 12.3396 3.77476 12.0525C3.75059 11.7566 3.75 11.3724 3.75 10.8V10Z" fill="#525252"/>
</svg>
