<svg width="16" height="16" viewBox="0 0 16 16" fill="none" xmlns="http://www.w3.org/2000/svg">
<path opacity="0.2" d="M2 14H10V10H7L6 9V6H2V14Z" fill="#525252"/>
<path fill-rule="evenodd" clip-rule="evenodd" d="M9.2 1.25L9.16957 1.25C8.63541 1.24999 8.18957 1.24998 7.82533 1.27974C7.44545 1.31078 7.08879 1.37789 6.75153 1.54973C6.23408 1.81338 5.81339 2.23408 5.54973 2.75153C5.37789 3.08879 5.31078 3.44545 5.27974 3.82533C5.24998 4.18956 5.24999 4.6354 5.25 5.16955V5.16956L5.25 5.2V5.25H5.2L5.16957 5.25H5.16955C4.6354 5.24999 4.18956 5.24998 3.82533 5.27974C3.44545 5.31078 3.08879 5.37789 2.75153 5.54973C2.23408 5.81338 1.81339 6.23408 1.54973 6.75153C1.37789 7.08879 1.31078 7.44545 1.27974 7.82533C1.24998 8.18956 1.24999 8.63541 1.25 9.16957L1.25 9.2V10.8L1.25 10.8304C1.24999 11.3646 1.24998 11.8104 1.27974 12.1747C1.31078 12.5546 1.37789 12.9112 1.54973 13.2485C1.81339 13.7659 2.23408 14.1866 2.75153 14.4503C3.08879 14.6221 3.44545 14.6892 3.82533 14.7203C4.18955 14.75 4.63538 14.75 5.16951 14.75H5.16955H5.2H6.8H6.83045H6.8305C7.36462 14.75 7.81045 14.75 8.17467 14.7203C8.55456 14.6892 8.91121 14.6221 9.24848 14.4503C9.76592 14.1866 10.1866 13.7659 10.4503 13.2485C10.6221 12.9112 10.6892 12.5546 10.7203 12.1747C10.75 11.8105 10.75 11.3646 10.75 10.8305V10.8305V10.8V10.75H10.8H10.8305H10.8305C11.3646 10.75 11.8105 10.75 12.1747 10.7203C12.5546 10.6892 12.9112 10.6221 13.2485 10.4503C13.7659 10.1866 14.1866 9.76592 14.4503 9.24847C14.6221 8.91121 14.6892 8.55455 14.7203 8.17467C14.75 7.81045 14.75 7.36462 14.75 6.83049V6.83045V6.8V5.2V5.16955V5.16951C14.75 4.63538 14.75 4.18955 14.7203 3.82533C14.6892 3.44545 14.6221 3.08879 14.4503 2.75153C14.1866 2.23408 13.7659 1.81338 13.2485 1.54973C12.9112 1.37789 12.5546 1.31078 12.1747 1.27974C11.8104 1.24998 11.3646 1.24999 10.8304 1.25L10.8 1.25H9.2ZM9.25 10.75H9.2H9.16955H9.16951C8.63538 10.75 8.18955 10.75 7.82533 10.7203C7.44545 10.6892 7.08879 10.6221 6.75153 10.4503C6.23408 10.1866 5.81339 9.76592 5.54973 9.24847C5.37789 8.91121 5.31078 8.55455 5.27974 8.17467C5.24998 7.81044 5.24999 7.3646 5.25 6.83045V6.83043L5.25 6.8V6.75H5.2C4.62757 6.75 4.24336 6.75058 3.94748 6.77476C3.66036 6.79822 3.52307 6.8401 3.43251 6.88624C3.19731 7.00608 3.00609 7.19731 2.88624 7.43251C2.8401 7.52307 2.79822 7.66035 2.77476 7.94748C2.75059 8.24336 2.75 8.62757 2.75 9.2V10.8C2.75 11.3724 2.75059 11.7566 2.77476 12.0525C2.79822 12.3396 2.8401 12.4769 2.88624 12.5675C3.00609 12.8027 3.19731 12.9939 3.43251 13.1138C3.52307 13.1599 3.66036 13.2018 3.94748 13.2252C4.24336 13.2494 4.62757 13.25 5.2 13.25H6.8C7.37243 13.25 7.75665 13.2494 8.05252 13.2252C8.33965 13.2018 8.47693 13.1599 8.56749 13.1138C8.80269 12.9939 8.99392 12.8027 9.11376 12.5675C9.1599 12.4769 9.20179 12.3396 9.22524 12.0525C9.24942 11.7566 9.25 11.3724 9.25 10.8V10.75ZM7.43251 2.88624C7.52307 2.8401 7.66036 2.79822 7.94748 2.77476C8.24336 2.75058 8.62757 2.75 9.2 2.75H10.8C11.3724 2.75 11.7566 2.75058 12.0525 2.77476C12.3396 2.79822 12.4769 2.8401 12.5675 2.88624C12.8027 3.00608 12.9939 3.19731 13.1138 3.43251C13.1599 3.52307 13.2018 3.66035 13.2252 3.94748C13.2494 4.24336 13.25 4.62757 13.25 5.2V6.8C13.25 7.37243 13.2494 7.75664 13.2252 8.05252C13.2018 8.33965 13.1599 8.47693 13.1138 8.56749C12.9939 8.80269 12.8027 8.99392 12.5675 9.11376C12.4769 9.1599 12.3396 9.20178 12.0525 9.22524C11.7566 9.24942 11.3724 9.25 10.8 9.25H9.2C8.62757 9.25 8.24336 9.24942 7.94748 9.22524C7.66036 9.20178 7.52307 9.1599 7.43251 9.11376C7.19731 8.99392 7.00609 8.80269 6.88624 8.56749C6.8401 8.47693 6.79822 8.33965 6.77476 8.05252C6.75059 7.75664 6.75 7.37243 6.75 6.8V5.2C6.75 4.62757 6.75059 4.24336 6.77476 3.94748C6.79822 3.66035 6.8401 3.52307 6.88624 3.43251C7.00609 3.19731 7.19731 3.00608 7.43251 2.88624Z" fill="#525252"/>
</svg>
