<svg width="16" height="16" viewBox="0 0 16 16" fill="none" xmlns="http://www.w3.org/2000/svg">
<path opacity="0.1" d="M10.5 5.5C11.3055 6.3055 12.6344 6.23875 13.3636 5.36364C14.0046 4.59451 13.9579 3.45794 13.25 2.75C12.5421 2.04206 11.4055 1.99542 10.6364 2.63636C9.76125 3.36563 9.6945 4.6945 10.5 5.5Z" fill="#525252"/>
<path fill-rule="evenodd" clip-rule="evenodd" d="M10.1503 1.79348C11.1991 0.840076 12.8009 0.840076 13.8497 1.79348C13.8986 1.83787 13.9504 1.88976 14.0178 1.95714L14.0303 1.96967L14.0429 1.98221L14.0429 1.98225L14.0429 1.98228C14.1103 2.0496 14.1621 2.10146 14.2065 2.15027C15.1599 3.19914 15.1599 4.80086 14.2065 5.84973C14.1621 5.89854 14.1103 5.9504 14.0429 6.01773L14.0429 6.01777L14.0303 6.03033L12.5306 7.5301L12.5303 7.53033L12.5301 7.53056L6.93622 13.1244L6.8758 13.1849C6.41521 13.6457 6.09639 13.9647 5.71673 14.1974C5.38121 14.403 5.01542 14.5545 4.63278 14.6464C4.19981 14.7503 3.7488 14.7502 3.09725 14.75H3.09723L3.01177 14.75H2C1.58579 14.75 1.25 14.4142 1.25 14V12.9882L1.24998 12.9028C1.2498 12.2512 1.24966 11.8002 1.35361 11.3672C1.44548 10.9846 1.59699 10.6188 1.8026 10.2833C2.03526 9.90361 2.35426 9.58479 2.81511 9.12421L2.81512 9.1242L2.87556 9.06378L8.46967 3.46967L9.96967 1.96967L9.9822 1.95714C10.0496 1.88976 10.1014 1.83787 10.1503 1.79348ZM12.9697 4.96967L12 5.93934L10.0607 4L11.0303 3.03033C11.1161 2.94456 11.1405 2.92046 11.1592 2.90345C11.636 2.47009 12.364 2.47009 12.8408 2.90345C12.8595 2.92046 12.8839 2.94456 12.9697 3.03033C13.0554 3.1161 13.0795 3.14051 13.0965 3.15921C13.5299 3.63597 13.5299 4.36403 13.0965 4.84079C13.0795 4.85949 13.0554 4.8839 12.9697 4.96967ZM3.93622 10.1244L9 5.06066L10.9393 7L5.87556 12.0638C5.33146 12.6079 5.14244 12.7901 4.93298 12.9184C4.73167 13.0418 4.51219 13.1327 4.28261 13.1878C4.04374 13.2452 3.78125 13.25 3.01177 13.25H2.75V12.9882C2.75 12.2188 2.75482 11.9563 2.81217 11.7174C2.86729 11.4878 2.95819 11.2683 3.08156 11.067C3.20992 10.8576 3.39212 10.6685 3.93622 10.1244ZM9 13.25C8.58579 13.25 8.25 13.5858 8.25 14C8.25 14.4142 8.58579 14.75 9 14.75H14C14.4142 14.75 14.75 14.4142 14.75 14C14.75 13.5858 14.4142 13.25 14 13.25H9Z" fill="#525252"/>
</svg>
