<svg width="16" height="16" viewBox="0 0 16 16" fill="none" xmlns="http://www.w3.org/2000/svg">
<path opacity="0.1" d="M8 9L1 4V13H15V4L8 9Z" fill="#525252"/>
<path fill-rule="evenodd" clip-rule="evenodd" d="M4.2 2.25L4.16957 2.25C3.63541 2.24999 3.18956 2.24998 2.82533 2.27974C2.44545 2.31077 2.08879 2.37789 1.75153 2.54973C1.23408 2.81338 0.813385 3.23408 0.549733 3.75152C0.377889 4.08879 0.310778 4.44544 0.27974 4.82533C0.249981 5.18956 0.24999 5.63541 0.250001 6.16956L0.250001 6.2V9.8L0.250001 9.83043C0.24999 10.3646 0.249981 10.8104 0.27974 11.1747C0.310778 11.5546 0.377889 11.9112 0.549733 12.2485C0.813385 12.7659 1.23408 13.1866 1.75153 13.4503C2.08879 13.6221 2.44545 13.6892 2.82533 13.7203C3.18955 13.75 3.63538 13.75 4.16951 13.75H4.16955H4.2H11.8H11.8305H11.8305C12.3646 13.75 12.8105 13.75 13.1747 13.7203C13.5546 13.6892 13.9112 13.6221 14.2485 13.4503C14.7659 13.1866 15.1866 12.7659 15.4503 12.2485C15.6221 11.9112 15.6892 11.5546 15.7203 11.1747C15.75 10.8104 15.75 10.3646 15.75 9.83044V9.8304V9.8V6.2V6.16959V6.16955C15.75 5.6354 15.75 5.18956 15.7203 4.82533C15.6892 4.44544 15.6221 4.08879 15.4503 3.75152C15.1866 3.23408 14.7659 2.81338 14.2485 2.54973C13.9112 2.37789 13.5546 2.31077 13.1747 2.27974C12.8104 2.24998 12.3646 2.24999 11.8304 2.25L11.8 2.25H4.2ZM2.43251 3.88624C2.52307 3.8401 2.66036 3.79821 2.94748 3.77476C3.24336 3.75058 3.62757 3.75 4.2 3.75H11.8C12.3724 3.75 12.7566 3.75058 13.0525 3.77476C13.3396 3.79821 13.4769 3.8401 13.5675 3.88624C13.6593 3.93304 13.7445 3.99073 13.8213 4.05767L8 8.0878L2.1787 4.05767C2.25551 3.99073 2.34066 3.93304 2.43251 3.88624ZM1.75185 5.58655C1.7501 5.76423 1.75 5.96645 1.75 6.2V9.8C1.75 10.3724 1.75058 10.7566 1.77476 11.0525C1.79822 11.3396 1.8401 11.4769 1.88624 11.5675C2.00608 11.8027 2.19731 11.9939 2.43251 12.1138C2.52307 12.1599 2.66036 12.2018 2.94748 12.2252C3.24336 12.2494 3.62757 12.25 4.2 12.25H11.8C12.3724 12.25 12.7566 12.2494 13.0525 12.2252C13.3396 12.2018 13.4769 12.1599 13.5675 12.1138C13.8027 11.9939 13.9939 11.8027 14.1138 11.5675C14.1599 11.4769 14.2018 11.3396 14.2252 11.0525C14.2494 10.7566 14.25 10.3724 14.25 9.8V6.2C14.25 5.96645 14.2499 5.76423 14.2481 5.58655L8.71151 9.41961C8.28346 9.71595 7.71655 9.71595 7.28849 9.41961L1.75185 5.58655Z" fill="#525252"/>
</svg>
