<svg width="16" height="16" viewBox="0 0 16 16" fill="none" xmlns="http://www.w3.org/2000/svg">
<g clip-path="url(#clip0_35_7952)">
<path fill-rule="evenodd" clip-rule="evenodd" d="M6.75 1C6.75 1.41421 6.41421 1.75 6 1.75H2.81066L6.53033 5.46967C6.82322 5.76256 6.82322 6.23744 6.53033 6.53033C6.23744 6.82322 5.76256 6.82322 5.46967 6.53033L1.75 2.81066V6C1.75 6.41421 1.41421 6.75 1 6.75C0.585786 6.75 0.25 6.41421 0.25 6V1C0.25 0.585786 0.585786 0.25 1 0.25H6C6.41421 0.25 6.75 0.585786 6.75 1ZM6.75 15C6.75 14.5858 6.41421 14.25 6 14.25H2.81066L6.53033 10.5303C6.82322 10.2374 6.82322 9.76256 6.53033 9.46967C6.23744 9.17678 5.76256 9.17678 5.46967 9.46967L1.75 13.1893V10C1.75 9.58579 1.41421 9.25 1 9.25C0.585786 9.25 0.25 9.58579 0.25 10V15C0.25 15.4142 0.585786 15.75 1 15.75H6C6.41421 15.75 6.75 15.4142 6.75 15ZM10 1.75C9.58579 1.75 9.25 1.41421 9.25 1C9.25 0.585786 9.58579 0.25 10 0.25H15C15.4142 0.25 15.75 0.585786 15.75 1V6C15.75 6.41421 15.4142 6.75 15 6.75C14.5858 6.75 14.25 6.41421 14.25 6V2.81066L10.5303 6.53033C10.2374 6.82322 9.76256 6.82322 9.46967 6.53033C9.17678 6.23744 9.17678 5.76256 9.46967 5.46967L13.1893 1.75H10ZM15 15.75H10C9.58579 15.75 9.25 15.4142 9.25 15C9.25 14.5858 9.58579 14.25 10 14.25H13.1893L9.46967 10.5303C9.17678 10.2374 9.17678 9.76256 9.46967 9.46967C9.76256 9.17678 10.2374 9.17678 10.5303 9.46967L14.25 13.1893V10C14.25 9.58579 14.5858 9.25 15 9.25C15.4142 9.25 15.75 9.58579 15.75 10V15C15.75 15.4142 15.4142 15.75 15 15.75Z" fill="#525252"/>
</g>
<defs>
<clipPath id="clip0_35_7952">
<rect width="16" height="16" fill="white"/>
</clipPath>
</defs>
</svg>
