<svg width="16" height="16" viewBox="0 0 16 16" fill="none" xmlns="http://www.w3.org/2000/svg">
<path fill-rule="evenodd" clip-rule="evenodd" d="M10 1.25C9.58579 1.25 9.25 1.58579 9.25 2C9.25 2.41421 9.58579 2.75 10 2.75H12.1893L7.46967 7.46967C7.17678 7.76256 7.17678 8.23744 7.46967 8.53033C7.76256 8.82322 8.23744 8.82322 8.53033 8.53033L13.25 3.81066V6C13.25 6.41421 13.5858 6.75 14 6.75C14.4142 6.75 14.75 6.41421 14.75 6V2C14.75 1.58579 14.4142 1.25 14 1.25H10ZM6.8 3.25L6.7679 3.25C5.95506 3.24999 5.29944 3.24999 4.76853 3.29336C4.2219 3.33803 3.74176 3.43238 3.29754 3.65873C2.59193 4.01825 2.01825 4.59193 1.65873 5.29754C1.43239 5.74175 1.33803 6.2219 1.29336 6.76853C1.24999 7.29944 1.24999 7.95506 1.25 8.7679L1.25 8.8V9.2L1.25 9.23211C1.24999 10.0449 1.24999 10.7006 1.29336 11.2315C1.33803 11.7781 1.43239 12.2582 1.65873 12.7025C2.01825 13.4081 2.59193 13.9817 3.29754 14.3413C3.74176 14.5676 4.2219 14.662 4.76853 14.7066C5.29944 14.75 5.95505 14.75 6.76788 14.75H6.8H7.2H7.23212C8.04496 14.75 8.70056 14.75 9.23147 14.7066C9.77811 14.662 10.2582 14.5676 10.7025 14.3413C11.4081 13.9817 11.9818 13.4081 12.3413 12.7025C12.5676 12.2582 12.662 11.7781 12.7066 11.2315C12.75 10.7006 12.75 10.045 12.75 9.23212V9.2V9C12.75 8.58579 12.4142 8.25 12 8.25C11.5858 8.25 11.25 8.58579 11.25 9V9.2C11.25 10.0525 11.2494 10.6467 11.2116 11.1093C11.1745 11.5632 11.1054 11.824 11.0048 12.0215C10.7891 12.4448 10.4448 12.789 10.0215 13.0048C9.82396 13.1054 9.5632 13.1745 9.10932 13.2116C8.64669 13.2494 8.05246 13.25 7.2 13.25H6.8C5.94755 13.25 5.35331 13.2494 4.89068 13.2116C4.43681 13.1745 4.17604 13.1054 3.97852 13.0048C3.55516 12.789 3.21095 12.4448 2.99524 12.0215C2.8946 11.824 2.82547 11.5632 2.78838 11.1093C2.75058 10.6467 2.75 10.0525 2.75 9.2V8.8C2.75 7.94755 2.75058 7.35331 2.78838 6.89068C2.82547 6.4368 2.8946 6.17604 2.99524 5.97852C3.21095 5.55516 3.55516 5.21095 3.97852 4.99524C4.17604 4.8946 4.43681 4.82546 4.89068 4.78838C5.35331 4.75058 5.94755 4.75 6.8 4.75H7C7.41421 4.75 7.75 4.41421 7.75 4C7.75 3.58579 7.41421 3.25 7 3.25H6.8Z" fill="#525252"/>
</svg>
