<svg width="16" height="16" viewBox="0 0 16 16" fill="none" xmlns="http://www.w3.org/2000/svg">
<path fill-rule="evenodd" clip-rule="evenodd" d="M2.53033 1.46967C2.23744 1.17678 1.76256 1.17678 1.46967 1.46967C1.17678 1.76256 1.17678 2.23744 1.46967 2.53033L13.4697 14.5303C13.7626 14.8232 14.2374 14.8232 14.5303 14.5303C14.8232 14.2374 14.8232 13.7626 14.5303 13.4697L2.53033 1.46967ZM6.88398 3.91019C7.25252 3.80651 7.62504 3.75 8 3.75C9.62467 3.75 11.1901 4.81727 12.423 6.03385C13.0239 6.62681 13.5127 7.22251 13.8515 7.67092C13.9438 7.79307 14.0247 7.9038 14.0932 8C14.0583 8.04896 14.0202 8.1017 13.9791 8.1578C13.7223 8.50788 13.3481 8.98524 12.8813 9.49162C12.6005 9.79616 12.6198 10.2706 12.9243 10.5514C13.2289 10.8322 13.7033 10.8129 13.9841 10.5084C14.4971 9.95191 14.9067 9.42926 15.1885 9.04506C15.3297 8.85262 15.4395 8.694 15.5149 8.58209C15.5526 8.52612 15.5818 8.48175 15.602 8.45061L15.6256 8.41398L15.6323 8.40345L15.6343 8.4002L15.635 8.39909L15.6353 8.39866L15.6354 8.39848C15.6354 8.3984 15.6355 8.39832 15 8L15.6355 8.39832C15.7882 8.15472 15.7882 7.84528 15.6355 7.60168L15 8C15.6355 7.60168 15.6354 7.60149 15.6352 7.60128L15.6349 7.60076L15.634 7.59938L15.6314 7.59527L15.6228 7.58169C15.6189 7.57552 15.614 7.56798 15.6083 7.55914C15.6035 7.55167 15.598 7.54327 15.592 7.53397C15.5654 7.49332 15.527 7.43536 15.4774 7.36256C15.3781 7.21705 15.2335 7.01176 15.0483 6.76658C14.6787 6.27749 14.1424 5.62319 13.4765 4.96615C12.1759 3.68273 10.2413 2.25 8 2.25C7.47308 2.25 6.96364 2.32955 6.47776 2.46624C6.07902 2.57841 5.84672 2.99259 5.95889 3.39132C6.07107 3.79006 6.48524 4.02236 6.88398 3.91019ZM14.3648 8.3988C14.3649 8.39887 14.3649 8.39886 14.3648 8.39878L14.3648 8.3988ZM3.11872 6.50838C3.39948 6.20384 3.38022 5.72936 3.07568 5.44859C2.77114 5.16782 2.29666 5.18709 2.01589 5.49162C1.50286 6.04809 1.09332 6.57074 0.811465 6.95494C0.670288 7.14738 0.560483 7.306 0.485088 7.41791C0.447375 7.47388 0.418222 7.51825 0.398011 7.54939L0.374431 7.58602L0.367748 7.59655L0.365699 7.5998L0.364999 7.60091L0.36473 7.60134L0.364617 7.60152C0.364565 7.6016 0.364516 7.60168 1 8L0.364516 7.60168C0.211828 7.84528 0.211828 8.15472 0.364516 8.39832L1 8C0.364516 8.39832 0.364636 8.39851 0.364769 8.39872L0.365093 8.39924L0.36596 8.40062L0.368559 8.40473L0.377196 8.41831C0.384474 8.42969 0.394782 8.4457 0.408047 8.46603C0.434574 8.50668 0.472955 8.56464 0.522606 8.63744C0.621853 8.78295 0.766452 8.98824 0.951726 9.23342C1.32132 9.72251 1.85762 10.3768 2.52346 11.0338C3.82408 12.3173 5.75868 13.75 8 13.75C8.39659 13.75 8.78347 13.7049 9.15794 13.6243C9.56286 13.537 9.82041 13.1381 9.73318 12.7331C9.64596 12.3282 9.24699 12.0707 8.84206 12.1579C8.56332 12.2179 8.28245 12.25 8 12.25C6.37533 12.25 4.80992 11.1827 3.57704 9.96615C2.97613 9.37319 2.48731 8.77749 2.14846 8.32908C2.05616 8.20693 1.97535 8.0962 1.90679 8C1.94169 7.95104 1.97976 7.8983 2.02092 7.8422C2.27774 7.49212 2.65185 7.01476 3.11872 6.50838Z" fill="#525252"/>
</svg>
