<svg width="16" height="16" viewBox="0 0 16 16" fill="none" xmlns="http://www.w3.org/2000/svg">
<circle opacity="0.1" cx="8" cy="8" r="2" fill="#525252"/>
<path fill-rule="evenodd" clip-rule="evenodd" d="M2.14846 8.32908C2.05616 8.20693 1.97535 8.0962 1.90679 8C1.97535 7.9038 2.05616 7.79307 2.14846 7.67092C2.48731 7.22251 2.97613 6.62681 3.57704 6.03385C4.80992 4.81727 6.37533 3.75 8 3.75C9.62467 3.75 11.1901 4.81727 12.423 6.03385C13.0239 6.62681 13.5127 7.22251 13.8515 7.67092C13.9438 7.79307 14.0247 7.9038 14.0932 8C14.0247 8.09619 13.9438 8.20693 13.8515 8.32908C13.5127 8.77749 13.0239 9.37319 12.423 9.96615C11.1901 11.1827 9.62467 12.25 8 12.25C6.37533 12.25 4.80992 11.1827 3.57704 9.96615C2.97613 9.37319 2.48731 8.77749 2.14846 8.32908ZM15.6352 7.60128C15.6354 7.60149 15.6355 7.60168 15 8C15.6355 8.39832 15.6354 8.39851 15.6352 8.39872L15.6349 8.39924L15.634 8.40062L15.6314 8.40473L15.6228 8.41831C15.6155 8.42969 15.6052 8.4457 15.592 8.46603C15.5654 8.50668 15.527 8.56464 15.4774 8.63744C15.3781 8.78295 15.2335 8.98824 15.0483 9.23342C14.6787 9.72251 14.1424 10.3768 13.4765 11.0338C12.1759 12.3173 10.2413 13.75 8 13.75C5.75868 13.75 3.82408 12.3173 2.52346 11.0338C1.85762 10.3768 1.32132 9.72251 0.951726 9.23342C0.766452 8.98824 0.621853 8.78295 0.522606 8.63744C0.472955 8.56464 0.434574 8.50668 0.408047 8.46603C0.394782 8.4457 0.384474 8.42969 0.377196 8.41831L0.368559 8.40473L0.36596 8.40062L0.365093 8.39924L0.364769 8.39872C0.364636 8.39851 0.364516 8.39832 1 8C0.364516 7.60168 0.364636 7.60149 0.364769 7.60128L0.365093 7.60076L0.36596 7.59938L0.368559 7.59527L0.377196 7.58169C0.384474 7.57031 0.394782 7.5543 0.408047 7.53397C0.434574 7.49332 0.472955 7.43536 0.522606 7.36256C0.621853 7.21705 0.766452 7.01176 0.951726 6.76658C1.32132 6.27749 1.85762 5.62319 2.52346 4.96615C3.82408 3.68273 5.75868 2.25 8 2.25C10.2413 2.25 12.1759 3.68273 13.4765 4.96615C14.1424 5.62319 14.6787 6.27749 15.0483 6.76658C15.2335 7.01176 15.3781 7.21705 15.4774 7.36256C15.527 7.43536 15.5654 7.49332 15.592 7.53397C15.6052 7.5543 15.6155 7.57031 15.6228 7.58169L15.6314 7.59527L15.634 7.59938L15.6349 7.60076L15.6352 7.60128ZM15 8L15.6355 7.60168C15.7882 7.84528 15.7882 8.15472 15.6355 8.39832L15 8ZM0.364516 7.60168L1 8L0.364516 8.39832C0.211828 8.15472 0.211828 7.84528 0.364516 7.60168ZM14.3648 8.3988C14.3649 8.39887 14.3649 8.39886 14.3648 8.39878L14.3648 8.3988ZM6.75 8C6.75 7.30964 7.30964 6.75 8 6.75C8.69036 6.75 9.25 7.30964 9.25 8C9.25 8.69036 8.69036 9.25 8 9.25C7.30964 9.25 6.75 8.69036 6.75 8ZM8 5.25C6.48122 5.25 5.25 6.48122 5.25 8C5.25 9.51878 6.48122 10.75 8 10.75C9.51878 10.75 10.75 9.51878 10.75 8C10.75 6.48122 9.51878 5.25 8 5.25Z" fill="#525252"/>
</svg>
