<svg width="16" height="16" viewBox="0 0 16 16" fill="none" xmlns="http://www.w3.org/2000/svg">
<path fill-rule="evenodd" clip-rule="evenodd" d="M1.58988 5.53684C1.33431 5.21132 0.863276 5.15432 0.537424 5.40963C0.211371 5.66509 0.154146 6.13651 0.40961 6.46256L0.999982 6C0.40961 6.46256 0.409757 6.46275 0.409917 6.46295L0.410296 6.46343L0.411273 6.46468L0.414093 6.46825L0.423179 6.47967L0.454954 6.51899C0.482106 6.55228 0.521137 6.59943 0.571458 6.65845C0.672048 6.77644 0.818078 6.94227 1.00486 7.14001C1.37757 7.53459 1.91697 8.06091 2.58552 8.58868C2.75122 8.71949 2.92635 8.85156 3.11025 8.98252L1.37594 11.584C1.14618 11.9286 1.23931 12.3943 1.58396 12.624C1.9286 12.8538 2.39426 12.7607 2.62402 12.416L4.38529 9.77412C5.23972 10.2273 6.20774 10.5859 7.24998 10.7064V13C7.24998 13.4142 7.58577 13.75 7.99998 13.75C8.4142 13.75 8.74998 13.4142 8.74998 13V10.7064C9.79223 10.5859 10.7602 10.2273 11.6147 9.77412L13.3759 12.416C13.6057 12.7607 14.0714 12.8538 14.416 12.624C14.7607 12.3943 14.8538 11.9286 14.624 11.584L12.8897 8.98252C13.0736 8.85156 13.2487 8.71949 13.4144 8.58868C14.083 8.06091 14.6224 7.53459 14.9951 7.14001C15.1819 6.94227 15.3279 6.77644 15.4285 6.65845C15.4788 6.59943 15.5179 6.55228 15.545 6.51899L15.5768 6.47967L15.5859 6.46825L15.5887 6.46468L15.5897 6.46343L15.59 6.46295C15.5902 6.46275 15.5904 6.46256 15 6L15.5904 6.46256C15.8458 6.13651 15.7886 5.66509 15.4625 5.40963C15.1366 5.15424 14.6654 5.21135 14.4098 5.53714L14.4096 5.53744L14.4095 5.53755L14.405 5.54328L14.3827 5.57085C14.362 5.59616 14.33 5.63495 14.287 5.6853C14.2011 5.78606 14.0721 5.93273 13.9047 6.10999C13.5689 6.46541 13.0832 6.93909 12.485 7.41132C11.2697 8.37072 9.6845 9.24973 8.00078 9.25H7.99998C6.31597 9.25 4.73045 8.37087 3.51495 7.41132C2.91675 6.93909 2.43102 6.46541 2.0953 6.10999C1.92786 5.93273 1.79884 5.78606 1.71294 5.6853C1.67001 5.63495 1.63794 5.59616 1.61729 5.57085L1.595 5.54328L1.59044 5.53755L1.59012 5.53714L1.58996 5.53693L1.58988 5.53684ZM1.59012 5.53714L1.59036 5.53744L0.999982 6C1.59036 5.53744 1.59023 5.53729 1.59012 5.53714Z" fill="#525252"/>
</svg>
