<svg width="16" height="16" viewBox="0 0 16 16" fill="none" xmlns="http://www.w3.org/2000/svg">
<g clip-path="url(#clip0_35_9170)">
<circle opacity="0.1" cx="8" cy="8" r="7" fill="#525252"/>
<path fill-rule="evenodd" clip-rule="evenodd" d="M1.75 8C1.75 4.54822 4.54822 1.75 8 1.75C11.4518 1.75 14.25 4.54822 14.25 8C14.25 11.4518 11.4518 14.25 8 14.25C4.54822 14.25 1.75 11.4518 1.75 8ZM8 0.25C3.71979 0.25 0.25 3.71979 0.25 8C0.25 12.2802 3.71979 15.75 8 15.75C12.2802 15.75 15.75 12.2802 15.75 8C15.75 3.71979 12.2802 0.25 8 0.25ZM6 7C6.55228 7 7 6.55228 7 6C7 5.44772 6.55228 5 6 5C5.44772 5 5 5.44772 5 6C5 6.55228 5.44772 7 6 7ZM11 6C11 6.55228 10.5523 7 10 7C9.44771 7 9 6.55228 9 6C9 5.44772 9.44771 5 10 5C10.5523 5 11 5.44772 11 6ZM5.66459 8.32918C6.03046 8.14624 6.47437 8.29042 6.66378 8.65085L6.6655 8.65374C6.67055 8.66205 6.68235 8.68063 6.70156 8.70625C6.74024 8.75782 6.80671 8.8349 6.90602 8.91435C7.09512 9.06563 7.43219 9.25 8 9.25C8.56781 9.25 8.90488 9.06563 9.09398 8.91435C9.19329 8.8349 9.25976 8.75782 9.29844 8.70625C9.31765 8.68063 9.32945 8.66205 9.3345 8.65374L9.33622 8.65086C9.52563 8.29042 9.96954 8.14624 10.3354 8.32918C10.7059 8.51442 10.8561 8.96493 10.6708 9.33541L10 9C10.6708 9.33541 10.6706 9.33581 10.6704 9.33621L10.67 9.33703L10.6691 9.33875L10.6672 9.34248L10.6628 9.35107L10.6512 9.37267C10.6422 9.38895 10.6308 9.40898 10.6167 9.4322C10.5885 9.47858 10.5495 9.53812 10.4984 9.60625C10.3965 9.74218 10.2442 9.9151 10.031 10.0857C9.59512 10.4344 8.93219 10.75 8 10.75C7.06781 10.75 6.40488 10.4344 5.96898 10.0857C5.75579 9.9151 5.60351 9.74218 5.50156 9.60625C5.45046 9.53812 5.41148 9.47858 5.38332 9.4322C5.36922 9.40898 5.35778 9.38895 5.34882 9.37267L5.33721 9.35107L5.33276 9.34248L5.33086 9.33875L5.32999 9.33703L5.32958 9.33621C5.32938 9.33581 5.32918 9.33541 6 9L5.32918 9.33541C5.14394 8.96493 5.29411 8.51442 5.66459 8.32918Z" fill="#525252"/>
</g>
<defs>
<clipPath id="clip0_35_9170">
<rect width="16" height="16" fill="white"/>
</clipPath>
</defs>
</svg>
