<svg width="16" height="16" viewBox="0 0 16 16" fill="none" xmlns="http://www.w3.org/2000/svg">
<g clip-path="url(#clip0_35_9193)">
<path opacity="0.1" fill-rule="evenodd" clip-rule="evenodd" d="M8 15C11.866 15 15 11.866 15 8C15 4.13401 11.866 1 8 1C4.13401 1 1 4.13401 1 8C1 11.866 4.13401 15 8 15ZM5 9C5 9 5 12 8 12C11 12 11 9 11 9H5Z" fill="#525252"/>
<path fill-rule="evenodd" clip-rule="evenodd" d="M1.75 8C1.75 4.54822 4.54822 1.75 8 1.75C11.4518 1.75 14.25 4.54822 14.25 8C14.25 11.4518 11.4518 14.25 8 14.25C4.54822 14.25 1.75 11.4518 1.75 8ZM8 0.25C3.71979 0.25 0.25 3.71979 0.25 8C0.25 12.2802 3.71979 15.75 8 15.75C12.2802 15.75 15.75 12.2802 15.75 8C15.75 3.71979 12.2802 0.25 8 0.25ZM6 7C6.55228 7 7 6.55228 7 6C7 5.44772 6.55228 5 6 5C5.44772 5 5 5.44772 5 6C5 6.55228 5.44772 7 6 7ZM11 6C11 6.55228 10.5523 7 10 7C9.44771 7 9 6.55228 9 6C9 5.44772 9.44771 5 10 5C10.5523 5 11 5.44772 11 6ZM5 8.25C4.79635 8.25 4.60145 8.33282 4.4601 8.47942C4.31874 8.62602 4.24308 8.82381 4.2505 9.02733L5 9C4.2505 9.02733 4.25051 9.02769 4.25053 9.02807L4.25056 9.02888L4.25063 9.03071L4.25082 9.03522L4.25141 9.04755C4.25192 9.05722 4.25265 9.06977 4.25369 9.085C4.25578 9.11545 4.25913 9.15678 4.26447 9.20743C4.27511 9.30852 4.29377 9.44814 4.32641 9.61375C4.39101 9.9416 4.51382 10.3891 4.75012 10.8451C4.98744 11.303 5.34789 11.7856 5.89222 12.1529C6.44266 12.5244 7.14006 12.75 8 12.75C8.85994 12.75 9.55733 12.5244 10.1078 12.1529C10.6521 11.7856 11.0126 11.303 11.2499 10.8451C11.4862 10.3891 11.609 9.9416 11.6736 9.61375C11.7062 9.44814 11.7249 9.30852 11.7355 9.20743C11.7409 9.15678 11.7442 9.11545 11.7463 9.085C11.7474 9.06977 11.7481 9.05722 11.7486 9.04755L11.7492 9.03522L11.7494 9.03071L11.7494 9.02888L11.7495 9.02807C11.7495 9.02769 11.7495 9.02733 11 9L11.7495 9.02733C11.7569 8.82381 11.6813 8.62602 11.5399 8.47942C11.3985 8.33282 11.2037 8.25 11 8.25H8H5ZM6.08191 10.1549C6.0116 10.0192 5.9556 9.88178 5.91112 9.75H8H10.0889C10.0444 9.88178 9.9884 10.0192 9.91809 10.1549C9.76674 10.447 9.55785 10.7144 9.26868 10.9096C8.98563 11.1006 8.58537 11.25 8 11.25C7.41463 11.25 7.01437 11.1006 6.73132 10.9096C6.44215 10.7144 6.23326 10.447 6.08191 10.1549Z" fill="#525252"/>
</g>
<defs>
<clipPath id="clip0_35_9193">
<rect width="16" height="16" fill="white"/>
</clipPath>
</defs>
</svg>
