<svg width="16" height="16" viewBox="0 0 16 16" fill="none" xmlns="http://www.w3.org/2000/svg">
<g clip-path="url(#clip0_35_9218)">
<circle opacity="0.1" cx="8" cy="8" r="7" fill="#525252"/>
<path fill-rule="evenodd" clip-rule="evenodd" d="M1.75 8C1.75 4.54822 4.54822 1.75 8 1.75C11.4518 1.75 14.25 4.54822 14.25 8C14.25 11.4518 11.4518 14.25 8 14.25C4.54822 14.25 1.75 11.4518 1.75 8ZM8 0.25C3.71979 0.25 0.25 3.71979 0.25 8C0.25 12.2802 3.71979 15.75 8 15.75C12.2802 15.75 15.75 12.2802 15.75 8C15.75 3.71979 12.2802 0.25 8 0.25ZM6 7C6.55228 7 7 6.55228 7 6C7 5.44772 6.55228 5 6 5C5.44772 5 5 5.44772 5 6C5 6.55228 5.44772 7 6 7ZM11 6C11 6.55228 10.5523 7 10 7C9.44771 7 9 6.55228 9 6C9 5.44772 9.44771 5 10 5C10.5523 5 11 5.44772 11 6ZM5.66459 10.6708C6.03046 10.8538 6.47437 10.7096 6.66378 10.3491L6.6655 10.3463C6.67055 10.338 6.68235 10.3194 6.70156 10.2937C6.74024 10.2422 6.80671 10.1651 6.90602 10.0857C7.09512 9.93437 7.43219 9.75 8 9.75C8.56781 9.75 8.90488 9.93437 9.09398 10.0857C9.19329 10.1651 9.25976 10.2422 9.29844 10.2937C9.31765 10.3194 9.32945 10.338 9.3345 10.3463L9.33622 10.3491C9.52563 10.7096 9.96954 10.8538 10.3354 10.6708C10.7059 10.4856 10.8561 10.0351 10.6708 9.66459L10 10C10.6708 9.66459 10.6706 9.66419 10.6704 9.66379L10.67 9.66297L10.6691 9.66125L10.6672 9.65752L10.6628 9.64893L10.6512 9.62733C10.6422 9.61105 10.6308 9.59102 10.6167 9.5678C10.5885 9.52142 10.5495 9.46188 10.4984 9.39375C10.3965 9.25782 10.2442 9.0849 10.031 8.91435C9.59512 8.56563 8.93219 8.25 8 8.25C7.06781 8.25 6.40488 8.56563 5.96898 8.91435C5.75579 9.0849 5.60351 9.25782 5.50156 9.39375C5.45046 9.46188 5.41148 9.52142 5.38332 9.5678C5.36922 9.59102 5.35778 9.61105 5.34882 9.62733L5.33721 9.64893L5.33276 9.65752L5.33086 9.66125L5.32999 9.66297L5.32958 9.66379C5.32938 9.66419 5.32918 9.66459 6 10L5.32918 9.66459C5.14394 10.0351 5.29411 10.4856 5.66459 10.6708Z" fill="#525252"/>
</g>
<defs>
<clipPath id="clip0_35_9218">
<rect width="16" height="16" fill="white"/>
</clipPath>
</defs>
</svg>
