<svg width="16" height="16" viewBox="0 0 16 16" fill="none" xmlns="http://www.w3.org/2000/svg">
<g clip-path="url(#clip0_35_8095)">
<path opacity="0.1" d="M5.8 15H10.2C11.8802 15 12.7202 15 13.362 14.673C13.9265 14.3854 14.3854 13.9265 14.673 13.362C15 12.7202 15 11.8802 15 10.2V5.8C15 4.11984 15 3.27976 14.673 2.63803C14.3854 2.07354 13.9265 1.6146 13.362 1.32698C12.7202 1 11.8802 1 10.2 1H5.8C4.11984 1 3.27976 1 2.63803 1.32698C2.07354 1.6146 1.6146 2.07354 1.32698 2.63803C1 3.27976 1 4.11984 1 5.8V10.2C1 11.8802 1 12.7202 1.32698 13.362C1.6146 13.9265 2.07354 14.3854 2.63803 14.673C3.27976 15 4.11984 15 5.8 15Z" fill="#525252"/>
<path fill-rule="evenodd" clip-rule="evenodd" d="M5.8 0.25L5.7679 0.25C4.95506 0.249992 4.29944 0.249986 3.76853 0.293363C3.22189 0.338025 2.74175 0.432385 2.29754 0.658726C1.59193 1.01825 1.01825 1.59193 0.658726 2.29754C0.432385 2.74175 0.338025 3.22189 0.293363 3.76853C0.249986 4.29944 0.249992 4.95506 0.25 5.7679L0.25 5.8V10.2L0.25 10.2321C0.249992 11.0449 0.249986 11.7006 0.293363 12.2315C0.338025 12.7781 0.432385 13.2582 0.658726 13.7025C1.01825 14.4081 1.59193 14.9817 2.29754 15.3413C2.74175 15.5676 3.22189 15.662 3.76853 15.7066C4.29944 15.75 4.95505 15.75 5.76788 15.75H5.8H7H10.2H10.2321C11.045 15.75 11.7006 15.75 12.2315 15.7066C12.7781 15.662 13.2582 15.5676 13.7025 15.3413C14.4081 14.9817 14.9817 14.4081 15.3413 13.7025C15.5676 13.2582 15.662 12.7781 15.7066 12.2315C15.75 11.7006 15.75 11.045 15.75 10.2321V10.2V5.8V5.76788C15.75 4.95505 15.75 4.29944 15.7066 3.76853C15.662 3.22189 15.5676 2.74175 15.3413 2.29754C14.9817 1.59193 14.4081 1.01825 13.7025 0.658726C13.2582 0.432385 12.7781 0.338025 12.2315 0.293363C11.7006 0.249986 11.0449 0.249992 10.2321 0.25L10.2 0.25H5.8ZM7.75 14.25H10.2C11.0525 14.25 11.6467 14.2494 12.1093 14.2116C12.5632 14.1745 12.824 14.1054 13.0215 14.0048C13.4448 13.789 13.789 13.4448 14.0048 13.0215C14.1054 12.824 14.1745 12.5632 14.2116 12.1093C14.2494 11.6467 14.25 11.0525 14.25 10.2V5.8C14.25 4.94755 14.2494 4.35331 14.2116 3.89068C14.1745 3.4368 14.1054 3.17604 14.0048 2.97852C13.789 2.55516 13.4448 2.21095 13.0215 1.99524C12.824 1.8946 12.5632 1.82546 12.1093 1.78838C11.6467 1.75058 11.0525 1.75 10.2 1.75H5.8C4.94755 1.75 4.35331 1.75058 3.89068 1.78838C3.4368 1.82546 3.17604 1.8946 2.97852 1.99524C2.55516 2.21095 2.21095 2.55516 1.99524 2.97852C1.8946 3.17604 1.82546 3.4368 1.78838 3.89068C1.75058 4.35331 1.75 4.94755 1.75 5.8V10.2C1.75 11.0525 1.75058 11.6467 1.78838 12.1093C1.82546 12.5632 1.8946 12.824 1.99524 13.0215C2.21095 13.4448 2.55516 13.789 2.97852 14.0048C3.17604 14.1054 3.4368 14.1745 3.89068 14.2116C4.35331 14.2494 4.94755 14.25 5.8 14.25H6.25L6.25 12.7888L6.25 9.75H5C4.58579 9.75 4.25 9.41421 4.25 9C4.25 8.58579 4.58579 8.25 5 8.25H6.25L6.25 8L6.25 7.96861C6.24997 7.4934 6.24995 7.01623 6.30267 6.59447C6.35741 6.15652 6.47692 5.69744 6.775 5.3C7.3882 4.4824 8.49363 4.25 10 4.25C10.4142 4.25 10.75 4.58579 10.75 5C10.75 5.41421 10.4142 5.75 10 5.75C8.50637 5.75 8.1118 6.0176 7.975 6.2C7.89808 6.30256 7.83009 6.46848 7.79108 6.78053C7.75121 7.09949 7.75 7.48556 7.75 8L7.75 8.25H9C9.41421 8.25 9.75 8.58579 9.75 9C9.75 9.41421 9.41421 9.75 9 9.75H7.75L7.75 12.7888L7.75 14.25Z" fill="#525252"/>
</g>
<defs>
<clipPath id="clip0_35_8095">
<rect width="16" height="16" fill="white"/>
</clipPath>
</defs>
</svg>
