<svg width="16" height="16" viewBox="0 0 16 16" fill="none" xmlns="http://www.w3.org/2000/svg">
<path opacity="0.1" d="M4 4C4 2.89543 4.89543 2 6 2H8V6H6C4.89543 6 4 5.10457 4 4V4Z" fill="#525252"/>
<path opacity="0.1" d="M4 8C4 6.89543 4.89543 6 6 6H8V10H6C4.89543 10 4 9.10457 4 8V8Z" fill="#525252"/>
<path opacity="0.1" d="M4 12C4 10.8954 4.89543 10 6 10H8V12C8 13.1046 7.10457 14 6 14V14C4.89543 14 4 13.1046 4 12V12Z" fill="#525252"/>
<path fill-rule="evenodd" clip-rule="evenodd" d="M3.25 4C3.25 2.48122 4.48122 1.25 6 1.25H7.25H8H8.75H10C11.5188 1.25 12.75 2.48122 12.75 4C12.75 4.78802 12.4186 5.49861 11.8875 6C12.4186 6.50138 12.75 7.21198 12.75 8C12.75 9.51878 11.5188 10.75 10 10.75C9.54989 10.75 9.12503 10.6419 8.75 10.4501V10.75V12C8.75 13.5188 7.51878 14.75 6 14.75C4.48122 14.75 3.25 13.5188 3.25 12C3.25 11.212 3.58145 10.5014 4.11253 10C3.58145 9.49862 3.25 8.78802 3.25 8C3.25 7.21199 3.58144 6.50138 4.11253 6C3.58144 5.49862 3.25 4.78801 3.25 4ZM7.25 5.25V2.75H6C5.30964 2.75 4.75 3.30964 4.75 4C4.75 4.69036 5.30964 5.25 6 5.25H7.25ZM7.25 6.75V8V9.25H6C5.30964 9.25 4.75 8.69036 4.75 8C4.75 7.30964 5.30964 6.75 6 6.75H7.25ZM10 6.75C10.6904 6.75 11.25 7.30964 11.25 8C11.25 8.69036 10.6904 9.25 10 9.25C9.30964 9.25 8.75 8.69036 8.75 8C8.75 7.30964 9.30964 6.75 10 6.75ZM10 5.25C10.6904 5.25 11.25 4.69036 11.25 4C11.25 3.30964 10.6904 2.75 10 2.75H8.75V5.25H10ZM7.25 10.75H6C5.30964 10.75 4.75 11.3096 4.75 12C4.75 12.6904 5.30964 13.25 6 13.25C6.69036 13.25 7.25 12.6904 7.25 12V10.75Z" fill="#525252"/>
</svg>
