<svg width="16" height="16" viewBox="0 0 16 16" fill="none" xmlns="http://www.w3.org/2000/svg">
<path opacity="0.15" d="M14 8H2V13H14V8Z" fill="#525252"/>
<path fill-rule="evenodd" clip-rule="evenodd" d="M4.70697 2.24993C4.7469 2.24996 4.78738 2.24999 4.82843 2.24999C4.84531 2.24999 4.86198 2.24999 4.87845 2.24998C5.16734 2.24986 5.39438 2.24977 5.61692 2.28629C6.03494 2.3549 6.43145 2.51914 6.77554 2.76621C6.95872 2.89774 7.11921 3.05835 7.32339 3.26271C7.33504 3.27436 7.34682 3.28615 7.35876 3.29809L7.59307 3.53241C7.96422 3.90355 8.06676 3.99928 8.17531 4.06579C8.28715 4.13433 8.40908 4.18484 8.53662 4.21546C8.6604 4.24517 8.80061 4.24999 9.32548 4.24999H11L11.0253 4.24999C11.4697 4.24999 11.8408 4.24998 12.1454 4.27076C12.4625 4.2924 12.762 4.33904 13.0524 4.45933C13.7262 4.73843 14.2616 5.27379 14.5407 5.94761C14.661 6.238 14.7076 6.53753 14.7292 6.85463C14.75 7.15924 14.75 7.53028 14.75 7.97474V7.99999V9.79999V9.83045C14.75 10.3646 14.75 10.8104 14.7203 11.1747C14.6892 11.5545 14.6221 11.9112 14.4503 12.2485C14.1866 12.7659 13.7659 13.1866 13.2485 13.4503C12.9112 13.6221 12.5546 13.6892 12.1747 13.7203C11.8104 13.75 11.3646 13.75 10.8305 13.75H10.8H5.2H5.16955C4.6354 13.75 4.18956 13.75 3.82533 13.7203C3.44545 13.6892 3.08879 13.6221 2.75153 13.4503C2.23408 13.1866 1.81339 12.7659 1.54973 12.2485C1.37789 11.9112 1.31078 11.5545 1.27974 11.1747C1.24998 10.8104 1.24999 10.3646 1.25 9.83043L1.25 9.79999V7.99999V5.82842C1.25 5.78737 1.24997 5.74689 1.24994 5.70697C1.2494 5.05578 1.24899 4.55168 1.39425 4.12105C1.66869 3.30742 2.30743 2.66868 3.12106 2.39424C3.55169 2.24898 4.05579 2.2494 4.70697 2.24993ZM13.2452 7.24999C13.2426 7.14074 13.2387 7.04423 13.2327 6.95674C13.2163 6.71601 13.1868 6.59879 13.1549 6.52164C13.028 6.21535 12.7846 5.97201 12.4784 5.84514C12.4012 5.81319 12.284 5.78371 12.0433 5.76728C11.7958 5.7504 11.4762 5.74999 11 5.74999H9.32548C9.30103 5.74999 9.27687 5.75001 9.25301 5.75002C8.8344 5.75026 8.50487 5.75046 8.18645 5.67401C7.90585 5.60665 7.63761 5.49553 7.39156 5.34475C7.11235 5.17366 6.87947 4.94051 6.58364 4.64433C6.56678 4.62745 6.54971 4.61036 6.53241 4.59307L6.2981 4.35875C6.04221 4.10286 5.97186 4.03577 5.90065 3.98464C5.74425 3.87233 5.56401 3.79768 5.37401 3.76649C5.2875 3.7523 5.19031 3.74999 4.82843 3.74999C3.99677 3.74999 3.76546 3.75991 3.60048 3.81556C3.23065 3.94031 2.94031 4.23064 2.81557 4.60048C2.75992 4.76546 2.75 4.99677 2.75 5.82842V7.24999H13.2452ZM2.75 8.74999H13.25V9.79999C13.25 10.3724 13.2494 10.7566 13.2252 11.0525C13.2018 11.3396 13.1599 11.4769 13.1138 11.5675C12.9939 11.8027 12.8027 11.9939 12.5675 12.1138C12.4769 12.1599 12.3396 12.2018 12.0525 12.2252C11.7566 12.2494 11.3724 12.25 10.8 12.25H5.2C4.62757 12.25 4.24336 12.2494 3.94748 12.2252C3.66036 12.2018 3.52307 12.1599 3.43251 12.1138C3.19731 11.9939 3.00609 11.8027 2.88624 11.5675C2.8401 11.4769 2.79822 11.3396 2.77476 11.0525C2.75058 10.7566 2.75 10.3724 2.75 9.79999V8.74999Z" fill="#525252"/>
</svg>
