<svg width="16" height="16" viewBox="0 0 16 16" fill="none" xmlns="http://www.w3.org/2000/svg">
<path opacity="0.15" d="M15 8H1L2 13H14L15 8Z" fill="#525252"/>
<path fill-rule="evenodd" clip-rule="evenodd" d="M4.70697 2.24993C4.7469 2.24996 4.78738 2.24999 4.82843 2.24999C4.84531 2.24999 4.86198 2.24999 4.87845 2.24998C5.16733 2.24986 5.39438 2.24977 5.61692 2.28629C6.03493 2.3549 6.43145 2.51914 6.77554 2.76621C6.95872 2.89774 7.1192 3.05835 7.32339 3.26271C7.33503 3.27436 7.34682 3.28615 7.35876 3.29809L7.59307 3.53241C7.96422 3.90355 8.06676 3.99928 8.1753 4.06579C8.28714 4.13433 8.40907 4.18484 8.53662 4.21546C8.6604 4.24517 8.8006 4.24999 9.32548 4.24999H11L11.0252 4.24999C11.4697 4.24999 11.8408 4.24998 12.1454 4.27076C12.4625 4.2924 12.762 4.33904 13.0524 4.45933C13.7262 4.73843 14.2616 5.27379 14.5407 5.94761C14.661 6.238 14.7076 6.53753 14.7292 6.85463C14.7375 6.97577 14.7425 7.10741 14.7455 7.24999H15C15.2247 7.24999 15.4376 7.35074 15.58 7.5245C15.7225 7.69827 15.7795 7.92675 15.7354 8.14708L15.2499 10.5747L15.2447 10.601C15.1575 11.0367 15.0842 11.4035 15.0009 11.7025C14.9135 12.0165 14.8023 12.3062 14.6153 12.5741C14.3253 12.9896 13.926 13.3169 13.4617 13.5199C13.1624 13.6507 12.8565 13.7028 12.5314 13.727C12.2219 13.75 11.8479 13.75 11.4035 13.75H11.3766H4.62337H4.59649C4.15212 13.75 3.7781 13.75 3.46862 13.727C3.1435 13.7028 2.83764 13.6507 2.53834 13.5199C2.07398 13.3169 1.67472 12.9896 1.38465 12.5741C1.19769 12.3062 1.08654 12.0165 0.999081 11.7025C0.91583 11.4035 0.842485 11.0367 0.755343 10.601L0.750078 10.5747L0.264563 8.14708C0.220497 7.92675 0.277538 7.69827 0.419992 7.5245C0.562446 7.35074 0.775304 7.24999 0.999999 7.24999H1.25V5.82842C1.25 5.78737 1.24997 5.74689 1.24993 5.70697C1.2494 5.05578 1.24899 4.55168 1.39424 4.12105C1.66869 3.30742 2.30743 2.66868 3.12106 2.39424C3.55169 2.24898 4.05579 2.2494 4.70697 2.24993ZM1.91485 8.74999L2.22095 10.2805C2.31475 10.7495 2.37758 11.0612 2.4441 11.3001C2.50808 11.5298 2.56236 11.6406 2.61463 11.7155C2.74648 11.9044 2.92796 12.0531 3.13903 12.1454C3.2227 12.182 3.34195 12.2135 3.5798 12.2311C3.82709 12.2495 4.14508 12.25 4.62337 12.25H11.3766C11.8549 12.25 12.1729 12.2495 12.4202 12.2311C12.658 12.2135 12.7773 12.182 12.861 12.1454C13.072 12.0531 13.2535 11.9044 13.3854 11.7155C13.4376 11.6406 13.4919 11.5298 13.5559 11.3001C13.6224 11.0612 13.6852 10.7495 13.779 10.2805L14.0851 8.74999H14H2H1.91485ZM2.75 7.24999H13.2451C13.2426 7.14074 13.2387 7.04423 13.2327 6.95674C13.2163 6.71601 13.1868 6.59879 13.1548 6.52164C13.028 6.21535 12.7846 5.97201 12.4784 5.84514C12.4012 5.81319 12.284 5.78371 12.0433 5.76728C11.7958 5.7504 11.4762 5.74999 11 5.74999H9.32548C9.30102 5.74999 9.27687 5.75001 9.25301 5.75002C8.83439 5.75026 8.50487 5.75046 8.18645 5.67401C7.90585 5.60665 7.6376 5.49553 7.39156 5.34475C7.11235 5.17366 6.87947 4.94051 6.58364 4.64433C6.56677 4.62745 6.54971 4.61036 6.53241 4.59307L6.2981 4.35875C6.0422 4.10286 5.97186 4.03577 5.90065 3.98464C5.74424 3.87233 5.56401 3.79768 5.374 3.76649C5.28749 3.7523 5.19031 3.74999 4.82843 3.74999C3.99677 3.74999 3.76546 3.75991 3.60048 3.81556C3.23065 3.94031 2.94031 4.23064 2.81556 4.60048C2.75992 4.76546 2.75 4.99677 2.75 5.82842V7.24999Z" fill="#525252"/>
</svg>
