<svg width="16" height="16" viewBox="0 0 16 16" fill="none" xmlns="http://www.w3.org/2000/svg">
<path fill-rule="evenodd" clip-rule="evenodd" d="M8.25 3C8.25 3.41421 8.58579 3.75 9 3.75H11.1893L8.46967 6.46967C8.17678 6.76256 8.17678 7.23744 8.46967 7.53033C8.76256 7.82322 9.23744 7.82322 9.53033 7.53033L12.25 4.81066V7C12.25 7.41421 12.5858 7.75 13 7.75C13.4142 7.75 13.75 7.41421 13.75 7V3C13.75 2.58579 13.4142 2.25 13 2.25H9C8.58579 2.25 8.25 2.58579 8.25 3ZM7.75 13C7.75 12.5858 7.41421 12.25 7 12.25H4.81066L7.53033 9.53033C7.82322 9.23744 7.82322 8.76256 7.53033 8.46967C7.23744 8.17678 6.76256 8.17678 6.46967 8.46967L3.75 11.1893V9C3.75 8.58579 3.41421 8.25 3 8.25C2.58579 8.25 2.25 8.58579 2.25 9V13C2.25 13.4142 2.58579 13.75 3 13.75H7C7.41421 13.75 7.75 13.4142 7.75 13Z" fill="#525252"/>
</svg>
