<svg width="16" height="16" viewBox="0 0 16 16" fill="none" xmlns="http://www.w3.org/2000/svg">
<path opacity="0.1" fill-rule="evenodd" clip-rule="evenodd" d="M3.58579 6.41421C3.21071 6.78929 3 7.29799 3 7.82843V12C3 13.1046 3.89543 14 5 14H6V10C6 9.44772 6.44772 9 7 9H9C9.55228 9 10 9.44772 10 10V14H11C12.1046 14 13 13.1046 13 12V7.82843C13 7.29799 12.7893 6.78929 12.4142 6.41421L9.41421 3.41421C8.63316 2.63316 7.36684 2.63316 6.58579 3.41421L3.58579 6.41421Z" fill="#525252"/>
<path fill-rule="evenodd" clip-rule="evenodd" d="M8.53033 1.46967C8.23744 1.17678 7.76256 1.17678 7.46967 1.46967L2.46967 6.46967L0.46967 8.46967C0.176777 8.76256 0.176777 9.23744 0.46967 9.53033C0.762563 9.82322 1.23744 9.82322 1.53033 9.53033L2.25 8.81066V13C2.25 13.9665 3.0335 14.75 4 14.75H5.99879C5.99919 14.75 5.9996 14.75 6 14.75C6.0004 14.75 6.00081 14.75 6.00121 14.75H9.99879C9.99919 14.75 9.9996 14.75 10 14.75C10.0004 14.75 10.0008 14.75 10.0012 14.75H12C12.9665 14.75 13.75 13.9665 13.75 13V8.81066L14.4697 9.53033C14.7626 9.82322 15.2374 9.82322 15.5303 9.53033C15.8232 9.23744 15.8232 8.76256 15.5303 8.46967L13.5303 6.46967L8.53033 1.46967ZM10.75 13.25H12C12.1381 13.25 12.25 13.1381 12.25 13V7.31066L8 3.06066L3.75 7.31066V13C3.75 13.1381 3.86193 13.25 4 13.25H5.25V10C5.25 9.0335 6.0335 8.25 7 8.25H9C9.9665 8.25 10.75 9.0335 10.75 10V13.25ZM6.75 13.25H9.25V10C9.25 9.86193 9.13807 9.75 9 9.75H7C6.86193 9.75 6.75 9.86193 6.75 10V13.25Z" fill="#525252"/>
</svg>
