<svg width="16" height="16" viewBox="0 0 16 16" fill="none" xmlns="http://www.w3.org/2000/svg">
<path opacity="0.1" fill-rule="evenodd" clip-rule="evenodd" d="M2.58579 6.41421C2.21071 6.78929 2 7.29799 2 7.82843V12C2 13.1046 2.89543 14 4 14H6V10C6 9.44771 6.44772 9 7 9H9C9.55228 9 10 9.44771 10 10V14H12C13.1046 14 14 13.1046 14 12V7.82843C14 7.29799 13.7893 6.78929 13.4142 6.41421L9.41421 2.41421C8.63316 1.63316 7.36683 1.63316 6.58579 2.41421L2.58579 6.41421Z" fill="#525252"/>
<path fill-rule="evenodd" clip-rule="evenodd" d="M7.11612 2.94454C7.60427 2.45639 8.39573 2.45639 8.88388 2.94454L13.25 7.31066V12C13.25 12.6904 12.6904 13.25 12 13.25H10.75V10C10.75 9.0335 9.9665 8.25 9 8.25H7C6.0335 8.25 5.25 9.0335 5.25 10V13.25H4C3.30964 13.25 2.75 12.6904 2.75 12V7.31066L7.11612 2.94454ZM6.75 13.25V10C6.75 9.86193 6.86193 9.75 7 9.75H9C9.13807 9.75 9.25 9.86193 9.25 10V13.25H6.75ZM10 14.75H12C13.5188 14.75 14.75 13.5188 14.75 12V8.70729C15.0138 8.80034 15.3193 8.74135 15.5303 8.53033C15.8232 8.23744 15.8232 7.76256 15.5303 7.46967L14.5303 6.46967L9.94454 1.88388C8.8706 0.80994 7.1294 0.809942 6.05546 1.88388L1.46967 6.46967L0.46967 7.46967C0.176777 7.76256 0.176777 8.23744 0.46967 8.53033C0.68069 8.74135 0.98617 8.80034 1.25 8.70729V12C1.25 13.5188 2.48122 14.75 4 14.75H6H10Z" fill="#525252"/>
</svg>
