<svg width="16" height="16" viewBox="0 0 16 16" fill="none" xmlns="http://www.w3.org/2000/svg">
<path opacity="0.2" d="M1.5 12.5L5 8L8.75 12.5L11 10L14 14H10H2L1.5 12.5Z" fill="#525252"/>
<path fill-rule="evenodd" clip-rule="evenodd" d="M4.2 1.25L4.16957 1.25C3.63541 1.24999 3.18956 1.24998 2.82533 1.27974C2.44545 1.31078 2.08879 1.37789 1.75153 1.54973C1.23408 1.81339 0.813385 2.23408 0.549733 2.75153C0.377889 3.08879 0.310778 3.44545 0.27974 3.82533C0.249981 4.18957 0.24999 4.63541 0.250001 5.16957L0.250001 5.2V10.8L0.250001 10.8304C0.24999 11.3646 0.249981 11.8104 0.27974 12.1747C0.310778 12.5546 0.377889 12.9112 0.549733 13.2485C0.813385 13.7659 1.23408 14.1866 1.75153 14.4503C2.08879 14.6221 2.44545 14.6892 2.82533 14.7203C3.18955 14.75 3.63538 14.75 4.16951 14.75H4.16955H4.2H11.8H11.8305H11.8305C12.3646 14.75 12.8105 14.75 13.1747 14.7203C13.5546 14.6892 13.9112 14.6221 14.2485 14.4503C14.7659 14.1866 15.1866 13.7659 15.4503 13.2485C15.6221 12.9112 15.6892 12.5546 15.7203 12.1747C15.75 11.8104 15.75 11.3646 15.75 10.8305V10.8304V10.8V5.2V5.1696V5.16956C15.75 4.63541 15.75 4.18956 15.7203 3.82533C15.6892 3.44545 15.6221 3.08879 15.4503 2.75153C15.1866 2.23408 14.7659 1.81339 14.2485 1.54973C13.9112 1.37789 13.5546 1.31078 13.1747 1.27974C12.8104 1.24998 12.3646 1.24999 11.8304 1.25L11.8 1.25H4.2ZM2.43251 2.88624C2.52307 2.8401 2.66036 2.79822 2.94748 2.77476C3.24336 2.75059 3.62757 2.75 4.2 2.75H11.8C12.3724 2.75 12.7566 2.75059 13.0525 2.77476C13.3396 2.79822 13.4769 2.8401 13.5675 2.88624C13.8027 3.00609 13.9939 3.19731 14.1138 3.43251C14.1599 3.52307 14.2018 3.66036 14.2252 3.94748C14.2494 4.24336 14.25 4.62757 14.25 5.2V10.8C14.25 11.3724 14.2494 11.7566 14.2252 12.0525C14.2223 12.089 14.219 12.123 14.2155 12.1548L11.5303 9.46967C11.2374 9.17678 10.7626 9.17678 10.4697 9.46967L8.65568 11.2837L5.58047 7.52507C5.43597 7.34846 5.21892 7.24724 4.99074 7.25006C4.76257 7.25288 4.54808 7.35942 4.40799 7.53955L1.75004 10.9569L1.75 10.8V5.2C1.75 4.62757 1.75058 4.24336 1.77476 3.94748C1.79822 3.66036 1.8401 3.52307 1.88624 3.43251C2.00608 3.19731 2.19731 3.00609 2.43251 2.88624ZM11 11.0607L13.1548 13.2155C13.123 13.219 13.089 13.2223 13.0525 13.2252C12.7566 13.2494 12.3724 13.25 11.8 13.25H10.2073C10.1792 13.1704 10.137 13.0942 10.0805 13.0251L9.61027 12.4504L11 11.0607ZM2.13626 12.9036C2.22372 12.9872 2.32338 13.0582 2.43251 13.1138C2.52307 13.1599 2.66036 13.2018 2.94748 13.2252C3.24336 13.2494 3.62757 13.25 4.2 13.25H8.32641L5.01484 9.20253L2.13626 12.9036ZM8.75 6.5C8.75 6.08579 9.08579 5.75 9.5 5.75C9.91421 5.75 10.25 6.08579 10.25 6.5C10.25 6.91422 9.91421 7.25 9.5 7.25C9.08579 7.25 8.75 6.91422 8.75 6.5ZM9.5 4.25C8.25736 4.25 7.25 5.25736 7.25 6.5C7.25 7.74264 8.25736 8.75 9.5 8.75C10.7426 8.75 11.75 7.74264 11.75 6.5C11.75 5.25736 10.7426 4.25 9.5 4.25Z" fill="#525252"/>
</svg>
