<svg width="16" height="16" viewBox="0 0 16 16" fill="none" xmlns="http://www.w3.org/2000/svg">
<g clip-path="url(#clip0_35_8071)">
<path opacity="0.1" fill-rule="evenodd" clip-rule="evenodd" d="M12.816 14.564C11.9603 15 10.8402 15 8.6 15H7.4C5.15979 15 4.03969 15 3.18404 14.564C2.43139 14.1805 1.81947 13.5686 1.43597 12.816C1 11.9603 1 10.8402 1 8.6V7.4C1 5.15979 1 4.03969 1.43597 3.18404C1.81947 2.43139 2.43139 1.81947 3.18404 1.43597C4.03969 1 5.15979 1 7.4 1H8.6C10.8402 1 11.9603 1 12.816 1.43597C13.5686 1.81947 14.1805 2.43139 14.564 3.18404C15 4.03969 15 5.15979 15 7.4V8.6C15 10.8402 15 11.9603 14.564 12.816C14.1805 13.5686 13.5686 14.1805 12.816 14.564ZM8 11C9.65685 11 11 9.65685 11 8C11 6.34315 9.65685 5 8 5C6.34315 5 5 6.34315 5 8C5 9.65685 6.34315 11 8 11Z" fill="#525252"/>
<path fill-rule="evenodd" clip-rule="evenodd" d="M7.367 0.25L7.4 0.25H8.6L8.633 0.25C9.72515 0.249994 10.5906 0.24999 11.2883 0.306988C12.0017 0.365274 12.6053 0.486882 13.1565 0.767719C14.0502 1.22312 14.7769 1.94978 15.2323 2.84354C15.5131 3.39472 15.6347 3.99834 15.693 4.71173C15.75 5.40935 15.75 6.27483 15.75 7.36695V7.36697V7.36698V7.4V8.6V8.63302V8.63303V8.63305C15.75 9.72517 15.75 10.5907 15.693 11.2883C15.6347 12.0017 15.5131 12.6053 15.2323 13.1565C14.7769 14.0502 14.0502 14.7769 13.1565 15.2323C12.6053 15.5131 12.0017 15.6347 11.2883 15.693C10.5907 15.75 9.72517 15.75 8.63305 15.75H8.63303H8.63302H8.6H7.4H7.36698H7.36697H7.36695C6.27483 15.75 5.40935 15.75 4.71173 15.693C3.99834 15.6347 3.39472 15.5131 2.84354 15.2323C1.94978 14.7769 1.22312 14.0502 0.767719 13.1565C0.486882 12.6053 0.365274 12.0017 0.306988 11.2883C0.24999 10.5906 0.249994 9.72515 0.25 8.633L0.25 8.6V7.4L0.25 7.367C0.249994 6.27486 0.24999 5.40936 0.306988 4.71173C0.365274 3.99834 0.486882 3.39472 0.767719 2.84354C1.22312 1.94978 1.94978 1.22312 2.84354 0.767719C3.39472 0.486882 3.99834 0.365274 4.71173 0.306988C5.40936 0.24999 6.27486 0.249994 7.367 0.25ZM4.83388 1.80201C4.21325 1.85271 3.829 1.94909 3.52453 2.10423C2.913 2.41582 2.41582 2.913 2.10423 3.52453C1.94909 3.829 1.85271 4.21325 1.80201 4.83388C1.75058 5.46326 1.75 6.26752 1.75 7.4V8.6C1.75 9.73248 1.75058 10.5367 1.80201 11.1661C1.85271 11.7867 1.94909 12.171 2.10423 12.4755C2.41582 13.087 2.913 13.5842 3.52453 13.8958C3.829 14.0509 4.21325 14.1473 4.83388 14.198C5.46326 14.2494 6.26752 14.25 7.4 14.25H8.6C9.73248 14.25 10.5367 14.2494 11.1661 14.198C11.7867 14.1473 12.171 14.0509 12.4755 13.8958C13.087 13.5842 13.5842 13.087 13.8958 12.4755C14.0509 12.171 14.1473 11.7867 14.198 11.1661C14.2494 10.5367 14.25 9.73248 14.25 8.6V7.4C14.25 6.26752 14.2494 5.46326 14.198 4.83388C14.1473 4.21325 14.0509 3.829 13.8958 3.52453C13.5842 2.913 13.087 2.41582 12.4755 2.10423C12.171 1.94909 11.7867 1.85271 11.1661 1.80201C10.5367 1.75058 9.73248 1.75 8.6 1.75H7.4C6.26752 1.75 5.46326 1.75058 4.83388 1.80201ZM8 5.75C6.75736 5.75 5.75 6.75736 5.75 8C5.75 9.24264 6.75736 10.25 8 10.25C9.24264 10.25 10.25 9.24264 10.25 8C10.25 6.75736 9.24264 5.75 8 5.75ZM4.25 8C4.25 5.92893 5.92893 4.25 8 4.25C10.0711 4.25 11.75 5.92893 11.75 8C11.75 10.0711 10.0711 11.75 8 11.75C5.92893 11.75 4.25 10.0711 4.25 8ZM12 5C12.5523 5 13 4.55228 13 4C13 3.44772 12.5523 3 12 3C11.4477 3 11 3.44772 11 4C11 4.55228 11.4477 5 12 5Z" fill="#525252"/>
</g>
<defs>
<clipPath id="clip0_35_8071">
<rect width="16" height="16" fill="white"/>
</clipPath>
</defs>
</svg>
