<svg width="16" height="16" viewBox="0 0 16 16" fill="none" xmlns="http://www.w3.org/2000/svg">
<g clip-path="url(#clip0_35_8116)">
<path opacity="0.1" d="M5.8 15H10.2C11.8802 15 12.7202 15 13.362 14.673C13.9265 14.3854 14.3854 13.9265 14.673 13.362C15 12.7202 15 11.8802 15 10.2V5.8C15 4.11984 15 3.27976 14.673 2.63803C14.3854 2.07354 13.9265 1.6146 13.362 1.32698C12.7202 1 11.8802 1 10.2 1H5.8C4.11984 1 3.27976 1 2.63803 1.32698C2.07354 1.6146 1.6146 2.07354 1.32698 2.63803C1 3.27976 1 4.11984 1 5.8V10.2C1 11.8802 1 12.7202 1.32698 13.362C1.6146 13.9265 2.07354 14.3854 2.63803 14.673C3.27976 15 4.11984 15 5.8 15Z" fill="#525252"/>
<path fill-rule="evenodd" clip-rule="evenodd" d="M5.8 0.25L5.7679 0.25C4.95506 0.249992 4.29944 0.249986 3.76853 0.293363C3.22189 0.338025 2.74175 0.432385 2.29754 0.658726C1.59193 1.01825 1.01825 1.59193 0.658726 2.29754C0.432385 2.74175 0.338025 3.22189 0.293363 3.76853C0.249986 4.29944 0.249992 4.95506 0.25 5.7679L0.25 5.8V10.2L0.25 10.2321C0.249992 11.0449 0.249986 11.7006 0.293363 12.2315C0.338025 12.7781 0.432385 13.2582 0.658726 13.7025C1.01825 14.4081 1.59193 14.9817 2.29754 15.3413C2.74175 15.5676 3.22189 15.662 3.76853 15.7066C4.29944 15.75 4.95505 15.75 5.76788 15.75H5.8H10.2H10.2321C11.045 15.75 11.7006 15.75 12.2315 15.7066C12.7781 15.662 13.2582 15.5676 13.7025 15.3413C14.4081 14.9817 14.9817 14.4081 15.3413 13.7025C15.5676 13.2582 15.662 12.7781 15.7066 12.2315C15.75 11.7006 15.75 11.045 15.75 10.2321V10.2V5.8V5.76788C15.75 4.95505 15.75 4.29944 15.7066 3.76853C15.662 3.22189 15.5676 2.74175 15.3413 2.29754C14.9817 1.59193 14.4081 1.01825 13.7025 0.658726C13.2582 0.432385 12.7781 0.338025 12.2315 0.293363C11.7006 0.249986 11.0449 0.249992 10.2321 0.25L10.2 0.25H5.8ZM2.97852 1.99524C3.17604 1.8946 3.4368 1.82546 3.89068 1.78838C4.35331 1.75058 4.94755 1.75 5.8 1.75H10.2C11.0525 1.75 11.6467 1.75058 12.1093 1.78838C12.5632 1.82546 12.824 1.8946 13.0215 1.99524C13.4448 2.21095 13.789 2.55516 14.0048 2.97852C14.1054 3.17604 14.1745 3.4368 14.2116 3.89068C14.2494 4.35331 14.25 4.94755 14.25 5.8V10.2C14.25 11.0525 14.2494 11.6467 14.2116 12.1093C14.1745 12.5632 14.1054 12.824 14.0048 13.0215C13.789 13.4448 13.4448 13.789 13.0215 14.0048C12.824 14.1054 12.5632 14.1745 12.1093 14.2116C11.6467 14.2494 11.0525 14.25 10.2 14.25H5.8C4.94755 14.25 4.35331 14.2494 3.89068 14.2116C3.4368 14.1745 3.17604 14.1054 2.97852 14.0048C2.55516 13.789 2.21095 13.4448 1.99524 13.0215C1.8946 12.824 1.82546 12.5632 1.78838 12.1093C1.75058 11.6467 1.75 11.0525 1.75 10.2V5.8C1.75 4.94755 1.75058 4.35331 1.78838 3.89068C1.82546 3.4368 1.8946 3.17604 1.99524 2.97852C2.21095 2.55516 2.55516 2.21095 2.97852 1.99524ZM5.75 7C5.75 6.58579 5.41421 6.25 5 6.25C4.58579 6.25 4.25 6.58579 4.25 7V12C4.25 12.4142 4.58579 12.75 5 12.75C5.41421 12.75 5.75 12.4142 5.75 12V7ZM6 4C6 4.55228 5.55228 5 5 5C4.44772 5 4 4.55228 4 4C4 3.44772 4.44772 3 5 3C5.55228 3 6 3.44772 6 4ZM8 6.25C8.24755 6.25 8.46709 6.36994 8.60368 6.55487C8.99637 6.35555 9.46475 6.25 10 6.25C10.9304 6.25 11.6587 6.56888 12.1387 7.14486C12.5986 7.69678 12.75 8.38857 12.75 9V9.00587V9.01176V9.01768V9.02362V9.02958V9.03556V9.04157V9.0476V9.05365V9.05972V9.06581V9.07192V9.07806V9.08421V9.09039V9.09659V9.10281V9.10905V9.11531V9.12159V9.12789V9.13421V9.14055V9.14691V9.15329V9.15969V9.16611V9.17254V9.179V9.18548V9.19197V9.19849V9.20502V9.21157V9.21814V9.22473V9.23133V9.23796V9.2446V9.25126V9.25793V9.26463V9.27134V9.27806V9.28481V9.29157V9.29835V9.30515V9.31196V9.31878V9.32563V9.33249V9.33937V9.34626V9.35316V9.36009V9.36703V9.37398V9.38095V9.38793V9.39493V9.40195V9.40897V9.41602V9.42307V9.43014V9.43723V9.44433V9.45144V9.45857V9.46571V9.47286V9.48002V9.4872V9.4944V9.5016V9.50882V9.51605V9.52329V9.53055V9.53782V9.54509V9.55239V9.55969V9.567V9.57433V9.58167V9.58902V9.59638V9.60375V9.61113V9.61852V9.62592V9.63334V9.64076V9.64819V9.65564V9.66309V9.67055V9.67803V9.68551V9.693V9.7005V9.70801V9.71553V9.72306V9.73059V9.73814V9.74569V9.75325V9.76082V9.7684V9.77599V9.78358V9.79118V9.79879V9.80641V9.81403V9.82166V9.8293V9.83694V9.84459V9.85225V9.85991V9.86758V9.87526V9.88294V9.89062V9.89832V9.90602V9.91372V9.92143V9.92915V9.93687V9.94459V9.95232V9.96005V9.96779V9.97554V9.98328V9.99104V9.99879V10.0065V10.0143V10.0221V10.0298V10.0376V10.0454V10.0532V10.061V10.0687V10.0765V10.0843V10.0921V10.0999V10.1077V10.1155V10.1233V10.1311V10.1389V10.1467V10.1545V10.1623V10.1701V10.178V10.1858V10.1936V10.2014V10.2092V10.217V10.2248V10.2326V10.2405V10.2483V10.2561V10.2639V10.2717V10.2795V10.2873V10.2951V10.3029V10.3107V10.3185V10.3263V10.3341V10.3419V10.3497V10.3575V10.3653V10.3731V10.3809V10.3887V10.3965V10.4042V10.412V10.4198V10.4275V10.4353V10.4431V10.4508V10.4586V10.4663V10.4741V10.4818V10.4895V10.4973V10.505V10.5127V10.5204V10.5282V10.5359V10.5436V10.5513V10.5589V10.5666V10.5743V10.582V10.5896V10.5973V10.605V10.6126V10.6202V10.6279V10.6355V10.6431V10.6507V10.6583V10.6659V10.6735V10.6811V10.6887V10.6962V10.7038V10.7113V10.7189V10.7264V10.7339V10.7414V10.7489V10.7564V10.7639V10.7714V10.7789V10.7863V10.7938V10.8012V10.8086V10.8161V10.8235V10.8309V10.8382V10.8456V10.853V10.8603V10.8677V10.875V10.8823V10.8896V10.8969V10.9042V10.9115V10.9187V10.926V10.9332V10.9404V10.9476V10.9548V10.962V10.9692V10.9764V10.9835V10.9906V10.9977V11.0049V11.0119V11.019V11.0261V11.0331V11.0402V11.0472V11.0542V11.0612V11.0681V11.0751V11.082V11.089V11.0959V11.1028V11.1097V11.1165V11.1234V11.1302V11.137V11.1438V11.1506V11.1574V11.1641V11.1709V11.1776V11.1843V11.191V11.1976V11.2043V11.2109V11.2175V11.2241V11.2307V11.2372V11.2438V11.2503V11.2568V11.2633V11.2698V11.2762V11.2826V11.289V11.2954V11.3018V11.3081V11.3145V11.3208V11.327V11.3333V11.3396V11.3458V11.352V11.3582V11.3643V11.3705V11.3766V11.3827V11.3888V11.3948V11.4009V11.4069V11.4129V11.4188V11.4248V11.4307V11.4366V11.4425V11.4483V11.4542V11.46V11.4658V11.4715V11.4773V11.483V11.4887V11.4944V11.5V11.5056V11.5112V11.5168V11.5223V11.5278V11.5333V11.5388V11.5443V11.5497V11.5551V11.5605V11.5658V11.5711V11.5764V11.5817V11.5869V11.5921V11.5973V11.6025V11.6076V11.6127V11.6178V11.6229V11.6279V11.6329V11.6379V11.6428V11.6477V11.6526V11.6575V11.6623V11.6671V11.6719V11.6766V11.6813V11.686V11.6907V11.6953V11.6999V11.7045V11.709V11.7135V11.718V11.7225V11.7269V11.7313V11.7357V11.74V11.7443V11.7486V11.7528V11.757V11.7612V11.7653V11.7694V11.7735V11.7776V11.7816V11.7856V11.7895V11.7935V11.7974V11.8012V11.805V11.8088V11.8126V11.8163V11.82V11.8237V11.8273V11.8309V11.8345V11.838V11.8415V11.8449V11.8484V11.8517V11.8551V11.8584V11.8617V11.865V11.8682V11.8714V11.8745V11.8776V11.8807V11.8837V11.8867V11.8897V11.8926V11.8955V11.8984V11.9012V11.904V11.9067V11.9094V11.9121V11.9147V11.9173V11.9199V11.9224V11.9249V11.9274V11.9298V11.9321V11.9345V11.9368V11.939V11.9413V11.9434V11.9456V11.9477V11.9497V11.9518V11.9537V11.9557V11.9576V11.9595V11.9613V11.9631V11.9648V11.9665V11.9682V11.9698V11.9714V11.9729V11.9744V11.9759V11.9773V11.9787V11.98V11.9813V11.9825V11.9838V11.9849V11.986V11.9871V11.9882V11.9892V11.9901V11.991V11.9919V11.9927V11.9935V11.9942V11.9949V11.9956V11.9962V11.9967V11.9973V11.9977V11.9982V11.9985V11.9989V11.9992V11.9994V11.9996V11.9998V11.9999V12L12 12L11.25 12V11.9999V11.9998V11.9996V11.9994V11.9992V11.9989V11.9985V11.9982V11.9977V11.9973V11.9967V11.9962V11.9956V11.9949V11.9942V11.9935V11.9927V11.9919V11.991V11.9901V11.9892V11.9882V11.9871V11.986V11.9849V11.9838V11.9825V11.9813V11.98V11.9787V11.9773V11.9759V11.9744V11.9729V11.9714V11.9698V11.9682V11.9665V11.9648V11.9631V11.9613V11.9595V11.9576V11.9557V11.9537V11.9518V11.9497V11.9477V11.9456V11.9434V11.9413V11.939V11.9368V11.9345V11.9321V11.9298V11.9274V11.9249V11.9224V11.9199V11.9173V11.9147V11.9121V11.9094V11.9067V11.904V11.9012V11.8984V11.8955V11.8926V11.8897V11.8867V11.8837V11.8807V11.8776V11.8745V11.8714V11.8682V11.865V11.8617V11.8584V11.8551V11.8517V11.8484V11.8449V11.8415V11.838V11.8345V11.8309V11.8273V11.8237V11.82V11.8163V11.8126V11.8088V11.805V11.8012V11.7974V11.7935V11.7895V11.7856V11.7816V11.7776V11.7735V11.7694V11.7653V11.7612V11.757V11.7528V11.7486V11.7443V11.74V11.7357V11.7313V11.7269V11.7225V11.718V11.7135V11.709V11.7045V11.6999V11.6953V11.6907V11.686V11.6813V11.6766V11.6719V11.6671V11.6623V11.6575V11.6526V11.6477V11.6428V11.6379V11.6329V11.6279V11.6229V11.6178V11.6127V11.6076V11.6025V11.5973V11.5921V11.5869V11.5817V11.5764V11.5711V11.5658V11.5605V11.5551V11.5497V11.5443V11.5388V11.5333V11.5278V11.5223V11.5168V11.5112V11.5056V11.5V11.4944V11.4887V11.483V11.4773V11.4715V11.4658V11.46V11.4542V11.4483V11.4425V11.4366V11.4307V11.4248V11.4188V11.4129V11.4069V11.4009V11.3948V11.3888V11.3827V11.3766V11.3705V11.3643V11.3582V11.352V11.3458V11.3396V11.3333V11.327V11.3208V11.3145V11.3081V11.3018V11.2954V11.289V11.2826V11.2762V11.2698V11.2633V11.2568V11.2503V11.2438V11.2372V11.2307V11.2241V11.2175V11.2109V11.2043V11.1976V11.191V11.1843V11.1776V11.1709V11.1641V11.1574V11.1506V11.1438V11.137V11.1302V11.1234V11.1165V11.1097V11.1028V11.0959V11.089V11.082V11.0751V11.0681V11.0612V11.0542V11.0472V11.0402V11.0331V11.0261V11.019V11.0119V11.0049V10.9977V10.9906V10.9835V10.9764V10.9692V10.962V10.9548V10.9476V10.9404V10.9332V10.926V10.9187V10.9115V10.9042V10.8969V10.8896V10.8823V10.875V10.8677V10.8603V10.853V10.8456V10.8382V10.8309V10.8235V10.8161V10.8086V10.8012V10.7938V10.7863V10.7789V10.7714V10.7639V10.7564V10.7489V10.7414V10.7339V10.7264V10.7189V10.7113V10.7038V10.6962V10.6887V10.6811V10.6735V10.6659V10.6583V10.6507V10.6431V10.6355V10.6279V10.6202V10.6126V10.605V10.5973V10.5896V10.582V10.5743V10.5666V10.5589V10.5513V10.5436V10.5359V10.5282V10.5204V10.5127V10.505V10.4973V10.4895V10.4818V10.4741V10.4663V10.4586V10.4508V10.4431V10.4353V10.4275V10.4198V10.412V10.4042V10.3965V10.3887V10.3809V10.3731V10.3653V10.3575V10.3497V10.3419V10.3341V10.3263V10.3185V10.3107V10.3029V10.2951V10.2873V10.2795V10.2717V10.2639V10.2561V10.2483V10.2405V10.2326V10.2248V10.217V10.2092V10.2014V10.1936V10.1858V10.178V10.1701V10.1623V10.1545V10.1467V10.1389V10.1311V10.1233V10.1155V10.1077V10.0999V10.0921V10.0843V10.0765V10.0687V10.061V10.0532V10.0454V10.0376V10.0298V10.0221V10.0143V10.0065V9.99879V9.99104V9.98328V9.97554V9.96779V9.96005V9.95232V9.94459V9.93687V9.92915V9.92143V9.91372V9.90602V9.89832V9.89062V9.88294V9.87526V9.86758V9.85991V9.85225V9.84459V9.83694V9.8293V9.82166V9.81403V9.80641V9.79879V9.79118V9.78358V9.77599V9.7684V9.76082V9.75325V9.74569V9.73814V9.73059V9.72306V9.71553V9.70801V9.7005V9.693V9.68551V9.67803V9.67055V9.66309V9.65564V9.64819V9.64076V9.63334V9.62592V9.61852V9.61113V9.60375V9.59638V9.58902V9.58167V9.57433V9.567V9.55969V9.55239V9.54509V9.53782V9.53055V9.52329V9.51605V9.50882V9.5016V9.4944V9.4872V9.48002V9.47286V9.46571V9.45857V9.45144V9.44433V9.43723V9.43014V9.42307V9.41602V9.40897V9.40195V9.39493V9.38793V9.38095V9.37398V9.36703V9.36009V9.35316V9.34626V9.33937V9.33249V9.32563V9.31878V9.31196V9.30515V9.29835V9.29157V9.28481V9.27806V9.27134V9.26463V9.25793V9.25126V9.2446V9.23796V9.23133V9.22473V9.21814V9.21157V9.20502V9.19849V9.19197V9.18548V9.179V9.17254V9.16611V9.15969V9.15329V9.14691V9.14055V9.13421V9.12789V9.12159V9.11531V9.10905V9.10281V9.09659V9.09039V9.08421V9.07806V9.07192V9.06581V9.05972V9.05365V9.0476V9.04157V9.03556V9.02958V9.02362V9.01768V9.01176V9.00587V9C11.25 8.61143 11.1514 8.30322 10.9863 8.10514C10.8413 7.93112 10.5696 7.75 10 7.75C9.43036 7.75 9.15868 7.93112 9.01367 8.10514C8.8486 8.30322 8.75 8.61143 8.75 9V12C8.75 12.4142 8.41421 12.75 8 12.75C7.58579 12.75 7.25 12.4142 7.25 12V9V7C7.25 6.58579 7.58579 6.25 8 6.25ZM12 12H12.75C12.75 12.4142 12.4142 12.75 12 12.75C11.5858 12.75 11.25 12.4142 11.25 12H12Z" fill="#525252"/>
</g>
<defs>
<clipPath id="clip0_35_8116">
<rect width="16" height="16" fill="white"/>
</clipPath>
</defs>
</svg>
