<svg width="16" height="16" viewBox="0 0 16 16" fill="none" xmlns="http://www.w3.org/2000/svg">
<rect opacity="0.1" x="3" y="7" width="10" height="7" rx="2" fill="#525252"/>
<path fill-rule="evenodd" clip-rule="evenodd" d="M5.75 4C5.75 2.75736 6.75736 1.75 8 1.75C9.24264 1.75 10.25 2.75736 10.25 4V6C10.25 6.08797 10.2651 6.1724 10.293 6.25082C10.1468 6.24999 9.99271 6.25 9.83045 6.25H9.83043L9.8 6.25H6.2L6.16956 6.25H6.16955C6.00729 6.25 5.85318 6.24999 5.70703 6.25082C5.73486 6.1724 5.75 6.08797 5.75 6V4ZM4.33538 6.34786C4.28085 6.24389 4.25 6.12555 4.25 6V4C4.25 1.92893 5.92893 0.25 8 0.25C10.0711 0.25 11.75 1.92893 11.75 4V6C11.75 6.12555 11.7192 6.24389 11.6646 6.34786C11.8657 6.39046 12.0601 6.45376 12.2485 6.54973C12.7659 6.81338 13.1866 7.23408 13.4503 7.75153C13.6221 8.08879 13.6892 8.44545 13.7203 8.82533C13.75 9.18955 13.75 9.63538 13.75 10.1695V10.1695V10.2V11.8V11.8305V11.8305C13.75 12.3646 13.75 12.8105 13.7203 13.1747C13.6892 13.5546 13.6221 13.9112 13.4503 14.2485C13.1866 14.7659 12.7659 15.1866 12.2485 15.4503C11.9112 15.6221 11.5546 15.6892 11.1747 15.7203C10.8104 15.75 10.3646 15.75 9.83049 15.75H9.83045H9.8H6.2H6.16955H6.16951C5.63538 15.75 5.18955 15.75 4.82533 15.7203C4.44545 15.6892 4.08879 15.6221 3.75153 15.4503C3.23408 15.1866 2.81338 14.7659 2.54973 14.2485C2.37789 13.9112 2.31078 13.5546 2.27974 13.1747C2.24998 12.8104 2.24999 12.3646 2.25 11.8304L2.25 11.8V10.2L2.25 10.1696C2.24999 9.63541 2.24998 9.18956 2.27974 8.82533C2.31078 8.44545 2.37789 8.08879 2.54973 7.75153C2.81338 7.23408 3.23408 6.81338 3.75153 6.54973C3.93987 6.45376 4.13427 6.39046 4.33538 6.34786ZM4.43251 7.88624C4.52307 7.8401 4.66035 7.79822 4.94748 7.77476C5.24336 7.75058 5.62757 7.75 6.2 7.75H9.8C10.3724 7.75 10.7566 7.75058 11.0525 7.77476C11.3396 7.79822 11.4769 7.8401 11.5675 7.88624C11.8027 8.00608 11.9939 8.19731 12.1138 8.43251C12.1599 8.52307 12.2018 8.66035 12.2252 8.94748C12.2494 9.24336 12.25 9.62757 12.25 10.2V11.8C12.25 12.3724 12.2494 12.7566 12.2252 13.0525C12.2018 13.3396 12.1599 13.4769 12.1138 13.5675C11.9939 13.8027 11.8027 13.9939 11.5675 14.1138C11.4769 14.1599 11.3396 14.2018 11.0525 14.2252C10.7566 14.2494 10.3724 14.25 9.8 14.25H6.2C5.62757 14.25 5.24336 14.2494 4.94748 14.2252C4.66035 14.2018 4.52307 14.1599 4.43251 14.1138C4.19731 13.9939 4.00608 13.8027 3.88624 13.5675C3.8401 13.4769 3.79822 13.3396 3.77476 13.0525C3.75058 12.7566 3.75 12.3724 3.75 11.8V10.2C3.75 9.62757 3.75058 9.24336 3.77476 8.94748C3.79822 8.66035 3.8401 8.52307 3.88624 8.43251C4.00608 8.19731 4.19731 8.00608 4.43251 7.88624Z" fill="#525252"/>
</svg>
