<svg width="16" height="16" viewBox="0 0 16 16" fill="none" xmlns="http://www.w3.org/2000/svg">
<path fill-rule="evenodd" clip-rule="evenodd" d="M7.46967 2.46967C7.76256 2.17678 8.23744 2.17678 8.53033 2.46967C10.0583 3.99765 11.3289 5.52275 12.217 6.66454C12.6615 7.23606 13.0114 7.71308 13.2509 8.04845C13.3707 8.21617 13.463 8.34856 13.5258 8.43976C13.5572 8.48535 13.5813 8.52066 13.5977 8.54494L13.6167 8.573L13.6218 8.58066L13.6233 8.58286L13.6238 8.58356L13.6239 8.5838C13.624 8.58389 13.624 8.58397 13 9L13.624 8.58397C13.7775 8.81412 13.7918 9.11003 13.6613 9.35389C13.5307 9.59776 13.2766 9.75 13 9.75H10.8C10.7824 9.75 10.7657 9.75 10.75 9.75001C10.75 9.76575 10.75 9.78236 10.75 9.8V12.2L10.75 12.2202C10.75 12.3424 10.7501 12.4748 10.7407 12.5895C10.7301 12.7192 10.7039 12.8907 10.6138 13.0675C10.4939 13.3027 10.3027 13.4939 10.0675 13.6138C9.89066 13.7039 9.71923 13.7301 9.58947 13.7407C9.47483 13.7501 9.34239 13.75 9.22023 13.75L9.2 13.75H6.8L6.77977 13.75C6.65762 13.75 6.52517 13.7501 6.41053 13.7407C6.28077 13.7301 6.10934 13.7039 5.93251 13.6138C5.69731 13.4939 5.50608 13.3027 5.38624 13.0675C5.29614 12.8907 5.26991 12.7192 5.2593 12.5895C5.24994 12.4748 5.24997 12.3424 5.25 12.2202C5.25 12.2134 5.25 12.2067 5.25 12.2V9.8C5.25 9.78236 5.25 9.76575 5.24999 9.75001C5.23425 9.75 5.21764 9.75 5.2 9.75H3C2.7234 9.75 2.46926 9.59776 2.33874 9.35389C2.20823 9.11003 2.22253 8.81412 2.37596 8.58397L3 9C2.37596 8.58397 2.37602 8.58389 2.37608 8.5838L2.37624 8.58356L2.37671 8.58286L2.37818 8.58066L2.38332 8.573L2.40226 8.54494C2.4187 8.52066 2.44275 8.48535 2.47417 8.43976C2.53699 8.34856 2.62928 8.21617 2.74908 8.04845C2.98862 7.71308 3.33848 7.23606 3.78299 6.66454C4.67105 5.52275 5.94169 3.99765 7.46967 2.46967ZM4.46005 8.25H5.2C5.2067 8.25 5.21344 8.25 5.22021 8.25C5.34238 8.24997 5.47483 8.24994 5.58947 8.2593C5.71923 8.2699 5.89066 8.29614 6.06749 8.38624C6.30269 8.50608 6.49392 8.69731 6.61376 8.93251C6.70386 9.10934 6.7301 9.28077 6.7407 9.41053C6.75006 9.52517 6.75003 9.65762 6.75 9.77979C6.75 9.78656 6.75 9.7933 6.75 9.8V12.2C6.75 12.2176 6.75 12.2343 6.75001 12.25C6.76575 12.25 6.78236 12.25 6.8 12.25H9.2C9.21764 12.25 9.23425 12.25 9.24999 12.25C9.25 12.2343 9.25 12.2176 9.25 12.2V9.8C9.25 9.7933 9.25 9.78656 9.25 9.77979C9.24997 9.65762 9.24994 9.52517 9.2593 9.41053C9.26991 9.28077 9.29614 9.10934 9.38624 8.93251C9.50608 8.69731 9.69731 8.50608 9.93251 8.38624C10.1093 8.29614 10.2808 8.2699 10.4105 8.2593C10.5252 8.24994 10.6576 8.24997 10.7798 8.25C10.7866 8.25 10.7933 8.25 10.8 8.25H11.5399C11.3893 8.04856 11.2199 7.82578 11.033 7.58546C10.2767 6.61314 9.23766 5.35855 8 4.07129C6.76234 5.35855 5.72326 6.61314 4.96701 7.58546C4.7801 7.82578 4.61069 8.04856 4.46005 8.25Z" fill="#525252"/>
</svg>
