<svg width="16" height="16" viewBox="0 0 16 16" fill="none" xmlns="http://www.w3.org/2000/svg">
<path fill-rule="evenodd" clip-rule="evenodd" d="M1.25 4C1.25 5.51878 2.48122 6.75 4 6.75H5.25V9.25H4C2.48122 9.25 1.25 10.4812 1.25 12C1.25 13.5188 2.48122 14.75 4 14.75C5.51878 14.75 6.75 13.5188 6.75 12V10.75H9.25V12C9.25 13.5188 10.4812 14.75 12 14.75C13.5188 14.75 14.75 13.5188 14.75 12C14.75 10.4812 13.5188 9.25 12 9.25H10.75V6.75H12C13.5188 6.75 14.75 5.51878 14.75 4C14.75 2.48122 13.5188 1.25 12 1.25C10.4812 1.25 9.25 2.48122 9.25 4V5.25H6.75V4C6.75 2.48122 5.51878 1.25 4 1.25C2.48122 1.25 1.25 2.48122 1.25 4ZM9.25 6.75H6.75V9.25H9.25V6.75ZM10.75 5.25H12C12.6904 5.25 13.25 4.69036 13.25 4C13.25 3.30964 12.6904 2.75 12 2.75C11.3096 2.75 10.75 3.30964 10.75 4V5.25ZM10.75 12V10.75H12C12.6904 10.75 13.25 11.3096 13.25 12C13.25 12.6904 12.6904 13.25 12 13.25C11.3096 13.25 10.75 12.6904 10.75 12ZM5.25 10.75H4C3.30964 10.75 2.75 11.3096 2.75 12C2.75 12.6904 3.30964 13.25 4 13.25C4.69036 13.25 5.25 12.6904 5.25 12V10.75ZM5.25 5.25V4C5.25 3.30964 4.69036 2.75 4 2.75C3.30964 2.75 2.75 3.30964 2.75 4C2.75 4.69036 3.30964 5.25 4 5.25H5.25Z" fill="#525252"/>
</svg>
