<svg width="16" height="16" viewBox="0 0 16 16" fill="none" xmlns="http://www.w3.org/2000/svg">
<path fill-rule="evenodd" clip-rule="evenodd" d="M4.02229 4.75C4.79458 4.75 5.00182 4.75979 5.17152 4.81832C5.34668 4.87873 5.50621 4.97733 5.63858 5.10698C5.76683 5.23258 5.86826 5.41357 6.21364 6.10433L8.44472 10.5665L8.49314 10.6635L8.49315 10.6635C8.76609 11.2105 8.98044 11.6401 9.31184 11.9647C9.60305 12.2499 9.95403 12.4668 10.3394 12.5997C10.7779 12.751 11.258 12.7506 11.8693 12.7501L11.9777 12.75H13C13.4142 12.75 13.75 12.4142 13.75 12C13.75 11.5858 13.4142 11.25 13 11.25H11.9777C11.2054 11.25 10.9982 11.2402 10.8285 11.1817C10.6533 11.1213 10.4938 11.0227 10.3614 10.893C10.2332 10.7674 10.1317 10.5864 9.78636 9.89567L7.55528 5.43351L7.50686 5.33653C7.23391 4.78952 7.01957 4.35994 6.68816 4.03535C6.39695 3.75013 6.04597 3.53321 5.66063 3.4003C5.2221 3.24904 4.74201 3.24944 4.13068 3.24994L4.02229 3.25H3C2.58579 3.25 2.25 3.58579 2.25 4C2.25 4.41421 2.58579 4.75 3 4.75H4.02229ZM10 3.25C9.58579 3.25 9.25 3.58579 9.25 4C9.25 4.41421 9.58579 4.75 10 4.75H13C13.4142 4.75 13.75 4.41421 13.75 4C13.75 3.58579 13.4142 3.25 13 3.25H10Z" fill="#525252"/>
</svg>
