<svg width="16" height="16" viewBox="0 0 16 16" fill="none" xmlns="http://www.w3.org/2000/svg">
<path opacity="0.1" fill-rule="evenodd" clip-rule="evenodd" d="M6.70792 12.7302C7.1133 13.1248 7.54516 13.5452 8 14C8.45484 13.5452 8.8867 13.1248 9.29208 12.7302C11.5605 10.5222 13 9.12097 13 7C13 4.5 11 2 8 2C5 2 3 4.5 3 7C3 9.12097 4.43952 10.5222 6.70792 12.7302ZM8 9C9.10457 9 10 8.10457 10 7C10 5.89543 9.10457 5 8 5C6.89543 5 6 5.89543 6 7C6 8.10457 6.89543 9 8 9Z" fill="#525252"/>
<path fill-rule="evenodd" clip-rule="evenodd" d="M2.75 6.83333C2.75 4.30173 4.84277 1.75 8 1.75C11.1572 1.75 13.25 4.30173 13.25 6.83333C13.25 8.0475 12.765 9.0476 11.7777 10.2132C11.0739 11.044 10.1706 11.8988 9.07152 12.9388L9.0714 12.9389C8.73281 13.2593 8.37564 13.5973 8 13.9576C7.62436 13.5973 7.26719 13.2593 6.9286 12.9389L6.92848 12.9388C5.82938 11.8988 4.92607 11.044 4.22228 10.2132C3.23499 9.0476 2.75 8.0475 2.75 6.83333ZM8 0.25C3.95723 0.25 1.25 3.5316 1.25 6.83333C1.25 8.53583 1.96501 9.86907 3.07772 11.1827C3.83733 12.0794 4.83483 13.0235 5.97002 14.0979C6.45029 14.5524 6.95521 15.0303 7.47719 15.5377C7.76828 15.8208 8.23172 15.8208 8.52281 15.5377C9.04479 15.0303 9.54971 14.5524 10.03 14.0979L10.03 14.0978C11.1652 13.0235 12.1627 12.0794 12.9223 11.1827C14.035 9.86907 14.75 8.53583 14.75 6.83333C14.75 3.5316 12.0428 0.25 8 0.25ZM6.75 7C6.75 6.30964 7.30964 5.75 8 5.75C8.69036 5.75 9.25 6.30964 9.25 7C9.25 7.69036 8.69036 8.25 8 8.25C7.30964 8.25 6.75 7.69036 6.75 7ZM8 4.25C6.48122 4.25 5.25 5.48122 5.25 7C5.25 8.51878 6.48122 9.75 8 9.75C9.51878 9.75 10.75 8.51878 10.75 7C10.75 5.48122 9.51878 4.25 8 4.25Z" fill="#525252"/>
</svg>
