<svg width="16" height="16" viewBox="0 0 16 16" fill="none" xmlns="http://www.w3.org/2000/svg">
<path opacity="0.1" fill-rule="evenodd" clip-rule="evenodd" d="M8 14C12.375 14 15 11.4286 15 8C15 4.57143 12.375 2 8 2C3.625 2 1 4.57143 1 8C1 9.27639 1.3638 10.434 2.04627 11.3843L1 14C2.48262 14 3.69046 13.7252 4.62354 13.3794C5.58369 13.7787 6.71654 14 8 14Z" fill="#525252"/>
<path fill-rule="evenodd" clip-rule="evenodd" d="M3.35816 4.27438C2.32412 5.19524 1.75 6.48696 1.75 8C1.75 9.13049 2.07081 10.1327 2.65546 10.9469C2.80491 11.155 2.83778 11.425 2.74262 11.6629L2.13141 13.1909C3.00983 13.0973 3.75326 12.9021 4.36288 12.6761C4.54056 12.6103 4.73658 12.6141 4.91154 12.6869C5.76904 13.0435 6.80227 13.25 8 13.25C10.0418 13.25 11.6021 12.6515 12.6418 11.7256C13.6759 10.8048 14.25 9.51304 14.25 8C14.25 6.48696 13.6759 5.19524 12.6418 4.27438C11.6021 3.3485 10.0418 2.75 8 2.75C5.95822 2.75 4.39785 3.3485 3.35816 4.27438ZM1.97076 13.5925L1.97064 13.5928L1.70714 13.4874L1.97064 13.5928C1.97068 13.5927 1.97072 13.5926 1.97076 13.5925ZM2.36059 3.15419C3.72715 1.93721 5.66678 1.25 8 1.25C10.3332 1.25 12.2729 1.93721 13.6394 3.15419C15.0116 4.37619 15.75 6.08446 15.75 8C15.75 9.91554 15.0116 11.6238 13.6394 12.8458C12.2729 14.0628 10.3332 14.75 8 14.75C6.74693 14.75 5.60838 14.5522 4.60959 14.1799C3.82433 14.4452 2.88263 14.6556 1.78579 14.7253C0.844184 14.7851 0.256426 13.8395 0.577921 13.0358L1.20348 11.4719C0.575789 10.4581 0.25 9.27281 0.25 8C0.25 6.08446 0.988384 4.37619 2.36059 3.15419Z" fill="#525252"/>
</svg>
