<svg width="16" height="16" viewBox="0 0 16 16" fill="none" xmlns="http://www.w3.org/2000/svg">
<path opacity="0.1" fill-rule="evenodd" clip-rule="evenodd" d="M8 14C12.375 14 15 11.4286 15 8C15 4.57143 12.375 2 8 2C3.625 2 1 4.57143 1 8C1 9.27639 1.3638 10.434 2.04627 11.3843L1 14C2.48262 14 3.69046 13.7252 4.62354 13.3794C5.58369 13.7787 6.71654 14 8 14Z" fill="#525252"/>
<path fill-rule="evenodd" clip-rule="evenodd" d="M1.75 8C1.75 6.48696 2.32412 5.19524 3.35816 4.27438C4.39785 3.3485 5.95822 2.75 8 2.75C10.0418 2.75 11.6021 3.3485 12.6418 4.27438C13.6759 5.19524 14.25 6.48696 14.25 8C14.25 9.51303 13.6759 10.8048 12.6418 11.7256C11.6021 12.6515 10.0418 13.25 8 13.25C6.80227 13.25 5.76904 13.0435 4.91154 12.6869C4.73658 12.6141 4.54056 12.6103 4.36288 12.6761C3.75326 12.9021 3.00983 13.0973 2.13141 13.1909L2.74262 11.6629C2.83778 11.425 2.80491 11.155 2.65546 10.9469C2.07081 10.1327 1.75 9.13049 1.75 8ZM8 1.25C5.66678 1.25 3.72715 1.93721 2.36059 3.15419C0.988384 4.37619 0.25 6.08446 0.25 8C0.25 9.27281 0.575789 10.4581 1.20348 11.4719L0.577921 13.0358C0.256426 13.8395 0.844184 14.7851 1.78579 14.7253C2.88263 14.6556 3.82433 14.4452 4.60959 14.1799C5.60838 14.5522 6.74693 14.75 8 14.75C10.3332 14.75 12.2729 14.0628 13.6394 12.8458C15.0116 11.6238 15.75 9.91554 15.75 8C15.75 6.08446 15.0116 4.37619 13.6394 3.15419C12.2729 1.93721 10.3332 1.25 8 1.25ZM5 9C5.55228 9 6 8.55228 6 8C6 7.44772 5.55228 7 5 7C4.44772 7 4 7.44772 4 8C4 8.55228 4.44772 9 5 9ZM9 8C9 8.55228 8.55229 9 8 9C7.44772 9 7 8.55228 7 8C7 7.44772 7.44772 7 8 7C8.55229 7 9 7.44772 9 8ZM11 9C11.5523 9 12 8.55228 12 8C12 7.44772 11.5523 7 11 7C10.4477 7 10 7.44772 10 8C10 8.55228 10.4477 9 11 9Z" fill="#525252"/>
</svg>
