<svg width="16" height="16" viewBox="0 0 16 16" fill="none" xmlns="http://www.w3.org/2000/svg">
<path opacity="0.1" fill-rule="evenodd" clip-rule="evenodd" d="M13.1992 10.9968C13.1331 10.9989 13.0667 11 13 11C9.68629 11 7 8.31371 7 5C7 3.90848 7.29147 2.88503 7.80082 2.00324C4.57931 2.10832 2 4.75294 2 8C2 11.3137 4.68629 14 8 14C10.2222 14 12.1622 12.7919 13.1992 10.9968Z" fill="#525252"/>
<path d="M13.1992 10.9968L13.8486 11.3719C13.9848 11.1361 13.9825 10.8449 13.8425 10.6113C13.7026 10.3777 13.4469 10.2383 13.1747 10.2472L13.1992 10.9968ZM7.80082 2.00324L8.45026 2.37838C8.58648 2.14255 8.58416 1.8514 8.44418 1.61777C8.3042 1.38415 8.04857 1.24476 7.77637 1.25364L7.80082 2.00324ZM13.1747 10.2472C13.1167 10.249 13.0585 10.25 13 10.25V11.75C13.0748 11.75 13.1494 11.7488 13.2236 11.7464L13.1747 10.2472ZM13 10.25C10.1005 10.25 7.75 7.89949 7.75 5H6.25C6.25 8.72792 9.27208 11.75 13 11.75V10.25ZM7.75 5C7.75 4.04367 8.00502 3.14918 8.45026 2.37838L7.15138 1.62811C6.57792 2.62088 6.25 3.77328 6.25 5H7.75ZM2.75 8C2.75 5.15897 5.00691 2.84477 7.82527 2.75285L7.77637 1.25364C4.15171 1.37187 1.25 4.34692 1.25 8H2.75ZM8 13.25C5.10051 13.25 2.75 10.8995 2.75 8H1.25C1.25 11.7279 4.27208 14.75 8 14.75V13.25ZM12.5497 10.6216C11.6413 12.1944 9.94347 13.25 8 13.25V14.75C10.5009 14.75 12.6832 13.3895 13.8486 11.3719L12.5497 10.6216Z" fill="#525252"/>
</svg>
