<svg width="16" height="16" viewBox="0 0 16 16" fill="none" xmlns="http://www.w3.org/2000/svg">
<g clip-path="url(#clip0_35_8426)">
<path opacity="0.1" d="M12 7C11 12.5 9.50001 14 2 14C5.5 10 1 5 9 4L12 7Z" fill="#525252"/>
<path fill-rule="evenodd" clip-rule="evenodd" d="M8.7327 4.79336C7.02965 5.046 6.07845 5.48883 5.52099 5.98307C4.94569 6.49314 4.69505 7.14177 4.5523 7.9983C4.48568 8.39798 4.44614 8.81828 4.40239 9.28337L4.39022 9.41243C4.34237 9.91833 4.2871 10.468 4.18259 11.0282C4.04854 11.7467 3.83205 12.4915 3.44032 13.228C6.29176 13.1344 7.93892 12.7375 8.99171 11.9594C10.1167 11.1279 10.7054 9.75005 11.1899 7.25057L8.7327 4.79336ZM12.5349 6.47422C12.5309 6.47012 12.5268 6.46607 12.5227 6.46206L9.53587 3.47521C9.53293 3.47221 9.52996 3.46923 9.52697 3.46628C9.27095 3.20663 9.27207 2.7886 9.53033 2.53033C9.78972 2.27094 10.2103 2.27094 10.4697 2.53033L13.4697 5.53033C13.7291 5.78972 13.7291 6.21028 13.4697 6.46967C13.2118 6.72754 12.7947 6.72906 12.5349 6.47422ZM12.5445 8.11601C12.0593 10.375 11.369 12.0675 9.8833 13.1656C8.22701 14.3898 5.74221 14.75 2 14.75C1.70572 14.75 1.43863 14.5779 1.31703 14.3099C1.19543 14.0419 1.24178 13.7276 1.43557 13.5061C2.19664 12.6363 2.52917 11.7118 2.70804 10.7531C2.79884 10.2663 2.84904 9.77699 2.89689 9.27117L2.90966 9.13547C2.95228 8.68131 2.99677 8.2073 3.07271 7.7517C3.24245 6.73323 3.58557 5.69436 4.52588 4.86068C5.28395 4.18858 6.36272 3.71003 7.87626 3.41771C7.74251 2.7344 7.94031 1.99903 8.46967 1.46967C9.31485 0.624494 10.6852 0.624494 11.5303 1.46967L14.5303 4.46967C15.3755 5.31485 15.3755 6.68516 14.5303 7.53033C13.9912 8.06946 13.2384 8.26468 12.5445 8.11601Z" fill="#525252"/>
</g>
<defs>
<clipPath id="clip0_35_8426">
<rect width="16" height="16" fill="white"/>
</clipPath>
</defs>
</svg>
