<svg width="16" height="16" viewBox="0 0 16 16" fill="none" xmlns="http://www.w3.org/2000/svg">
<path opacity="0.1" d="M6 12L4 14C3.44772 14.5523 2.55228 14.5523 2 14C1.44772 13.4477 1.44771 12.5523 2 12L4 10C4.27262 9.72738 4.40894 9.59106 4.48181 9.44402C4.62045 9.16424 4.62045 8.83576 4.48181 8.55598C4.40894 8.40894 4.27262 8.27262 4 8C3.72738 7.72738 3.59106 7.59106 3.51819 7.44402C3.37955 7.16424 3.37955 6.83576 3.51819 6.55598C3.59106 6.40894 3.72737 6.27263 4 6L4 6L5 5L11 11L10 12C9.72738 12.2726 9.59106 12.4089 9.44402 12.4818C9.16424 12.6204 8.83576 12.6204 8.55598 12.4818C8.40894 12.4089 8.27262 12.2726 8 12C7.72738 11.7274 7.59106 11.5911 7.44402 11.5182C7.16424 11.3796 6.83576 11.3796 6.55598 11.5182C6.40894 11.5911 6.27263 11.7274 6 12Z" fill="#525252"/>
<path fill-rule="evenodd" clip-rule="evenodd" d="M8.25257 3.05789C8.17011 3.00314 8.05155 3.00912 7.96752 3.09315L6.06066 5L11 9.93934L13.0026 7.93675C13.0782 7.86114 13.0715 7.7848 13.052 7.74709C12.8273 7.3123 12.4653 6.69247 11.9723 6.08833L11.0303 7.03033C10.7374 7.32322 10.2626 7.32322 9.96967 7.03033C9.67678 6.73744 9.67678 6.26256 9.96967 5.96967L10.9166 5.02278C10.07 4.29755 8.96609 3.53168 8.25257 3.05789ZM12.5303 4.46967C11.5599 3.49925 9.958 2.38975 9.08233 1.80829C8.3886 1.34764 7.48164 1.4577 6.90686 2.03249L4.46967 4.46967L3.60104 5.3383L3.5825 5.35684L3.5825 5.35684C3.40042 5.5389 3.23319 5.7061 3.10483 5.85731C2.96643 6.02033 2.82974 6.21339 2.74987 6.45922C2.63566 6.8107 2.63566 7.1893 2.74987 7.54078C2.82974 7.78661 2.96643 7.97967 3.10483 8.14269C3.23319 8.2939 3.40042 8.46111 3.5825 8.64316L3.60104 8.6617L3.68808 8.74873C3.91881 8.97947 4.05785 9.11941 4.15198 9.23115C4.20944 9.29936 4.2288 9.33297 4.23365 9.34245C4.24734 9.39441 4.24392 9.4494 4.22389 9.49927C4.2179 9.50807 4.19452 9.53902 4.12904 9.59958C4.02178 9.69877 3.86646 9.82039 3.60888 10.0207L1.65586 11.5397C0.707009 12.2777 0.619688 13.6803 1.46967 14.5303C2.31966 15.3803 3.72227 15.293 4.46026 14.3441L5.97928 12.3911C6.17962 12.1335 6.30123 11.9782 6.40043 11.871C6.46098 11.8055 6.49193 11.7821 6.50073 11.7761C6.5506 11.7561 6.60559 11.7527 6.65756 11.7663C6.66703 11.7712 6.70065 11.7906 6.76885 11.848C6.88059 11.9422 7.02053 12.0812 7.25127 12.3119L7.3383 12.399L7.35684 12.4175C7.5389 12.5996 7.7061 12.7668 7.85731 12.8952C8.02033 13.0336 8.21339 13.1703 8.45922 13.2501C8.8107 13.3643 9.1893 13.3643 9.54078 13.2501C9.78661 13.1703 9.97967 13.0336 10.1427 12.8952C10.2939 12.7668 10.4611 12.5996 10.6431 12.4175L10.6432 12.4175L10.6617 12.399L11.5303 11.5303L14.0633 8.99741C14.5542 8.50647 14.733 7.73259 14.3846 7.05849C14.0531 6.41688 13.4373 5.37666 12.5303 4.46967ZM5 6.06066L4.6617 6.39896C4.45494 6.60572 4.33218 6.72931 4.24833 6.82807C4.19716 6.88835 4.17975 6.91778 4.17542 6.92601C4.16048 6.97421 4.16048 7.0258 4.17542 7.07399C4.17975 7.08222 4.19716 7.11165 4.24833 7.17193C4.33218 7.27069 4.45494 7.39428 4.6617 7.60104L4.74874 7.68808L4.7687 7.70804C4.97302 7.91233 5.15863 8.09791 5.29915 8.26472C5.44913 8.44275 5.59803 8.65598 5.67526 8.92778C5.78442 9.31194 5.75889 9.72188 5.60293 10.0895C5.49258 10.3497 5.31839 10.5428 5.14749 10.7008C4.98737 10.8489 4.7802 11.01 4.55214 11.1874L4.55213 11.1874L4.55208 11.1874L4.52979 11.2048L2.57677 12.7238C2.34011 12.9078 2.31833 13.2577 2.53033 13.4697C2.74233 13.6817 3.09216 13.6599 3.27623 13.4232L4.79525 11.4702L4.81258 11.4479C4.98995 11.2198 5.15108 11.0126 5.29917 10.8525C5.45722 10.6816 5.65034 10.5074 5.91046 10.3971C6.27812 10.2411 6.68806 10.2156 7.07222 10.3247C7.34402 10.402 7.55725 10.5509 7.73528 10.7008C7.90208 10.8414 8.08766 11.027 8.29195 11.2313L8.31193 11.2513L8.39896 11.3383C8.60572 11.5451 8.72931 11.6678 8.82807 11.7517C8.88835 11.8028 8.91778 11.8203 8.92601 11.8246C8.9742 11.8395 9.02579 11.8395 9.07399 11.8246C9.08221 11.8203 9.11164 11.8028 9.17193 11.7517C9.2707 11.6678 9.39428 11.5451 9.60104 11.3383L9.93934 11L5 6.06066Z" fill="#525252"/>
</svg>
