<svg width="16" height="16" viewBox="0 0 16 16" fill="none" xmlns="http://www.w3.org/2000/svg">
<g clip-path="url(#clip0_35_8353)">
<path opacity="0.1" d="M1 8C1 3.5078 4 1 8 1C12 1 15 3.5 15 8C15 11.11 12.6119 10.8766 11.1365 10.4356C10.4915 10.2429 9.75596 10.4881 9.45492 11.0902L9.41405 11.1719C9.17428 11.6514 9.31177 12.2338 9.74067 12.5555L10.0789 12.8092C10.5957 13.1968 10.7196 13.9205 10.3613 14.458C10.1356 14.7966 9.75423 15.0032 9.34757 14.9879C4.22471 14.7955 1 12.3119 1 8Z" fill="#525252"/>
<path fill-rule="evenodd" clip-rule="evenodd" d="M8 0.25C5.84453 0.25 3.89725 0.927456 2.48322 2.27189C1.06311 3.62209 0.25 5.57962 0.25 8C0.25 10.3625 1.14341 12.2816 2.77768 13.6192C4.38992 14.9387 6.65364 15.6373 9.31942 15.7374C10.0015 15.763 10.6234 15.417 10.9854 14.874C11.5645 14.0054 11.3641 12.8356 10.5289 12.2092L10.1907 11.9555C10.0517 11.8513 10.0072 11.6626 10.0849 11.5073L10.1257 11.4256C10.2344 11.2082 10.5588 11.0457 10.9217 11.1542C11.6877 11.3831 12.852 11.6157 13.8707 11.2568C14.4084 11.0674 14.8999 10.7146 15.2457 10.1425C15.5838 9.58304 15.75 8.86832 15.75 8C15.75 5.57602 14.9371 3.61823 13.5166 2.26875C12.1022 0.925142 10.1549 0.25 8 0.25ZM1.75 8C1.75 5.92818 2.43689 4.38571 3.51678 3.35896C4.60275 2.32644 6.15547 1.75 8 1.75C9.84514 1.75 11.3978 2.32486 12.4834 3.35625C13.5629 4.38177 14.25 5.92398 14.25 8C14.25 8.68667 14.1176 9.10901 13.9619 9.36665C13.8138 9.61174 13.6161 9.75615 13.3723 9.84201C12.8281 10.0337 12.0607 9.92905 11.3513 9.71703C10.4243 9.43998 9.2775 9.76794 8.78409 10.7548L8.74323 10.8365C8.34136 11.6402 8.57179 12.6163 9.29068 13.1555L9.62889 13.4092C9.82723 13.5579 9.87481 13.8357 9.73729 14.042C9.64778 14.1762 9.50699 14.2434 9.37572 14.2384C6.91864 14.1462 5.00857 13.5067 3.72774 12.4584C2.46894 11.4281 1.75 9.94937 1.75 8ZM4.5 10C5.32843 10 6 9.32843 6 8.5C6 7.67157 5.32843 7 4.5 7C3.67157 7 3 7.67157 3 8.5C3 9.32843 3.67157 10 4.5 10ZM8 4.5C8 5.32843 7.32843 6 6.5 6C5.67157 6 5 5.32843 5 4.5C5 3.67157 5.67157 3 6.5 3C7.32843 3 8 3.67157 8 4.5ZM10.5 8C11.3284 8 12 7.32843 12 6.5C12 5.67157 11.3284 5 10.5 5C9.67157 5 9 5.67157 9 6.5C9 7.32843 9.67157 8 10.5 8Z" fill="#525252"/>
</g>
<defs>
<clipPath id="clip0_35_8353">
<rect width="16" height="16" fill="white"/>
</clipPath>
</defs>
</svg>
