<svg width="16" height="16" viewBox="0 0 16 16" fill="none" xmlns="http://www.w3.org/2000/svg">
<path opacity="0.1" d="M12 4L8 2V12L12 4Z" fill="#525252"/>
<path opacity="0.2" d="M14 7L12 4L9 11L14 7Z" fill="#525252"/>
<path fill-rule="evenodd" clip-rule="evenodd" d="M3.57378 1.25C3.5825 1.25 3.59124 1.25 3.6 1.25H8C8.11644 1.25 8.23127 1.27711 8.33541 1.32918L12.3354 3.32918C12.4522 3.38755 12.5516 3.47538 12.624 3.58398L13.8265 5.38771L13.8401 5.40806C13.9694 5.60199 14.0892 5.78162 14.1783 5.94076C14.275 6.11358 14.3648 6.31168 14.4002 6.54762C14.4512 6.8879 14.4007 7.23566 14.2552 7.54742C14.1542 7.7636 14.0118 7.92802 13.87 8.06623C13.7394 8.19352 13.5735 8.33172 13.3944 8.48092L13.3756 8.49658L8.48014 12.5762C8.4441 12.6062 8.40592 12.6324 8.36616 12.6546C7.75485 13.8959 6.47717 14.75 5 14.75C2.92893 14.75 1.25 13.0711 1.25 11V3.6C1.25 3.59124 1.25 3.5825 1.25 3.57378C1.24998 3.3163 1.24997 3.07981 1.26612 2.88213C1.28353 2.669 1.32339 2.43582 1.44074 2.20552C1.60852 1.87623 1.87624 1.60852 2.20552 1.44074C2.43583 1.32339 2.669 1.28353 2.88213 1.26612C3.07982 1.24996 3.3163 1.24998 3.57378 1.25ZM5 13.25C6.24264 13.25 7.25 12.2426 7.25 11V2.75H3.6C3.3076 2.75 3.13341 2.75058 3.00428 2.76113C2.92547 2.76757 2.89234 2.77607 2.88346 2.77882C2.83883 2.80234 2.80235 2.83882 2.77883 2.88346C2.77607 2.89234 2.76757 2.92547 2.76114 3.00428C2.75059 3.1334 2.75 3.3076 2.75 3.6V11C2.75 12.2426 3.75736 13.25 5 13.25ZM2.77973 2.88088C2.77974 2.8809 2.77956 2.88144 2.77917 2.88239ZM2.88088 2.77973C2.88085 2.77972 2.88132 2.77952 2.88239 2.77917ZM8.75 3.21353L10.9938 4.33541L8.75 8.82295V3.21353ZM10.2743 9.12848L12.4154 7.34425C12.6196 7.17409 12.7395 7.07348 12.8231 6.99196C12.8742 6.94215 12.8925 6.91746 12.8971 6.91055C12.9167 6.86735 12.9237 6.81944 12.9171 6.77243C12.9147 6.76451 12.9042 6.73565 12.8693 6.67338C12.8123 6.57145 12.7259 6.44092 12.5785 6.21976L12.0929 5.49135L10.2743 9.12848ZM12.9177 6.77477C12.9177 6.77476 12.9175 6.77418 12.9173 6.77309ZM12.8983 6.90849C12.8984 6.90847 12.8981 6.90894 12.8975 6.90992Z" fill="#525252"/>
<circle cx="5" cy="11" r="1" fill="#525252"/>
</svg>
