<svg width="16" height="16" viewBox="0 0 16 16" fill="none" xmlns="http://www.w3.org/2000/svg">
<path opacity="0.1" d="M9 4C8.44771 3.44771 8.44772 2.55228 9 2V2C9.55228 1.44772 10.4477 1.44771 11 2L14 5C14.5523 5.55229 14.5523 6.44772 14 7V7C13.4477 7.55229 12.5523 7.55229 12 7L9 4Z" fill="#525252"/>
<path fill-rule="evenodd" clip-rule="evenodd" d="M4.62616 5.63962L8.7535 4.81415L11.1859 7.24651L10.3604 11.3738L4.35151 12.7091L7.11147 9.94919C7.23539 9.98233 7.36563 10 7.5 10C8.32843 10 9 9.32843 9 8.5C9 7.67157 8.32843 7 7.5 7C6.67157 7 6 7.67157 6 8.5C6 8.63437 6.01767 8.76461 6.05081 8.88853L3.29086 11.6485L4.62616 5.63962ZM12.5221 6.46144L12.5355 6.47474C12.7952 6.72905 13.212 6.72736 13.4697 6.46967C13.7291 6.21028 13.7291 5.78972 13.4697 5.53033L10.4697 2.53033C10.2103 2.27094 9.78973 2.27094 9.53033 2.53033C9.27265 2.78802 9.27095 3.20476 9.52526 3.46454L9.53858 3.47791L12.5221 6.46144ZM11.7354 12.1471L12.5418 8.11541C13.2364 8.2652 13.9905 8.07017 14.5303 7.53033C15.3755 6.68515 15.3755 5.31485 14.5303 4.46967L11.5303 1.46967C10.6852 0.624492 9.31485 0.624492 8.46967 1.46967C7.92983 2.00951 7.7348 2.76359 7.88459 3.45823L3.85292 4.26456C3.5617 4.32281 3.33229 4.54739 3.26786 4.8373L1.26786 13.8373C1.21224 14.0876 1.28835 14.349 1.46967 14.5303C1.65099 14.7116 1.91238 14.7878 2.1627 14.7321L11.1627 12.7321C11.4526 12.6677 11.6772 12.4383 11.7354 12.1471Z" fill="#525252"/>
</svg>
