<svg width="16" height="16" viewBox="0 0 16 16" fill="none" xmlns="http://www.w3.org/2000/svg">
<path opacity="0.1" d="M10.5 5.5C11.3055 6.3055 12.6344 6.23875 13.3636 5.36364C14.0046 4.59451 13.9579 3.45794 13.25 2.75C12.5421 2.04206 11.4055 1.99542 10.6364 2.63636C9.76125 3.36563 9.6945 4.6945 10.5 5.5Z" fill="#525252"/>
<path fill-rule="evenodd" clip-rule="evenodd" d="M10.0555 1.88388C11.1294 0.809942 12.8706 0.809944 13.9445 1.88389L14.1161 2.05546C15.1901 3.1294 15.1901 4.8706 14.1161 5.94454L12.5303 7.53033L7.53033 12.5303C6.41132 13.6493 5.51523 13.9661 4.6233 14.1148C4.42707 14.1475 4.24583 14.1716 4.07247 14.1947C3.49375 14.2717 3.00286 14.3371 2.33541 14.6708C2.04667 14.8152 1.69794 14.7586 1.46967 14.5303C1.2414 14.3021 1.18481 13.9533 1.32918 13.6646C1.6629 12.9971 1.72825 12.5063 1.80529 11.9275C1.82837 11.7542 1.8525 11.5729 1.88521 11.3767C2.03386 10.4848 2.35066 9.58868 3.46967 8.46967L8.46929 3.47005L8.46967 3.46967L8.47005 3.46929L10.0555 1.88388ZM13.0555 4.88388L12 5.93934L10.0607 4L11.1161 2.94454C11.6043 2.45639 12.3957 2.45639 12.8839 2.94455L13.0555 3.11612C13.5436 3.60427 13.5436 4.39573 13.0555 4.88388ZM10.9393 7L9 5.06066L4.53033 9.53033C4.09676 9.9639 3.8322 10.3304 3.66323 10.6632L5.33678 12.3368C5.66965 12.1678 6.0361 11.9032 6.46967 11.4697L10.9393 7Z" fill="#525252"/>
</svg>
