<svg width="16" height="16" viewBox="0 0 16 16" fill="none" xmlns="http://www.w3.org/2000/svg">
<path opacity="0.1" d="M10.5 5.5C11.3055 6.3055 12.6344 6.23875 13.3636 5.36364C14.0046 4.59451 13.9579 3.45794 13.25 2.75C12.5421 2.04206 11.4055 1.99542 10.6364 2.63636C9.76125 3.36563 9.6945 4.6945 10.5 5.5Z" fill="#525252"/>
<path fill-rule="evenodd" clip-rule="evenodd" d="M13.8497 1.79348C12.8009 0.840076 11.1991 0.840076 10.1503 1.79348C10.1014 1.83787 10.0496 1.88976 9.9822 1.95714L9.96967 1.96967L8.46967 3.46967L2.87556 9.06378L2.81512 9.1242L2.81511 9.12421C2.35426 9.58479 2.03526 9.90361 1.8026 10.2833C1.59699 10.6188 1.44548 10.9846 1.35361 11.3672C1.24966 11.8002 1.2498 12.2512 1.24998 12.9028L1.25 12.9882V14C1.25 14.4142 1.58579 14.75 2 14.75H3.01177L3.09723 14.75H3.09725C3.7488 14.7502 4.19981 14.7503 4.63278 14.6464C5.01542 14.5545 5.38121 14.403 5.71673 14.1974C6.09639 13.9647 6.41521 13.6457 6.8758 13.1849L6.93622 13.1244L12.5301 7.53056C12.5302 7.53049 12.5303 7.53041 12.5303 7.53033C12.5304 7.53025 12.5305 7.53018 12.5306 7.5301L14.0303 6.03033L14.0429 6.01777L14.0429 6.01773C14.1103 5.9504 14.1621 5.89854 14.2065 5.84973C15.1599 4.80086 15.1599 3.19914 14.2065 2.15027C14.1621 2.10145 14.1103 2.04959 14.0429 1.98225L14.0429 1.98221L14.0303 1.96967L14.0178 1.95714C13.9504 1.88976 13.8986 1.83787 13.8497 1.79348ZM12 5.93934L12.9697 4.96967C13.0554 4.8839 13.0795 4.85949 13.0965 4.84079C13.5299 4.36403 13.5299 3.63597 13.0965 3.15921C13.0795 3.14051 13.0554 3.1161 12.9697 3.03033C12.8839 2.94456 12.8595 2.92046 12.8408 2.90345C12.364 2.47009 11.636 2.47009 11.1592 2.90345C11.1405 2.92046 11.1161 2.94456 11.0303 3.03033L10.0607 4L12 5.93934ZM9 5.06066L3.93622 10.1244C3.39212 10.6685 3.20992 10.8576 3.08156 11.067C2.95819 11.2683 2.86729 11.4878 2.81217 11.7174C2.75482 11.9563 2.75 12.2188 2.75 12.9882V13.25H3.01177C3.78125 13.25 4.04374 13.2452 4.28261 13.1878C4.51219 13.1327 4.73167 13.0418 4.93298 12.9184C5.14244 12.7901 5.33146 12.6079 5.87556 12.0638L10.9393 7L9 5.06066Z" fill="#525252"/>
</svg>
