<svg width="16" height="16" viewBox="0 0 16 16" fill="none" xmlns="http://www.w3.org/2000/svg">
<path fill-rule="evenodd" clip-rule="evenodd" d="M4.5 3.75C4.08579 3.75 3.75 4.08579 3.75 4.5C3.75 4.91421 4.08579 5.25 4.5 5.25C4.91421 5.25 5.25 4.91421 5.25 4.5C5.25 4.08579 4.91421 3.75 4.5 3.75ZM2.25 4.5C2.25 3.25736 3.25736 2.25 4.5 2.25C5.74264 2.25 6.75 3.25736 6.75 4.5C6.75 5.74264 5.74264 6.75 4.5 6.75C3.25736 6.75 2.25 5.74264 2.25 4.5ZM12.5303 3.46967C12.8232 3.76256 12.8232 4.23744 12.5303 4.53033L4.53033 12.5303C4.23744 12.8232 3.76256 12.8232 3.46967 12.5303C3.17678 12.2374 3.17678 11.7626 3.46967 11.4697L11.4697 3.46967C11.7626 3.17678 12.2374 3.17678 12.5303 3.46967ZM10.75 11.5C10.75 11.0858 11.0858 10.75 11.5 10.75C11.9142 10.75 12.25 11.0858 12.25 11.5C12.25 11.9142 11.9142 12.25 11.5 12.25C11.0858 12.25 10.75 11.9142 10.75 11.5ZM11.5 9.25C10.2574 9.25 9.25 10.2574 9.25 11.5C9.25 12.7426 10.2574 13.75 11.5 13.75C12.7426 13.75 13.75 12.7426 13.75 11.5C13.75 10.2574 12.7426 9.25 11.5 9.25Z" fill="#525252"/>
</svg>
