<svg width="16" height="16" viewBox="0 0 16 16" fill="none" xmlns="http://www.w3.org/2000/svg">
<path opacity="0.1" d="M6 5L7 4L9.5 4.5L13 3L11.5 6.5L12.5 8.5L11 10L6 5Z" fill="#525252"/>
<path opacity="0.2" d="M8 10H3V13H6L8 10Z" fill="#525252"/>
<path fill-rule="evenodd" clip-rule="evenodd" d="M13.5303 2.46967C12.6774 1.6167 11.2499 1.79243 10.6293 2.82681L10.3167 3.34775C10.167 3.5973 9.89729 3.75 9.60626 3.75H9.28102C9.24585 3.75 9.21147 3.73959 9.18221 3.72008L8.71117 3.40605C7.95136 2.89952 6.93965 2.9997 6.29394 3.64541C5.66851 4.27084 5.56594 5.22113 5.98622 5.95311L3.46967 8.46967C2.35066 9.58868 2.03386 10.4848 1.8852 11.3767C1.8525 11.5729 1.82837 11.7542 1.80529 11.9275C1.72825 12.5063 1.6629 12.9971 1.32918 13.6646C1.18481 13.9533 1.2414 14.3021 1.46967 14.5303C1.69794 14.7586 2.04667 14.8152 2.33541 14.6708C3.00286 14.3371 3.49374 14.2717 4.07247 14.1947C4.24583 14.1716 4.42707 14.1475 4.6233 14.1148C5.51523 13.9661 6.41132 13.6493 7.53033 12.5303L10.0469 10.0138C10.7789 10.4341 11.7292 10.3315 12.3546 9.70607C13.0003 9.06036 13.1005 8.04864 12.594 7.28884L12.2799 6.81779C12.2604 6.78853 12.25 6.75415 12.25 6.71899V6.39374C12.25 6.10272 12.4027 5.83303 12.6523 5.68329L13.1732 5.37073C14.2076 4.7501 14.3833 3.32264 13.5303 2.46967ZM8.93934 9L7 7.06066L4.53033 9.53033C3.64934 10.4113 3.46614 11.0152 3.36479 11.6233C3.34386 11.7489 3.32624 11.8851 3.30733 12.0313C3.27686 12.2669 3.24304 12.5284 3.18657 12.8134C3.47157 12.757 3.73306 12.7231 3.96861 12.6927L3.96865 12.6927L3.96867 12.6927C4.11487 12.6738 4.25107 12.6561 4.3767 12.6352C4.98477 12.5339 5.58868 12.3507 6.46967 11.4697L8.93934 9ZM10.5303 8.46967L10.7061 8.64541C10.8684 8.80774 11.1316 8.80774 11.2939 8.64541C11.4341 8.50529 11.4558 8.28576 11.3459 8.12089L11.0318 7.64985C10.8481 7.37418 10.75 7.05029 10.75 6.71899V6.39374C10.75 5.57582 11.1791 4.81787 11.8805 4.39705L12.4015 4.08449C12.599 3.96594 12.6326 3.69326 12.4697 3.53033C12.3067 3.3674 12.0341 3.40096 11.9155 3.59855L11.6029 4.11949C11.1821 4.82086 10.4242 5.25 9.60626 5.25H9.28102C8.94971 5.25 8.62582 5.15193 8.35016 4.96816L7.87912 4.65413C7.71424 4.54422 7.49471 4.56595 7.3546 4.70607C7.19226 4.8684 7.19226 5.1316 7.3546 5.29394L7.53033 5.46967L10.5303 8.46967Z" fill="#525252"/>
</svg>
