<svg width="16" height="16" viewBox="0 0 16 16" fill="none" xmlns="http://www.w3.org/2000/svg">
<path opacity="0.1" d="M14 3.5C14 3.03406 14 2.80109 13.9239 2.61732C13.8224 2.37229 13.6277 2.17761 13.3827 2.07612C13.1989 2 12.9659 2 12.5 2H11C9.34315 2 8 3.34315 8 5V5C8 6.65685 9.34315 8 11 8V8C12.6569 8 14 6.65685 14 5V3.5Z" fill="#525252"/>
<path fill-rule="evenodd" clip-rule="evenodd" d="M12.5 1.25L12.5218 1.25C12.736 1.24999 12.9329 1.24997 13.0982 1.26125C13.2759 1.27337 13.4712 1.30099 13.6697 1.38321C14.0985 1.56082 14.4392 1.9015 14.6168 2.3303C14.699 2.52881 14.7266 2.72415 14.7387 2.90179C14.75 3.0671 14.75 3.26393 14.75 3.47819V3.47824L14.75 3.5V5C14.75 7.07107 13.0711 8.75 11 8.75C10.4068 8.75 9.84586 8.61229 9.34727 8.36709C9.24937 8.61496 9.16832 8.86765 9.10071 9.12682C8.75495 10.4522 8.74999 11.9717 8.75 14C8.75 14.4142 8.41422 14.75 8 14.75C7.58579 14.75 7.25 14.4142 7.25 14V13.9995C7.24996 13.063 7.13233 12.4825 6.84438 11.9642C6.58198 11.4919 6.14658 11.0131 5.38609 10.3756C4.9791 10.6136 4.50548 10.75 4 10.75C2.48122 10.75 1.25 9.51878 1.25 8V7C1.25 6.0335 2.0335 5.25 3 5.25H4C5.51878 5.25 6.75 6.48122 6.75 8C6.75 8.46702 6.63358 8.90685 6.42818 9.29206C6.79159 9.60003 7.11002 9.89598 7.38475 10.1934C7.44355 9.69429 7.528 9.21309 7.64928 8.74818C7.77006 8.2852 7.9264 7.84051 8.12663 7.40975C7.5795 6.75804 7.25 5.9175 7.25 5C7.25 2.92893 8.92893 1.25 11 1.25H12.5ZM10.0712 7.04994C10.429 6.5557 10.8881 6.06949 11.4801 5.57617C11.7983 5.31099 11.8413 4.83807 11.5762 4.51986C11.311 4.20165 10.8381 4.15866 10.5199 4.42383C9.90069 4.93981 9.3951 5.46158 8.98354 5.99931C8.83405 5.69824 8.75 5.35893 8.75 5C8.75 3.75736 9.75736 2.75 11 2.75H12.5C12.7432 2.75 12.8881 2.75041 12.9961 2.75778C13.0629 2.76233 13.0913 2.76844 13.0987 2.7703C13.1575 2.79558 13.2044 2.84248 13.2297 2.90131C13.2316 2.90866 13.2377 2.93707 13.2422 3.0039C13.2496 3.1119 13.25 3.25677 13.25 3.5V5C13.25 6.24264 12.2426 7.25 11 7.25C10.6688 7.25 10.3543 7.17844 10.0712 7.04994ZM4 9.25C4.69036 9.25 5.25 8.69036 5.25 8C5.25 7.30964 4.69036 6.75 4 6.75H3C2.86193 6.75 2.75 6.86193 2.75 7V8C2.75 8.69036 3.30964 9.25 4 9.25Z" fill="#525252"/>
</svg>
