<svg width="16" height="16" viewBox="0 0 16 16" fill="none" xmlns="http://www.w3.org/2000/svg">
<path fill-rule="evenodd" clip-rule="evenodd" d="M8.75 2C8.75 1.58579 8.41421 1.25 8 1.25C7.58579 1.25 7.25 1.58579 7.25 2V8C7.25 8.41421 7.58579 8.75 8 8.75C8.41421 8.75 8.75 8.41421 8.75 8V2ZM4.28769 4.28769C4.58058 3.9948 4.58058 3.51992 4.28769 3.22703C3.9948 2.93414 3.51992 2.93414 3.22703 3.22703C0.59099 5.86307 0.59099 10.1369 3.22703 12.773C5.86307 15.409 10.1369 15.409 12.773 12.773C15.409 10.1369 15.409 5.86307 12.773 3.22703C12.4801 2.93414 12.0052 2.93414 11.7123 3.22703C11.4194 3.51992 11.4194 3.9948 11.7123 4.28769C13.7626 6.33794 13.7626 9.66206 11.7123 11.7123C9.66206 13.7626 6.33794 13.7626 4.28769 11.7123C2.23744 9.66206 2.23744 6.33794 4.28769 4.28769Z" fill="#525252"/>
</svg>
