<svg width="16" height="16" viewBox="0 0 16 16" fill="none" xmlns="http://www.w3.org/2000/svg">
<g clip-path="url(#clip0_35_7410)">
<circle opacity="0.1" cx="8" cy="8" r="7" fill="#525252"/>
<path fill-rule="evenodd" clip-rule="evenodd" d="M8 1.75C4.54822 1.75 1.75 4.54822 1.75 8C1.75 11.4518 4.54822 14.25 8 14.25C11.4518 14.25 14.25 11.4518 14.25 8C14.25 4.54822 11.4518 1.75 8 1.75ZM0.25 8C0.25 3.71979 3.71979 0.25 8 0.25C12.2802 0.25 15.75 3.71979 15.75 8C15.75 12.2802 12.2802 15.75 8 15.75C3.71979 15.75 0.25 12.2802 0.25 8ZM6.05546 4.88388C6.46133 4.47801 7.0118 4.25 7.58579 4.25C8.78105 4.25 9.75 5.21895 9.75 6.41421C9.75 6.9882 9.52199 7.53867 9.11612 7.94454L8.53033 8.53033C8.23744 8.82322 7.76256 8.82322 7.46967 8.53033C7.17678 8.23744 7.17678 7.76256 7.46967 7.46967L8.05546 6.88388C8.18002 6.75932 8.25 6.59037 8.25 6.41421C8.25 6.04738 7.95262 5.75 7.58579 5.75C7.40963 5.75 7.24068 5.81998 7.11612 5.94454L6.53033 6.53033C6.23744 6.82322 5.76256 6.82322 5.46967 6.53033C5.17678 6.23744 5.17678 5.76256 5.46967 5.46967L6.05546 4.88388ZM8 12C8.55229 12 9 11.5523 9 11C9 10.4477 8.55229 10 8 10C7.44772 10 7 10.4477 7 11C7 11.5523 7.44772 12 8 12Z" fill="#525252"/>
</g>
<defs>
<clipPath id="clip0_35_7410">
<rect width="16" height="16" fill="white"/>
</clipPath>
</defs>
</svg>
