<svg width="16" height="16" viewBox="0 0 16 16" fill="none" xmlns="http://www.w3.org/2000/svg">
<g clip-path="url(#clip0_35_9530)">
<path opacity="0.1" fill-rule="evenodd" clip-rule="evenodd" d="M9.75368 1.84466C9.76582 1.92186 9.76582 2.0141 9.76582 2.19858C9.76582 2.35267 9.76582 2.42972 9.7715 2.48275C9.80729 2.81734 9.92086 3.00826 10.1978 3.1994C10.2417 3.22969 10.3419 3.28409 10.5422 3.3929C10.6122 3.43089 10.6812 3.47041 10.7492 3.5114L10.7492 3.51143C10.9548 3.63534 11.0575 3.6973 11.1105 3.72135C11.4061 3.85559 11.618 3.858 11.9166 3.73054C11.9701 3.7077 12.0415 3.66682 12.1844 3.58507C12.3597 3.48478 12.4473 3.43464 12.5279 3.40535C12.9227 3.26183 13.3651 3.38038 13.6353 3.70207C13.6904 3.76772 13.7413 3.85496 13.8429 4.02945L14.3908 4.96989C14.4853 5.13217 14.5326 5.21331 14.5613 5.28735C14.7182 5.69315 14.5948 6.15387 14.2559 6.42683C14.1941 6.47663 14.1126 6.52327 13.9496 6.61654L13.9496 6.61655C13.8142 6.694 13.7465 6.73273 13.7029 6.76434C13.4309 6.96156 13.3227 7.15285 13.2936 7.48758C13.289 7.54124 13.2914 7.65677 13.2963 7.88782C13.2971 7.92512 13.2975 7.96251 13.2975 8C13.2975 8.03748 13.2971 8.07486 13.2963 8.11215C13.2914 8.34322 13.289 8.45876 13.2937 8.51242C13.3227 8.84714 13.4309 9.03842 13.7029 9.23564C13.7465 9.26725 13.8142 9.30598 13.9496 9.38344L13.9496 9.38345L13.9496 9.38346C14.1126 9.47674 14.1942 9.52337 14.256 9.57318C14.5948 9.84614 14.7182 10.3068 14.5613 10.7126C14.5326 10.7867 14.4854 10.8678 14.3908 11.0301L14.3908 11.0301L13.843 11.9705L13.8429 11.9706C13.7413 12.145 13.6905 12.2323 13.6353 12.2979C13.3652 12.6196 12.9228 12.7382 12.5279 12.5947C12.4474 12.5654 12.3597 12.5152 12.1844 12.4149L12.1844 12.4149C12.0416 12.3332 11.9701 12.2923 11.9166 12.2694C11.618 12.142 11.4061 12.1444 11.1105 12.2786C11.0576 12.3027 10.9548 12.3647 10.7492 12.4886C10.6812 12.5296 10.6122 12.5691 10.5422 12.6071C10.3419 12.7159 10.2417 12.7703 10.1978 12.8006C9.92086 12.9917 9.80729 13.1827 9.7715 13.5173C9.76582 13.5703 9.76582 13.6473 9.76582 13.8014C9.76582 13.9859 9.76582 14.0781 9.75368 14.1553C9.68626 14.5841 9.34994 14.9204 8.92116 14.9879C8.84397 15 8.75172 15 8.56724 15H7.43272C7.24824 15 7.15599 15 7.0788 14.9879C6.65002 14.9204 6.3137 14.5841 6.24627 14.1553C6.23414 14.0781 6.23414 13.9859 6.23414 13.8014C6.23414 13.6473 6.23414 13.5703 6.22846 13.5173C6.19267 13.1827 6.0791 12.9917 5.80215 12.8006C5.75826 12.7703 5.65809 12.7159 5.45777 12.6071L5.45775 12.6071C5.38779 12.5691 5.31879 12.5296 5.25079 12.4886L5.25076 12.4886C5.04521 12.3647 4.94243 12.3027 4.88946 12.2787C4.59384 12.1444 4.38198 12.142 4.08338 12.2695C4.02987 12.2923 3.95843 12.3332 3.81556 12.4149C3.64029 12.5152 3.55266 12.5654 3.47209 12.5946C3.07727 12.7382 2.63484 12.6196 2.36467 12.2979C2.30954 12.2323 2.25871 12.145 2.15706 11.9706L1.60917 11.0301C1.51464 10.8678 1.46737 10.7867 1.43874 10.7127C1.28177 10.3069 1.40522 9.84613 1.74405 9.57316C1.80587 9.52336 1.88737 9.47673 2.05036 9.38347C2.18574 9.30602 2.25342 9.26729 2.29703 9.23567C2.56905 9.03846 2.6773 8.84716 2.70631 8.51243C2.71096 8.45877 2.70852 8.34325 2.70363 8.1122C2.70284 8.0749 2.70245 8.03749 2.70245 8C2.70245 7.9625 2.70284 7.92509 2.70363 7.88777C2.70852 7.65674 2.71097 7.54123 2.70632 7.48757C2.67731 7.15283 2.56905 6.96153 2.29702 6.76431C2.25342 6.73269 2.18574 6.69397 2.05038 6.61652C1.8874 6.52327 1.80591 6.47664 1.74409 6.42685C1.40525 6.15388 1.28179 5.69314 1.43877 5.28733C1.46741 5.2133 1.51467 5.13217 1.60919 4.96993L2.1571 4.02943C2.25874 3.85496 2.30956 3.76773 2.36469 3.70208C2.63486 3.38038 3.0773 3.26183 3.47212 3.40536C3.55269 3.43465 3.64032 3.48478 3.81558 3.58506L3.81558 3.58506C3.95845 3.66681 4.02988 3.70768 4.08339 3.73052C4.38199 3.85799 4.59386 3.85558 4.88947 3.72133C4.94245 3.69728 5.04523 3.63532 5.2508 3.5114C5.31879 3.47041 5.38779 3.43089 5.45775 3.3929C5.65809 3.28409 5.75826 3.22969 5.80215 3.1994C6.0791 3.00826 6.19267 2.81734 6.22846 2.48275C6.23414 2.42972 6.23414 2.35267 6.23414 2.19858C6.23414 2.0141 6.23414 1.92186 6.24627 1.84466C6.3137 1.41589 6.65002 1.07956 7.0788 1.01214C7.15599 1 7.24824 1 7.43272 1H8.56724C8.75172 1 8.84397 1 8.92116 1.01214C9.34994 1.07956 9.68626 1.41589 9.75368 1.84466ZM8.00001 10C9.10458 10 10 9.10457 10 8C10 6.89543 9.10458 6 8.00001 6C6.89544 6 6.00001 6.89543 6.00001 8C6.00001 9.10457 6.89544 10 8.00001 10Z" fill="#525252"/>
<path fill-rule="evenodd" clip-rule="evenodd" d="M7.43271 0.25L7.41248 0.249999C7.24425 0.249984 7.0827 0.249969 6.94567 0.259286C6.79644 0.269432 6.62255 0.293069 6.44296 0.367164C6.06157 0.524521 5.75865 0.827439 5.60129 1.20883C5.5272 1.38842 5.50356 1.56231 5.49342 1.71154C5.4841 1.84857 5.48411 2.01012 5.48413 2.17835L5.48413 2.19858C5.48413 2.34008 5.48396 2.42177 5.48131 2.4817C5.48045 2.50118 5.47946 2.51361 5.4788 2.52052C5.46962 2.52657 5.4528 2.53733 5.42561 2.55339C5.35484 2.59518 5.25579 2.64911 5.09981 2.73382C5.01995 2.77719 4.94119 2.8223 4.86358 2.86908C4.70674 2.96363 4.60729 3.02343 4.53327 3.06434C4.50612 3.07934 4.48823 3.08843 4.47789 3.0935C4.47119 3.09047 4.45999 3.08519 4.44339 3.07669C4.38833 3.04847 4.31509 3.00678 4.18804 2.93409L4.16966 2.92357L4.16965 2.92356C4.01728 2.83637 3.87086 2.75257 3.74166 2.69037C3.60074 2.62254 3.43038 2.5549 3.22854 2.5325C2.84166 2.48956 2.4528 2.59375 2.13922 2.82437C1.97562 2.94469 1.8619 3.08844 1.77377 3.21765C1.69298 3.33611 1.60806 3.4819 1.5197 3.6336L1.5197 3.63361L1.50905 3.6519L0.961135 4.59239L0.950844 4.61005L0.950841 4.61006C0.865072 4.75725 0.782769 4.8985 0.721225 5.02301C0.654247 5.15852 0.586545 5.3226 0.560658 5.51733C0.50631 5.92617 0.61714 6.3398 0.868618 6.66669C0.988397 6.82239 1.12907 6.93064 1.25483 7.01451C1.37038 7.09157 1.51227 7.17274 1.66014 7.25733L1.66015 7.25734L1.6779 7.26749C1.80149 7.33821 1.87283 7.37922 1.92389 7.41152C1.94035 7.42193 1.9507 7.429 1.95645 7.43306C1.95717 7.44419 1.95818 7.46432 1.95865 7.49611C1.95988 7.57908 1.95758 7.69294 1.9538 7.87191C1.95289 7.91451 1.95244 7.95721 1.95244 8C1.95244 8.04278 1.95289 8.08547 1.95379 8.12807C1.95758 8.30704 1.95987 8.4209 1.95865 8.50387C1.95817 8.53567 1.95716 8.55579 1.95645 8.56693C1.9507 8.57099 1.94035 8.57805 1.92389 8.58846C1.87282 8.62076 1.80148 8.66178 1.67789 8.7325L1.66015 8.74265L1.66014 8.74265C1.51226 8.82725 1.37036 8.90842 1.2548 8.98549C1.12903 9.06937 0.988354 9.17762 0.868571 9.33333C0.617112 9.66021 0.506288 10.0738 0.560626 10.4826C0.58651 10.6774 0.654214 10.8415 0.721195 10.977C0.782737 11.1015 0.865036 11.2427 0.950803 11.3899L0.950821 11.39L0.961116 11.4076L1.50901 12.3481L1.51967 12.3664L1.51967 12.3664C1.60803 12.5181 1.69295 12.6639 1.77374 12.7824C1.86187 12.9116 1.9756 13.0553 2.1392 13.1756C2.45277 13.4062 2.84163 13.5104 3.22849 13.4675C3.43034 13.4451 3.6007 13.3775 3.74163 13.3096C3.87083 13.2474 4.01727 13.1636 4.16964 13.0764L4.16966 13.0764L4.18802 13.0659C4.31508 12.9932 4.38832 12.9515 4.44338 12.9233C4.45998 12.9148 4.47118 12.9095 4.47788 12.9065C4.48822 12.9116 4.50611 12.9207 4.53325 12.9357C4.60728 12.9766 4.70674 13.0364 4.86358 13.1309C4.94119 13.1777 5.01995 13.2228 5.09981 13.2662C5.25579 13.3509 5.35484 13.4048 5.42561 13.4466C5.4528 13.4627 5.46962 13.4734 5.4788 13.4795C5.47946 13.4864 5.48045 13.4988 5.48131 13.5183C5.48396 13.5782 5.48413 13.6599 5.48413 13.8014L5.48413 13.8217C5.48411 13.9899 5.4841 14.1514 5.49342 14.2885C5.50356 14.4377 5.5272 14.6116 5.60129 14.7912C5.75865 15.1726 6.06157 15.4755 6.44296 15.6328C6.62255 15.7069 6.79644 15.7306 6.94567 15.7407C7.08269 15.75 7.24423 15.75 7.41245 15.75H7.41248L7.43272 15.75H8.56723L8.58747 15.75H8.5875C8.75571 15.75 8.91726 15.75 9.05428 15.7407C9.2035 15.7306 9.3774 15.7069 9.55699 15.6328C9.93838 15.4755 10.2413 15.1726 10.3987 14.7912C10.4727 14.6116 10.4964 14.4377 10.5065 14.2885C10.5158 14.1514 10.5158 13.9899 10.5158 13.8217V13.8217L10.5158 13.8014C10.5158 13.6599 10.516 13.5782 10.5186 13.5183C10.5195 13.4988 10.5205 13.4864 10.5212 13.4795C10.5303 13.4734 10.5471 13.4627 10.5743 13.4466C10.6451 13.4048 10.7442 13.3509 10.9001 13.2662C10.98 13.2228 11.0588 13.1777 11.1364 13.1309C11.2932 13.0364 11.3927 12.9765 11.4667 12.9356C11.4939 12.9206 11.5118 12.9115 11.5221 12.9065C11.5288 12.9095 11.54 12.9148 11.5566 12.9233C11.6117 12.9515 11.6849 12.9932 11.812 13.0659L11.8304 13.0764C11.9827 13.1636 12.1292 13.2474 12.2584 13.3096C12.3993 13.3775 12.5697 13.4451 12.7715 13.4675C13.1584 13.5104 13.5472 13.4062 13.8608 13.1757C14.0244 13.0553 14.1381 12.9116 14.2263 12.7824C14.3071 12.6639 14.392 12.5181 14.4803 12.3664L14.491 12.3481L15.0389 11.4077L15.0492 11.3899C15.135 11.2427 15.2173 11.1015 15.2788 10.977C15.3458 10.8414 15.4135 10.6773 15.4394 10.4826C15.4937 10.0738 15.3829 9.66023 15.1315 9.33337C15.0117 9.17765 14.871 9.06938 14.7452 8.9855C14.6296 8.90842 14.4877 8.82723 14.3398 8.74263L14.3221 8.73248C14.1985 8.66176 14.1271 8.62074 14.0761 8.58843C14.0596 8.57803 14.0493 8.57096 14.0435 8.5669C14.0428 8.55577 14.0418 8.53564 14.0413 8.50385C14.0401 8.42087 14.0424 8.30699 14.0462 8.12801C14.0471 8.08544 14.0475 8.04276 14.0475 8C14.0475 7.95723 14.0471 7.91454 14.0462 7.87196C14.0424 7.69298 14.0401 7.57911 14.0413 7.49614C14.0418 7.46435 14.0428 7.44422 14.0435 7.43309C14.0493 7.42902 14.0596 7.42196 14.0761 7.41155C14.1271 7.37925 14.1985 7.33823 14.3221 7.26751L14.3398 7.25734C14.4877 7.17275 14.6296 7.09157 14.7452 7.0145C14.8709 6.93063 15.0116 6.82237 15.1314 6.66665C15.3829 6.33978 15.4937 5.92618 15.4394 5.51739C15.4135 5.32264 15.3458 5.15854 15.2788 5.02302C15.2172 4.89848 15.1349 4.75721 15.0491 4.60999L15.0388 4.59236L14.491 3.65191L14.4803 3.63362C14.3919 3.48191 14.307 3.33611 14.2262 3.21765C14.1381 3.08843 14.0244 2.94467 13.8608 2.82435C13.5472 2.59375 13.1583 2.48956 12.7715 2.5325C12.5696 2.5549 12.3993 2.62253 12.2583 2.69037C12.1291 2.75257 11.9827 2.83637 11.8303 2.92357L11.8119 2.9341C11.6849 3.0068 11.6116 3.04849 11.5566 3.0767C11.54 3.08521 11.5288 3.09049 11.5221 3.09352C11.5117 3.08845 11.4938 3.07936 11.4667 3.06435C11.3927 3.02345 11.2932 2.96364 11.1364 2.86909C11.0588 2.8223 10.98 2.7772 10.9001 2.73382C10.7442 2.64911 10.6451 2.59518 10.5743 2.55339C10.5471 2.53733 10.5303 2.52657 10.5212 2.52053C10.5205 2.51361 10.5195 2.50118 10.5186 2.4817C10.516 2.42177 10.5158 2.34008 10.5158 2.19858L10.5158 2.17835V2.17832C10.5158 2.0101 10.5158 1.84856 10.5065 1.71154C10.4964 1.56231 10.4727 1.38842 10.3987 1.20883C10.2413 0.827439 9.93838 0.524521 9.55699 0.367164C9.3774 0.293069 9.2035 0.269432 9.05428 0.259286C8.91725 0.249969 8.75569 0.249984 8.58746 0.249999L8.56723 0.25H7.43271ZM6.98996 1.81329C6.99132 1.79323 6.99281 1.77925 6.99397 1.77021C6.9969 1.76627 7.0004 1.76277 7.00434 1.75984C7.01338 1.75868 7.02735 1.7572 7.04742 1.75583C7.12725 1.7504 7.23678 1.75 7.43271 1.75H8.56723C8.76317 1.75 8.87269 1.7504 8.95253 1.75583C8.97259 1.7572 8.98657 1.75868 8.9956 1.75984C8.99955 1.76277 9.00305 1.76626 9.00598 1.77021C9.00713 1.77925 9.00862 1.79323 9.00999 1.81329C9.01541 1.89312 9.01582 2.00265 9.01582 2.19858L9.0157 2.25799V2.25801C9.01513 2.46198 9.01446 2.69886 9.07089 2.90485C9.10413 3.02622 9.15085 3.15708 9.22993 3.29002C9.30901 3.42297 9.40172 3.52647 9.4925 3.61361C9.59774 3.71461 9.71862 3.79007 9.81156 3.84496C9.90846 3.90219 10.0317 3.9691 10.1727 4.04567L10.1843 4.05197C10.2443 4.08459 10.3036 4.11852 10.362 4.15372L10.3738 4.16084C10.5153 4.24619 10.6393 4.32094 10.7412 4.37722C10.8392 4.4314 10.9701 4.49933 11.1162 4.5389C11.3901 4.61304 11.6168 4.61562 11.8922 4.54774C12.108 4.49456 12.3208 4.37196 12.5037 4.2666L12.5569 4.23604C12.7345 4.13444 12.8338 4.07809 12.909 4.04193C12.9277 4.03292 12.941 4.02713 12.9498 4.02357C12.9536 4.02414 12.9573 4.02513 12.9609 4.02655C12.9667 4.03401 12.9753 4.04568 12.987 4.06284C13.034 4.13173 13.0919 4.23021 13.1949 4.40699L13.7428 5.34743C13.8426 5.51883 13.8981 5.61496 13.9341 5.68765C13.9431 5.70594 13.9489 5.71895 13.9525 5.72747C13.9519 5.73224 13.9507 5.7369 13.9488 5.74131C13.9414 5.74689 13.9299 5.75525 13.9129 5.76657C13.8455 5.81156 13.7493 5.86705 13.5771 5.96556L13.5251 5.99518C13.3467 6.09661 13.1396 6.21434 12.9883 6.3665C12.9003 6.45496 12.8105 6.55983 12.7346 6.69381C12.6588 6.82779 12.6152 6.95883 12.5846 7.07978C12.5487 7.22201 12.5431 7.3654 12.5415 7.47392C12.5398 7.58725 12.5428 7.72854 12.5462 7.8904L12.5465 7.90368C12.5472 7.93569 12.5475 7.9678 12.5475 8C12.5475 8.03219 12.5472 8.06429 12.5465 8.0963L12.5462 8.10956L12.5462 8.10961C12.5428 8.27146 12.5398 8.41274 12.5415 8.52607C12.5431 8.6346 12.5487 8.778 12.5846 8.92023C12.6152 9.04117 12.6588 9.1722 12.7346 9.30618C12.8105 9.44015 12.9003 9.54502 12.9883 9.63348C13.1396 9.78564 13.3467 9.90338 13.5252 10.0048L13.5771 10.0344C13.7493 10.1329 13.8455 10.1884 13.9129 10.2334C13.9299 10.2447 13.9415 10.2531 13.9488 10.2587C13.9507 10.2631 13.952 10.2678 13.9525 10.2725C13.9489 10.281 13.9431 10.2941 13.9341 10.3123C13.8982 10.385 13.8426 10.4812 13.7428 10.6526L13.1949 11.593C13.0919 11.7698 13.034 11.8683 12.987 11.9372C12.9753 11.9543 12.9667 11.966 12.9609 11.9734C12.9573 11.9749 12.9536 11.9759 12.9498 11.9764C12.941 11.9729 12.9277 11.9671 12.909 11.9581C12.8339 11.9219 12.7345 11.8656 12.5569 11.764L12.5037 11.7334L12.5037 11.7334C12.3208 11.628 12.108 11.5054 11.8922 11.4522C11.6168 11.3844 11.3901 11.387 11.1163 11.4611C10.9701 11.5007 10.8392 11.5686 10.7412 11.6228C10.6394 11.679 10.5154 11.7538 10.3739 11.8391L10.362 11.8463C10.3036 11.8815 10.2443 11.9154 10.1843 11.948L10.1726 11.9544C10.0316 12.0309 9.90844 12.0978 9.81156 12.155C9.71862 12.2099 9.59773 12.2854 9.4925 12.3864C9.40172 12.4735 9.30901 12.577 9.22993 12.71C9.15085 12.8429 9.10413 12.9738 9.07089 13.0951C9.01446 13.3011 9.01513 13.538 9.0157 13.742V13.742L9.01582 13.8014C9.01582 13.9974 9.01541 14.1069 9.00999 14.1867C9.00862 14.2068 9.00714 14.2207 9.00598 14.2298C9.00305 14.2337 8.99955 14.2372 8.99561 14.2402C8.98657 14.2413 8.97259 14.2428 8.95253 14.2442C8.87269 14.2496 8.76317 14.25 8.56723 14.25H7.43272C7.23678 14.25 7.12725 14.2496 7.04742 14.2442C7.02736 14.2428 7.01338 14.2413 7.00434 14.2402C7.00039 14.2372 6.9969 14.2337 6.99397 14.2298C6.99281 14.2207 6.99132 14.2068 6.98996 14.1867C6.98453 14.1069 6.98413 13.9974 6.98413 13.8014L6.98424 13.742C6.98482 13.538 6.98549 13.3012 6.92906 13.0951C6.89581 12.9738 6.8491 12.8429 6.77002 12.71C6.69093 12.577 6.59823 12.4735 6.50745 12.3864C6.40221 12.2854 6.28133 12.2099 6.18839 12.155C6.09151 12.0978 5.96833 12.0309 5.82738 11.9544L5.82734 11.9544L5.81569 11.948C5.75563 11.9154 5.69638 11.8815 5.638 11.8463L5.62629 11.8392C5.48467 11.7538 5.36064 11.6791 5.25878 11.6228C5.16073 11.5686 5.02984 11.5007 4.88372 11.4611C4.60989 11.387 4.38318 11.3844 4.10773 11.4523C3.89196 11.5054 3.67913 11.628 3.49624 11.7334L3.44308 11.764C3.26551 11.8656 3.16614 11.9219 3.09102 11.9581C3.07229 11.9671 3.05896 11.9729 3.05022 11.9764C3.04641 11.9759 3.04269 11.9749 3.03911 11.9734C3.03332 11.966 3.02466 11.9543 3.01296 11.9372C2.96598 11.8683 2.90809 11.7698 2.80511 11.593L2.25721 10.6526C2.15736 10.4812 2.10184 10.385 2.06591 10.3123C2.05687 10.2941 2.05105 10.281 2.04746 10.2725C2.04803 10.2678 2.04928 10.2631 2.05117 10.2587C2.05854 10.2531 2.07008 10.2447 2.08705 10.2334C2.15451 10.1884 2.25066 10.133 2.42283 10.0344L2.47481 10.0048C2.65325 9.90341 2.86037 9.78568 3.01165 9.63353C3.09962 9.54506 3.18949 9.44019 3.26532 9.3062C3.34114 9.17221 3.38477 9.04117 3.41532 8.92021C3.45124 8.77799 3.45687 8.6346 3.45848 8.52608C3.46016 8.41275 3.45717 8.27145 3.45374 8.10958L3.45346 8.09634C3.45278 8.06432 3.45244 8.0322 3.45244 8C3.45244 7.96779 3.45278 7.93567 3.45346 7.90364L3.45374 7.89041C3.45717 7.72855 3.46016 7.58724 3.45848 7.47391C3.45688 7.3654 3.45125 7.22202 3.41533 7.0798C3.38478 6.95883 3.34115 6.82778 3.26532 6.69379C3.18949 6.55979 3.09961 6.45491 3.01164 6.36644C2.86037 6.2143 2.65326 6.09658 2.47482 5.99516L2.42284 5.96554C2.25068 5.86704 2.15454 5.81156 2.08708 5.76657C2.07011 5.75525 2.05856 5.74689 2.0512 5.74131C2.0493 5.7369 2.04805 5.73224 2.04749 5.72747C2.05108 5.71895 2.0569 5.70594 2.06594 5.68765C2.10186 5.61497 2.15738 5.51885 2.25723 5.34746L2.80514 4.40697C2.90812 4.2302 2.96601 4.13172 3.01298 4.06284C3.02469 4.04568 3.03335 4.03401 3.03914 4.02655C3.04271 4.02514 3.04644 4.02414 3.05025 4.02357C3.05899 4.02713 3.07232 4.03292 3.09104 4.04193C3.16617 4.07809 3.26554 4.13444 3.4431 4.23604L3.49625 4.26659C3.67914 4.37194 3.89196 4.49454 4.10773 4.54772C4.38319 4.61561 4.60991 4.61303 4.88375 4.53888C5.02986 4.49931 5.16075 4.43139 5.25879 4.37721C5.36063 4.32093 5.48462 4.24618 5.62619 4.16083L5.62621 4.16082L5.638 4.15371C5.69638 4.11852 5.75563 4.08459 5.81569 4.05197L5.82729 4.04567L5.82733 4.04565C5.96831 3.96909 6.0915 3.90218 6.18839 3.84496C6.28133 3.79007 6.40221 3.71461 6.50745 3.61361C6.59823 3.52647 6.69093 3.42297 6.77002 3.29002C6.8491 3.15708 6.89581 3.02622 6.92906 2.90485C6.98549 2.69885 6.98482 2.46197 6.98424 2.25799L6.98413 2.19858C6.98413 2.00265 6.98453 1.89312 6.98996 1.81329ZM6.75 8C6.75 7.30964 7.30964 6.75 8 6.75C8.69036 6.75 9.25 7.30964 9.25 8C9.25 8.69036 8.69036 9.25 8 9.25C7.30964 9.25 6.75 8.69036 6.75 8ZM8 5.25C6.48122 5.25 5.25 6.48122 5.25 8C5.25 9.51878 6.48122 10.75 8 10.75C9.51878 10.75 10.75 9.51878 10.75 8C10.75 6.48122 9.51878 5.25 8 5.25Z" fill="#525252"/>
</g>
<defs>
<clipPath id="clip0_35_9530">
<rect width="16" height="16" fill="white"/>
</clipPath>
</defs>
</svg>
