<svg width="16" height="16" viewBox="0 0 16 16" fill="none" xmlns="http://www.w3.org/2000/svg">
<path opacity="0.1" d="M2 2C2 2 5 1 8 1C11 1 14 2 14 2V8C14 12 10.5 13.3281 8 14.8281C5.5 13.3281 2 12 2 8V2Z" fill="#525252"/>
<path fill-rule="evenodd" clip-rule="evenodd" d="M2.75 8V2.55682C3.06484 2.46737 3.50819 2.34981 4.0377 2.23214C5.13449 1.98841 6.57561 1.75 8 1.75C9.42439 1.75 10.8655 1.98841 11.9623 2.23214C12.4918 2.34981 12.9352 2.46737 13.25 2.55682V8C13.25 9.73285 12.5111 10.8706 11.4489 11.7825C10.6462 12.4717 9.71815 12.9914 8.7644 13.5255C8.51079 13.6675 8.25537 13.8106 8 13.9581C7.74466 13.8106 7.48927 13.6676 7.23569 13.5256L7.2356 13.5255C6.28185 12.9914 5.35377 12.4717 4.55106 11.7825C3.48888 10.8706 2.75 9.73285 2.75 8ZM14.2372 1.28849L14 2C14.2372 1.28849 14.2371 1.28845 14.2369 1.28841L14.2366 1.2883L14.2358 1.28803L14.2333 1.2872L14.2251 1.2845L14.1958 1.27499C14.1707 1.26689 14.1346 1.25536 14.088 1.24089C13.995 1.21195 13.8605 1.1712 13.6904 1.12261C13.3505 1.02548 12.8671 0.896617 12.2877 0.76786C11.1345 0.511591 9.57561 0.25 8 0.25C6.42439 0.25 4.86551 0.511591 3.7123 0.76786C3.13289 0.896617 2.64952 1.02548 2.30958 1.12261C2.1395 1.1712 2.00499 1.21195 1.91197 1.24089C1.86544 1.25536 1.82927 1.26689 1.80417 1.27499L1.77492 1.2845L1.7667 1.2872L1.76421 1.28803L1.76338 1.2883L1.76307 1.28841C1.76294 1.28845 1.76283 1.28849 2 2L1.76283 1.28849L1.25 1.45943V2V8C1.25 10.2671 2.26112 11.7935 3.57394 12.9206C4.49915 13.7149 5.63175 14.3491 6.62748 14.9067L6.62754 14.9067C6.97842 15.1032 7.3123 15.2901 7.61413 15.4712L8 15.7028L8.38587 15.4712C8.6877 15.2901 9.02158 15.1032 9.37246 14.9067L9.37252 14.9067C10.3683 14.3491 11.5008 13.7149 12.4261 12.9206C13.7389 11.7935 14.75 10.2671 14.75 8V2V1.45943L14.2372 1.28849ZM11.5303 5.53033C11.8232 5.23744 11.8232 4.76256 11.5303 4.46967C11.2374 4.17678 10.7626 4.17678 10.4697 4.46967L7 7.93934L5.53033 6.46967C5.23744 6.17678 4.76256 6.17678 4.46967 6.46967C4.17678 6.76256 4.17678 7.23744 4.46967 7.53033L6.46967 9.53033C6.61032 9.67098 6.80109 9.75 7 9.75C7.19891 9.75 7.38968 9.67098 7.53033 9.53033L11.5303 5.53033Z" fill="#525252"/>
</svg>
