<svg width="16" height="16" viewBox="0 0 16 16" fill="none" xmlns="http://www.w3.org/2000/svg">
<path opacity="0.1" d="M2 2C2 2 5 1 8 1C11 1 14 2 14 2V8C14 12 10.5 13.3281 8 14.8281C5.5 13.3281 2 12 2 8V2Z" fill="#525252"/>
<path fill-rule="evenodd" clip-rule="evenodd" d="M2.75 2.55682V8C2.75 9.73285 3.48888 10.8706 4.55106 11.7825C5.35377 12.4717 6.28185 12.9914 7.2356 13.5255C7.48921 13.6675 7.74464 13.8106 8 13.9581C8.25537 13.8106 8.51079 13.6675 8.7644 13.5255C9.71815 12.9914 10.6462 12.4717 11.4489 11.7825C12.5111 10.8706 13.25 9.73285 13.25 8V2.55682C12.9352 2.46737 12.4918 2.34981 11.9623 2.23214C10.8655 1.98841 9.42439 1.75 8 1.75C6.57561 1.75 5.13449 1.98841 4.0377 2.23214C3.50819 2.34981 3.06484 2.46737 2.75 2.55682ZM14 2L14.2372 1.28849L14.75 1.45943V2V8C14.75 10.2671 13.7389 11.7935 12.4261 12.9206C11.5008 13.7149 10.3683 14.3491 9.37252 14.9067C9.02162 15.1032 8.68771 15.2901 8.38587 15.4712L8 15.7028L7.61413 15.4712C7.31229 15.2901 6.97838 15.1032 6.62748 14.9067C5.63175 14.3491 4.49915 13.7149 3.57394 12.9206C2.26112 11.7935 1.25 10.2671 1.25 8V2V1.45943L1.76283 1.28849L2 2C1.76283 1.28849 1.76294 1.28845 1.76307 1.28841L1.76338 1.2883L1.76421 1.28803L1.7667 1.2872L1.77492 1.2845L1.80417 1.27499C1.82927 1.26689 1.86544 1.25536 1.91197 1.24089C2.00499 1.21195 2.1395 1.1712 2.30958 1.12261C2.64952 1.02548 3.13289 0.896617 3.7123 0.76786C4.86551 0.511591 6.42439 0.25 8 0.25C9.57561 0.25 11.1345 0.511591 12.2877 0.76786C12.8671 0.896617 13.3505 1.02548 13.6904 1.12261C13.8605 1.1712 13.995 1.21195 14.088 1.24089C14.1346 1.25536 14.1707 1.26689 14.1958 1.27499L14.2251 1.2845L14.2333 1.2872L14.2358 1.28803L14.2366 1.2883L14.2369 1.28841C14.2371 1.28845 14.2372 1.28849 14 2Z" fill="#525252"/>
</svg>
