<svg width="16" height="16" viewBox="0 0 16 16" fill="none" xmlns="http://www.w3.org/2000/svg">
<g clip-path="url(#clip0_35_9446)">
<path opacity="0.1" d="M2 2C2 2 5 1 8 1C11 1 14 2 14 2V8C14 12 10.5 13.3281 8 14.8281C5.5 13.3281 2 12 2 8V2Z" fill="#525252"/>
<path fill-rule="evenodd" clip-rule="evenodd" d="M1.53033 0.46967C1.23744 0.176777 0.762563 0.176777 0.46967 0.46967C0.176777 0.762563 0.176777 1.23744 0.46967 1.53033L14.4697 15.5303C14.7626 15.8232 15.2374 15.8232 15.5303 15.5303C15.8232 15.2374 15.8232 14.7626 15.5303 14.4697L1.53033 0.46967ZM5.12702 2.01723C6.01539 1.86457 7.01293 1.75 8 1.75C9.42439 1.75 10.8655 1.98841 11.9623 2.23214C12.4918 2.34981 12.9352 2.46737 13.25 2.55682V8C13.25 8.67079 13.1395 9.24124 12.9536 9.73621C12.8079 10.124 13.0041 10.5564 13.3918 10.7021C13.7796 10.8478 14.212 10.6515 14.3577 10.2638C14.6107 9.59056 14.75 8.84046 14.75 8V2V1.45943L14.2372 1.28849L14 2C14.2372 1.28849 14.2371 1.28845 14.2369 1.28841L14.2366 1.2883L14.2358 1.28803L14.2333 1.2872L14.2251 1.2845L14.1958 1.27499C14.1707 1.26689 14.1346 1.25536 14.088 1.24089C13.995 1.21195 13.8605 1.1712 13.6904 1.12261C13.3505 1.02548 12.8671 0.896617 12.2877 0.76786C11.1345 0.511591 9.57561 0.25 8 0.25C6.90329 0.25 5.81706 0.376662 4.87298 0.538901C4.46475 0.609055 4.19068 0.996861 4.26084 1.40509C4.33099 1.81332 4.71879 2.08738 5.12702 2.01723ZM2.75 6C2.75 5.58579 2.41421 5.25 2 5.25C1.58579 5.25 1.25 5.58579 1.25 6V8C1.25 10.2671 2.26112 11.7935 3.57394 12.9206C4.49915 13.7149 5.63175 14.3491 6.62748 14.9067L6.62754 14.9067C6.97842 15.1032 7.3123 15.2901 7.61413 15.4712L8 15.7028L8.38587 15.4712C8.73548 15.2615 9.06658 15.0764 9.41385 14.8824L9.41392 14.8823C9.71583 14.7136 10.03 14.538 10.3792 14.3334C10.7365 14.124 10.8565 13.6646 10.6471 13.3072C10.4377 12.9498 9.97823 12.8298 9.62085 13.0392C9.34685 13.1998 9.0373 13.3735 8.72505 13.5487C8.47995 13.6862 8.23319 13.8247 8.00065 13.9585C7.74515 13.8109 7.48959 13.6678 7.23584 13.5257L7.2356 13.5255C6.28185 12.9914 5.35377 12.4717 4.55106 11.7825C3.48888 10.8706 2.75 9.73285 2.75 8V6Z" fill="#525252"/>
</g>
<defs>
<clipPath id="clip0_35_9446">
<rect width="16" height="16" fill="white"/>
</clipPath>
</defs>
</svg>
