<svg width="16" height="16" viewBox="0 0 16 16" fill="none" xmlns="http://www.w3.org/2000/svg">
<circle opacity="0.2" cx="10" cy="8" r="2" fill="#525252"/>
<path fill-rule="evenodd" clip-rule="evenodd" d="M6 2.25C2.82436 2.25 0.25 4.82436 0.25 8C0.25 11.1756 2.82436 13.75 6 13.75H10C13.1756 13.75 15.75 11.1756 15.75 8C15.75 4.82436 13.1756 2.25 10 2.25H6ZM1.75 8C1.75 5.65279 3.65279 3.75 6 3.75H10C12.3472 3.75 14.25 5.65279 14.25 8C14.25 10.3472 12.3472 12.25 10 12.25H6C3.65279 12.25 1.75 10.3472 1.75 8ZM8.75 8C8.75 7.30964 9.30964 6.75 10 6.75C10.6904 6.75 11.25 7.30964 11.25 8C11.25 8.69036 10.6904 9.25 10 9.25C9.30964 9.25 8.75 8.69036 8.75 8ZM10 5.25C8.48122 5.25 7.25 6.48122 7.25 8C7.25 9.51878 8.48122 10.75 10 10.75C11.5188 10.75 12.75 9.51878 12.75 8C12.75 6.48122 11.5188 5.25 10 5.25Z" fill="#525252"/>
</svg>
