<svg width="16" height="16" viewBox="0 0 16 16" fill="none" xmlns="http://www.w3.org/2000/svg">
<circle opacity="0.2" cx="6" cy="8" r="2" fill="#525252"/>
<path fill-rule="evenodd" clip-rule="evenodd" d="M6 2.25C2.82436 2.25 0.25 4.82436 0.25 8C0.25 11.1756 2.82436 13.75 6 13.75H10C13.1756 13.75 15.75 11.1756 15.75 8C15.75 4.82436 13.1756 2.25 10 2.25H6ZM1.75 8C1.75 5.65279 3.65279 3.75 6 3.75H10C12.3472 3.75 14.25 5.65279 14.25 8C14.25 10.3472 12.3472 12.25 10 12.25H6C3.65279 12.25 1.75 10.3472 1.75 8ZM4.75 8C4.75 7.30964 5.30964 6.75 6 6.75C6.69036 6.75 7.25 7.30964 7.25 8C7.25 8.69036 6.69036 9.25 6 9.25C5.30964 9.25 4.75 8.69036 4.75 8ZM6 5.25C4.48122 5.25 3.25 6.48122 3.25 8C3.25 9.51878 4.48122 10.75 6 10.75C7.51878 10.75 8.75 9.51878 8.75 8C8.75 6.48122 7.51878 5.25 6 5.25Z" fill="#525252"/>
</svg>
