<svg width="16" height="16" viewBox="0 0 16 16" fill="none" xmlns="http://www.w3.org/2000/svg">
<path fill-rule="evenodd" clip-rule="evenodd" d="M7.40114 0.483932C7.77439 0.280208 8.22561 0.280207 8.59887 0.483931C8.93501 0.667398 9.08984 1.01017 9.16662 1.1893C9.25847 1.40357 9.35347 1.68863 9.46045 2.00961L9.47046 2.03967L10.5292 5.21581C10.5332 5.2279 10.537 5.23926 10.5406 5.24999C10.5519 5.25 10.5639 5.25 10.5766 5.25H13.0648L13.0964 5.25C13.5051 5.24999 13.8558 5.24997 14.121 5.27041C14.2585 5.281 14.4078 5.29924 14.5493 5.33783C14.6861 5.37515 14.881 5.44856 15.0471 5.61384C15.3626 5.92773 15.4875 6.38569 15.3749 6.81626C15.3156 7.04298 15.1849 7.20514 15.0859 7.30672C14.9836 7.41177 14.8642 7.50322 14.7511 7.58213C14.5329 7.73431 14.2307 7.91223 13.8786 8.11958L13.8513 8.13564L11.9367 9.26309C11.9244 9.27032 11.9128 9.27712 11.9019 9.28356C11.9059 9.2956 11.9101 9.30832 11.9146 9.32186L12.8669 12.2055L12.8769 12.2356C12.9952 12.5938 13.0981 12.9055 13.1577 13.1497C13.1888 13.2772 13.2167 13.4193 13.2234 13.5623C13.23 13.7029 13.2193 13.9007 13.1223 14.1014C12.9321 14.4948 12.5501 14.7604 12.115 14.8017C11.8931 14.8227 11.7041 14.7639 11.5745 14.7087C11.4429 14.6526 11.3193 14.5769 11.2106 14.5034C11.0025 14.3625 10.7462 14.1574 10.4516 13.9217L10.4268 13.9019L8.03124 11.9855C8.0202 11.9766 8.00982 11.9683 8 11.9605C7.99019 11.9683 7.97981 11.9766 7.96877 11.9855L5.57318 13.9019L5.54842 13.9217C5.25387 14.1574 4.99755 14.3625 4.78939 14.5034C4.68074 14.5769 4.55717 14.6526 4.42549 14.7087C4.29597 14.7639 4.10689 14.8227 3.88497 14.8016C3.44989 14.7604 3.06796 14.4948 2.87771 14.1014C2.78068 13.9007 2.76998 13.7029 2.77659 13.5623C2.78331 13.4193 2.81121 13.2772 2.84231 13.1497C2.90187 12.9055 3.00483 12.5938 3.12313 12.2357L3.13309 12.2055L4.08546 9.32186C4.08993 9.30832 4.09413 9.2956 4.0981 9.28356C4.08719 9.27712 4.07564 9.27032 4.06336 9.26309L2.1487 8.13564L2.12147 8.1196C1.76929 7.91224 1.46711 7.73431 1.24894 7.58213C1.13582 7.50322 1.01646 7.41177 0.914128 7.30672C0.815163 7.20514 0.684463 7.04298 0.625171 6.81626C0.51257 6.38569 0.63739 5.92773 0.952897 5.61384C1.11903 5.44856 1.31393 5.37515 1.45076 5.33783C1.59224 5.29924 1.7415 5.281 1.87901 5.27041C2.14423 5.24997 2.49491 5.24999 2.9036 5.25L2.9352 5.25H5.4234C5.43614 5.25 5.44812 5.25 5.45943 5.24999C5.46302 5.23926 5.46681 5.2279 5.47084 5.21581L6.52955 2.03967L6.53957 2.00959C6.64654 1.68862 6.74154 1.40357 6.83339 1.1893C6.91017 1.01018 7.065 0.6674 7.40114 0.483932ZM8.00001 2.37193C7.985 2.41678 7.96921 2.46409 7.95257 2.51401L6.89386 5.69015C6.8896 5.70292 6.88508 5.71686 6.88022 5.73179C6.83341 5.87588 6.75629 6.11324 6.59853 6.30189C6.46428 6.46242 6.29188 6.58667 6.09714 6.66327C5.86828 6.75327 5.61872 6.75138 5.46722 6.75023C5.45152 6.75011 5.43687 6.75 5.4234 6.75H2.9352C2.87098 6.75 2.80999 6.75001 2.75203 6.75008C2.80194 6.77954 2.85449 6.8105 2.90983 6.84309L4.82448 7.97054L4.83931 7.97927C4.92536 8.02991 5.02119 8.08631 5.10168 8.14206C5.19461 8.20642 5.30882 8.29731 5.4078 8.43269C5.54217 8.61647 5.6238 8.83346 5.64388 9.06024C5.65866 9.22729 5.63268 9.37091 5.60522 9.48057C5.58142 9.57555 5.54653 9.68112 5.51519 9.77592L5.50979 9.79226L4.55743 12.6759C4.53892 12.7319 4.52136 12.7851 4.50474 12.8356C4.54631 12.8025 4.59005 12.7675 4.63614 12.7306L7.03173 10.8142L7.04505 10.8035C7.1224 10.7416 7.20862 10.6726 7.28883 10.6175C7.38149 10.5539 7.50617 10.48 7.66671 10.4356C7.88481 10.3752 8.1152 10.3752 8.33329 10.4356C8.49384 10.48 8.61852 10.5539 8.71118 10.6175C8.79137 10.6726 8.87758 10.7416 8.95491 10.8035L8.96828 10.8142L11.3639 12.7306C11.41 12.7675 11.4537 12.8025 11.4953 12.8357C11.4787 12.7851 11.4611 12.7319 11.4426 12.6759L10.4902 9.79226L10.4848 9.77592C10.4535 9.68112 10.4186 9.57555 10.3948 9.48057C10.3673 9.37091 10.3414 9.22729 10.3561 9.06024C10.3762 8.83346 10.4579 8.61647 10.5922 8.43269C10.6912 8.29731 10.8054 8.20642 10.8983 8.14206C10.9788 8.08631 11.0747 8.02991 11.1607 7.97927L11.1755 7.97054L13.0902 6.84309C13.1455 6.8105 13.1981 6.77954 13.248 6.75008C13.19 6.75001 13.129 6.75 13.0648 6.75H10.5766C10.5632 6.75 10.5485 6.75011 10.5328 6.75023C10.3813 6.75138 10.1317 6.75327 9.90288 6.66327C9.70814 6.58667 9.53574 6.46242 9.4015 6.30189C9.24374 6.11324 9.16661 5.87589 9.1198 5.7318C9.11494 5.71686 9.11042 5.70293 9.10616 5.69015L8.04744 2.51401C8.0308 2.46409 8.01502 2.41678 8.00001 2.37193ZM14.1545 6.78496C14.1568 6.78558 14.1562 6.78555 14.1531 6.7846ZM14.0104 6.26105C14.0126 6.25869 14.0131 6.25834 14.0115 6.26002C14.0112 6.26031 14.0108 6.26066 14.0104 6.26105ZM1.98856 6.26002C1.98693 6.25834 1.98744 6.25869 1.98958 6.26104C1.98919 6.26065 1.98885 6.26031 1.98856 6.26002ZM1.84688 6.7846C1.84384 6.78554 1.84323 6.78558 1.84549 6.78496Z" fill="#525252"/>
<path d="M5.10465 13.3163L7.69975 11.2402C7.81001 11.152 7.86514 11.1079 7.90482 11.0531C7.93997 11.0046 7.96613 10.9502 7.98204 10.8925C7.99999 10.8273 7.99999 10.7567 7.99999 10.6155V4.92984C7.99999 3.54733 7.99999 2.85608 7.8315 2.70685C7.68692 2.57879 7.48152 2.54546 7.30386 2.62122C7.09683 2.70951 6.87823 3.36529 6.44105 4.67685L6.44105 4.67686L6.18234 5.45298C6.11677 5.64969 6.08399 5.74804 6.02318 5.82075C5.96948 5.88497 5.90052 5.93467 5.82262 5.96531C5.73441 6 5.63074 6 5.42339 6H2.93518C2.06382 6 1.62814 6 1.48185 6.14554C1.35565 6.27109 1.30572 6.45428 1.35076 6.6265C1.40297 6.82614 1.7784 7.04722 2.52925 7.48936L4.44391 8.61681C4.64225 8.73361 4.74141 8.792 4.80235 8.87535C4.8561 8.94886 4.88876 9.03566 4.89679 9.12637C4.90589 9.22922 4.8698 9.3385 4.79762 9.55706L3.84525 12.4407C3.59162 13.2087 3.4648 13.5926 3.55291 13.7749C3.62901 13.9323 3.78178 14.0385 3.95582 14.055C4.15734 14.0741 4.47311 13.8215 5.10465 13.3163Z" fill="#525252"/>
</svg>
