<svg width="16" height="16" viewBox="0 0 16 16" fill="none" xmlns="http://www.w3.org/2000/svg">
<path fill-rule="evenodd" clip-rule="evenodd" d="M7.40112 0.483932C7.77437 0.280208 8.22559 0.280207 8.59884 0.483931C8.93498 0.667398 9.08981 1.01017 9.1666 1.1893C9.25844 1.40357 9.35345 1.68863 9.46042 2.00961L9.47044 2.03967L10.5292 5.21581C10.5332 5.2279 10.537 5.23926 10.5406 5.24999C10.5519 5.25 10.5639 5.25 10.5766 5.25H13.0648L13.0964 5.25C13.5051 5.24999 13.8558 5.24997 14.121 5.27041C14.2585 5.281 14.4078 5.29924 14.5492 5.33783C14.6861 5.37515 14.881 5.44856 15.0471 5.61384C15.3626 5.92773 15.4874 6.38569 15.3748 6.81626C15.3155 7.04298 15.1848 7.20514 15.0859 7.30672C14.9835 7.41177 14.8642 7.50322 14.7511 7.58213C14.5329 7.73431 14.2307 7.91223 13.8786 8.11958L13.8513 8.13564L11.9366 9.26309C11.9244 9.27032 11.9128 9.27712 11.9019 9.28356C11.9059 9.2956 11.9101 9.30832 11.9145 9.32186L12.8669 12.2055L12.8769 12.2356C12.9952 12.5938 13.0981 12.9055 13.1577 13.1497C13.1888 13.2772 13.2167 13.4193 13.2234 13.5623C13.23 13.7029 13.2193 13.9007 13.1223 14.1014C12.932 14.4948 12.5501 14.7604 12.115 14.8017C11.8931 14.8227 11.704 14.7639 11.5745 14.7087C11.4428 14.6526 11.3193 14.5769 11.2106 14.5034C11.0025 14.3625 10.7461 14.1574 10.4516 13.9217L10.4268 13.9019L8.03121 11.9855C8.02018 11.9766 8.0098 11.9683 7.99998 11.9605C7.99016 11.9683 7.97978 11.9766 7.96874 11.9855L5.57315 13.9019L5.5484 13.9217C5.25385 14.1574 4.99752 14.3625 4.78936 14.5034C4.68071 14.5769 4.55714 14.6526 4.42546 14.7087C4.29594 14.7639 4.10687 14.8227 3.88495 14.8016C3.44986 14.7604 3.06793 14.4948 2.87769 14.1014C2.78065 13.9007 2.76995 13.7029 2.77656 13.5623C2.78329 13.4193 2.81119 13.2772 2.84228 13.1497C2.90185 12.9055 3.0048 12.5938 3.1231 12.2357L3.13307 12.2055L4.08544 9.32186C4.08991 9.30832 4.09411 9.2956 4.09807 9.28356C4.08716 9.27712 4.07561 9.27032 4.06333 9.26309L2.14868 8.13564L2.12145 8.1196C1.76927 7.91224 1.46709 7.73431 1.24892 7.58213C1.13579 7.50322 1.01643 7.41177 0.914103 7.30672C0.815138 7.20514 0.684438 7.04298 0.625146 6.81626C0.512545 6.38569 0.637366 5.92773 0.952872 5.61384C1.11901 5.44856 1.31391 5.37515 1.45073 5.33783C1.59221 5.29924 1.74147 5.281 1.87899 5.27041C2.14421 5.24997 2.49488 5.24999 2.90357 5.25L2.93517 5.25H5.42338C5.43612 5.25 5.4481 5.25 5.45941 5.24999C5.46299 5.23926 5.46678 5.2279 5.47081 5.21581L6.52952 2.03967L6.53955 2.00959C6.64652 1.68862 6.74152 1.40357 6.83336 1.1893C6.91015 1.01018 7.06498 0.6674 7.40112 0.483932ZM7.99998 2.37193C7.98497 2.41678 7.96919 2.46409 7.95255 2.51401L6.89384 5.69015C6.88958 5.70292 6.88505 5.71686 6.8802 5.73179C6.83338 5.87588 6.75626 6.11324 6.5985 6.30189C6.46426 6.46242 6.29186 6.58667 6.09711 6.66327C5.86826 6.75327 5.61869 6.75138 5.4672 6.75023C5.45149 6.75011 5.43684 6.75 5.42338 6.75H2.93517C2.87096 6.75 2.80997 6.75001 2.752 6.75008C2.80192 6.77954 2.85447 6.8105 2.9098 6.84309L4.82446 7.97054L4.83929 7.97927C4.92534 8.02991 5.02116 8.08631 5.10166 8.14206C5.19459 8.20642 5.30879 8.29731 5.40777 8.43269C5.54215 8.61647 5.62378 8.83346 5.64385 9.06024C5.65864 9.22729 5.63266 9.37091 5.60519 9.48057C5.5814 9.57555 5.5465 9.68112 5.51517 9.77592L5.50977 9.79226L4.5574 12.6759C4.53889 12.7319 4.52134 12.7851 4.50472 12.8356C4.54629 12.8025 4.59003 12.7675 4.63611 12.7306L7.0317 10.8142L7.04503 10.8035C7.12238 10.7416 7.20859 10.6726 7.28881 10.6175C7.38146 10.5539 7.50614 10.48 7.66669 10.4356C7.88479 10.3752 8.11517 10.3752 8.33327 10.4356C8.49381 10.48 8.6185 10.5539 8.71115 10.6175C8.79135 10.6726 8.87755 10.7416 8.95489 10.8035L8.96826 10.8142L11.3639 12.7306C11.4099 12.7675 11.4537 12.8025 11.4953 12.8357C11.4786 12.7851 11.4611 12.7319 11.4426 12.6759L10.4902 9.79226L10.4848 9.77592C10.4535 9.68112 10.4186 9.57555 10.3948 9.48057C10.3673 9.37091 10.3413 9.22729 10.3561 9.06024C10.3762 8.83346 10.4578 8.61647 10.5922 8.43269C10.6912 8.29731 10.8054 8.20642 10.8983 8.14206C10.9788 8.08631 11.0746 8.02991 11.1607 7.97927L11.1755 7.97054L13.0902 6.84309C13.1455 6.8105 13.1981 6.77954 13.248 6.75008C13.19 6.75001 13.129 6.75 13.0648 6.75H10.5766C10.5631 6.75 10.5485 6.75011 10.5328 6.75023C10.3813 6.75138 10.1317 6.75327 9.90286 6.66327C9.70811 6.58667 9.53572 6.46242 9.40147 6.30189C9.24371 6.11324 9.16659 5.87589 9.11977 5.7318C9.11492 5.71686 9.11039 5.70293 9.10613 5.69015L8.04742 2.51401C8.03078 2.46409 8.01499 2.41678 7.99998 2.37193ZM14.1545 6.78496C14.1568 6.78558 14.1562 6.78555 14.1531 6.7846ZM14.0104 6.26105C14.0126 6.25869 14.0131 6.25834 14.0114 6.26002C14.0111 6.26031 14.0108 6.26066 14.0104 6.26105ZM1.98854 6.26002C1.9869 6.25834 1.98742 6.25869 1.98956 6.26104C1.98916 6.26065 1.98882 6.26031 1.98854 6.26002ZM1.84686 6.7846C1.84382 6.78554 1.8432 6.78558 1.84546 6.78496Z" fill="#525252"/>
</svg>
