<svg width="16" height="16" viewBox="0 0 16 16" fill="none" xmlns="http://www.w3.org/2000/svg">
<g clip-path="url(#clip0_35_7432)">
<circle opacity="0.1" cx="8" cy="8" r="3" fill="#525252"/>
<path fill-rule="evenodd" clip-rule="evenodd" d="M8 0.25C8.41421 0.25 8.75 0.585786 8.75 1V2C8.75 2.41421 8.41421 2.75 8 2.75C7.58579 2.75 7.25 2.41421 7.25 2V1C7.25 0.585786 7.58579 0.25 8 0.25ZM8 5.75C6.75736 5.75 5.75 6.75736 5.75 8C5.75 9.24264 6.75736 10.25 8 10.25C9.24264 10.25 10.25 9.24264 10.25 8C10.25 6.75736 9.24264 5.75 8 5.75ZM4.25 8C4.25 5.92893 5.92893 4.25 8 4.25C10.0711 4.25 11.75 5.92893 11.75 8C11.75 10.0711 10.0711 11.75 8 11.75C5.92893 11.75 4.25 10.0711 4.25 8ZM13.25 8C13.25 7.58579 13.5858 7.25 14 7.25H15C15.4142 7.25 15.75 7.58579 15.75 8C15.75 8.41421 15.4142 8.75 15 8.75H14C13.5858 8.75 13.25 8.41421 13.25 8ZM1 7.25C0.585786 7.25 0.25 7.58579 0.25 8C0.25 8.41421 0.585786 8.75 1 8.75H2C2.41421 8.75 2.75 8.41421 2.75 8C2.75 7.58579 2.41421 7.25 2 7.25H1ZM8.75 14C8.75 13.5858 8.41421 13.25 8 13.25C7.58579 13.25 7.25 13.5858 7.25 14V15C7.25 15.4142 7.58579 15.75 8 15.75C8.41421 15.75 8.75 15.4142 8.75 15V14ZM11.4697 11.4697C11.7626 11.1768 12.2374 11.1768 12.5303 11.4697L13.5303 12.4697C13.8232 12.7626 13.8232 13.2374 13.5303 13.5303C13.2374 13.8232 12.7626 13.8232 12.4697 13.5303L11.4697 12.5303C11.1768 12.2374 11.1768 11.7626 11.4697 11.4697ZM4.53033 12.5303C4.82322 12.2374 4.82322 11.7626 4.53033 11.4697C4.23744 11.1768 3.76256 11.1768 3.46967 11.4697L2.46967 12.4697C2.17678 12.7626 2.17678 13.2374 2.46967 13.5303C2.76256 13.8232 3.23744 13.8232 3.53033 13.5303L4.53033 12.5303ZM2.46967 2.46967C2.76256 2.17678 3.23744 2.17678 3.53033 2.46967L4.53033 3.46967C4.82322 3.76256 4.82322 4.23744 4.53033 4.53033C4.23744 4.82322 3.76256 4.82322 3.46967 4.53033L2.46967 3.53033C2.17678 3.23744 2.17678 2.76256 2.46967 2.46967ZM13.5303 3.53033C13.8232 3.23744 13.8232 2.76256 13.5303 2.46967C13.2374 2.17678 12.7626 2.17678 12.4697 2.46967L11.4697 3.46967C11.1768 3.76256 11.1768 4.23744 11.4697 4.53033C11.7626 4.82322 12.2374 4.82322 12.5303 4.53033L13.5303 3.53033Z" fill="#525252"/>
</g>
<defs>
<clipPath id="clip0_35_7432">
<rect width="16" height="16" fill="white"/>
</clipPath>
</defs>
</svg>
