<svg width="16" height="16" viewBox="0 0 16 16" fill="none" xmlns="http://www.w3.org/2000/svg">
<path opacity="0.1" d="M8.29289 12.2929L3.70711 7.70711C3.31658 7.31658 3.31658 6.68342 3.70711 6.29289L4.12597 5.87403C4.66163 5.33837 5.45397 5.15132 6.17264 5.39088L6.82736 5.60912C7.54603 5.84868 8.33837 5.66163 8.87403 5.12597L10 4C10.5523 3.44772 11.4477 3.44772 12 4C12.5523 4.55228 12.5523 5.44772 12 6L10.874 7.12597C10.3384 7.66163 10.1513 8.45397 10.3909 9.17264L10.6091 9.82736C10.8487 10.546 10.6616 11.3384 10.126 11.874L9.70711 12.2929C9.31658 12.6834 8.68342 12.6834 8.29289 12.2929Z" fill="#525252"/>
<path fill-rule="evenodd" clip-rule="evenodd" d="M9.46967 1.46967C9.76256 1.17678 10.2374 1.17678 10.5303 1.46967L11.5303 2.46967L13.5303 4.46967L14.5303 5.46967C14.8232 5.76256 14.8232 6.23744 14.5303 6.53033C14.2374 6.82322 13.7626 6.82322 13.4697 6.53033L13 6.06066L11.6484 7.4123C11.3952 7.66543 11.3278 7.73593 11.2788 7.80288C11.0801 8.07503 10.9996 8.41591 11.0557 8.74822C11.0695 8.82983 11.099 8.92537 11.2143 9.27123L11.2299 9.31787C11.3166 9.57786 11.3843 9.78054 11.4197 9.98074C11.5515 10.7257 11.3706 11.492 10.9196 12.0993C10.7984 12.2626 10.6493 12.4115 10.4586 12.6021L10.4248 12.6359L10.3888 12.672C10.2527 12.8085 10.111 12.9506 9.95514 13.0521C9.37453 13.4303 8.62547 13.4303 8.04486 13.0521C7.88902 12.9506 7.74734 12.8085 7.61125 12.672L7.61125 12.672L7.57524 12.6359L6 11.0607L2.53033 14.5303C2.23744 14.8232 1.76256 14.8232 1.46967 14.5303C1.17678 14.2374 1.17678 13.7626 1.46967 13.4697L4.93934 10L3.3641 8.42476L3.32802 8.38876L3.32802 8.38875C3.19149 8.25266 3.04937 8.11099 2.94786 7.95514C2.56967 7.37453 2.56967 6.62547 2.94786 6.04486C3.04937 5.88901 3.1915 5.74734 3.32802 5.61124L3.3641 5.57524L3.39791 5.54141C3.58849 5.3507 3.73744 5.20163 3.90065 5.08043C4.508 4.62941 5.27432 4.44851 6.01926 4.5803C6.21946 4.61572 6.42215 4.68336 6.68214 4.77013L6.72877 4.78569C7.07463 4.90097 7.17017 4.93055 7.25178 4.94432C7.58409 5.00041 7.92497 4.91994 8.19712 4.72116C8.26407 4.67225 8.33457 4.60477 8.5877 4.35164L9.93934 3L9.46967 2.53033C9.17678 2.23744 9.17678 1.76256 9.46967 1.46967ZM11 4.06066L9.64836 5.4123L9.61273 5.44795C9.41189 5.64894 9.2549 5.80605 9.08187 5.93244C8.48315 6.36976 7.73322 6.5468 7.00213 6.4234C6.79082 6.38773 6.57732 6.31647 6.30351 6.22509L6.25442 6.20871C5.92601 6.09924 5.83525 6.07104 5.75794 6.05736C5.41934 5.99746 5.07101 6.07969 4.79494 6.28469C4.73178 6.33159 4.66494 6.39572 4.42476 6.6359C4.3339 6.72676 4.27988 6.78094 4.24065 6.82313C4.21584 6.84981 4.20596 6.86223 4.2036 6.8653C4.15108 6.94741 4.15108 7.05259 4.2036 7.1347C4.20597 7.13777 4.21584 7.1502 4.24065 7.17687C4.27988 7.21906 4.3339 7.27324 4.42476 7.3641L6.53033 9.46967L8.6359 11.5752C8.72676 11.6661 8.78094 11.7201 8.82313 11.7594C8.8498 11.7842 8.86222 11.794 8.8653 11.7964C8.94741 11.8489 9.05259 11.8489 9.1347 11.7964C9.13778 11.794 9.1502 11.7842 9.17687 11.7594C9.21906 11.7201 9.27324 11.6661 9.3641 11.5752C9.60428 11.3351 9.66841 11.2682 9.71531 11.2051C9.92031 10.929 10.0025 10.5807 9.94264 10.2421C9.92896 10.1647 9.90076 10.074 9.79129 9.74558L9.77491 9.69649C9.68353 9.42268 9.61227 9.20918 9.5766 8.99787C9.4532 8.26678 9.63024 7.51685 10.0676 6.91813C10.1939 6.7451 10.3511 6.58811 10.552 6.38729L10.552 6.38728L10.5877 6.35164L11.9393 5L11 4.06066Z" fill="#525252"/>
</svg>
