<svg width="16" height="16" viewBox="0 0 16 16" fill="none" xmlns="http://www.w3.org/2000/svg">
<path opacity="0.1" d="M2.31725 7.48972C2.20721 6.27933 2.15219 5.67414 2.35406 5.20686C2.53139 4.79635 2.84119 4.45711 3.23396 4.24334C3.68105 4 4.28873 4 5.50411 4H10.4959C11.7113 4 12.319 4 12.766 4.24334C13.1588 4.45711 13.4686 4.79635 13.6459 5.20686C13.8478 5.67414 13.7928 6.27933 13.6828 7.48971L13.2646 12.0897C13.1712 13.117 13.1245 13.6307 12.8944 14.0192C12.6918 14.3613 12.3918 14.6352 12.0328 14.806C11.6251 15 11.1093 15 10.0777 15H5.92229C4.89073 15 4.37495 15 3.96725 14.806C3.60819 14.6352 3.3082 14.3613 3.10559 14.0192C2.87552 13.6307 2.82882 13.117 2.73543 12.0897L2.31725 7.48972Z" fill="#525252"/>
<path fill-rule="evenodd" clip-rule="evenodd" d="M6.75 3C6.75 2.30964 7.30964 1.75 8 1.75H8.10146C8.76654 1.75 9.31517 2.2708 9.34976 2.93498L9.36617 3.25H6.75V3ZM5.25 3.25V3C5.25 1.48122 6.48122 0.25 8 0.25H8.10146C9.56465 0.25 10.7716 1.39575 10.8477 2.85696L10.8682 3.25H13H14C14.4142 3.25 14.75 3.58579 14.75 4C14.75 4.41421 14.4142 4.75 14 4.75H13.6849L13.0115 12.1576L13.0089 12.1863L13.0089 12.1863L13.0089 12.1864C12.9644 12.6756 12.9271 13.0856 12.8701 13.4202C12.8103 13.7704 12.7203 14.0964 12.5397 14.4014C12.2611 14.8718 11.8486 15.2484 11.3549 15.4833C11.0349 15.6356 10.7021 15.6957 10.3479 15.7235C10.0095 15.75 9.59779 15.75 9.10655 15.75H9.07771H6.92229H6.89345C6.40221 15.75 5.99052 15.75 5.65213 15.7235C5.29791 15.6957 4.96509 15.6356 4.64505 15.4833C4.15136 15.2484 3.73887 14.8718 3.46027 14.4014C3.27967 14.0964 3.1897 13.7704 3.12994 13.4202C3.07285 13.0856 3.03558 12.6756 2.99112 12.1863L2.98851 12.1576L2.31509 4.75H2C1.58579 4.75 1.25 4.41421 1.25 4C1.25 3.58579 1.58579 3.25 2 3.25H3H5.25ZM10.1609 4.75H12.1787L11.5177 12.0218C11.4699 12.5472 11.4374 12.8982 11.3914 13.1679C11.347 13.4284 11.2986 13.5535 11.2491 13.637C11.1225 13.8508 10.935 14.022 10.7106 14.1288C10.6229 14.1705 10.494 14.2074 10.2305 14.2281C9.95777 14.2495 9.60528 14.25 9.07771 14.25H6.92229C6.39472 14.25 6.04223 14.2495 5.76951 14.2281C5.50602 14.2074 5.3771 14.1705 5.28944 14.1288C5.06503 14.022 4.87754 13.8508 4.7509 13.637C4.70143 13.5535 4.65302 13.4284 4.60857 13.1679C4.56256 12.8982 4.53011 12.5472 4.48235 12.0218L3.82127 4.75H6H10.1503H10.1609ZM5.92537 6.25372C5.51321 6.29494 5.21251 6.66247 5.25372 7.07463L5.75372 12.0746C5.79494 12.4868 6.16247 12.7875 6.57463 12.7463C6.98679 12.7051 7.28749 12.3375 7.24628 11.9254L6.74628 6.92537C6.70506 6.51321 6.33753 6.21251 5.92537 6.25372ZM10.7463 7.07463C10.7875 6.66247 10.4868 6.29494 10.0746 6.25372C9.66247 6.21251 9.29494 6.51321 9.25372 6.92537L8.75372 11.9254C8.71251 12.3375 9.01321 12.7051 9.42537 12.7463C9.83753 12.7875 10.2051 12.4868 10.2463 12.0746L10.7463 7.07463Z" fill="#525252"/>
</svg>
