<svg width="16" height="16" viewBox="0 0 16 16" fill="none" xmlns="http://www.w3.org/2000/svg">
<path opacity="0.1" d="M13 6C13 9.75 10.7614 11 8 11C5.23858 11 3 9.75 3 6C3 2.25 5.23858 1 8 1C10.7614 1 13 2.25 13 6Z" fill="#525252"/>
<path fill-rule="evenodd" clip-rule="evenodd" d="M3.75 6C3.75 4.27865 4.25796 3.26294 4.95461 2.66143C5.67185 2.04214 6.71721 1.75 8 1.75C9.28279 1.75 10.3281 2.04214 11.0454 2.66143C11.742 3.26294 12.25 4.27865 12.25 6C12.25 7.72135 11.742 8.73706 11.0454 9.33857C10.4735 9.83234 9.69307 10.1181 8.75 10.2137V7.46353L10.3354 6.67082C10.7059 6.48558 10.8561 6.03507 10.6708 5.66459C10.4856 5.29411 10.0351 5.14394 9.66459 5.32918L8.14809 6.08743L6.53033 4.46967C6.23744 4.17678 5.76256 4.17678 5.46967 4.46967C5.17678 4.76256 5.17678 5.23744 5.46967 5.53033L7.25 7.31066V10.2137C6.30693 10.1181 5.52647 9.83234 4.95461 9.33857C4.25796 8.73706 3.75 7.72135 3.75 6ZM7.25 11.7198C6.03749 11.6193 4.88111 11.2569 3.97432 10.4739C2.86133 9.51294 2.25 8.02865 2.25 6C2.25 3.97135 2.86133 2.48706 3.97432 1.52607C5.06673 0.582857 6.52136 0.25 8 0.25C9.47864 0.25 10.9333 0.582857 12.0257 1.52607C13.1387 2.48706 13.75 3.97135 13.75 6C13.75 8.02865 13.1387 9.51294 12.0257 10.4739C11.1189 11.2569 9.96251 11.6193 8.75 11.7198V15C8.75 15.4142 8.41421 15.75 8 15.75C7.58579 15.75 7.25 15.4142 7.25 15V11.7198Z" fill="#525252"/>
</svg>
