<svg width="16" height="16" viewBox="0 0 16 16" fill="none" xmlns="http://www.w3.org/2000/svg">
<path opacity="0.1" d="M4 2C7 2 8 6 8 6C8 6 9 2 12 2V6C12 8.20914 10.2091 10 8 10C5.79086 10 4 8.20914 4 6V2Z" fill="#525252"/>
<path fill-rule="evenodd" clip-rule="evenodd" d="M4 1.25C3.58579 1.25 3.25 1.58579 3.25 2V6C3.25 8.36815 4.98301 10.3315 7.25 10.6911V14C7.25 14.4142 7.58579 14.75 8 14.75C8.41421 14.75 8.75 14.4142 8.75 14V10.6911C11.017 10.3315 12.75 8.36815 12.75 6V2C12.75 1.58579 12.4142 1.25 12 1.25C10.117 1.25 8.91867 2.51503 8.239 3.6025C8.1528 3.74042 8.07324 3.87797 8 4.01306C7.92676 3.87797 7.8472 3.74042 7.761 3.6025C7.08133 2.51503 5.88302 1.25 4 1.25ZM7.27155 6.17868L7.27251 6.18236L7.27255 6.18251L7.27258 6.18264L7.2726 6.18273L7.2726 6.18274C7.35637 6.51617 7.65614 6.75 8 6.75C8.34399 6.75 8.64387 6.51599 8.72749 6.18236L8.72761 6.1819L8.72846 6.17868L8.73512 6.15395C8.74154 6.13061 8.75192 6.09399 8.76649 6.04599C8.79568 5.94984 8.8414 5.80893 8.90537 5.63834C9.03423 5.29473 9.2325 4.8431 9.511 4.3975C9.94463 3.70369 10.512 3.11253 11.25 2.869V6C11.25 7.79493 9.79493 9.25 8 9.25C6.20508 9.25 4.75 7.79493 4.75 6V2.869C5.488 3.11253 6.05537 3.7037 6.489 4.3975C6.7675 4.8431 6.96577 5.29473 7.09463 5.63834C7.1586 5.80893 7.20432 5.94984 7.23351 6.04599C7.24808 6.09399 7.25847 6.13061 7.26488 6.15395L7.27155 6.17868Z" fill="#525252"/>
</svg>
