<svg width="16" height="16" viewBox="0 0 16 16" fill="none" xmlns="http://www.w3.org/2000/svg">
<g clip-path="url(#clip0_35_9665)">
<rect opacity="0.2" x="1" y="1" width="14" height="4" fill="#525252"/>
<rect opacity="0.1" x="1" y="5" width="5" height="10" fill="#525252"/>
<path fill-rule="evenodd" clip-rule="evenodd" d="M4.16957 0.25L4.2 0.25H11.8L11.8304 0.25C12.3646 0.249989 12.8104 0.24998 13.1747 0.279739C13.5546 0.310777 13.9112 0.377888 14.2485 0.549732C14.7659 0.813384 15.1866 1.23408 15.4503 1.75153C15.6221 2.08879 15.6892 2.44545 15.7203 2.82533C15.75 3.18955 15.75 3.63538 15.75 4.16951V4.16955V4.2V11.8V11.8305V11.8305C15.75 12.3646 15.75 12.8105 15.7203 13.1747C15.6892 13.5546 15.6221 13.9112 15.4503 14.2485C15.1866 14.7659 14.7659 15.1866 14.2485 15.4503C13.9112 15.6221 13.5546 15.6892 13.1747 15.7203C12.8105 15.75 12.3646 15.75 11.8305 15.75H11.8305H11.8H6H4.2H4.16955H4.16951C3.63538 15.75 3.18955 15.75 2.82533 15.7203C2.44545 15.6892 2.08879 15.6221 1.75153 15.4503C1.23408 15.1866 0.813386 14.7659 0.549734 14.2485C0.37789 13.9112 0.310779 13.5546 0.279741 13.1747C0.249982 12.8104 0.249991 12.3646 0.250001 11.8304L0.250002 11.8V5.00166L0.25 5L0.250002 4.99834V4.2L0.250001 4.16956C0.249991 3.63541 0.249982 3.18956 0.279741 2.82533C0.310779 2.44545 0.37789 2.08879 0.549734 1.75153C0.813386 1.23408 1.23408 0.813384 1.75153 0.549732C2.08879 0.377888 2.44545 0.310777 2.82533 0.279739C3.18957 0.24998 3.63541 0.249989 4.16957 0.25ZM6.75 14.25H11.8C12.3724 14.25 12.7566 14.2494 13.0525 14.2252C13.3396 14.2018 13.4769 14.1599 13.5675 14.1138C13.8027 13.9939 13.9939 13.8027 14.1138 13.5675C14.1599 13.4769 14.2018 13.3396 14.2252 13.0525C14.2494 12.7566 14.25 12.3724 14.25 11.8V5.75H6.75V14.25ZM5.25 5.75V14.25H4.2C3.62757 14.25 3.24336 14.2494 2.94748 14.2252C2.66036 14.2018 2.52307 14.1599 2.43251 14.1138C2.19731 13.9939 2.00609 13.8027 1.88624 13.5675C1.8401 13.4769 1.79822 13.3396 1.77476 13.0525C1.75059 12.7566 1.75 12.3724 1.75 11.8V5.75H5.25ZM6 4.25H14.25V4.2C14.25 3.62757 14.2494 3.24336 14.2252 2.94748C14.2018 2.66035 14.1599 2.52307 14.1138 2.43251C13.9939 2.19731 13.8027 2.00608 13.5675 1.88624C13.4769 1.8401 13.3396 1.79822 13.0525 1.77476C12.7566 1.75058 12.3724 1.75 11.8 1.75H4.2C3.62757 1.75 3.24336 1.75058 2.94748 1.77476C2.66036 1.79822 2.52307 1.8401 2.43251 1.88624C2.19731 2.00608 2.00609 2.19731 1.88624 2.43251C1.8401 2.52307 1.79822 2.66035 1.77476 2.94748C1.75059 3.24336 1.75 3.62757 1.75 4.2V4.25H6Z" fill="#525252"/>
</g>
<defs>
<clipPath id="clip0_35_9665">
<rect width="16" height="16" fill="white"/>
</clipPath>
</defs>
</svg>
