<svg width="16" height="16" viewBox="0 0 16 16" fill="none" xmlns="http://www.w3.org/2000/svg">
<path opacity="0.1" fill-rule="evenodd" clip-rule="evenodd" d="M8 7C9.65685 7 11 5.65685 11 4C11 2.34315 9.65685 1 8 1C6.34315 1 5 2.34315 5 4C5 5.65685 6.34315 7 8 7ZM3 14.2857C3 11.9188 5.23858 10 8 10C10.7614 10 13 11.9188 13 14.2857C13 14.2857 11.2143 15 8 15C4.78571 15 3 14.2857 3 14.2857Z" fill="#525252"/>
<path fill-rule="evenodd" clip-rule="evenodd" d="M5.75 4C5.75 2.75736 6.75736 1.75 8 1.75C9.24264 1.75 10.25 2.75736 10.25 4C10.25 5.24264 9.24264 6.25 8 6.25C6.75736 6.25 5.75 5.24264 5.75 4ZM8 0.25C5.92893 0.25 4.25 1.92893 4.25 4C4.25 6.07107 5.92893 7.75 8 7.75C10.0711 7.75 11.75 6.07107 11.75 4C11.75 1.92893 10.0711 0.25 8 0.25ZM2.72146 14.9821L3 14.2857C2.72146 14.9821 2.72167 14.9822 2.7219 14.9822L2.72238 14.9824L2.72348 14.9829L2.72616 14.9839L2.73349 14.9868L2.75605 14.9954C2.77457 15.0024 2.80007 15.0118 2.83246 15.0233C2.89722 15.0463 2.98953 15.0775 3.10868 15.1142C3.34697 15.1875 3.69267 15.2826 4.14013 15.3768C5.0352 15.5652 6.33705 15.75 8 15.75C9.66295 15.75 10.9648 15.5652 11.8599 15.3768C12.3073 15.2826 12.653 15.1875 12.8913 15.1142C13.0105 15.0775 13.1028 15.0463 13.1675 15.0233C13.1999 15.0118 13.2254 15.0024 13.244 14.9954L13.2665 14.9868L13.2738 14.9839L13.2765 14.9829L13.2776 14.9824L13.2781 14.9822C13.2783 14.9822 13.2785 14.9821 13 14.2857L13.2785 14.9821C13.5633 14.8682 13.75 14.5924 13.75 14.2857C13.75 11.4003 11.063 9.25 8 9.25C4.93699 9.25 2.25 11.4003 2.25 14.2857C2.25 14.5924 2.43671 14.8682 2.72146 14.9821ZM8 10.75C10.2208 10.75 11.8958 12.1253 12.2003 13.7529C12.0259 13.8006 11.809 13.8546 11.5508 13.9089C10.7495 14.0777 9.55133 14.25 8 14.25C6.44867 14.25 5.25051 14.0777 4.44915 13.9089C4.19105 13.8546 3.97406 13.8006 3.79967 13.7529C4.10418 12.1254 5.77915 10.75 8 10.75Z" fill="#525252"/>
</svg>
