<svg width="16" height="16" viewBox="0 0 16 16" fill="none" xmlns="http://www.w3.org/2000/svg">
<path opacity="0.1" d="M6.56892 3.86217C7.02952 2.94095 7.25983 2.48035 7.57148 2.33254C7.84268 2.20391 8.15732 2.20391 8.42852 2.33254C8.74017 2.48035 8.97048 2.94095 9.43108 3.86217L13.8422 12.6845C14.2256 13.4512 14.4173 13.8345 14.3712 14.1462C14.331 14.4183 14.1805 14.6618 13.9551 14.8195C13.697 15 13.2684 15 12.4111 15H3.58886C2.73164 15 2.30303 15 2.04489 14.8195C1.81949 14.6618 1.66898 14.4183 1.62877 14.1462C1.58273 13.8345 1.77441 13.4512 2.15777 12.6845L6.56892 3.86217Z" fill="#525252"/>
<path fill-rule="evenodd" clip-rule="evenodd" d="M7.25006 1.65489C7.72467 1.42979 8.27529 1.42979 8.7499 1.65489C9.11038 1.82586 9.3411 2.13727 9.51151 2.41237C9.68378 2.69048 9.86931 3.06156 10.0861 3.49526L10.1019 3.52676L14.513 12.349L14.5279 12.3788L14.5279 12.3789C14.7069 12.7367 14.8636 13.0502 14.9663 13.3131C15.0715 13.5823 15.165 13.9047 15.1132 14.2558C15.0428 14.732 14.7794 15.1582 14.3849 15.4341C14.0941 15.6375 13.7639 15.698 13.4761 15.7243C13.1951 15.75 12.8446 15.75 12.4444 15.75H12.4444H12.4444L12.4111 15.75H3.58884L3.55559 15.75H3.55553H3.55552C3.15541 15.75 2.80491 15.75 2.52384 15.7243C2.23607 15.698 1.90587 15.6375 1.61502 15.4341C1.22056 15.1582 0.957165 14.732 0.886809 14.2558C0.834932 13.9047 0.928493 13.5823 1.03363 13.3131C1.13633 13.0502 1.2931 12.7367 1.47207 12.3788L1.48693 12.349L5.89808 3.52676L5.91384 3.49524C6.13066 3.06155 6.31618 2.69047 6.48845 2.41237C6.65886 2.13728 6.88958 1.82586 7.25006 1.65489ZM7.90845 3.00343C7.89455 3.01728 7.84689 3.06785 7.76362 3.20228C7.63183 3.41502 7.47671 3.7236 7.23972 4.19758L2.82857 13.0199C2.63035 13.4163 2.50547 13.6678 2.43083 13.8588C2.38463 13.9771 2.37474 14.0321 2.3726 14.0476C2.38421 14.1075 2.41731 14.161 2.46564 14.1982C2.48052 14.2032 2.53411 14.219 2.66056 14.2306C2.86485 14.2493 3.1456 14.25 3.58884 14.25H12.4111C12.8544 14.25 13.1351 14.2493 13.3394 14.2306C13.4659 14.219 13.5194 14.2032 13.5343 14.1982C13.5827 14.161 13.6158 14.1075 13.6274 14.0476C13.6252 14.0321 13.6153 13.9771 13.5691 13.8588C13.4945 13.6678 13.3696 13.4163 13.1714 13.0199L8.76024 4.19758C8.52326 3.7236 8.36813 3.41502 8.23634 3.20228C8.15307 3.06785 8.10542 3.01728 8.09152 3.00343C8.0327 2.98028 7.96726 2.98028 7.90845 3.00343ZM7.99998 6.25C8.4142 6.25 8.74998 6.58579 8.74998 7V9C8.74998 9.41422 8.4142 9.75 7.99998 9.75C7.58577 9.75 7.24998 9.41422 7.24998 9V7C7.24998 6.58579 7.58577 6.25 7.99998 6.25ZM7.99998 13C8.55227 13 8.99998 12.5523 8.99998 12C8.99998 11.4477 8.55227 11 7.99998 11C7.4477 11 6.99998 11.4477 6.99998 12C6.99998 12.5523 7.4477 13 7.99998 13Z" fill="#525252"/>
</svg>
