<svg width="16" height="16" viewBox="0 0 16 16" fill="none" xmlns="http://www.w3.org/2000/svg">
<path opacity="0.1" fill-rule="evenodd" clip-rule="evenodd" d="M1.27099 4.10294C1 4.69646 1 5.28419 1 6.45964V9.54036C1 10.7158 1 11.3035 1.27099 11.8971C1.47958 12.3539 1.95509 12.9029 2.37753 13.1745C2.92634 13.5273 3.40956 13.597 4.37601 13.7362C5.41974 13.8866 6.65318 14 8 14C9.34682 14 10.5803 13.8866 11.624 13.7362C12.5904 13.597 13.0737 13.5273 13.6225 13.1745C14.0449 12.9029 14.5204 12.3539 14.729 11.8971C15 11.3035 15 10.7158 15 9.54036V6.45964C15 5.28419 15 4.69646 14.729 4.10294C14.5204 3.64607 14.0449 3.09714 13.6225 2.82552C13.0737 2.47265 12.5904 2.40302 11.624 2.26376C10.5803 2.11337 9.34682 2 8 2C6.65318 2 5.41974 2.11337 4.376 2.26376C3.40956 2.40302 2.92634 2.47265 2.37753 2.82552C1.95509 3.09714 1.47958 3.64607 1.27099 4.10294ZM10 8L6 6V10L10 8Z" fill="#525252"/>
<path fill-rule="evenodd" clip-rule="evenodd" d="M4.48297 3.0061C5.4974 2.85992 6.69467 2.75 8 2.75C9.30532 2.75 10.5026 2.85992 11.517 3.0061C12.5136 3.1497 12.8282 3.2065 13.2168 3.45637C13.5184 3.65025 13.8979 4.08833 14.0468 4.41443C14.2358 4.82855 14.25 5.23156 14.25 6.45964V9.54036C14.25 10.7684 14.2358 11.1714 14.0468 11.5856C13.8979 11.9117 13.5184 12.3498 13.2168 12.5436C12.8282 12.7935 12.5136 12.8503 11.517 12.9939C10.5026 13.1401 9.30532 13.25 8 13.25C6.69467 13.25 5.4974 13.1401 4.48297 12.9939C3.4864 12.8503 3.17177 12.7935 2.78315 12.5436C2.48161 12.3498 2.10213 11.9117 1.95324 11.5856C1.76416 11.1714 1.75 10.7684 1.75 9.54036V6.45964C1.75 5.23156 1.76416 4.82855 1.95324 4.41443C2.10213 4.08833 2.48161 3.65025 2.78315 3.45637C3.17177 3.2065 3.4864 3.1497 4.48297 3.0061ZM8 1.25C6.61169 1.25 5.34207 1.36681 4.26904 1.52143L4.18352 1.53373C3.29261 1.66177 2.65913 1.75281 1.97191 2.19467C1.42856 2.54403 0.857029 3.20381 0.588734 3.79144C0.249095 4.53533 0.249452 5.27876 0.249958 6.33452L0.249998 6.45964V9.54036L0.249958 9.66548C0.249452 10.7212 0.249095 11.4647 0.588734 12.2086C0.857029 12.7962 1.42856 13.456 1.97191 13.8053C2.65913 14.2472 3.29261 14.3382 4.18353 14.4663L4.26904 14.4786C5.34207 14.6332 6.61169 14.75 8 14.75C9.38831 14.75 10.6579 14.6332 11.731 14.4786L11.8165 14.4663C12.7074 14.3382 13.3409 14.2472 14.0281 13.8053C14.5714 13.456 15.143 12.7962 15.4113 12.2086C15.7509 11.4647 15.7505 10.7212 15.75 9.66549L15.75 9.54036V6.45964L15.75 6.33452C15.7505 5.27876 15.7509 4.53533 15.4113 3.79144C15.143 3.20381 14.5714 2.54403 14.0281 2.19467C13.3409 1.75281 12.7074 1.66177 11.8165 1.53373L11.731 1.52143C10.6579 1.36681 9.38831 1.25 8 1.25ZM6.33541 5.32918C6.10292 5.21293 5.82681 5.22536 5.6057 5.36201C5.38459 5.49867 5.25 5.74007 5.25 6V10C5.25 10.2599 5.38459 10.5013 5.6057 10.638C5.82681 10.7746 6.10292 10.7871 6.33541 10.6708L10.3354 8.67082C10.5895 8.54378 10.75 8.28408 10.75 8C10.75 7.71592 10.5895 7.45622 10.3354 7.32918L6.33541 5.32918ZM8.32295 8L6.75 8.78647V7.21353L8.32295 8Z" fill="#525252"/>
</svg>
