<svg width="16" height="16" viewBox="0 0 16 16" fill="none" xmlns="http://www.w3.org/2000/svg">
<g clip-path="url(#clip0_35_7051)">
<circle opacity="0.1" cx="7" cy="7" r="6" fill="#525252"/>
<path fill-rule="evenodd" clip-rule="evenodd" d="M1.75 7C1.75 4.1005 4.1005 1.75 7 1.75C9.8995 1.75 12.25 4.1005 12.25 7C12.25 9.8995 9.8995 12.25 7 12.25C4.1005 12.25 1.75 9.8995 1.75 7ZM7 0.25C3.27208 0.25 0.25 3.27208 0.25 7C0.25 10.7279 3.27208 13.75 7 13.75C8.59376 13.75 10.0585 13.1976 11.2133 12.2739L14.4697 15.5303C14.7626 15.8232 15.2374 15.8232 15.5303 15.5303C15.8232 15.2374 15.8232 14.7626 15.5303 14.4697L12.2739 11.2133C13.1976 10.0585 13.75 8.59376 13.75 7C13.75 3.27208 10.7279 0.25 7 0.25ZM4.25 7C4.25 6.58579 4.58579 6.25 5 6.25H6.25V5C6.25 4.58579 6.58579 4.25 7 4.25C7.41421 4.25 7.75 4.58579 7.75 5V6.25H9C9.41421 6.25 9.75 6.58579 9.75 7C9.75 7.41421 9.41421 7.75 9 7.75H7.75V9C7.75 9.41421 7.41421 9.75 7 9.75C6.58579 9.75 6.25 9.41421 6.25 9V7.75H5C4.58579 7.75 4.25 7.41421 4.25 7Z" fill="#525252"/>
</g>
<defs>
<clipPath id="clip0_35_7051">
<rect width="16" height="16" fill="white"/>
</clipPath>
</defs>
</svg>
