<svg width="16" height="16" viewBox="0 0 16 16" fill="none" xmlns="http://www.w3.org/2000/svg">
<g clip-path="url(#clip0_35_7073)">
<circle opacity="0.1" cx="7" cy="7" r="6" fill="#525252"/>
<path fill-rule="evenodd" clip-rule="evenodd" d="M7 1.75C4.1005 1.75 1.75 4.1005 1.75 7C1.75 9.8995 4.1005 12.25 7 12.25C9.8995 12.25 12.25 9.8995 12.25 7C12.25 4.1005 9.8995 1.75 7 1.75ZM0.25 7C0.25 3.27208 3.27208 0.25 7 0.25C10.7279 0.25 13.75 3.27208 13.75 7C13.75 8.59376 13.1976 10.0585 12.2739 11.2133L15.5303 14.4697C15.8232 14.7626 15.8232 15.2374 15.5303 15.5303C15.2374 15.8232 14.7626 15.8232 14.4697 15.5303L11.2133 12.2739C10.0585 13.1976 8.59376 13.75 7 13.75C3.27208 13.75 0.25 10.7279 0.25 7ZM5 6.25C4.58579 6.25 4.25 6.58579 4.25 7C4.25 7.41421 4.58579 7.75 5 7.75H9C9.41421 7.75 9.75 7.41421 9.75 7C9.75 6.58579 9.41421 6.25 9 6.25H5Z" fill="#525252"/>
</g>
<defs>
<clipPath id="clip0_35_7073">
<rect width="16" height="16" fill="white"/>
</clipPath>
</defs>
</svg>
