<svg width="16" height="16" viewBox="0 0 16 16" fill="none" xmlns="http://www.w3.org/2000/svg">
<path fill-rule="evenodd" clip-rule="evenodd" d="M1.21799 3.09202C1 3.51984 1 4.0799 1 5.2C1 5.48003 1 5.62004 1.0545 5.727C1.10243 5.82108 1.17892 5.89757 1.273 5.9455C1.37996 6 1.51997 6 1.8 6H2V10.8C2 11.9201 2 12.4802 2.21799 12.908C2.40973 13.2843 2.71569 13.5903 3.09202 13.782C3.51984 14 4.0799 14 5.2 14H10.8C11.9201 14 12.4802 14 12.908 13.782C13.2843 13.5903 13.5903 13.2843 13.782 12.908C14 12.4802 14 11.9201 14 10.8V6H14.2C14.48 6 14.62 6 14.727 5.9455C14.8211 5.89757 14.8976 5.82108 14.9455 5.727C15 5.62004 15 5.48003 15 5.2C15 4.0799 15 3.51984 14.782 3.09202C14.5903 2.71569 14.2843 2.40973 13.908 2.21799C13.4802 2 12.9201 2 11.8 2H4.2C3.0799 2 2.51984 2 2.09202 2.21799C1.71569 2.40973 1.40973 2.71569 1.21799 3.09202ZM6 8C6 7.44772 6.44772 7 7 7H9C9.55228 7 10 7.44772 10 8C10 8.55228 9.55228 9 9 9H7C6.44772 9 6 8.55228 6 8Z" fill="#525252"/>
</svg>
