<svg width="16" height="16" viewBox="0 0 16 16" fill="none" xmlns="http://www.w3.org/2000/svg">
<path fill-rule="evenodd" clip-rule="evenodd" d="M8 15C11.866 15 15 11.866 15 8C15 4.13401 11.866 1 8 1C4.13401 1 1 4.13401 1 8C1 11.866 4.13401 15 8 15ZM4.29289 7.29289L7.29289 4.29289C7.68342 3.90237 8.31658 3.90237 8.70711 4.29289C9.09763 4.68342 9.09763 5.31658 8.70711 5.70711L7.41421 7H11C11.5523 7 12 7.44772 12 8C12 8.55228 11.5523 9 11 9H7.41421L8.70711 10.2929C9.09763 10.6834 9.09763 11.3166 8.70711 11.7071C8.31658 12.0976 7.68342 12.0976 7.29289 11.7071L4.29289 8.70711C3.90237 8.31658 3.90237 7.68342 4.29289 7.29289Z" fill="#525252"/>
</svg>
