<svg width="16" height="16" viewBox="0 0 16 16" fill="none" xmlns="http://www.w3.org/2000/svg">
<path fill-rule="evenodd" clip-rule="evenodd" d="M8 15C11.866 15 15 11.866 15 8C15 4.13401 11.866 1 8 1C4.13401 1 1 4.13401 1 8C1 11.866 4.13401 15 8 15ZM7 6C7 5.44772 6.55229 5 6 5C5.44772 5 5 5.44772 5 6V10C5 10.2652 5.10536 10.5196 5.2929 10.7071C5.48043 10.8946 5.73479 11 6 11H10C10.5523 11 11 10.5523 11 10C11 9.44771 10.5523 9 10 9H8.41422L10.7071 6.70711C11.0976 6.31658 11.0976 5.68342 10.7071 5.29289C10.3166 4.90237 9.68342 4.90237 9.29289 5.29289L7 7.58579V6Z" fill="#525252"/>
</svg>
