<svg width="16" height="16" viewBox="0 0 16 16" fill="none" xmlns="http://www.w3.org/2000/svg">
<path fill-rule="evenodd" clip-rule="evenodd" d="M11 3.00001L4 3C3.73479 3 3.48043 3.10536 3.29289 3.29289C3.10536 3.48043 3 3.73478 3 4V11C3 11.5523 3.44772 12 4 12C4.55229 12 5 11.5523 5 11V6.41422L11.2929 12.7071C11.6834 13.0976 12.3166 13.0976 12.7071 12.7071C13.0976 12.3166 13.0976 11.6834 12.7071 11.2929L6.41422 5L11 5.00001C11.5523 5.00001 12 4.55229 12 4.00001C12 3.44772 11.5523 3.00001 11 3.00001Z" fill="#525252"/>
</svg>
