<svg width="16" height="16" viewBox="0 0 16 16" fill="none" xmlns="http://www.w3.org/2000/svg">
<path fill-rule="evenodd" clip-rule="evenodd" d="M8 15C11.866 15 15 11.866 15 8C15 4.13401 11.866 1 8 1C4.13401 1 1 4.13401 1 8C1 11.866 4.13401 15 8 15ZM11.7071 7.29289L8.70711 4.29289C8.31658 3.90237 7.68342 3.90237 7.29289 4.29289C6.90237 4.68342 6.90237 5.31658 7.29289 5.70711L8.58579 7H5C4.44772 7 4 7.44772 4 8C4 8.55228 4.44772 9 5 9H8.58579L7.29289 10.2929C6.90237 10.6834 6.90237 11.3166 7.29289 11.7071C7.68342 12.0976 8.31658 12.0976 8.70711 11.7071L11.7071 8.70711C12.0976 8.31658 12.0976 7.68342 11.7071 7.29289Z" fill="#525252"/>
</svg>
