<svg width="16" height="16" viewBox="0 0 16 16" fill="none" xmlns="http://www.w3.org/2000/svg">
<path fill-rule="evenodd" clip-rule="evenodd" d="M5 13L12 13C12.2652 13 12.5196 12.8947 12.7071 12.7071C12.8946 12.5196 13 12.2652 13 12V5.00001C13 4.44772 12.5523 4.00001 12 4.00001C11.4477 4.00001 11 4.44772 11 5.00001V9.58579L4.70711 3.29289C4.31658 2.90237 3.68342 2.90237 3.29289 3.29289C2.90237 3.68342 2.90237 4.31658 3.29289 4.70711L9.58578 11L5 11C4.44772 11 4 11.4477 4 12C4 12.5523 4.44771 13 5 13Z" fill="#525252"/>
</svg>
