<svg width="16" height="16" viewBox="0 0 16 16" fill="none" xmlns="http://www.w3.org/2000/svg">
<path fill-rule="evenodd" clip-rule="evenodd" d="M8 15C11.866 15 15 11.866 15 8C15 4.13401 11.866 1 8 1C4.13401 1 1 4.13401 1 8C1 11.866 4.13401 15 8 15ZM7.29289 4.29289L4.29289 7.29289C3.90237 7.68342 3.90237 8.31658 4.29289 8.70711C4.68342 9.09763 5.31658 9.09763 5.70711 8.70711L7 7.41421V11C7 11.5523 7.44772 12 8 12C8.55229 12 9 11.5523 9 11V7.41421L10.2929 8.70711C10.6834 9.09763 11.3166 9.09763 11.7071 8.70711C12.0976 8.31658 12.0976 7.68342 11.7071 7.29289L8.70711 4.29289C8.31658 3.90237 7.68342 3.90237 7.29289 4.29289Z" fill="#525252"/>
</svg>
