<svg width="16" height="16" viewBox="0 0 16 16" fill="none" xmlns="http://www.w3.org/2000/svg">
<path fill-rule="evenodd" clip-rule="evenodd" d="M8 15C11.866 15 15 11.866 15 8C15 4.13401 11.866 1 8 1C4.13401 1 1 4.13401 1 8C1 11.866 4.13401 15 8 15ZM7.29289 11.7071L4.29289 8.70711C3.90237 8.31658 3.90237 7.68342 4.29289 7.29289C4.68342 6.90237 5.31658 6.90237 5.70711 7.29289L7 8.58579V5C7 4.44772 7.44772 4 8 4C8.55229 4 9 4.44772 9 5V8.58579L10.2929 7.29289C10.6834 6.90237 11.3166 6.90237 11.7071 7.29289C12.0976 7.68342 12.0976 8.31658 11.7071 8.70711L8.70711 11.7071C8.31658 12.0976 7.68342 12.0976 7.29289 11.7071Z" fill="#525252"/>
</svg>
