<svg width="16" height="16" viewBox="0 0 16 16" fill="none" xmlns="http://www.w3.org/2000/svg">
<path fill-rule="evenodd" clip-rule="evenodd" d="M8 15C11.866 15 15 11.866 15 8C15 4.13401 11.866 1 8 1C4.13401 1 1 4.13401 1 8C1 11.866 4.13401 15 8 15ZM6 5C5.73479 5 5.48043 5.10536 5.29289 5.29289C5.10536 5.48043 5 5.73478 5 6V10C5 10.5523 5.44772 11 6 11C6.55229 11 7 10.5523 7 10V8.41421L9.29289 10.7071C9.68342 11.0976 10.3166 11.0976 10.7071 10.7071C11.0976 10.3166 11.0976 9.68342 10.7071 9.29289L8.41422 7L10 7C10.5523 7 11 6.55229 11 6C11 5.44772 10.5523 5 10 5L6 5Z" fill="#525252"/>
</svg>
