<svg width="16" height="16" viewBox="0 0 16 16" fill="none" xmlns="http://www.w3.org/2000/svg">
<path fill-rule="evenodd" clip-rule="evenodd" d="M5.06274 3.93726L5.06275 3.93725L5.06275 3.93725C5.40865 3.59135 5.5816 3.4184 5.78343 3.29472C5.96237 3.18506 6.15746 3.10425 6.36154 3.05526C6.59171 3 6.8363 3 7.32548 3H11.8C12.9201 3 13.4802 3 13.908 3.21799C14.2843 3.40973 14.5903 3.71569 14.782 4.09202C15 4.51984 15 5.0799 15 6.2V9.8C15 10.9201 15 11.4802 14.782 11.908C14.5903 12.2843 14.2843 12.5903 13.908 12.782C13.4802 13 12.9201 13 11.8 13H7.32548C6.8363 13 6.59171 13 6.36154 12.9447C6.15746 12.8957 5.96237 12.8149 5.78343 12.7053C5.5816 12.5816 5.40865 12.4086 5.06274 12.0627L1.56569 8.56569L1.56568 8.56568C1.36768 8.36768 1.26867 8.26867 1.23158 8.15451C1.19895 8.05409 1.19895 7.94591 1.23158 7.84549C1.26867 7.73133 1.36768 7.63232 1.56568 7.43432L1.56569 7.43431L5.06274 3.93726ZM7.29289 5.29289C7.68342 4.90237 8.31658 4.90237 8.70711 5.29289L10 6.58579L11.2929 5.29289C11.6834 4.90237 12.3166 4.90237 12.7071 5.29289C13.0976 5.68342 13.0976 6.31658 12.7071 6.70711L11.4142 8L12.7071 9.29289C13.0976 9.68342 13.0976 10.3166 12.7071 10.7071C12.3166 11.0976 11.6834 11.0976 11.2929 10.7071L10 9.41421L8.70711 10.7071C8.31658 11.0976 7.68342 11.0976 7.29289 10.7071C6.90237 10.3166 6.90237 9.68342 7.29289 9.29289L8.58579 8L7.29289 6.70711C6.90237 6.31658 6.90237 5.68342 7.29289 5.29289Z" fill="#525252"/>
</svg>
