<svg width="16" height="16" viewBox="0 0 16 16" fill="none" xmlns="http://www.w3.org/2000/svg">
<path fill-rule="evenodd" clip-rule="evenodd" d="M1 8C1 7.07003 1 6.60504 1.10222 6.22354C1.37962 5.18827 2.18827 4.37962 3.22354 4.10222C3.60504 4 4.07003 4 5 4H10C10.93 4 11.395 4 11.7765 4.10222C12.7407 4.3606 13.5084 5.07985 13.8333 6.01383C13.8875 6.00473 13.9432 6 14 6C14.5523 6 15 6.44772 15 7V9C15 9.55228 14.5523 10 14 10C13.9432 10 13.8875 9.99527 13.8333 9.98617C13.5084 10.9202 12.7407 11.6394 11.7765 11.8978C11.395 12 10.93 12 10 12H5C4.07003 12 3.60504 12 3.22354 11.8978C2.18827 11.6204 1.37962 10.8117 1.10222 9.77646C1 9.39496 1 8.92997 1 8ZM5.5 6C5.22386 6 5 6.22386 5 6.5V9.5C5 9.77614 5.22386 10 5.5 10H11.5C11.7761 10 12 9.77614 12 9.5V6.5C12 6.22386 11.7761 6 11.5 6H5.5Z" fill="#525252"/>
</svg>
