<svg width="16" height="16" viewBox="0 0 16 16" fill="none" xmlns="http://www.w3.org/2000/svg">
<path fill-rule="evenodd" clip-rule="evenodd" d="M1 8C1 7.07003 1 6.60504 1.10222 6.22354C1.37962 5.18827 2.18827 4.37962 3.22354 4.10222C3.60504 4 4.07003 4 5 4H10C10.93 4 11.395 4 11.7765 4.10222C12.7365 4.35946 13.5016 5.07351 13.829 6.00148C14.0877 6.00551 14.2483 6.02047 14.3827 6.07612C14.6277 6.17761 14.8224 6.37229 14.9239 6.61732C15 6.80109 15 7.03406 15 7.5V8.5C15 8.96594 15 9.19891 14.9239 9.38268C14.8224 9.62771 14.6277 9.82239 14.3827 9.92388C14.2483 9.97953 14.0877 9.99449 13.829 9.99852C13.5016 10.9265 12.7365 11.6405 11.7765 11.8978C11.395 12 10.93 12 10 12H5C4.07003 12 3.60504 12 3.22354 11.8978C2.18827 11.6204 1.37962 10.8117 1.10222 9.77646C1 9.39496 1 8.92997 1 8ZM3.5 6C3.22386 6 3 6.22386 3 6.5V9.5C3 9.77614 3.22386 10 3.5 10H11.5C11.7761 10 12 9.77614 12 9.5V6.5C12 6.22386 11.7761 6 11.5 6H3.5Z" fill="#525252"/>
</svg>
