<svg width="16" height="16" viewBox="0 0 16 16" fill="none" xmlns="http://www.w3.org/2000/svg">
<path fill-rule="evenodd" clip-rule="evenodd" d="M1.10222 6.22354C1 6.60504 1 7.07003 1 8C1 8.92997 1 9.39496 1.10222 9.77646C1.37962 10.8117 2.18827 11.6204 3.22354 11.8978C3.60504 12 4.07003 12 5 12H10C10.93 12 11.395 12 11.7765 11.8978C12.7407 11.6394 13.5084 10.9202 13.8333 9.98617C13.8875 9.99527 13.9432 10 14 10C14.5523 10 15 9.55228 15 9V7C15 6.44772 14.5523 6 14 6C13.9432 6 13.8875 6.00473 13.8333 6.01383C13.5084 5.07985 12.7407 4.3606 11.7765 4.10222C11.395 4 10.93 4 10 4H5C4.07003 4 3.60504 4 3.22354 4.10222C2.18827 4.37962 1.37962 5.18827 1.10222 6.22354Z" fill="#525252"/>
</svg>
