<svg width="16" height="16" viewBox="0 0 16 16" fill="none" xmlns="http://www.w3.org/2000/svg">
<path d="M3 4.2C3 3.07989 3 2.51984 3.21799 2.09202C3.40973 1.71569 3.7157 1.40973 4.09202 1.21799C4.51984 1 5.0799 1 6.2 1H9.8C10.9201 1 11.4802 1 11.908 1.21799C12.2843 1.40973 12.5903 1.71569 12.782 2.09202C13 2.51984 13 3.07989 13 4.2V13.3355C13 13.8683 13 14.1348 12.8908 14.2716C12.7958 14.3906 12.6517 14.4599 12.4995 14.4597C12.3244 14.4595 12.1163 14.2931 11.7002 13.9602L8.24988 11.1999C8.1607 11.1286 8.11611 11.0929 8.06666 11.0792C8.02304 11.0671 7.97696 11.0671 7.93334 11.0792C7.88389 11.0929 7.8393 11.1286 7.75012 11.1999L4.29976 13.9602C3.88367 14.2931 3.67563 14.4595 3.50054 14.4597C3.34827 14.4599 3.20422 14.3906 3.10923 14.2716C3 14.1348 3 13.8683 3 13.3355V4.2Z" fill="#525252"/>
</svg>
