<svg width="16" height="16" viewBox="0 0 16 16" fill="none" xmlns="http://www.w3.org/2000/svg">
<path fill-rule="evenodd" clip-rule="evenodd" d="M5 1C5.55228 1 6 1.44772 6 2V3H10V2C10 1.44772 10.4477 1 11 1C11.5523 1 12 1.44772 12 2V3.00005C12.9883 3.00082 13.5064 3.01338 13.908 3.21799C14.2843 3.40973 14.5903 3.71569 14.782 4.09202C15 4.51984 15 5.0799 15 6.2V11.8C15 12.9201 15 13.4802 14.782 13.908C14.5903 14.2843 14.2843 14.5903 13.908 14.782C13.4802 15 12.9201 15 11.8 15H4.2C3.0799 15 2.51984 15 2.09202 14.782C1.71569 14.5903 1.40973 14.2843 1.21799 13.908C1 13.4802 1 12.9201 1 11.8V6.2C1 5.0799 1 4.51984 1.21799 4.09202C1.40973 3.71569 1.71569 3.40973 2.09202 3.21799C2.49359 3.01338 3.01165 3.00082 4 3.00005V2C4 1.44772 4.44772 1 5 1ZM3 5.5C3 5.22386 3.22386 5 3.5 5H12.5C12.7761 5 13 5.22386 13 5.5V6.5C13 6.77614 12.7761 7 12.5 7H3.5C3.22386 7 3 6.77614 3 6.5V5.5ZM3.5 9C3.22386 9 3 9.22386 3 9.5V10.5C3 10.7761 3.22386 11 3.5 11H4.5C4.77614 11 5 10.7761 5 10.5V9.5C5 9.22386 4.77614 9 4.5 9H3.5Z" fill="#525252"/>
</svg>
