<svg width="16" height="16" viewBox="0 0 16 16" fill="none" xmlns="http://www.w3.org/2000/svg">
<path fill-rule="evenodd" clip-rule="evenodd" d="M6 2C6 1.44772 5.55228 1 5 1C4.44772 1 4 1.44772 4 2V3.00005C3.01165 3.00082 2.49359 3.01338 2.09202 3.21799C1.71569 3.40973 1.40973 3.71569 1.21799 4.09202C1 4.51984 1 5.0799 1 6.2V11.8C1 12.9201 1 13.4802 1.21799 13.908C1.40973 14.2843 1.71569 14.5903 2.09202 14.782C2.51984 15 3.0799 15 4.2 15H11.8C12.9201 15 13.4802 15 13.908 14.782C14.2843 14.5903 14.5903 14.2843 14.782 13.908C15 13.4802 15 12.9201 15 11.8V6.2C15 5.0799 15 4.51984 14.782 4.09202C14.5903 3.71569 14.2843 3.40973 13.908 3.21799C13.5064 3.01338 12.9883 3.00082 12 3.00005V2C12 1.44772 11.5523 1 11 1C10.4477 1 10 1.44772 10 2V3H6V2ZM3.5 5C3.22386 5 3 5.22386 3 5.5V6.5C3 6.77614 3.22386 7 3.5 7H12.5C12.7761 7 13 6.77614 13 6.5V5.5C13 5.22386 12.7761 5 12.5 5H3.5Z" fill="#525252"/>
</svg>
