<svg width="16" height="16" viewBox="0 0 16 16" fill="none" xmlns="http://www.w3.org/2000/svg">
<path fill-rule="evenodd" clip-rule="evenodd" d="M10.5 3C10.1936 2.38713 9.56717 2 8.88197 2H7.11803C6.43283 2 5.80643 2.38713 5.5 3C5.19357 3.61287 4.56717 4 3.88197 4H3.47214C3.03342 4 2.81406 4 2.63131 4.03428C1.82056 4.18634 1.18634 4.82056 1.03428 5.63131C1 5.81406 1 6.03342 1 6.47214V10.8C1 11.9201 1 12.4802 1.21799 12.908C1.40973 13.2843 1.71569 13.5903 2.09202 13.782C2.51984 14 3.0799 14 4.2 14H11.8C12.9201 14 13.4802 14 13.908 13.782C14.2843 13.5903 14.5903 13.2843 14.782 12.908C15 12.4802 15 11.9201 15 10.8V6.47214C15 6.03342 15 5.81406 14.9657 5.63131C14.8137 4.82056 14.1794 4.18634 13.3687 4.03428C13.1859 4 12.9666 4 12.5279 4H12.118C11.4328 4 10.8064 3.61287 10.5 3ZM10 9C10 10.1046 9.10457 11 8 11C6.89543 11 6 10.1046 6 9C6 7.89543 6.89543 7 8 7C9.10457 7 10 7.89543 10 9ZM12 8C12.5523 8 13 7.55228 13 7C13 6.44772 12.5523 6 12 6C11.4477 6 11 6.44772 11 7C11 7.55228 11.4477 8 12 8Z" fill="#525252"/>
</svg>
