<svg width="16" height="16" viewBox="0 0 16 16" fill="none" xmlns="http://www.w3.org/2000/svg">
<path fill-rule="evenodd" clip-rule="evenodd" d="M14.3834 8.72307C13.1587 11.2665 10.2836 12.8752 7.34611 12.993C8.19611 13.633 9.34805 14 10.5 14C10.8263 14 11.1527 13.9705 11.4721 13.9138C12.1066 14.4001 12.9877 14.8234 14.191 14.9566C14.5604 14.9975 14.8075 14.6068 14.6725 14.2605C14.4289 13.6357 14.2736 13.0358 14.1745 12.5248C14.6857 11.972 15 11.2849 15 10.5C15 9.82848 14.7699 9.22854 14.3834 8.72307Z" fill="#525252"/>
<path fill-rule="evenodd" clip-rule="evenodd" d="M7 11C10 11 13 9 13 6C13 3 10 1 7 1C4 1 1 3 1 6C1 6.87063 1.25267 7.65704 1.68468 8.33479C1.61863 9.00249 1.43296 9.66842 1.21713 10.3411C1.11286 10.6661 1.35349 11.0002 1.69328 10.9684C2.6213 10.8816 3.36263 10.6238 3.9503 10.294C4.87845 10.7499 5.93923 11 7 11Z" fill="#525252"/>
</svg>
