<svg width="16" height="16" viewBox="0 0 16 16" fill="none" xmlns="http://www.w3.org/2000/svg">
<path fill-rule="evenodd" clip-rule="evenodd" d="M9.2 14H6.8C5.11984 14 4.27976 14 3.63803 13.673C3.07354 13.3854 2.6146 12.9265 2.32698 12.362C2 11.7202 2 10.8802 2 9.2V6.8C2 5.11984 2 4.27976 2.32698 3.63803C2.6146 3.07354 3.07354 2.6146 3.63803 2.32698C4.27976 2 5.11984 2 6.8 2H9.2C10.8802 2 11.7202 2 12.362 2.32698C12.9265 2.6146 13.3854 3.07354 13.673 3.63803C14 4.27976 14 5.11984 14 6.8V9.2C14 10.8802 14 11.7202 13.673 12.362C13.3854 12.9265 12.9265 13.3854 12.362 13.673C11.7202 14 10.8802 14 9.2 14ZM11.7071 6.70711C12.0976 6.31658 12.0976 5.68342 11.7071 5.29289C11.3166 4.90237 10.6834 4.90237 10.2929 5.29289L7 8.58579L5.70711 7.29289C5.31658 6.90237 4.68342 6.90237 4.29289 7.29289C3.90237 7.68342 3.90237 8.31658 4.29289 8.70711L6.29289 10.7071C6.48043 10.8946 6.73478 11 7 11C7.26521 11 7.51957 10.8946 7.70711 10.7071L11.7071 6.70711Z" fill="#525252"/>
</svg>
