<svg width="16" height="16" viewBox="0 0 16 16" fill="none" xmlns="http://www.w3.org/2000/svg">
<path fill-rule="evenodd" clip-rule="evenodd" d="M1 6C1 5.44772 1.44772 5 2 5H3.58579L1.29289 2.70711C0.902369 2.31658 0.902369 1.68342 1.29289 1.29289C1.68342 0.902369 2.31658 0.902369 2.70711 1.29289L5 3.58579V2C5 1.44772 5.44772 1 6 1C6.55228 1 7 1.44772 7 2V6C7 6.55228 6.55228 7 6 7H2C1.44772 7 1 6.55228 1 6ZM6 9H2C1.44772 9 1 9.44771 1 10C1 10.5523 1.44772 11 2 11H3.58579L1.29289 13.2929C0.902369 13.6834 0.902369 14.3166 1.29289 14.7071C1.68342 15.0976 2.31658 15.0976 2.70711 14.7071L5 12.4142V14C5 14.5523 5.44772 15 6 15C6.55228 15 7 14.5523 7 14V10C7 9.44771 6.55228 9 6 9ZM14 5C14.5523 5 15 5.44772 15 6C15 6.55228 14.5523 7 14 7H10C9.44772 7 9 6.55228 9 6V2C9 1.44772 9.44772 1 10 1C10.5523 1 11 1.44772 11 2V3.58579L13.2929 1.29289C13.6834 0.902369 14.3166 0.902369 14.7071 1.29289C15.0976 1.68342 15.0976 2.31658 14.7071 2.70711L12.4142 5H14ZM10 9H14C14.5523 9 15 9.44771 15 10C15 10.5523 14.5523 11 14 11H12.4142L14.7071 13.2929C15.0976 13.6834 15.0976 14.3166 14.7071 14.7071C14.3166 15.0976 13.6834 15.0976 13.2929 14.7071L11 12.4142V14C11 14.5523 10.5523 15 10 15C9.44772 15 9 14.5523 9 14V10C9 9.44771 9.44772 9 10 9Z" fill="#525252"/>
</svg>
