<svg width="16" height="16" viewBox="0 0 16 16" fill="none" xmlns="http://www.w3.org/2000/svg">
<path fill-rule="evenodd" clip-rule="evenodd" d="M10.6788 1.53085C11.5046 1.87245 12.2784 2.37892 12.9497 3.05025C14.3069 4.40743 14.9903 6.18325 14.9999 7.96203C15 7.98734 15 8.01266 14.9999 8.03797C14.9949 8.97271 14.8068 9.86408 14.4695 10.678C14.1279 11.5042 13.6213 12.2782 12.9497 12.9497C11.683 14.2165 9.933 15 8 15C4.13401 15 1 11.866 1 8C1 6.067 1.7835 4.317 3.05025 3.05025C3.05921 3.0413 3.06818 3.03238 3.07718 3.02347C4.34059 1.77361 6.07749 1.00141 7.99475 1C7.9965 1 7.99825 1 8 1C8.00175 1 8.0035 1 8.00525 1C8.95219 1.0007 9.85513 1.18942 10.6788 1.53085ZM4.81802 4.81802C4.62276 4.62276 4.30396 4.62132 4.12905 4.835C3.42339 5.69703 3 6.79907 3 8C3 10.7614 5.23858 13 8 13C9.20093 13 10.303 12.5766 11.165 11.871C11.3787 11.696 11.3772 11.3772 11.182 11.182L4.81802 4.81802Z" fill="#525252"/>
</svg>
