<svg width="16" height="16" viewBox="0 0 16 16" fill="none" xmlns="http://www.w3.org/2000/svg">
<rect x="2" y="5" width="12" height="2" fill="#525252"/>
<path fill-rule="evenodd" clip-rule="evenodd" d="M13 9.8V6.2C13 5.60695 12.9984 5.28244 12.9794 5.04927C12.9786 5.03999 12.9779 5.0312 12.9771 5.0229C12.9688 5.02214 12.96 5.02137 12.9507 5.02061C12.7176 5.00156 12.3931 5 11.8 5H4.2C3.60695 5 3.28244 5.00156 3.04927 5.02061C3.03998 5.02137 3.0312 5.02213 3.0229 5.0229C3.02213 5.0312 3.02137 5.03998 3.02061 5.04927C3.00156 5.28244 3 5.60695 3 6.2V9.8C3 10.3931 3.00156 10.7176 3.02061 10.9507C3.02137 10.96 3.02213 10.9688 3.0229 10.9771C3.0312 10.9779 3.03998 10.9786 3.04927 10.9794C3.28244 10.9984 3.60695 11 4.2 11H11.8C12.3931 11 12.7176 10.9984 12.9507 10.9794C12.96 10.9786 12.9688 10.9779 12.9771 10.9771C12.9779 10.9688 12.9786 10.96 12.9794 10.9507C12.9984 10.7176 13 10.3931 13 9.8ZM13.908 3.21799C13.4802 3 12.9201 3 11.8 3H4.2C3.0799 3 2.51984 3 2.09202 3.21799C1.7157 3.40974 1.40973 3.7157 1.21799 4.09202C1 4.51984 1 5.0799 1 6.2V9.8C1 10.9201 1 11.4802 1.21799 11.908C1.40973 12.2843 1.7157 12.5903 2.09202 12.782C2.51984 13 3.0799 13 4.2 13H11.8C12.9201 13 13.4802 13 13.908 12.782C14.2843 12.5903 14.5903 12.2843 14.782 11.908C15 11.4802 15 10.9201 15 9.8V6.2C15 5.0799 15 4.51984 14.782 4.09202C14.5903 3.7157 14.2843 3.40974 13.908 3.21799Z" fill="#525252"/>
</svg>
