<svg width="16" height="16" viewBox="0 0 16 16" fill="none" xmlns="http://www.w3.org/2000/svg">
<path fill-rule="evenodd" clip-rule="evenodd" d="M15 4V8V12C15 12.7139 14.5651 13.2348 14.1475 13.5639C13.7186 13.9019 13.16 14.1625 12.5589 14.3629C11.3462 14.7671 9.73443 15 8 15C6.26557 15 4.65384 14.7671 3.44113 14.3629C2.84 14.1625 2.2814 13.9019 1.85254 13.5639C1.43495 13.2348 1 12.7139 1 12V8V4C1 2.34315 4.13401 1 8 1C11.866 1 15 2.34315 15 4ZM8 7C9.95869 7 11.7295 6.65523 13 6.09956V7.91233C12.9823 7.93121 12.9537 7.95822 12.9095 7.99308C12.7311 8.13365 12.4111 8.30398 11.9264 8.46553C10.9675 8.78515 9.57928 9 8 9C6.42072 9 5.03245 8.78515 4.07359 8.46553C3.58893 8.30398 3.26885 8.13365 3.09048 7.99308C3.04625 7.95822 3.01773 7.93121 3 7.91233V6.09956C4.27052 6.65523 6.04131 7 8 7ZM3 11.9123V10.2012C3.14348 10.259 3.29098 10.3128 3.44113 10.3629C4.65384 10.7671 6.26557 11 8 11C9.73443 11 11.3462 10.7671 12.5589 10.3629C12.709 10.3128 12.8565 10.259 13 10.2012V11.9123C12.9823 11.9312 12.9537 11.9582 12.9095 11.9931C12.7311 12.1336 12.4111 12.304 11.9264 12.4655C10.9675 12.7852 9.57928 13 8 13C6.42072 13 5.03245 12.7852 4.07359 12.4655C3.58893 12.304 3.26885 12.1336 3.09048 11.9931C3.04625 11.9582 3.01773 11.9312 3 11.9123ZM13.0259 11.8799C13.0261 11.8799 13.025 11.8821 13.0218 11.8865C13.023 11.8841 13.0241 11.8824 13.0248 11.8813L13.0259 11.8799ZM2.9782 11.8865C2.97504 11.8821 2.9739 11.8799 2.97412 11.8799C2.97433 11.8799 2.97591 11.8821 2.9782 11.8865Z" fill="#525252"/>
</svg>
