<svg width="16" height="16" viewBox="0 0 16 16" fill="none" xmlns="http://www.w3.org/2000/svg">
<path fill-rule="evenodd" clip-rule="evenodd" d="M2 4.2C2 3.0799 2 2.51984 2.21799 2.09202C2.40973 1.71569 2.71569 1.40973 3.09202 1.21799C3.51984 1 4.0799 1 5.2 1H7.2C7.48003 1 7.62004 1 7.727 1.0545C7.82108 1.10243 7.89757 1.17892 7.9455 1.273C8 1.37996 8 1.51997 8 1.8V3.8C8 4.9201 8 5.48016 8.21799 5.90798C8.40973 6.28431 8.71569 6.59027 9.09202 6.78201C9.51984 7 10.0799 7 11.2 7H13.2C13.48 7 13.62 7 13.727 7.0545C13.8211 7.10243 13.8976 7.17892 13.9455 7.273C14 7.37996 14 7.51997 14 7.8V11.8C14 12.9201 14 13.4802 13.782 13.908C13.5903 14.2843 13.2843 14.5903 12.908 14.782C12.4802 15 11.9201 15 10.8 15H5.2C4.0799 15 3.51984 15 3.09202 14.782C2.71569 14.5903 2.40973 14.2843 2.21799 13.908C2 13.4802 2 12.9201 2 11.8V6V4.2ZM10.5 5H12.7929C13.2383 5 13.4614 4.46143 13.1464 4.14645L10.8536 1.85355C10.5386 1.53857 10 1.76165 10 2.20711V4.5C10 4.77614 10.2239 5 10.5 5ZM5 6C5.55228 6 6 5.55228 6 5C6 4.44772 5.55228 4 5 4C4.44772 4 4 4.44772 4 5C4 5.55228 4.44772 6 5 6ZM4 8C4 7.44772 4.44772 7 5 7H6C6.55228 7 7 7.44772 7 8C7 8.55228 6.55228 9 6 9H5C4.44772 9 4 8.55228 4 8ZM5 10C4.44772 10 4 10.4477 4 11C4 11.5523 4.44772 12 5 12H11C11.5523 12 12 11.5523 12 11C12 10.4477 11.5523 10 11 10H5Z" fill="#525252"/>
</svg>
