<svg width="16" height="16" viewBox="0 0 16 16" fill="none" xmlns="http://www.w3.org/2000/svg">
<path fill-rule="evenodd" clip-rule="evenodd" d="M2.21799 2.09202C2 2.51984 2 3.0799 2 4.2V6V11.8C2 12.9201 2 13.4802 2.21799 13.908C2.40973 14.2843 2.71569 14.5903 3.09202 14.782C3.51984 15 4.0799 15 5.2 15H10.8C11.9201 15 12.4802 15 12.908 14.782C13.2843 14.5903 13.5903 14.2843 13.782 13.908C14 13.4802 14 12.9201 14 11.8V7.8C14 7.51997 14 7.37996 13.9455 7.273C13.8976 7.17892 13.8211 7.10243 13.727 7.0545C13.62 7 13.48 7 13.2 7H11.2C10.0799 7 9.51984 7 9.09202 6.78201C8.71569 6.59027 8.40973 6.28431 8.21799 5.90798C8 5.48016 8 4.9201 8 3.8V1.8C8 1.51997 8 1.37996 7.9455 1.273C7.89757 1.17892 7.82108 1.10243 7.727 1.0545C7.62004 1 7.48003 1 7.2 1H5.2C4.0799 1 3.51984 1 3.09202 1.21799C2.71569 1.40973 2.40973 1.71569 2.21799 2.09202ZM12.7929 5H10.5C10.2239 5 10 4.77614 10 4.5V2.20711C10 1.76165 10.5386 1.53857 10.8536 1.85355L13.1464 4.14645C13.4614 4.46143 13.2383 5 12.7929 5Z" fill="#525252"/>
</svg>
