<svg width="16" height="16" viewBox="0 0 16 16" fill="none" xmlns="http://www.w3.org/2000/svg">
<path fill-rule="evenodd" clip-rule="evenodd" d="M9.2 4H10.8C11.3931 4 11.7176 4.00156 11.9507 4.02061L11.9771 4.0229L11.9794 4.04927C11.9984 4.28244 12 4.60695 12 5.2V6.8C12 7.39305 11.9984 7.71756 11.9794 7.95073L11.9771 7.9771L11.9507 7.97939C11.7176 7.99844 11.3931 8 10.8 8H9.2C8.60695 8 8.28244 7.99844 8.04927 7.97939L8.0229 7.9771L8.02061 7.95073C8.00156 7.71756 8 7.39305 8 6.8V5.2C8 4.60695 8.00156 4.28244 8.02061 4.04927L8.0229 4.0229L8.04927 4.02061C8.28244 4.00156 8.60695 4 9.2 4ZM6 5.2C6 4.0799 6 3.51984 6.21799 3.09202C6.40974 2.71569 6.7157 2.40973 7.09202 2.21799C7.51984 2 8.0799 2 9.2 2H10.8C11.9201 2 12.4802 2 12.908 2.21799C13.2843 2.40973 13.5903 2.71569 13.782 3.09202C14 3.51984 14 4.0799 14 5.2V6.8C14 7.9201 14 8.48016 13.782 8.90798C13.5903 9.2843 13.2843 9.59027 12.908 9.78201C12.4802 10 11.9201 10 10.8 10H10V10.8C10 11.9201 10 12.4802 9.78201 12.908C9.59027 13.2843 9.28431 13.5903 8.90798 13.782C8.48016 14 7.92011 14 6.8 14H5.2C4.0799 14 3.51984 14 3.09202 13.782C2.7157 13.5903 2.40974 13.2843 2.21799 12.908C2 12.4802 2 11.9201 2 10.8V9.2C2 8.0799 2 7.51984 2.21799 7.09202C2.40974 6.71569 2.7157 6.40973 3.09202 6.21799C3.51984 6 4.0799 6 5.2 6H6V5.2Z" fill="#525252"/>
</svg>
