<svg width="16" height="16" viewBox="0 0 16 16" fill="none" xmlns="http://www.w3.org/2000/svg">
<path fill-rule="evenodd" clip-rule="evenodd" d="M2 12.9882V14H3.01177C3.74555 14 4.11243 14 4.4577 13.9171C4.7638 13.8436 5.05644 13.7224 5.32486 13.5579C5.6276 13.3724 5.88703 13.113 6.40589 12.5941L11.2929 7.70711L8.29289 4.70711L3.40589 9.59411C2.88703 10.113 2.6276 10.3724 2.44208 10.6751C2.27759 10.9436 2.15638 11.2362 2.08289 11.5423C2 11.8876 2 12.2545 2 12.9882ZM13.8686 5.13137L12.7071 6.29289L9.70711 3.29289L10.8686 2.13137L10.8686 2.13136C11.2646 1.73535 11.4627 1.53734 11.691 1.46316C11.8918 1.3979 12.1082 1.3979 12.309 1.46316C12.5373 1.53735 12.7354 1.73535 13.1314 2.13137L13.8686 2.86863C14.2646 3.26465 14.4627 3.46265 14.5368 3.69098C14.6021 3.89183 14.6021 4.10817 14.5368 4.30902C14.4627 4.53735 14.2646 4.73535 13.8686 5.13137ZM13 12H9C8.44772 12 8 12.4477 8 13C8 13.5523 8.44772 14 9 14H13C13.5523 14 14 13.5523 14 13C14 12.4477 13.5523 12 13 12Z" fill="#525252"/>
</svg>
