<svg width="16" height="16" viewBox="0 0 16 16" fill="none" xmlns="http://www.w3.org/2000/svg">
<path fill-rule="evenodd" clip-rule="evenodd" d="M13.908 3.21799C13.4802 3 12.9201 3 11.8 3H4.2C3.0799 3 2.51984 3 2.09202 3.21799C2.08597 3.22107 2.07993 3.22418 2.07392 3.22733C1.89526 3.32066 1.90348 3.56307 2.06921 3.67781V3.67781L7.54463 7.46848C7.70882 7.58215 7.79091 7.63898 7.88007 7.66101C7.95884 7.68047 8.04116 7.68047 8.11993 7.66101C8.20909 7.63898 8.29118 7.58215 8.45537 7.46848L13.9308 3.67781V3.67781C14.0965 3.56307 14.1047 3.32066 13.9261 3.22733C13.9201 3.22418 13.914 3.22107 13.908 3.21799ZM15 6.2C15 5.84597 14.6066 5.64247 14.3155 5.84398L8.85382 9.62516C8.34015 9.98077 7.65985 9.98077 7.14619 9.62516L1.68449 5.84398C1.39341 5.64247 1 5.84597 1 6.2V6.2V9.8C1 10.9201 1 11.4802 1.21799 11.908C1.40973 12.2843 1.71569 12.5903 2.09202 12.782C2.51984 13 3.07989 13 4.2 13H11.8C12.9201 13 13.4802 13 13.908 12.782C14.2843 12.5903 14.5903 12.2843 14.782 11.908C15 11.4802 15 10.9201 15 9.8V6.2V6.2Z" fill="#525252"/>
</svg>
