<svg width="16" height="16" viewBox="0 0 16 16" fill="none" xmlns="http://www.w3.org/2000/svg">
<path fill-rule="evenodd" clip-rule="evenodd" d="M7 2C7 2.55228 6.55228 3 6 3H4.41421L6.70711 5.29289C7.09763 5.68342 7.09763 6.31658 6.70711 6.70711C6.31658 7.09763 5.68342 7.09763 5.29289 6.70711L3 4.41421V6C3 6.55228 2.55228 7 2 7C1.44772 7 1 6.55228 1 6V2C1 1.44772 1.44772 1 2 1H6C6.55228 1 7 1.44772 7 2ZM2 15H6C6.55228 15 7 14.5523 7 14C7 13.4477 6.55228 13 6 13H4.41421L6.70711 10.7071C7.09763 10.3166 7.09763 9.68342 6.70711 9.29289C6.31658 8.90237 5.68342 8.90237 5.29289 9.29289L3 11.5858V10C3 9.44772 2.55228 9 2 9C1.44772 9 1 9.44772 1 10V14C1 14.5523 1.44772 15 2 15ZM10 3C9.44771 3 9 2.55228 9 2C9 1.44772 9.44771 1 10 1H14C14.5523 1 15 1.44772 15 2V6C15 6.55228 14.5523 7 14 7C13.4477 7 13 6.55228 13 6V4.41421L10.7071 6.70711C10.3166 7.09763 9.68342 7.09763 9.29289 6.70711C8.90237 6.31658 8.90237 5.68342 9.29289 5.29289L11.5858 3H10ZM14 15H10C9.44771 15 9 14.5523 9 14C9 13.4477 9.44771 13 10 13H11.5858L9.29289 10.7071C8.90237 10.3166 8.90237 9.68342 9.29289 9.29289C9.68342 8.90237 10.3166 8.90237 10.7071 9.29289L13 11.5858V10C13 9.44772 13.4477 9 14 9C14.5523 9 15 9.44772 15 10V14C15 14.5523 14.5523 15 14 15Z" fill="#525252"/>
</svg>
