<svg width="16" height="16" viewBox="0 0 16 16" fill="none" xmlns="http://www.w3.org/2000/svg">
<path fill-rule="evenodd" clip-rule="evenodd" d="M11.7071 4.2929C12.0976 4.68343 12.0976 5.31659 11.7071 5.70712C11.3166 6.09764 10.6834 6.09764 10.2929 5.70712L9 4.41421V10C9 10.5523 8.55229 11 8 11C7.44772 11 7 10.5523 7 10V4.41422L5.70711 5.70711C5.31659 6.09764 4.68342 6.09764 4.2929 5.70712C3.90237 5.31659 3.90237 4.68343 4.29289 4.2929L7.29289 1.29289C7.48043 1.10536 7.73478 1 8 1C8.26522 1 8.51957 1.10536 8.70711 1.29289L11.7071 4.2929ZM4 8C4 7.44772 3.55229 7 3 7C2.44772 7 2 7.44772 2 8V10.8V10.8385V10.8386C1.99998 11.3657 1.99997 11.8205 2.03057 12.195C2.06287 12.5904 2.13419 12.9836 2.32698 13.362C2.6146 13.9265 3.07354 14.3854 3.63803 14.673C4.01641 14.8658 4.40963 14.9371 4.80497 14.9694C5.17955 15 5.63431 15 6.16146 15L6.2 15H9.8L9.83855 15C10.3657 15 10.8205 15 11.195 14.9694C11.5904 14.9371 11.9836 14.8658 12.362 14.673C12.9265 14.3854 13.3854 13.9265 13.673 13.362C13.8658 12.9836 13.9371 12.5904 13.9694 12.195C14 11.8205 14 11.3657 14 10.8386V10.8385V10.8V8C14 7.44772 13.5523 7 13 7C12.4477 7 12 7.44772 12 8V10.8C12 11.3766 11.9992 11.7488 11.9761 12.0322C11.9539 12.3038 11.9162 12.4045 11.891 12.454C11.7951 12.6422 11.6422 12.7951 11.454 12.891C11.4045 12.9162 11.3038 12.9539 11.0322 12.9761C10.7488 12.9992 10.3766 13 9.8 13H6.2C5.62345 13 5.25118 12.9992 4.96784 12.9761C4.69618 12.9539 4.59546 12.9162 4.54601 12.891C4.35785 12.7951 4.20487 12.6422 4.109 12.454C4.0838 12.4045 4.04613 12.3038 4.02393 12.0322C4.00078 11.7488 4 11.3766 4 10.8V8Z" fill="#525252"/>
</svg>
