<svg width="16" height="16" viewBox="0 0 16 16" fill="none" xmlns="http://www.w3.org/2000/svg">
<path fill-rule="evenodd" clip-rule="evenodd" d="M2.86144 5.68987C2.04118 6.53021 1.44736 7.34177 1.17191 7.74183C1.06322 7.89969 1.06322 8.10031 1.17191 8.25817C1.87674 9.28186 4.66621 13 8 13C8.62875 13 9.23814 12.8677 9.81783 12.6463L2.86144 5.68987ZM13.1386 10.3101C13.9588 9.46979 14.5527 8.65823 14.8281 8.25817C14.9368 8.10031 14.9368 7.89969 14.8281 7.74183C14.1233 6.71814 11.3338 3 8 3C7.37125 3 6.76186 3.13225 6.18217 3.35374L9.41155 6.58312C9.41333 6.5849 9.41511 6.58667 9.41688 6.58846L13.1386 10.3101Z" fill="#525252"/>
<path d="M3 3L13 13" stroke="#525252" stroke-width="2" stroke-linecap="round"/>
</svg>
