<svg width="16" height="16" viewBox="0 0 16 16" fill="none" xmlns="http://www.w3.org/2000/svg">
<path fill-rule="evenodd" clip-rule="evenodd" d="M8 13C11.3338 13 14.1233 9.28186 14.8281 8.25817C14.9368 8.10031 14.9368 7.89969 14.8281 7.74183C14.1233 6.71814 11.3338 3 8 3C4.66621 3 1.87674 6.71814 1.17191 7.74183C1.06322 7.89969 1.06322 8.10031 1.17191 8.25817C1.87674 9.28186 4.66621 13 8 13ZM8 10C9.10457 10 10 9.10457 10 8C10 6.89543 9.10457 6 8 6C6.89544 6 6 6.89543 6 8C6 9.10457 6.89544 10 8 10Z" fill="#525252"/>
</svg>
