<svg width="16" height="16" viewBox="0 0 16 16" fill="none" xmlns="http://www.w3.org/2000/svg">
<g clip-path="url(#clip0_34_5669)">
<path fill-rule="evenodd" clip-rule="evenodd" d="M2.71654 5.30245C2.33188 4.90728 1.69972 4.89809 1.30372 5.28222C0.907309 5.66677 0.897684 6.29986 1.28223 6.69627L2 6C1.28223 6.69627 1.28245 6.6965 1.28268 6.69674L1.2832 6.69728L1.28445 6.69856L1.28775 6.70193L1.29758 6.71191L1.32996 6.74428C1.35713 6.77119 1.39543 6.80854 1.4443 6.85484C1.54199 6.94739 1.68232 7.07606 1.86092 7.22878C2.21721 7.53344 2.73071 7.938 3.36618 8.34318C3.381 8.35263 3.39589 8.36208 3.41086 8.37154L2.14249 10.4855C1.85834 10.9591 2.0119 11.5733 2.48548 11.8575C2.95907 12.1416 3.57333 11.9881 3.85747 11.5145L5.1865 9.29945C5.74919 9.53302 6.36119 9.72993 7.01043 9.85493C7.00355 9.9023 6.99998 9.95073 6.99998 10V12C6.99998 12.5523 7.4477 13 7.99998 13C8.55227 13 8.99998 12.5523 8.99998 12V10L8.99985 9.98339C9.70175 9.93697 10.3706 9.7962 10.9934 9.59934L12.1425 11.5145C12.4266 11.9881 13.0409 12.1416 13.5145 11.8575C13.9881 11.5733 14.1416 10.9591 13.8575 10.4855L12.8492 8.80497C13.13 8.65329 13.3923 8.49719 13.6338 8.34318C14.2693 7.938 14.7828 7.53344 15.1391 7.22878C15.3177 7.07606 15.458 6.94739 15.5557 6.85484C15.6046 6.80854 15.6429 6.77119 15.67 6.74428L15.7024 6.71191L15.7123 6.70193L15.7156 6.69856L15.7168 6.69728L15.7173 6.69674C15.7175 6.69651 15.7178 6.69628 15.0385 6.03735L15.7178 6.69627C16.1023 6.29986 16.0927 5.66677 15.6963 5.28222C15.2999 4.89768 14.6668 4.90731 14.2822 5.30372L14.2807 5.30529L14.2628 5.32309C14.2456 5.34013 14.2179 5.36723 14.1802 5.40296C14.1047 5.47448 13.9896 5.58018 13.8393 5.70871C13.5378 5.96655 13.0994 6.312 12.5586 6.65681C11.4609 7.35669 10.0262 8 8.5 8C6.9738 8 5.5391 7.35669 4.44143 6.65681C3.90064 6.312 3.46223 5.96655 3.16069 5.70871C3.01037 5.58018 2.8953 5.47448 2.81981 5.40296C2.7821 5.36723 2.75437 5.34013 2.73716 5.32309L2.71934 5.30529L2.71654 5.30245Z" fill="#525252"/>
</g>
<defs>
<clipPath id="clip0_34_5669">
<rect width="16" height="16" fill="white"/>
</clipPath>
</defs>
</svg>
