<svg width="16" height="16" viewBox="0 0 16 16" fill="none" xmlns="http://www.w3.org/2000/svg">
<path fill-rule="evenodd" clip-rule="evenodd" d="M8 15C11.866 15 15 11.866 15 8C15 4.13401 11.866 1 8 1C4.13401 1 1 4.13401 1 8C1 11.866 4.13401 15 8 15ZM6 7C6.55228 7 7 6.55228 7 6C7 5.44772 6.55228 5 6 5C5.44772 5 5 5.44772 5 6C5 6.55228 5.44772 7 6 7ZM11 6C11 6.55228 10.5523 7 10 7C9.44771 7 9 6.55228 9 6C9 5.44772 9.44771 5 10 5C10.5523 5 11 5.44772 11 6ZM6 11C5.44772 11 5 10.5523 5 10C5 9.44771 5.44772 9 6 9C6.45205 9 6.943 8.82837 7.64888 8.56367L7.71499 8.53885C8.33486 8.30597 9.14931 8 10 8C10.5523 8 11 8.44772 11 9C11 9.55229 10.5523 10 10 10C9.54795 10 9.057 10.1716 8.35112 10.4363L8.28501 10.4612C7.66514 10.694 6.85069 11 6 11Z" fill="#525252"/>
</svg>
