<svg width="16" height="16" viewBox="0 0 16 16" fill="none" xmlns="http://www.w3.org/2000/svg">
<path fill-rule="evenodd" clip-rule="evenodd" d="M6 15H5.8C4.11984 15 3.27976 15 2.63803 14.673C2.07354 14.3854 1.6146 13.9265 1.32698 13.362C1 12.7202 1 11.8802 1 10.2V5.8C1 4.11984 1 3.27976 1.32698 2.63803C1.6146 2.07354 2.07354 1.6146 2.63803 1.32698C3.27976 1 4.11984 1 5.8 1H10.2C11.8802 1 12.7202 1 13.362 1.32698C13.9265 1.6146 14.3854 2.07354 14.673 2.63803C15 3.27976 15 4.11984 15 5.8V10.2C15 11.8802 15 12.7202 14.673 13.362C14.3854 13.9265 13.9265 14.3854 13.362 14.673C12.7202 15 11.8802 15 10.2 15H8H7L8 15V14.9998V14.9993V14.9972V14.9888V14.9557V14.8285V14.3583L8 12.7888L8 10H9C9.55228 10 10 9.55228 10 9C10 8.44772 9.55228 8 9 8H8C8 7.48074 8.00162 7.11181 8.03915 6.81153C8.07553 6.52048 8.13494 6.40342 8.175 6.35C8.2324 6.27346 8.5085 6 10 6C10.5523 6 11 5.55228 11 5C11 4.44772 10.5523 4 10 4C8.4915 4 7.2676 4.22654 6.575 5.15C6.24006 5.59658 6.11197 6.10452 6.0546 6.56347C5.99991 7.00096 5.99995 7.49179 6 7.96075L6 8H5C4.44772 8 4 8.44772 4 9C4 9.55228 4.44772 10 5 10H6L6 12.7888L6 14.3583V14.8285V14.9557V14.9888V14.9972V14.9993V14.9998V15L7 15H6Z" fill="#525252"/>
</svg>
