<svg width="16" height="16" viewBox="0 0 16 16" fill="none" xmlns="http://www.w3.org/2000/svg">
<path fill-rule="evenodd" clip-rule="evenodd" d="M3.8 2H5.67452C6.1637 2 6.40829 2 6.63847 2.05526C6.84254 2.10425 7.03763 2.18506 7.21657 2.29472C7.41841 2.4184 7.59136 2.59135 7.93726 2.93725L7.93726 2.93726L9 4H3V2.8C3 2.51997 3 2.37996 3.0545 2.273C3.10244 2.17892 3.17893 2.10243 3.27301 2.0545C3.37996 2 3.51998 2 3.8 2ZM14.6187 6.07237C14.4993 6 14.3246 6 13.9754 6H2.02462C1.67536 6 1.50074 6 1.38129 6.07237C1.27661 6.13579 1.19883 6.23542 1.16268 6.35236C1.12145 6.48578 1.1638 6.6552 1.24851 6.99403L2.39403 11.5761C2.61069 12.4428 2.71903 12.8761 2.96062 13.1988C3.17378 13.4834 3.45899 13.7061 3.78687 13.8439C4.15848 14 4.60515 14 5.49848 14H10.5015C11.3949 14 11.8415 14 12.2131 13.8439C12.541 13.7061 12.8262 13.4834 13.0394 13.1988C13.281 12.8761 13.3893 12.4428 13.606 11.5761L13.606 11.5761L14.7515 6.99403C14.8362 6.6552 14.8786 6.48578 14.8373 6.35236C14.8012 6.23542 14.7234 6.13579 14.6187 6.07237Z" fill="#525252"/>
</svg>
