<svg width="16" height="16" viewBox="0 0 16 16" fill="none" xmlns="http://www.w3.org/2000/svg">
<path fill-rule="evenodd" clip-rule="evenodd" d="M1.8 2H3.67452C4.1637 2 4.40829 2 4.63846 2.05526C4.84254 2.10425 5.03763 2.18506 5.21657 2.29472C5.4184 2.4184 5.59135 2.59135 5.93725 2.93725L5.93726 2.93726L7 4H11.8C12.9201 4 13.4802 4 13.908 4.21799C14.2843 4.40973 14.5903 4.71569 14.782 5.09202C15 5.51984 15 6.0799 15 7.2V10.8C15 11.9201 15 12.4802 14.782 12.908C14.5903 13.2843 14.2843 13.5903 13.908 13.782C13.4802 14 12.9201 14 11.8 14H4.2C3.07989 14 2.51984 14 2.09202 13.782C1.71569 13.5903 1.40973 13.2843 1.21799 12.908C1 12.4802 1 11.9201 1 10.8V4V2.8C1 2.51997 1 2.37996 1.0545 2.273C1.10243 2.17892 1.17892 2.10243 1.273 2.0545C1.37996 2 1.51997 2 1.8 2Z" fill="#525252"/>
</svg>
