<svg width="16" height="16" viewBox="0 0 16 16" fill="none" xmlns="http://www.w3.org/2000/svg">
<path fill-rule="evenodd" clip-rule="evenodd" d="M8 3C8 3.55228 8.44772 4 9 4H10.5858L8.29289 6.29289C7.90237 6.68342 7.90237 7.31658 8.29289 7.70711C8.68342 8.09763 9.31658 8.09763 9.70711 7.70711L12 5.41421V7C12 7.55228 12.4477 8 13 8C13.5523 8 14 7.55228 14 7V3C14 2.44772 13.5523 2 13 2H9C8.44772 2 8 2.44772 8 3ZM3 14H7C7.55228 14 8 13.5523 8 13C8 12.4477 7.55228 12 7 12H5.41421L7.70711 9.70711C8.09763 9.31658 8.09763 8.68342 7.70711 8.29289C7.31658 7.90237 6.68342 7.90237 6.29289 8.29289L4 10.5858V9C4 8.44772 3.55228 8 3 8C2.44772 8 2 8.44772 2 9V13C2 13.5523 2.44772 14 3 14Z" fill="#525252"/>
</svg>
