<svg width="16" height="16" viewBox="0 0 16 16" fill="none" xmlns="http://www.w3.org/2000/svg">
<path fill-rule="evenodd" clip-rule="evenodd" d="M1.00148 7.12371L7.3415 1.57619C7.71853 1.24629 8.28148 1.2463 8.65851 1.57619L14.9985 7.12371C15.346 7.42773 15.131 8 14.6693 8H13V13C13 13.5523 12.5523 14 12 14L9.00001 14V11C9.00001 10.4477 8.55229 10 8.00001 10C7.44772 10 7.00001 10.4477 7.00001 11V14L4.00001 14C3.44772 14 3.00001 13.5523 3.00001 13V8H1.33073C0.869048 8 0.654027 7.42773 1.00148 7.12371Z" fill="#525252"/>
</svg>
