<svg width="16" height="16" viewBox="0 0 16 16" fill="none" xmlns="http://www.w3.org/2000/svg">
<path fill-rule="evenodd" clip-rule="evenodd" d="M11.8 2C12.9201 2 13.4802 2 13.908 2.21799C14.2843 2.40973 14.5903 2.71569 14.782 3.09202C15 3.51984 15 4.0799 15 5.2V10.8C15 11.9201 15 12.4802 14.782 12.908C14.5903 13.2843 14.2843 13.5903 13.908 13.782C13.4802 14 12.9201 14 11.8 14H4.2C3.07989 14 2.51984 14 2.09202 13.782C1.71569 13.5903 1.40973 13.2843 1.21799 12.908C1 12.4802 1 11.9201 1 10.8V5.2C1 4.0799 1 3.51984 1.21799 3.09202C1.40973 2.71569 1.71569 2.40973 2.09202 2.21799C2.51984 2 3.0799 2 4.2 2H11.8ZM2.93425 12C2.53491 12 2.29671 11.5549 2.51823 11.2227L5.58397 6.62402C5.78188 6.32715 6.21811 6.32715 6.41603 6.62402L8.66682 10.0002C8.85818 10.2873 9.27586 10.2989 9.48285 10.0229L10.6 8.53334C10.8 8.26667 11.2 8.26667 11.4 8.53334L13.4 11.2C13.6472 11.5296 13.412 12 13 12H10H8H2.93425ZM11 6C11.5523 6 12 5.55228 12 5C12 4.44772 11.5523 4 11 4C10.4477 4 10 4.44772 10 5C10 5.55228 10.4477 6 11 6Z" fill="#525252"/>
</svg>
