<svg width="16" height="16" viewBox="0 0 16 16" fill="none" xmlns="http://www.w3.org/2000/svg">
<path fill-rule="evenodd" clip-rule="evenodd" d="M8.6 15C10.8402 15 11.9603 15 12.816 14.564C13.5686 14.1805 14.1805 13.5686 14.564 12.816C15 11.9603 15 10.8402 15 8.6V7.4C15 5.15979 15 4.03969 14.564 3.18404C14.1805 2.43139 13.5686 1.81947 12.816 1.43597C11.9603 1 10.8402 1 8.6 1H7.4C5.15979 1 4.03969 1 3.18404 1.43597C2.43139 1.81947 1.81947 2.43139 1.43597 3.18404C1 4.03969 1 5.15979 1 7.4V8.6C1 10.8402 1 11.9603 1.43597 12.816C1.81947 13.5686 2.43139 14.1805 3.18404 14.564C4.03969 15 5.15979 15 7.4 15H8.6ZM11 8C11 9.65685 9.65685 11 8 11C6.34315 11 5 9.65685 5 8C5 6.34315 6.34315 5 8 5C9.65685 5 11 6.34315 11 8ZM12 5C12.5523 5 13 4.55228 13 4C13 3.44772 12.5523 3 12 3C11.4477 3 11 3.44772 11 4C11 4.55228 11.4477 5 12 5Z" fill="#525252"/>
</svg>
