<svg width="16" height="16" viewBox="0 0 16 16" fill="none" xmlns="http://www.w3.org/2000/svg">
<path fill-rule="evenodd" clip-rule="evenodd" d="M7 4.47214C7 3.6591 7.6591 3 8.47214 3C9.02974 3 9.53949 3.31504 9.78885 3.81378L10.1056 4.44721C10.3526 4.94119 10.9532 5.14142 11.4472 4.89443C11.9412 4.64744 12.1414 4.04676 11.8944 3.55279L11.5777 2.91935C10.9896 1.74305 9.78728 1 8.47214 1C6.55453 1 5 2.55453 5 4.47214V7C5 7.00002 5 7.00003 5 7.00005C4.01165 7.00082 3.49359 7.01338 3.09202 7.21799C2.71569 7.40973 2.40973 7.71569 2.21799 8.09202C2 8.51984 2 9.0799 2 10.2V11.8C2 12.9201 2 13.4802 2.21799 13.908C2.40973 14.2843 2.71569 14.5903 3.09202 14.782C3.51984 15 4.07989 15 5.2 15H10.8C11.9201 15 12.4802 15 12.908 14.782C13.2843 14.5903 13.5903 14.2843 13.782 13.908C14 13.4802 14 12.9201 14 11.8V10.2C14 9.0799 14 8.51984 13.782 8.09202C13.5903 7.71569 13.2843 7.40973 12.908 7.21799C12.4802 7 11.9201 7 10.8 7H7V4.47214Z" fill="#525252"/>
</svg>
