<svg width="16" height="16" viewBox="0 0 16 16" fill="none" xmlns="http://www.w3.org/2000/svg">
<path fill-rule="evenodd" clip-rule="evenodd" d="M6 5C6 3.89543 6.89543 3 8 3C9.10457 3 10 3.89543 10 5V7H6V5ZM4.00018 7.01918C4.00006 7.0128 4 7.00641 4 7V5C4 2.79086 5.79086 1 8 1C10.2091 1 12 2.79086 12 5V7C12 7.00641 11.9999 7.0128 11.9998 7.01918C12.3921 7.04312 12.6704 7.09695 12.908 7.21799C13.2843 7.40973 13.5903 7.71569 13.782 8.09202C14 8.51984 14 9.0799 14 10.2V11.8C14 12.9201 14 13.4802 13.782 13.908C13.5903 14.2843 13.2843 14.5903 12.908 14.782C12.4802 15 11.9201 15 10.8 15H5.2C4.07989 15 3.51984 15 3.09202 14.782C2.71569 14.5903 2.40973 14.2843 2.21799 13.908C2 13.4802 2 12.9201 2 11.8V10.2C2 9.0799 2 8.51984 2.21799 8.09202C2.40973 7.71569 2.71569 7.40973 3.09202 7.21799C3.32956 7.09695 3.60787 7.04312 4.00018 7.01918Z" fill="#525252"/>
</svg>
