<svg width="16" height="16" viewBox="0 0 16 16" fill="none" xmlns="http://www.w3.org/2000/svg">
<path d="M8.4 14H7.6C7.03995 14 6.75992 14 6.54601 13.891C6.35785 13.7951 6.20487 13.6422 6.10899 13.454C6 13.2401 6 12.9601 6 12.4V9.80001C6 9.51998 6 9.37997 5.9455 9.27301C5.89757 9.17893 5.82108 9.10244 5.727 9.0545C5.62004 9.00001 5.48003 9.00001 5.2 9.00001H3.73938C3.1859 9.00001 2.90917 9.00001 2.77123 8.88759C2.65135 8.78989 2.58343 8.64221 2.58727 8.48761C2.59168 8.30972 2.77178 8.0996 3.13197 7.67938L7.6963 2.35433C7.80092 2.23227 7.85323 2.17124 7.91548 2.14888C7.97012 2.12925 8.02988 2.12925 8.08452 2.14888C8.14677 2.17124 8.19908 2.23227 8.3037 2.35433L12.868 7.67937C13.2282 8.0996 13.4083 8.30972 13.4127 8.48761C13.4166 8.64221 13.3487 8.78989 13.2288 8.88759C13.0908 9.00001 12.8141 9.00001 12.2606 9.00001H10.8C10.52 9.00001 10.38 9.00001 10.273 9.0545C10.1789 9.10244 10.1024 9.17893 10.0545 9.27301C10 9.37997 10 9.51998 10 9.80001V12.4C10 12.9601 10 13.2401 9.89101 13.454C9.79513 13.6422 9.64215 13.7951 9.45399 13.891C9.24008 14 8.96005 14 8.4 14Z" fill="#525252"/>
</svg>
