<svg width="16" height="16" viewBox="0 0 16 16" fill="none" xmlns="http://www.w3.org/2000/svg">
<path fill-rule="evenodd" clip-rule="evenodd" d="M5 6C5 5.48074 5.00162 5.11181 5.03915 4.81153C5.07553 4.52048 5.13494 4.40342 5.175 4.35C5.2324 4.27346 5.5085 4 7 4C7.55228 4 8 3.55228 8 3C8 2.44772 7.55228 2 7 2C5.4915 2 4.2676 2.22654 3.575 3.15C3.24006 3.59658 3.11197 4.10452 3.0546 4.56347C2.99991 5.00096 2.99995 5.49179 3 5.96075L3 6H2C1.44772 6 1 6.44772 1 7C1 7.55228 1.44772 8 2 8H3L3 10.7888L3 12.3583L3 12.8285V12.9557V12.9888V12.9972V12.9993V12.9998V13L4 13H3C3 13.5523 3.44771 14 4 14C4.55228 14 5 13.5523 5 13H4L5 13V12.9998V12.9993V12.9972V12.9888V12.9557V12.8285V12.3583L5 10.7888L5 8H6C6.55228 8 7 7.55228 7 7C7 6.44772 6.55228 6 6 6H5ZM8 8V10V13C8 13.5523 8.44772 14 9 14C9.55229 14 10 13.5523 10 13V10C10 9.64857 10.0898 9.40429 10.2057 9.26518C10.2949 9.15816 10.4905 9 11 9C11.5095 9 11.7051 9.15816 11.7943 9.26518C11.9102 9.40429 12 9.64857 12 10V10.0059V10.0118V10.0177V10.0236V10.0296V10.0356V10.0416V10.0476V10.0536V10.0597V10.0658V10.0719V10.0781V10.0842V10.0904V10.0966V10.1028V10.109V10.1153V10.1216V10.1279V10.1342V10.1405V10.1469V10.1533V10.1597V10.1661V10.1725V10.179V10.1855V10.192V10.1985V10.205V10.2116V10.2181V10.2247V10.2313V10.238V10.2446V10.2513V10.2579V10.2646V10.2713V10.2781V10.2848V10.2916V10.2984V10.3051V10.312V10.3188V10.3256V10.3325V10.3394V10.3463V10.3532V10.3601V10.367V10.374V10.3809V10.3879V10.3949V10.4019V10.409V10.416V10.4231V10.4301V10.4372V10.4443V10.4514V10.4586V10.4657V10.4729V10.48V10.4872V10.4944V10.5016V10.5088V10.5161V10.5233V10.5305V10.5378V10.5451V10.5524V10.5597V10.567V10.5743V10.5817V10.589V10.5964V10.6037V10.6111V10.6185V10.6259V10.6333V10.6408V10.6482V10.6556V10.6631V10.6706V10.678V10.6855V10.693V10.7005V10.708V10.7155V10.7231V10.7306V10.7381V10.7457V10.7533V10.7608V10.7684V10.776V10.7836V10.7912V10.7988V10.8064V10.814V10.8217V10.8293V10.8369V10.8446V10.8522V10.8599V10.8676V10.8753V10.8829V10.8906V10.8983V10.906V10.9137V10.9214V10.9291V10.9369V10.9446V10.9523V10.9601V10.9678V10.9755V10.9833V10.991V10.9988V11.0065V11.0143V11.0221V11.0298V11.0376V11.0454V11.0532V11.061V11.0687V11.0765V11.0843V11.0921V11.0999V11.1077V11.1155V11.1233V11.1311V11.1389V11.1467V11.1545V11.1623V11.1701V11.178V11.1858V11.1936V11.2014V11.2092V11.217V11.2248V11.2326V11.2405V11.2483V11.2561V11.2639V11.2717V11.2795V11.2873V11.2951V11.3029V11.3107V11.3185V11.3263V11.3341V11.3419V11.3497V11.3575V11.3653V11.3731V11.3809V11.3887V11.3965V11.4042V11.412V11.4198V11.4275V11.4353V11.4431V11.4508V11.4586V11.4663V11.4741V11.4818V11.4895V11.4973V11.505V11.5127V11.5204V11.5282V11.5359V11.5436V11.5513V11.5589V11.5666V11.5743V11.582V11.5896V11.5973V11.605V11.6126V11.6202V11.6279V11.6355V11.6431V11.6507V11.6583V11.6659V11.6735V11.6811V11.6887V11.6962V11.7038V11.7113V11.7189V11.7264V11.7339V11.7414V11.7489V11.7564V11.7639V11.7714V11.7789V11.7863V11.7938V11.8012V11.8086V11.8161V11.8235V11.8309V11.8382V11.8456V11.853V11.8603V11.8677V11.875V11.8823V11.8896V11.8969V11.9042V11.9115V11.9187V11.926V11.9332V11.9404V11.9476V11.9548V11.962V11.9692V11.9764V11.9835V11.9906V11.9977V12.0049V12.0119V12.019V12.0261V12.0331V12.0402V12.0472V12.0542V12.0612V12.0681V12.0751V12.082V12.089V12.0959V12.1028V12.1097V12.1165V12.1234V12.1302V12.137V12.1438V12.1506V12.1574V12.1641V12.1709V12.1776V12.1843V12.191V12.1976V12.2043V12.2109V12.2175V12.2241V12.2307V12.2372V12.2438V12.2503V12.2568V12.2633V12.2698V12.2762V12.2826V12.289V12.2954V12.3018V12.3081V12.3145V12.3208V12.327V12.3333V12.3396V12.3458V12.352V12.3582V12.3643V12.3705V12.3766V12.3827V12.3888V12.3948V12.4009V12.4069V12.4129V12.4188V12.4248V12.4307V12.4366V12.4425V12.4483V12.4542V12.46V12.4658V12.4715V12.4773V12.483V12.4887V12.4944V12.5V12.5056V12.5112V12.5168V12.5223V12.5278V12.5333V12.5388V12.5443V12.5497V12.5551V12.5605V12.5658V12.5711V12.5764V12.5817V12.5869V12.5921V12.5973V12.6025V12.6076V12.6127V12.6178V12.6229V12.6279V12.6329V12.6379V12.6428V12.6477V12.6526V12.6575V12.6623V12.6671V12.6719V12.6766V12.6813V12.686V12.6907V12.6953V12.6999V12.7045V12.709V12.7135V12.718V12.7225V12.7269V12.7313V12.7357V12.74V12.7443V12.7486V12.7528V12.757V12.7612V12.7653V12.7694V12.7735V12.7776V12.7816V12.7856V12.7895V12.7935V12.7974V12.8012V12.805V12.8088V12.8126V12.8163V12.82V12.8237V12.8273V12.8309V12.8345V12.838V12.8415V12.8449V12.8484V12.8517V12.8551V12.8584V12.8617V12.865V12.8682V12.8714V12.8745V12.8776V12.8807V12.8837V12.8867V12.8897V12.8926V12.8955V12.8984V12.9012V12.904V12.9067V12.9094V12.9121V12.9147V12.9173V12.9199V12.9224V12.9249V12.9274V12.9298V12.9321V12.9345V12.9368V12.939V12.9413V12.9434V12.9456V12.9477V12.9497V12.9518V12.9537V12.9557V12.9576V12.9595V12.9613V12.9631V12.9648V12.9665V12.9682V12.9698V12.9714V12.9729V12.9744V12.9759V12.9773V12.9787V12.98V12.9813V12.9825V12.9838V12.9849V12.986V12.9871V12.9882V12.9892V12.9901V12.991V12.9919V12.9927V12.9935V12.9942V12.9949V12.9956V12.9962V12.9967V12.9973V12.9977V12.9982V12.9985V12.9989V12.9992V12.9994V12.9996V12.9998V12.9999V13L13 13H12C12 13.5523 12.4477 14 13 14C13.5523 14 14 13.5523 14 13H13L14 13V12.9999V12.9998V12.9996V12.9994V12.9992V12.9989V12.9985V12.9982V12.9977V12.9973V12.9967V12.9962V12.9956V12.9949V12.9942V12.9935V12.9927V12.9919V12.991V12.9901V12.9892V12.9882V12.9871V12.986V12.9849V12.9838V12.9825V12.9813V12.98V12.9787V12.9773V12.9759V12.9744V12.9729V12.9714V12.9698V12.9682V12.9665V12.9648V12.9631V12.9613V12.9595V12.9576V12.9557V12.9537V12.9518V12.9497V12.9477V12.9456V12.9434V12.9413V12.939V12.9368V12.9345V12.9321V12.9298V12.9274V12.9249V12.9224V12.9199V12.9173V12.9147V12.9121V12.9094V12.9067V12.904V12.9012V12.8984V12.8955V12.8926V12.8897V12.8867V12.8837V12.8807V12.8776V12.8745V12.8714V12.8682V12.865V12.8617V12.8584V12.8551V12.8517V12.8484V12.8449V12.8415V12.838V12.8345V12.8309V12.8273V12.8237V12.82V12.8163V12.8126V12.8088V12.805V12.8012V12.7974V12.7935V12.7895V12.7856V12.7816V12.7776V12.7735V12.7694V12.7653V12.7612V12.757V12.7528V12.7486V12.7443V12.74V12.7357V12.7313V12.7269V12.7225V12.718V12.7135V12.709V12.7045V12.6999V12.6953V12.6907V12.686V12.6813V12.6766V12.6719V12.6671V12.6623V12.6575V12.6526V12.6477V12.6428V12.6379V12.6329V12.6279V12.6229V12.6178V12.6127V12.6076V12.6025V12.5973V12.5921V12.5869V12.5817V12.5764V12.5711V12.5658V12.5605V12.5551V12.5497V12.5443V12.5388V12.5333V12.5278V12.5223V12.5168V12.5112V12.5056V12.5V12.4944V12.4887V12.483V12.4773V12.4715V12.4658V12.46V12.4542V12.4483V12.4425V12.4366V12.4307V12.4248V12.4188V12.4129V12.4069V12.4009V12.3948V12.3888V12.3827V12.3766V12.3705V12.3643V12.3582V12.352V12.3458V12.3396V12.3333V12.327V12.3208V12.3145V12.3081V12.3018V12.2954V12.289V12.2826V12.2762V12.2698V12.2633V12.2568V12.2503V12.2438V12.2372V12.2307V12.2241V12.2175V12.2109V12.2043V12.1976V12.191V12.1843V12.1776V12.1709V12.1641V12.1574V12.1506V12.1438V12.137V12.1302V12.1234V12.1165V12.1097V12.1028V12.0959V12.089V12.082V12.0751V12.0681V12.0612V12.0542V12.0472V12.0402V12.0331V12.0261V12.019V12.0119V12.0049V11.9977V11.9906V11.9835V11.9764V11.9692V11.962V11.9548V11.9476V11.9404V11.9332V11.926V11.9187V11.9115V11.9042V11.8969V11.8896V11.8823V11.875V11.8677V11.8603V11.853V11.8456V11.8382V11.8309V11.8235V11.8161V11.8086V11.8012V11.7938V11.7863V11.7789V11.7714V11.7639V11.7564V11.7489V11.7414V11.7339V11.7264V11.7189V11.7113V11.7038V11.6962V11.6887V11.6811V11.6735V11.6659V11.6583V11.6507V11.6431V11.6355V11.6279V11.6202V11.6126V11.605V11.5973V11.5896V11.582V11.5743V11.5666V11.5589V11.5513V11.5436V11.5359V11.5282V11.5204V11.5127V11.505V11.4973V11.4895V11.4818V11.4741V11.4663V11.4586V11.4508V11.4431V11.4353V11.4275V11.4198V11.412V11.4042V11.3965V11.3887V11.3809V11.3731V11.3653V11.3575V11.3497V11.3419V11.3341V11.3263V11.3185V11.3107V11.3029V11.2951V11.2873V11.2795V11.2717V11.2639V11.2561V11.2483V11.2405V11.2326V11.2248V11.217V11.2092V11.2014V11.1936V11.1858V11.178V11.1701V11.1623V11.1545V11.1467V11.1389V11.1311V11.1233V11.1155V11.1077V11.0999V11.0921V11.0843V11.0765V11.0687V11.061V11.0532V11.0454V11.0376V11.0298V11.0221V11.0143V11.0065V10.9988V10.991V10.9833V10.9755V10.9678V10.9601V10.9523V10.9446V10.9369V10.9291V10.9214V10.9137V10.906V10.8983V10.8906V10.8829V10.8753V10.8676V10.8599V10.8522V10.8446V10.8369V10.8293V10.8217V10.814V10.8064V10.7988V10.7912V10.7836V10.776V10.7684V10.7608V10.7533V10.7457V10.7381V10.7306V10.7231V10.7155V10.708V10.7005V10.693V10.6855V10.678V10.6706V10.6631V10.6556V10.6482V10.6408V10.6333V10.6259V10.6185V10.6111V10.6037V10.5964V10.589V10.5817V10.5743V10.567V10.5597V10.5524V10.5451V10.5378V10.5305V10.5233V10.5161V10.5088V10.5016V10.4944V10.4872V10.48V10.4729V10.4657V10.4586V10.4514V10.4443V10.4372V10.4301V10.4231V10.416V10.409V10.4019V10.3949V10.3879V10.3809V10.374V10.367V10.3601V10.3532V10.3463V10.3394V10.3325V10.3256V10.3188V10.312V10.3051V10.2984V10.2916V10.2848V10.2781V10.2713V10.2646V10.2579V10.2513V10.2446V10.238V10.2313V10.2247V10.2181V10.2116V10.205V10.1985V10.192V10.1855V10.179V10.1725V10.1661V10.1597V10.1533V10.1469V10.1405V10.1342V10.1279V10.1216V10.1153V10.109V10.1028V10.0966V10.0904V10.0842V10.0781V10.0719V10.0658V10.0597V10.0536V10.0476V10.0416V10.0356V10.0296V10.0236V10.0177V10.0118V10.0059V10C14 9.35143 13.8398 8.59571 13.3307 7.98482C12.7949 7.34184 11.9905 7 11 7C10.5044 7 10.0554 7.08558 9.66331 7.25164C9.4868 7.09507 9.2545 7 9 7C8.44772 7 8 7.44772 8 8Z" fill="#525252"/>
</svg>
