<svg width="16" height="16" viewBox="0 0 16 16" fill="none" xmlns="http://www.w3.org/2000/svg">
<path fill-rule="evenodd" clip-rule="evenodd" d="M8.1504 14.7807C8.26162 14.7456 8.36131 14.6501 8.56071 14.4592C8.90334 14.131 9.23365 13.8184 9.55049 13.5186C12.2726 10.9425 14 9.30779 14 6.83333C14 3.91667 11.6 1 8 1C4.4 1 2 3.91667 2 6.83333C2 9.30779 3.72742 10.9425 6.4495 13.5186C6.76634 13.8184 7.09666 14.131 7.43929 14.4592C7.63869 14.6501 7.73838 14.7456 7.8496 14.7807C7.94847 14.8119 8.05153 14.8119 8.1504 14.7807ZM8 9.16667C9.32548 9.16667 10.4 8.122 10.4 6.83333C10.4 5.54467 9.32548 4.5 8 4.5C6.67452 4.5 5.6 5.54467 5.6 6.83333C5.6 8.122 6.67452 9.16667 8 9.16667Z" fill="#525252"/>
</svg>
