<svg width="16" height="16" viewBox="0 0 16 16" fill="none" xmlns="http://www.w3.org/2000/svg">
<path fill-rule="evenodd" clip-rule="evenodd" d="M15 8C15 11.4286 12.375 14 8 14C6.71654 14 5.58369 13.7787 4.62354 13.3794C3.85041 13.6659 2.88864 13.9037 1.73823 13.9768C1.38521 13.9992 1.14291 13.6427 1.27428 13.3143L2.04627 11.3843C1.3638 10.434 1 9.27639 1 8C1 4.57143 3.625 2 8 2C12.375 2 15 4.57143 15 8ZM5 9C5.55228 9 6 8.55228 6 8C6 7.44772 5.55228 7 5 7C4.44772 7 4 7.44772 4 8C4 8.55228 4.44772 9 5 9ZM9 8C9 8.55228 8.55228 9 8 9C7.44772 9 7 8.55228 7 8C7 7.44772 7.44772 7 8 7C8.55228 7 9 7.44772 9 8ZM11 9C11.5523 9 12 8.55228 12 8C12 7.44772 11.5523 7 11 7C10.4477 7 10 7.44772 10 8C10 8.55228 10.4477 9 11 9Z" fill="#525252"/>
</svg>
