<svg width="16" height="16" viewBox="0 0 16 16" fill="none" xmlns="http://www.w3.org/2000/svg">
<path fill-rule="evenodd" clip-rule="evenodd" d="M8 1C4 1 1 3.5078 1 8C1 12.3119 4.22471 14.7955 9.34757 14.9879C9.75423 15.0032 10.1356 14.7966 10.3613 14.458C10.7196 13.9205 10.5957 13.1968 10.0789 12.8092L9.74067 12.5555C9.31177 12.2338 9.17428 11.6514 9.41405 11.1719L9.45492 11.0902C9.75596 10.4881 10.4915 10.2429 11.1365 10.4356C12.6119 10.8766 15 11.11 15 8C15 3.5 12 1 8 1ZM4.5 10C5.32843 10 6 9.32843 6 8.5C6 7.67157 5.32843 7 4.5 7C3.67157 7 3 7.67157 3 8.5C3 9.32843 3.67157 10 4.5 10ZM8 4.5C8 5.32843 7.32843 6 6.5 6C5.67157 6 5 5.32843 5 4.5C5 3.67157 5.67157 3 6.5 3C7.32843 3 8 3.67157 8 4.5ZM10.5 8C11.3284 8 12 7.32843 12 6.5C12 5.67157 11.3284 5 10.5 5C9.67157 5 9 5.67157 9 6.5C9 7.32843 9.67157 8 10.5 8Z" fill="#525252"/>
</svg>
