<svg width="16" height="16" viewBox="0 0 16 16" fill="none" xmlns="http://www.w3.org/2000/svg">
<path fill-rule="evenodd" clip-rule="evenodd" d="M4.46567 5.88358L6.59399 5.3515C6.76438 5.30891 6.94462 5.35883 7.06881 5.48302L10.517 8.93119C10.6412 9.05538 10.6911 9.23563 10.6485 9.40602L10.1164 11.5343C10.0741 11.7036 10.0529 11.7883 10.0089 11.8572C9.96986 11.9181 9.91812 11.9699 9.85718 12.0088C9.7883 12.0529 9.70365 12.0741 9.53434 12.1164L3.29352 13.6766C2.86687 13.7833 2.65355 13.8366 2.50487 13.7784C2.3751 13.7276 2.27243 13.6249 2.22161 13.4951C2.16339 13.3465 2.21672 13.1331 2.32338 12.7065L3.88358 6.46567C3.92591 6.29636 3.94708 6.2117 3.99115 6.14282C4.03014 6.08189 4.08189 6.03014 4.14282 5.99115C4.21171 5.94708 4.29636 5.92591 4.46567 5.88358ZM6 11C6.55228 11 7 10.5523 7 10C7 9.44771 6.55228 9 6 9C5.44772 9 5 9.44771 5 10C5 10.5523 5.44772 11 6 11Z" fill="#525252"/>
<path d="M9 5C8.44772 4.44771 8.44772 3.55228 9 3V3C9.55229 2.44771 10.4477 2.44772 11 3L13 5C13.5523 5.55229 13.5523 6.44771 13 7V7C12.4477 7.55228 11.5523 7.55228 11 7L9 5Z" fill="#525252"/>
</svg>
