<svg width="16" height="16" viewBox="0 0 16 16" fill="none" xmlns="http://www.w3.org/2000/svg">
<path fill-rule="evenodd" clip-rule="evenodd" d="M2 14V12.9882C2 12.2545 2 11.8876 2.08289 11.5423C2.15638 11.2362 2.27759 10.9436 2.44208 10.6751C2.6276 10.3724 2.88703 10.113 3.40589 9.59411L8.29289 4.70711L11.2929 7.70711L6.40589 12.5941C5.88703 13.113 5.6276 13.3724 5.32486 13.5579C5.05644 13.7224 4.7638 13.8436 4.4577 13.9171C4.11243 14 3.74555 14 3.01177 14H2ZM12.7071 6.29289L13.8686 5.13137C14.2646 4.73535 14.4627 4.53735 14.5368 4.30902C14.6021 4.10817 14.6021 3.89183 14.5368 3.69098C14.4627 3.46265 14.2646 3.26465 13.8686 2.86863L13.1314 2.13137C12.7354 1.73535 12.5373 1.53735 12.309 1.46316C12.1082 1.3979 11.8918 1.3979 11.691 1.46316C11.4627 1.53734 11.2646 1.73535 10.8686 2.13136L10.8686 2.13137L9.70711 3.29289L12.7071 6.29289Z" fill="#525252"/>
</svg>
