<svg width="16" height="16" viewBox="0 0 16 16" fill="none" xmlns="http://www.w3.org/2000/svg">
<path fill-rule="evenodd" clip-rule="evenodd" d="M10.4215 3.28924C10.1609 3.41957 9.85036 3.40024 9.60788 3.23859L9.29514 3.03009C8.8328 2.72187 8.21718 2.78282 7.82427 3.17574C7.36904 3.63097 7.36904 4.36904 7.82426 4.82427L11.1757 8.17574C11.631 8.63097 12.369 8.63097 12.8243 8.17574C13.2172 7.78283 13.2781 7.1672 12.9699 6.70486L12.7614 6.39212C12.5998 6.14964 12.5804 5.83914 12.7108 5.57848L12.7853 5.42945C12.9255 5.14897 13.1428 4.91431 13.4117 4.75297L13.681 4.59141C14.605 4.03703 14.7619 2.76193 14 2C13.2381 1.23807 11.963 1.39505 11.4086 2.31902L11.247 2.58829C11.0857 2.85718 10.851 3.07449 10.5706 3.21472L10.4215 3.28924ZM6.79289 6.20711L3.93726 9.06274C3.59135 9.40865 3.4184 9.5816 3.29472 9.78343C3.18506 9.96238 3.10425 10.1575 3.05526 10.3615C3 10.5917 3 10.8363 3 11.3255V11.5858L2.29289 12.2929C1.90237 12.6834 1.90237 13.3166 2.29289 13.7071C2.68342 14.0976 3.31658 14.0976 3.70711 13.7071L4.41421 13H4.67452C5.1637 13 5.40829 13 5.63846 12.9447C5.84254 12.8957 6.03763 12.8149 6.21657 12.7053C6.4184 12.5816 6.59135 12.4086 6.93726 12.0627L9.79289 9.20711L6.79289 6.20711Z" fill="#525252"/>
</svg>
