<svg width="16" height="16" viewBox="0 0 16 16" fill="none" xmlns="http://www.w3.org/2000/svg">
<path fill-rule="evenodd" clip-rule="evenodd" d="M15 1.77778C15 1.51869 15 1.38915 14.9532 1.28869C14.9035 1.18215 14.8178 1.09653 14.7113 1.04685C14.6108 1 14.4813 1 14.2222 1H11.5C9.567 1 8 2.567 8 4.5C8 5.14654 8.17531 5.75214 8.48099 6.27186C7.97348 7.0312 7.63112 7.82741 7.40738 8.68508C7.32045 9.01832 7.25206 9.35944 7.19826 9.7086C6.79077 9.22364 6.33569 8.76553 5.8564 8.33713C5.94938 8.07541 6 7.79362 6 7.5C6 6.11929 4.88071 5 3.5 5H1.71429C1.51479 5 1.41505 5 1.33486 5.02806C1.19124 5.07831 1.07831 5.19124 1.02806 5.33486C1 5.41505 1 5.51479 1 5.71429V7.5C1 8.88071 2.11929 10 3.5 10C3.85113 10 4.18536 9.92761 4.48856 9.79694C6.07345 11.2034 6.9999 12.6518 7 13.9998V14C7 14.5523 7.44772 15 8 15C8.55229 15 9 14.5523 9 14C8.99999 11.9622 9.00661 10.4779 9.34261 9.18992C9.48231 8.65443 9.6814 8.14712 9.97502 7.6512C10.436 7.87468 10.9533 8 11.5 8C13.433 8 15 6.433 15 4.5V1.77778ZM9.97502 7.6512C10.3508 7.01659 10.8813 6.40064 11.6402 5.76822C12.0645 5.41466 12.1218 4.78409 11.7682 4.35982C11.4147 3.93554 10.7841 3.87821 10.3598 4.23178C9.56621 4.89312 8.95236 5.56658 8.48099 6.27186C8.83075 6.86653 9.35121 7.34875 9.97502 7.6512Z" fill="#525252"/>
</svg>
