<svg width="16" height="16" viewBox="0 0 16 16" fill="none" xmlns="http://www.w3.org/2000/svg">
<path fill-rule="evenodd" clip-rule="evenodd" d="M9.75368 1.84466C9.76582 1.92186 9.76582 2.0141 9.76582 2.19858C9.76582 2.35267 9.76582 2.42972 9.7715 2.48275C9.80729 2.81734 9.92086 3.00826 10.1978 3.1994C10.2417 3.22969 10.3419 3.28409 10.5422 3.3929C10.6122 3.43089 10.6812 3.47041 10.7492 3.5114L10.7492 3.51143C10.9548 3.63534 11.0575 3.6973 11.1105 3.72135C11.4061 3.85559 11.618 3.858 11.9166 3.73054C11.9701 3.7077 12.0415 3.66682 12.1844 3.58507C12.3597 3.48478 12.4473 3.43464 12.5279 3.40535C12.9227 3.26183 13.3651 3.38038 13.6353 3.70207C13.6904 3.76772 13.7413 3.85496 13.8429 4.02945L14.3908 4.96989C14.4853 5.13217 14.5326 5.21331 14.5613 5.28735C14.7182 5.69315 14.5948 6.15387 14.2559 6.42683C14.1941 6.47663 14.1126 6.52327 13.9496 6.61654L13.9496 6.61655C13.8142 6.694 13.7465 6.73273 13.7029 6.76434C13.4309 6.96156 13.3227 7.15285 13.2936 7.48758C13.289 7.54124 13.2914 7.65677 13.2963 7.88782C13.2971 7.92512 13.2975 7.96251 13.2975 8C13.2975 8.03748 13.2971 8.07486 13.2963 8.11215C13.2914 8.34322 13.289 8.45876 13.2937 8.51242C13.3227 8.84714 13.4309 9.03842 13.7029 9.23564C13.7465 9.26725 13.8142 9.30598 13.9496 9.38344L13.9496 9.38345L13.9496 9.38346C14.1126 9.47674 14.1942 9.52337 14.256 9.57318C14.5948 9.84614 14.7182 10.3068 14.5613 10.7126C14.5326 10.7867 14.4854 10.8678 14.3908 11.0301L14.3908 11.0301L13.843 11.9705L13.8429 11.9706C13.7413 12.145 13.6905 12.2323 13.6353 12.2979C13.3652 12.6196 12.9228 12.7382 12.5279 12.5947C12.4474 12.5654 12.3597 12.5152 12.1844 12.4149L12.1844 12.4149C12.0416 12.3332 11.9701 12.2923 11.9166 12.2694C11.618 12.142 11.4061 12.1444 11.1105 12.2786C11.0576 12.3027 10.9548 12.3647 10.7492 12.4886C10.6812 12.5296 10.6122 12.5691 10.5422 12.6071C10.3419 12.7159 10.2417 12.7703 10.1978 12.8006C9.92086 12.9917 9.80729 13.1827 9.7715 13.5173C9.76582 13.5703 9.76582 13.6473 9.76582 13.8014C9.76582 13.9859 9.76582 14.0781 9.75368 14.1553C9.68626 14.5841 9.34994 14.9204 8.92116 14.9879C8.84397 15 8.75172 15 8.56724 15H7.43272C7.24824 15 7.15599 15 7.0788 14.9879C6.65002 14.9204 6.3137 14.5841 6.24627 14.1553C6.23414 14.0781 6.23414 13.9859 6.23414 13.8014C6.23414 13.6473 6.23414 13.5703 6.22846 13.5173C6.19267 13.1827 6.0791 12.9917 5.80215 12.8006C5.75826 12.7703 5.65809 12.7159 5.45777 12.6071L5.45775 12.6071C5.38779 12.5691 5.31879 12.5296 5.25079 12.4886L5.25076 12.4886C5.04521 12.3647 4.94243 12.3027 4.88946 12.2787C4.59384 12.1444 4.38198 12.142 4.08338 12.2695C4.02987 12.2923 3.95843 12.3332 3.81556 12.4149C3.64029 12.5152 3.55266 12.5654 3.47209 12.5946C3.07727 12.7382 2.63484 12.6196 2.36467 12.2979C2.30954 12.2323 2.25871 12.145 2.15706 11.9706L1.60917 11.0301C1.51464 10.8678 1.46737 10.7867 1.43874 10.7127C1.28177 10.3069 1.40522 9.84613 1.74405 9.57316C1.80587 9.52336 1.88737 9.47673 2.05036 9.38347C2.18574 9.30602 2.25342 9.26729 2.29703 9.23567C2.56905 9.03846 2.6773 8.84716 2.70631 8.51243C2.71096 8.45877 2.70852 8.34325 2.70363 8.1122C2.70284 8.0749 2.70245 8.03749 2.70245 8C2.70245 7.9625 2.70284 7.92509 2.70363 7.88777C2.70852 7.65674 2.71097 7.54123 2.70632 7.48757C2.67731 7.15283 2.56905 6.96153 2.29702 6.76431C2.25342 6.73269 2.18574 6.69397 2.05038 6.61652C1.8874 6.52327 1.80591 6.47664 1.74409 6.42685C1.40525 6.15388 1.28179 5.69314 1.43877 5.28733C1.46741 5.2133 1.51467 5.13217 1.60919 4.96993L2.1571 4.02943C2.25874 3.85496 2.30956 3.76773 2.36469 3.70208C2.63486 3.38038 3.0773 3.26183 3.47212 3.40536C3.55269 3.43465 3.64032 3.48478 3.81558 3.58506L3.81558 3.58506C3.95845 3.66681 4.02988 3.70768 4.08339 3.73052C4.38199 3.85799 4.59386 3.85558 4.88947 3.72133C4.94245 3.69728 5.04523 3.63532 5.2508 3.5114C5.31879 3.47041 5.38779 3.43089 5.45775 3.3929C5.65809 3.28409 5.75826 3.22969 5.80215 3.1994C6.0791 3.00826 6.19267 2.81734 6.22846 2.48275C6.23414 2.42972 6.23414 2.35267 6.23414 2.19858C6.23414 2.0141 6.23414 1.92186 6.24627 1.84466C6.3137 1.41589 6.65002 1.07956 7.0788 1.01214C7.15599 1 7.24824 1 7.43272 1H8.56724C8.75172 1 8.84397 1 8.92116 1.01214C9.34994 1.07956 9.68626 1.41589 9.75368 1.84466ZM8.00001 10C9.10458 10 10 9.10457 10 8C10 6.89543 9.10458 6 8.00001 6C6.89544 6 6.00001 6.89543 6.00001 8C6.00001 9.10457 6.89544 10 8.00001 10Z" fill="#525252"/>
</svg>
