<svg width="16" height="16" viewBox="0 0 16 16" fill="none" xmlns="http://www.w3.org/2000/svg">
<path fill-rule="evenodd" clip-rule="evenodd" d="M8 1C5.87385 1 3.7477 1.50228 2.68947 1.79489C2.27461 1.90961 2 2.29033 2 2.72076V8C2 11.4542 4.61 12.9159 6.93218 14.2165C7.11767 14.3203 7.30132 14.4232 7.48166 14.526C7.80254 14.7088 8.19746 14.7088 8.51834 14.526C8.69868 14.4232 8.88233 14.3203 9.06781 14.2165C11.39 12.9159 14 11.4542 14 8V2.72076C14 2.29033 13.7254 1.90961 13.3105 1.79489C12.2523 1.50228 10.1262 1 8 1ZM11.7071 5.70711C12.0976 5.31658 12.0976 4.68342 11.7071 4.29289C11.3166 3.90237 10.6834 3.90237 10.2929 4.29289L7.70711 6.87868C7.31658 7.2692 6.68342 7.2692 6.29289 6.87868L5.70711 6.29289C5.31658 5.90237 4.68342 5.90237 4.29289 6.29289C3.90237 6.68342 3.90237 7.31658 4.29289 7.70711L6.29289 9.70711C6.48043 9.89464 6.73478 10 7 10C7.26521 10 7.51957 9.89465 7.70711 9.70711L11.7071 5.70711Z" fill="#525252"/>
</svg>
