<svg width="16" height="16" viewBox="0 0 16 16" fill="none" xmlns="http://www.w3.org/2000/svg">
<path fill-rule="evenodd" clip-rule="evenodd" d="M2.70711 1.29289C2.31658 0.902369 1.68342 0.902369 1.29289 1.29289C0.902369 1.68342 0.902369 2.31658 1.29289 2.70711L13.2929 14.7071C13.6834 15.0976 14.3166 15.0976 14.7071 14.7071C15.0976 14.3166 15.0976 13.6834 14.7071 13.2929L2.70711 1.29289ZM2 8V4.82843L10.5349 13.3633C10.0509 13.6659 9.55309 13.9447 9.06782 14.2165C8.88226 14.3204 8.69854 14.4233 8.51814 14.5261C8.19727 14.7089 7.80273 14.7089 7.48186 14.5261C7.30146 14.4233 7.11774 14.3204 6.93218 14.2165C4.61 12.9159 2 11.4542 2 8ZM14 8C14 9.01304 13.7755 9.85471 13.3996 10.5712L4.24849 1.42007C5.32096 1.19937 6.66048 1 8 1C10.1262 1 12.2523 1.50228 13.3105 1.79489C13.7254 1.90961 14 2.29033 14 2.72076V8Z" fill="#525252"/>
</svg>
