<svg width="16" height="16" viewBox="0 0 16 16" fill="none" xmlns="http://www.w3.org/2000/svg">
<circle cx="8" cy="8" r="3" fill="#525252"/>
<path fill-rule="evenodd" clip-rule="evenodd" d="M8 1C8.55228 1 9 1.44772 9 2V3C9 3.55228 8.55228 4 8 4C7.44772 4 7 3.55228 7 3V2C7 1.44772 7.44772 1 8 1ZM2 7C1.44772 7 1 7.44772 1 8C1 8.55228 1.44772 9 2 9H3C3.55228 9 4 8.55228 4 8C4 7.44772 3.55228 7 3 7H2ZM13 7C12.4477 7 12 7.44772 12 8C12 8.55228 12.4477 9 13 9H14C14.5523 9 15 8.55228 15 8C15 7.44772 14.5523 7 14 7H13ZM9 13C9 12.4477 8.55228 12 8 12C7.44772 12 7 12.4477 7 13V14C7 14.5523 7.44772 15 8 15C8.55228 15 9 14.5523 9 14V13ZM12.7071 11.2929L13.2071 11.7929C13.5976 12.1834 13.5976 12.8166 13.2071 13.2071C12.8166 13.5976 12.1834 13.5976 11.7929 13.2071L11.2929 12.7071C10.9024 12.3166 10.9024 11.6834 11.2929 11.2929C11.6834 10.9024 12.3166 10.9024 12.7071 11.2929ZM4.70711 12.7071C5.09763 12.3166 5.09763 11.6834 4.70711 11.2929C4.31658 10.9024 3.68342 10.9024 3.29289 11.2929L2.79289 11.7929C2.40237 12.1834 2.40237 12.8166 2.79289 13.2071C3.18342 13.5976 3.81658 13.5976 4.20711 13.2071L4.70711 12.7071ZM2.79289 2.79289C3.18342 2.40237 3.81658 2.40237 4.20711 2.79289L4.70711 3.29289C5.09763 3.68342 5.09763 4.31658 4.70711 4.70711C4.31658 5.09763 3.68342 5.09763 3.29289 4.70711L2.79289 4.20711C2.40237 3.81658 2.40237 3.18342 2.79289 2.79289ZM13.2071 4.20711C13.5976 3.81658 13.5976 3.18342 13.2071 2.79289C12.8166 2.40237 12.1834 2.40237 11.7929 2.79289L11.2929 3.29289C10.9024 3.68342 10.9024 4.31658 11.2929 4.70711C11.6834 5.09763 12.3166 5.09763 12.7071 4.70711L13.2071 4.20711Z" fill="#525252"/>
</svg>
