<svg width="16" height="16" viewBox="0 0 16 16" fill="none" xmlns="http://www.w3.org/2000/svg">
<path fill-rule="evenodd" clip-rule="evenodd" d="M9.29289 1.29289C9.68342 0.902369 10.3166 0.902369 10.7071 1.29289L14.7071 5.29289C15.0976 5.68342 15.0976 6.31658 14.7071 6.70711C14.3166 7.09763 13.6834 7.09763 13.2929 6.70711L12.2929 5.70711L11.5811 6.41886C11.0427 6.95731 10.7735 7.22653 10.625 7.54092C10.4644 7.88109 10.4029 8.25966 10.4478 8.63317C10.4892 8.97836 10.6595 9.3189 11 9.99997L11 9.99999L11 10L11.2532 10.5063C11.3508 10.7016 11.3996 10.7993 11.435 10.8918C11.6908 11.5619 11.5681 12.3178 11.1135 12.8727C11.0507 12.9493 10.9735 13.0265 10.8192 13.1808C10.7151 13.2849 10.663 13.337 10.6139 13.3752C10.2528 13.656 9.74722 13.656 9.38614 13.3752C9.33695 13.337 9.28492 13.2849 9.18084 13.1808L6.70711 10.7071L2.70711 14.7071C2.31658 15.0976 1.68342 15.0976 1.29289 14.7071C0.902369 14.3166 0.902369 13.6834 1.29289 13.2929L5.29289 9.29289L2.81916 6.81916C2.71508 6.71508 2.66305 6.66305 2.6248 6.61386C2.34402 6.25278 2.34402 5.74722 2.6248 5.38614C2.66304 5.33696 2.71508 5.28492 2.81916 5.18084L2.81916 5.18084L2.81917 5.18083C2.97355 5.02645 3.05073 4.94927 3.12735 4.88649C3.68221 4.43187 4.43805 4.30921 5.1082 4.56504C5.20074 4.60037 5.29838 4.64919 5.49365 4.74683L6 5L6 5C6.68109 5.34055 7.02163 5.51082 7.36683 5.55224C7.74034 5.59705 8.11891 5.53562 8.45909 5.37499C8.77347 5.22653 9.04269 4.95731 9.58114 4.41886L10.2929 3.70711L9.29289 2.70711C8.90237 2.31658 8.90237 1.68342 9.29289 1.29289Z" fill="#525252"/>
</svg>
