<svg width="16" height="16" viewBox="0 0 16 16" fill="none" xmlns="http://www.w3.org/2000/svg">
<path fill-rule="evenodd" clip-rule="evenodd" d="M7 4C7 3.44772 7.44772 3 8 3H8.10146C8.63353 3 9.07243 3.41664 9.1001 3.94799L9.10281 4H7ZM5 4C5 2.34315 6.34315 1 8 1H8.10146C9.69767 1 11.0144 2.24991 11.0974 3.84396L11.1055 4H12H13.124H14C14.5523 4 15 4.44772 15 5C15 5.55228 14.5523 6 14 6H13.8182L13.2646 12.0897C13.1712 13.117 13.1245 13.6307 12.8944 14.0192C12.6918 14.3613 12.3918 14.6352 12.0328 14.806C11.6251 15 11.1093 15 10.0777 15H5.92229C4.89073 15 4.37495 15 3.96725 14.806C3.60819 14.6352 3.3082 14.3613 3.10559 14.0192C2.87552 13.6307 2.82882 13.117 2.73543 12.0897L2.18182 6H2C1.44772 6 1 5.55228 1 5C1 4.44772 1.44772 4 2 4H2.87603H4H5ZM4.9005 6.00496C4.35095 6.05992 3.95001 6.54996 4.00496 7.0995L4.50496 12.0995C4.55992 12.649 5.04996 13.05 5.5995 12.995C6.14905 12.9401 6.54999 12.45 6.49504 11.9005L5.99504 6.9005C5.94008 6.35095 5.45004 5.95001 4.9005 6.00496Z" fill="#525252"/>
</svg>
