<svg width="16" height="16" viewBox="0 0 16 16" fill="none" xmlns="http://www.w3.org/2000/svg">
<path fill-rule="evenodd" clip-rule="evenodd" d="M9 11.9549C11.8377 11.6882 14 10.2009 14 6.5C14 2.375 11.3137 1 8 1C4.68629 1 2 2.375 2 6.5C2 10.2009 4.16229 11.6882 7 11.9549V8.41421L5.29289 6.70711C4.90237 6.31658 4.90237 5.68342 5.29289 5.29289C5.68342 4.90237 6.31658 4.90237 6.70711 5.29289L8.19745 6.78324L9.55279 6.10557C10.0468 5.85858 10.6474 6.05881 10.8944 6.55279C11.1414 7.04676 10.9412 7.64744 10.4472 7.89443L9 8.61803V11.9549Z" fill="#525252"/>
<path fill-rule="evenodd" clip-rule="evenodd" d="M7 11.9549V15C7 15.5523 7.44772 16 8 16C8.55228 16 9 15.5523 9 15L9 11.9549C8.67479 11.9855 8.34071 12 8 12C7.65929 12 7.32521 11.9855 7 11.9549Z" fill="#525252"/>
</svg>
