<svg width="16" height="16" viewBox="0 0 16 16" fill="none" xmlns="http://www.w3.org/2000/svg">
<path d="M3 1.5C3 1.22386 3.22645 0.99595 3.49958 1.0366C5.87178 1.38962 7.13686 4.21295 7.6762 5.84509C7.76125 6.10245 8.23875 6.10245 8.3238 5.84509C8.86314 4.21295 10.1282 1.38962 12.5004 1.0366C12.7736 0.99595 13 1.22386 13 1.5V6C13 8.76142 10.7614 11 8 11C5.23858 11 3 8.76142 3 6V1.5Z" fill="#525252"/>
<path fill-rule="evenodd" clip-rule="evenodd" d="M8 9C8.55228 9 9 9.44772 9 10V14C9 14.5523 8.55228 15 8 15C7.44772 15 7 14.5523 7 14V10C7 9.44772 7.44772 9 8 9Z" fill="#525252"/>
</svg>
