<svg width="16" height="16" viewBox="0 0 16 16" fill="none" xmlns="http://www.w3.org/2000/svg">
<path fill-rule="evenodd" clip-rule="evenodd" d="M8 7C9.65685 7 11 5.65685 11 4C11 2.34315 9.65685 1 8 1C6.34315 1 5 2.34315 5 4C5 5.65685 6.34315 7 8 7ZM2.01279 13.8044C2.21612 11.1218 4.81897 9 8 9C11.181 9 13.7839 11.1218 13.9872 13.8044C14.0027 14.0082 13.8758 14.1912 13.6809 14.253C12.9516 14.4845 10.9913 15 8 15C5.00867 15 3.04839 14.4845 2.31906 14.253C2.12419 14.1912 1.99733 14.0082 2.01279 13.8044Z" fill="#525252"/>
</svg>
