<svg width="16" height="16" viewBox="0 0 16 16" fill="none" xmlns="http://www.w3.org/2000/svg">
<path fill-rule="evenodd" clip-rule="evenodd" d="M6.5897 2.63268C7.04792 1.77735 7.27702 1.34969 7.58176 1.20935C7.84724 1.08708 8.15292 1.08708 8.4184 1.20935C8.72313 1.3497 8.95223 1.77736 9.41044 2.63269L14.2381 11.6444C14.6542 12.4212 14.8623 12.8096 14.8218 13.1266C14.7865 13.4034 14.6372 13.6528 14.4099 13.8146C14.1495 14 13.7089 14 12.8278 14H3.1723C2.29113 14 1.85054 14 1.59015 13.8146C1.3629 13.6528 1.21357 13.4034 1.17825 13.1266C1.13777 12.8095 1.34582 12.4212 1.76194 11.6444L6.5897 2.63268ZM7.99999 5C8.55227 5 8.99999 5.44772 8.99999 6V8C8.99999 8.55229 8.55227 9 7.99999 9C7.4477 9 6.99999 8.55229 6.99999 8V6C6.99999 5.44772 7.4477 5 7.99999 5ZM7.99999 12C8.55227 12 8.99999 11.5523 8.99999 11C8.99999 10.4477 8.55227 10 7.99999 10C7.4477 10 6.99999 10.4477 6.99999 11C6.99999 11.5523 7.4477 12 7.99999 12Z" fill="#525252"/>
</svg>
