<svg width="16" height="16" viewBox="0 0 16 16" fill="none" xmlns="http://www.w3.org/2000/svg">
<path fill-rule="evenodd" clip-rule="evenodd" d="M1.27099 4.10294C1 4.69646 1 5.28419 1 6.45964V9.54036C1 10.7158 1 11.3035 1.27099 11.8971C1.47958 12.3539 1.95509 12.9029 2.37753 13.1745C2.92634 13.5273 3.40956 13.597 4.37601 13.7362C5.41974 13.8866 6.65318 14 8 14C9.34682 14 10.5803 13.8866 11.624 13.7362C12.5904 13.597 13.0737 13.5273 13.6225 13.1745C14.0449 12.9029 14.5204 12.3539 14.729 11.8971C15 11.3035 15 10.7158 15 9.54036V6.45964C15 5.28419 15 4.69646 14.729 4.10294C14.5204 3.64607 14.0449 3.09714 13.6225 2.82552C13.0737 2.47265 12.5904 2.40302 11.624 2.26376C10.5803 2.11337 9.34682 2 8 2C6.65318 2 5.41974 2.11337 4.376 2.26376C3.40956 2.40302 2.92634 2.47265 2.37753 2.82552C1.95509 3.09714 1.47958 3.64607 1.27099 4.10294ZM6 5.80902V10.191C6 10.5627 6.39116 10.8044 6.72361 10.6382L11.1056 8.44721C11.4741 8.26295 11.4741 7.73705 11.1056 7.55279L6.72361 5.3618C6.39116 5.19558 6 5.43733 6 5.80902Z" fill="#525252"/>
</svg>
