<svg width="16" height="16" viewBox="0 0 16 16" fill="none" xmlns="http://www.w3.org/2000/svg">
<path fill-rule="evenodd" clip-rule="evenodd" d="M7 13C10.3137 13 13 10.3137 13 7C13 3.68629 10.3137 1 7 1C3.68629 1 1 3.68629 1 7C1 10.3137 3.68629 13 7 13ZM5 6C4.44772 6 4 6.44772 4 7C4 7.55228 4.44772 8 5 8H9C9.55228 8 10 7.55228 10 7C10 6.44772 9.55228 6 9 6H5Z" fill="#525252"/>
<path fill-rule="evenodd" clip-rule="evenodd" d="M9.29289 9.29289C9.68342 8.90237 10.3166 8.90237 10.7071 9.29289L14.7071 13.2929C15.0976 13.6834 15.0976 14.3166 14.7071 14.7071C14.3166 15.0976 13.6834 15.0976 13.2929 14.7071L9.29289 10.7071C8.90237 10.3166 8.90237 9.68342 9.29289 9.29289Z" fill="#525252"/>
</svg>
