<svg width="16" height="16" viewBox="0 0 16 16" fill="none" xmlns="http://www.w3.org/2000/svg">
<path fill-rule="evenodd" clip-rule="evenodd" d="M11.8907 10.4765C12.5892 9.49572 13 8.29583 13 7C13 3.68629 10.3137 1 7 1C3.68629 1 1 3.68629 1 7C1 10.3137 3.68629 13 7 13C8.29583 13 9.49572 12.5892 10.4765 11.8907L13.2929 14.7071C13.6834 15.0976 14.3166 15.0976 14.7071 14.7071C15.0976 14.3166 15.0976 13.6834 14.7071 13.2929L11.8907 10.4765ZM5 6C4.44772 6 4 6.44772 4 7C4 7.55228 4.44772 8 5 8H6V9C6 9.55228 6.44771 10 7 10C7.55228 10 8 9.55229 8 9V8H9C9.55228 8 10 7.55228 10 7C10 6.44772 9.55228 6 9 6H8V5C8 4.44772 7.55228 4 7 4C6.44772 4 6 4.44772 6 5V6H5Z" fill="#525252"/>
</svg>
