<svg width="16" height="16" viewBox="0 0 16 16" fill="none" xmlns="http://www.w3.org/2000/svg">
<g clip-path="url(#clip0_19_1490)">
<path opacity="0.1" d="M2 8.2C2 7.07989 2 6.51984 2.21799 6.09202C2.40973 5.71569 2.71569 5.40973 3.09202 5.21799C3.51984 5 4.0799 5 5.2 5H10.8C11.9201 5 12.4802 5 12.908 5.21799C13.2843 5.40973 13.5903 5.71569 13.782 6.09202C14 6.51984 14 7.0799 14 8.2V14H2V8.2Z" fill="#525252"/>
<path fill-rule="evenodd" clip-rule="evenodd" d="M3.96802 0.999998H4H12H12.032H12.032C12.4707 0.999986 12.8491 0.999976 13.1624 1.02135C13.4922 1.04385 13.8221 1.09336 14.1481 1.22836C14.8831 1.53284 15.4672 2.11686 15.7716 2.85195C15.9066 3.17788 15.9561 3.50779 15.9787 3.83762C16 4.15087 16 4.52936 16 4.96801V5C16 5.55228 15.5523 6 15 6V10.8V10.8385V10.8386C15 11.3657 15 11.8205 14.9694 12.195C14.9371 12.5904 14.8658 12.9836 14.673 13.362C14.3854 13.9265 13.9265 14.3854 13.362 14.673C12.9836 14.8658 12.5904 14.9371 12.195 14.9694C11.8205 15 11.3658 15 10.8387 15H10.8386H10.8385H10.8H5.2H5.16148H5.16136H5.16133C4.63424 15 4.17952 15 3.80497 14.9694C3.40963 14.9371 3.01641 14.8658 2.63803 14.673C2.07354 14.3854 1.6146 13.9265 1.32698 13.362C1.13419 12.9836 1.06287 12.5904 1.03057 12.195C0.999966 11.8205 0.999982 11.3657 1 10.8385L1 10.8L1 6C0.447716 6 0 5.55228 0 5V4.96802V4.96801C-1.23979e-05 4.52936 -2.30952e-05 4.15087 0.0213503 3.83762C0.0438543 3.50779 0.093358 3.17788 0.228362 2.85195C0.532844 2.11686 1.11687 1.53284 1.85195 1.22836C2.17788 1.09336 2.50779 1.04385 2.83762 1.02135C3.15087 0.999976 3.52934 0.999986 3.96797 0.999998H3.96802ZM3 6H13V10.8C13 11.3766 12.9992 11.7488 12.9761 12.0322C12.9539 12.3038 12.9162 12.4045 12.891 12.454C12.7951 12.6422 12.6422 12.7951 12.454 12.891C12.4045 12.9162 12.3038 12.9539 12.0322 12.9761C11.7488 12.9992 11.3766 13 10.8 13H5.2C4.62345 13 4.25117 12.9992 3.96784 12.9761C3.69617 12.9539 3.59545 12.9162 3.54601 12.891C3.35785 12.7951 3.20487 12.6422 3.10899 12.454C3.0838 12.4045 3.04612 12.3038 3.02393 12.0322C3.00078 11.7488 3 11.3766 3 10.8V6ZM13.9833 3.97376L13.985 4H2.015L2.01671 3.97376C2.03227 3.74576 2.05888 3.65893 2.07612 3.61732C2.17762 3.37229 2.37229 3.17761 2.61732 3.07612C2.65893 3.05888 2.74576 3.03227 2.97376 3.01671C3.21074 3.00054 3.52038 3 4 3H12C12.4796 3 12.7893 3.00054 13.0262 3.01671C13.2542 3.03227 13.3411 3.05888 13.3827 3.07612C13.6277 3.17761 13.8224 3.37229 13.9239 3.61732C13.9411 3.65893 13.9677 3.74576 13.9833 3.97376ZM6 7C5.44772 7 5 7.44771 5 8C5 8.55228 5.44772 9 6 9H10C10.5523 9 11 8.55228 11 8C11 7.44771 10.5523 7 10 7H6Z" fill="#525252"/>
</g>
<defs>
<clipPath id="clip0_19_1490">
<rect width="16" height="16" fill="white"/>
</clipPath>
</defs>
</svg>
