<svg width="16" height="16" viewBox="0 0 16 16" fill="none" xmlns="http://www.w3.org/2000/svg">
<path fill-rule="evenodd" clip-rule="evenodd" d="M11 13L4 13C3.73479 13 3.48043 12.8947 3.29289 12.7071C3.10536 12.5196 3 12.2652 3 12V5.00001C3 4.44772 3.44772 4.00001 4 4.00001C4.55229 4.00001 5 4.44772 5 5.00001V9.58579L11.2929 3.29289C11.6834 2.90237 12.3166 2.90237 12.7071 3.29289C13.0976 3.68342 13.0976 4.31658 12.7071 4.70711L6.41422 11L11 11C11.5523 11 12 11.4477 12 12C12 12.5523 11.5523 13 11 13Z" fill="#525252"/>
</svg>
