<svg width="16" height="16" viewBox="0 0 16 16" fill="none" xmlns="http://www.w3.org/2000/svg">
<g clip-path="url(#clip0_33_647)">
<circle opacity="0.1" cx="8" cy="8" r="7" fill="#525252"/>
<path fill-rule="evenodd" clip-rule="evenodd" d="M2 8C2 4.68629 4.68629 2 8 2C11.3137 2 14 4.68629 14 8C14 11.3137 11.3137 14 8 14C4.68629 14 2 11.3137 2 8ZM8 0C3.58172 0 0 3.58172 0 8C0 12.4183 3.58172 16 8 16C12.4183 16 16 12.4183 16 8C16 3.58172 12.4183 0 8 0ZM11.7071 7.29289L8.70711 4.29289C8.31658 3.90237 7.68342 3.90237 7.29289 4.29289C6.90237 4.68342 6.90237 5.31658 7.29289 5.70711L8.58579 7H5C4.44772 7 4 7.44772 4 8C4 8.55228 4.44772 9 5 9H8.58579L7.29289 10.2929C6.90237 10.6834 6.90237 11.3166 7.29289 11.7071C7.68342 12.0976 8.31658 12.0976 8.70711 11.7071L11.7071 8.70711C12.0976 8.31658 12.0976 7.68342 11.7071 7.29289Z" fill="#525252"/>
</g>
<defs>
<clipPath id="clip0_33_647">
<rect width="16" height="16" fill="white"/>
</clipPath>
</defs>
</svg>
