<svg width="16" height="16" viewBox="0 0 16 16" fill="none" xmlns="http://www.w3.org/2000/svg">
<g clip-path="url(#clip0_33_775)">
<circle opacity="0.1" cx="8" cy="8" r="7" fill="#525252"/>
<path fill-rule="evenodd" clip-rule="evenodd" d="M2 8C2 4.68629 4.68629 2 8 2C11.3137 2 14 4.68629 14 8C14 11.3137 11.3137 14 8 14C4.68629 14 2 11.3137 2 8ZM8 0C3.58172 0 0 3.58172 0 8C0 12.4183 3.58172 16 8 16C12.4183 16 16 12.4183 16 8C16 3.58172 12.4183 0 8 0ZM7 6C7 5.44772 6.55229 5 6 5C5.44772 5 5 5.44772 5 6V10C5 10.2652 5.10536 10.5196 5.2929 10.7071C5.48043 10.8946 5.73479 11 6 11H10C10.5523 11 11 10.5523 11 10C11 9.44771 10.5523 9 10 9H8.41422L10.7071 6.70711C11.0976 6.31658 11.0976 5.68342 10.7071 5.29289C10.3166 4.90237 9.68342 4.90237 9.29289 5.29289L7 7.58579V6Z" fill="#525252"/>
</g>
<defs>
<clipPath id="clip0_33_775">
<rect width="16" height="16" fill="white"/>
</clipPath>
</defs>
</svg>
