<svg width="16" height="16" viewBox="0 0 16 16" fill="none" xmlns="http://www.w3.org/2000/svg">
<path fill-rule="evenodd" clip-rule="evenodd" d="M8.00001 2C8.5523 2 9.00001 2.44772 9.00001 3V6.26796L11.8302 4.63397C12.3084 4.35783 12.92 4.52171 13.1962 5C13.4723 5.47829 13.3084 6.08988 12.8302 6.36603L10 8.00001L12.8301 9.63397C13.3084 9.91012 13.4723 10.5217 13.1962 11C12.92 11.4783 12.3084 11.6422 11.8301 11.366L9.00001 9.73206V13C9.00001 13.5523 8.5523 14 8.00001 14C7.44773 14 7.00001 13.5523 7.00001 13V9.73206L4.1699 11.366C3.69161 11.6422 3.08002 11.4783 2.80387 11C2.52773 10.5217 2.69161 9.91012 3.1699 9.63398L6.00001 8.00001L3.16988 6.36603C2.69158 6.08988 2.52771 5.47829 2.80385 5C3.07999 4.52171 3.69158 4.35783 4.16988 4.63397L7.00001 6.26796V3C7.00001 2.44772 7.44773 2 8.00001 2Z" fill="#525252"/>
</svg>
