<svg width="16" height="16" viewBox="0 0 16 16" fill="none" xmlns="http://www.w3.org/2000/svg">
<g clip-path="url(#clip0_10_1903)">
<path opacity="0.1" d="M4.03922 4.20098C4.39205 3.75994 4.56846 3.53943 4.78743 3.3807C4.98141 3.24008 5.19908 3.13546 5.43007 3.07183C5.6908 3 5.9732 3 6.538 3H11.8C12.9201 3 13.4802 3 13.908 3.21799C14.2843 3.40973 14.5903 3.71569 14.782 4.09202C15 4.51984 15 5.07989 15 6.2V9.8C15 10.9201 15 11.4802 14.782 11.908C14.5903 12.2843 14.2843 12.5903 13.908 12.782C13.4802 13 12.9201 13 11.8 13H6.538C5.9732 13 5.6908 13 5.43007 12.9282C5.19908 12.8645 4.98141 12.7599 4.78743 12.6193C4.56846 12.4606 4.39205 12.2401 4.03922 11.799L1 8L4.03922 4.20098Z" fill="#525252"/>
<path fill-rule="evenodd" clip-rule="evenodd" d="M7.24218 1.99995L7.32548 2H11.8L11.8385 2C12.3657 1.99998 12.8205 1.99997 13.195 2.03057C13.5904 2.06287 13.9836 2.13419 14.362 2.32698C14.9265 2.6146 15.3854 3.07354 15.673 3.63803C15.8658 4.01641 15.9371 4.40963 15.9694 4.80497C16 5.17955 16 5.63432 16 6.16148V6.2V9.8V9.83852C16 10.3657 16 10.8205 15.9694 11.195C15.9371 11.5904 15.8658 11.9836 15.673 12.362C15.3854 12.9265 14.9265 13.3854 14.362 13.673C13.9836 13.8658 13.5904 13.9371 13.195 13.9694C12.8205 14 12.3657 14 11.8386 14H11.8385H11.8H7.32548L7.24218 14.0001C6.83528 14.0004 6.47654 14.0008 6.12809 13.9171C5.82198 13.8436 5.52935 13.7224 5.26093 13.5579C4.95539 13.3707 4.70195 13.1168 4.41451 12.8288L4.35563 12.7698L0.292893 8.70711C0.105357 8.51957 0 8.26522 0 8C0 7.73478 0.105357 7.48043 0.292893 7.29289L4.35564 3.23015L4.4145 3.17121L4.41451 3.17121L4.41451 3.1712C4.70196 2.88322 4.95539 2.62931 5.26093 2.44208C5.52935 2.27759 5.82198 2.15638 6.12809 2.08289C6.47654 1.99924 6.83528 1.99957 7.24218 1.99995ZM7.32548 4C6.7887 4 6.6833 4.00643 6.59498 4.02763C6.49295 4.05213 6.3954 4.09253 6.30593 4.14736C6.22849 4.19482 6.14941 4.2648 5.76985 4.64436L2.41421 8L5.76985 11.3556C6.14941 11.7352 6.22849 11.8052 6.30593 11.8526C6.3954 11.9075 6.49295 11.9479 6.59498 11.9724C6.6833 11.9936 6.7887 12 7.32548 12H11.8C12.3766 12 12.7488 11.9992 13.0322 11.9761C13.3038 11.9539 13.4045 11.9162 13.454 11.891C13.6422 11.7951 13.7951 11.6422 13.891 11.454C13.9162 11.4045 13.9539 11.3038 13.9761 11.0322C13.9992 10.7488 14 10.3766 14 9.8V6.2C14 5.62345 13.9992 5.25117 13.9761 4.96784C13.9539 4.69617 13.9162 4.59545 13.891 4.54601C13.7951 4.35785 13.6422 4.20487 13.454 4.10899C13.4045 4.0838 13.3038 4.04612 13.0322 4.02393C12.7488 4.00078 12.3766 4 11.8 4H7.32548ZM7.29289 5.29289C7.68342 4.90237 8.31658 4.90237 8.70711 5.29289L10 6.58579L11.2929 5.29289C11.6834 4.90237 12.3166 4.90237 12.7071 5.29289C13.0976 5.68342 13.0976 6.31658 12.7071 6.70711L11.4142 8L12.7071 9.29289C13.0976 9.68342 13.0976 10.3166 12.7071 10.7071C12.3166 11.0976 11.6834 11.0976 11.2929 10.7071L10 9.41421L8.70711 10.7071C8.31658 11.0976 7.68342 11.0976 7.29289 10.7071C6.90237 10.3166 6.90237 9.68342 7.29289 9.29289L8.58579 8L7.29289 6.70711C6.90237 6.31658 6.90237 5.68342 7.29289 5.29289Z" fill="#525252"/>
</g>
<defs>
<clipPath id="clip0_10_1903">
<rect width="16" height="16" fill="white"/>
</clipPath>
</defs>
</svg>
