<svg width="16" height="16" viewBox="0 0 16 16" fill="none" xmlns="http://www.w3.org/2000/svg">
<g clip-path="url(#clip0_19_1542)">
<rect opacity="0.2" x="1" y="5" width="4" height="6" fill="#525252"/>
<path fill-rule="evenodd" clip-rule="evenodd" d="M3.96802 4H4H5H11H11.032H11.032C11.4707 3.99999 11.8491 3.99998 12.1624 4.02135C12.4922 4.04385 12.8221 4.09336 13.1481 4.22836C13.8831 4.53284 14.4672 5.11686 14.7716 5.85195C14.7974 5.91406 14.82 5.97631 14.8399 6.03868C15.5046 6.19267 16 6.78848 16 7.5V8.5C16 9.21152 15.5046 9.80733 14.8399 9.96132C14.82 10.0237 14.7974 10.0859 14.7716 10.148C14.4672 10.8831 13.8831 11.4672 13.1481 11.7716C12.8221 11.9066 12.4922 11.9561 12.1624 11.9787C11.8491 12 11.4706 12 11.032 12L11 12H5H4L3.96801 12C3.52936 12 3.15088 12 2.83762 11.9787C2.50779 11.9561 2.17788 11.9066 1.85195 11.7716C1.11687 11.4672 0.532844 10.8831 0.228362 10.148C0.093358 9.82212 0.0438543 9.49221 0.0213503 9.16238C-2.30949e-05 8.84913 -1.23979e-05 8.47064 0 8.03199V8.03198V8V7.96802V7.96801C-1.23979e-05 7.52936 -2.30952e-05 7.15087 0.0213503 6.83762C0.0438543 6.50779 0.093358 6.17788 0.228362 5.85195C0.532844 5.11686 1.11687 4.53284 1.85195 4.22836C2.17788 4.09336 2.50779 4.04385 2.83762 4.02135C3.15087 3.99998 3.52934 3.99999 3.96797 4H3.96802ZM13 8C13 7.52038 12.9995 7.21074 12.9833 6.97376C12.9677 6.74576 12.9411 6.65893 12.9239 6.61732C12.8224 6.37229 12.6277 6.17761 12.3827 6.07612C12.3411 6.05888 12.2542 6.03227 12.0262 6.01671C11.7893 6.00054 11.4796 6 11 6H6V10H11C11.4796 10 11.7893 9.99946 12.0262 9.98329C12.2542 9.96773 12.3411 9.94112 12.3827 9.92388C12.6277 9.82239 12.8224 9.62771 12.9239 9.38268C12.9411 9.34107 12.9677 9.25424 12.9833 9.02624C12.9995 8.78926 13 8.47962 13 8ZM2.97376 6.01671C3.21074 6.00054 3.52038 6 4 6L4 10C3.52038 10 3.21074 9.99946 2.97376 9.98329C2.74576 9.96773 2.65893 9.94112 2.61732 9.92388C2.37229 9.82239 2.17762 9.62771 2.07612 9.38268C2.05888 9.34107 2.03227 9.25424 2.01671 9.02624C2.00054 8.78926 2 8.47962 2 8C2 7.52038 2.00054 7.21074 2.01671 6.97376C2.03227 6.74576 2.05888 6.65893 2.07612 6.61732C2.17762 6.37229 2.37229 6.17761 2.61732 6.07612C2.65893 6.05888 2.74576 6.03227 2.97376 6.01671Z" fill="#525252"/>
</g>
<defs>
<clipPath id="clip0_19_1542">
<rect width="16" height="16" fill="white"/>
</clipPath>
</defs>
</svg>
