<svg width="16" height="16" viewBox="0 0 16 16" fill="none" xmlns="http://www.w3.org/2000/svg">
<g clip-path="url(#clip0_10_1353)">
<rect opacity="0.1" x="2" y="3" width="12" height="4" fill="#525252"/>
<path fill-rule="evenodd" clip-rule="evenodd" d="M6 1C6 0.447715 5.55228 0 5 0C4.44772 0 4 0.447715 4 1V2.01762C3.93276 2.02117 3.86774 2.02544 3.80497 2.03057C3.40963 2.06287 3.01641 2.13419 2.63803 2.32698C2.07354 2.6146 1.6146 3.07354 1.32698 3.63803C1.13419 4.01641 1.06287 4.40963 1.03057 4.80497C0.999966 5.17953 0.999981 5.63428 0.999998 6.16141V6.16146V6.2V7V11.8V11.8385V11.8386C0.999981 12.3657 0.999966 12.8205 1.03057 13.195C1.06287 13.5904 1.13419 13.9836 1.32698 14.362C1.6146 14.9265 2.07354 15.3854 2.63803 15.673C3.01641 15.8658 3.40963 15.9371 3.80497 15.9694C4.17955 16 4.63432 16 5.16148 16H5.2H10.8H10.8385C11.3657 16 11.8205 16 12.195 15.9694C12.5904 15.9371 12.9836 15.8658 13.362 15.673C13.9265 15.3854 14.3854 14.9265 14.673 14.362C14.8658 13.9836 14.9371 13.5904 14.9694 13.195C15 12.8205 15 12.3657 15 11.8386V11.8385V11.8V7V6.2V6.16148V6.16145C15 5.6343 15 5.17954 14.9694 4.80497C14.9371 4.40963 14.8658 4.01641 14.673 3.63803C14.3854 3.07354 13.9265 2.6146 13.362 2.32698C12.9836 2.13419 12.5904 2.06287 12.195 2.03057C12.1323 2.02544 12.0672 2.02117 12 2.01762V1C12 0.447715 11.5523 0 11 0C10.4477 0 10 0.447715 10 1V2H6V1ZM3.54601 4.10899C3.59545 4.0838 3.69617 4.04612 3.96784 4.02393C4.25117 4.00078 4.62345 4 5.2 4H10.8C11.3766 4 11.7488 4.00078 12.0322 4.02393C12.3038 4.04612 12.4045 4.0838 12.454 4.10899C12.6422 4.20487 12.7951 4.35785 12.891 4.54601C12.9162 4.59545 12.9539 4.69617 12.9761 4.96784C12.9964 5.21698 12.9995 5.5349 12.9999 6H3.00007C3.00051 5.5349 3.00357 5.21698 3.02393 4.96784C3.04612 4.69617 3.0838 4.59545 3.10899 4.54601C3.20487 4.35785 3.35785 4.20487 3.54601 4.10899ZM3 8H13V11.8C13 12.3766 12.9992 12.7488 12.9761 13.0322C12.9539 13.3038 12.9162 13.4045 12.891 13.454C12.7951 13.6422 12.6422 13.7951 12.454 13.891C12.4045 13.9162 12.3038 13.9539 12.0322 13.9761C11.7488 13.9992 11.3766 14 10.8 14H5.2C4.62345 14 4.25117 13.9992 3.96784 13.9761C3.69617 13.9539 3.59545 13.9162 3.54601 13.891C3.35785 13.7951 3.20487 13.6422 3.10899 13.454C3.0838 13.4045 3.04612 13.3038 3.02393 13.0322C3.00078 12.7488 3 12.3766 3 11.8V8ZM5 9C4.44772 9 4 9.44771 4 10V11C4 11.5523 4.44772 12 5 12H6C6.55228 12 7 11.5523 7 11V10C7 9.44772 6.55228 9 6 9H5Z" fill="#525252"/>
</g>
<defs>
<clipPath id="clip0_10_1353">
<rect width="16" height="16" fill="white"/>
</clipPath>
</defs>
</svg>
