<svg width="16" height="16" viewBox="0 0 16 16" fill="none" xmlns="http://www.w3.org/2000/svg">
<g clip-path="url(#clip0_34_6734)">
<path opacity="0.1" fill-rule="evenodd" clip-rule="evenodd" d="M8.88197 2C9.56717 2 10.1936 2.38713 10.5 3C10.8064 3.61287 11.4328 4 12.118 4H12.5279C12.9666 4 13.1859 4 13.3687 4.03428C14.1794 4.18634 14.8137 4.82056 14.9657 5.63131C15 5.81406 15 6.03342 15 6.47214V10.8C15 11.9201 15 12.4802 14.782 12.908C14.5903 13.2843 14.2843 13.5903 13.908 13.782C13.4802 14 12.9201 14 11.8 14H4.2C3.0799 14 2.51984 14 2.09202 13.782C1.71569 13.5903 1.40973 13.2843 1.21799 12.908C1 12.4802 1 11.9201 1 10.8V6.47214C1 6.03342 1 5.81406 1.03428 5.63131C1.18634 4.82056 1.82056 4.18634 2.63131 4.03428C2.81406 4 3.03342 4 3.47214 4H3.88197C4.56717 4 5.19357 3.61287 5.5 3C5.80643 2.38713 6.43283 2 7.11803 2H8.88197ZM8 11C9.10457 11 10 10.1046 10 9C10 7.89543 9.10457 7 8 7C6.89543 7 6 7.89543 6 9C6 10.1046 6.89543 11 8 11Z" fill="#525252"/>
<path fill-rule="evenodd" clip-rule="evenodd" d="M4.60556 2.55279C5.08138 1.60114 6.05404 1 7.11802 1H8.88195C9.94593 1 10.9186 1.60114 11.3944 2.55279C11.5315 2.82687 11.8116 3 12.118 3H12.5279L12.6071 2.99996C12.9665 2.99969 13.276 2.99946 13.553 3.05142C14.7691 3.27951 15.7205 4.23084 15.9486 5.44696C16.0005 5.72398 16.0003 6.03344 16 6.3929V6.39293L16 6.47214V10.8V10.8385V10.8386V10.8387C16 11.3658 16 11.8205 15.9694 12.195C15.9371 12.5904 15.8658 12.9836 15.673 13.362C15.3854 13.9265 14.9264 14.3854 14.362 14.673C13.9836 14.8658 13.5904 14.9371 13.195 14.9694C12.8204 15 12.3657 15 11.8385 15H11.8385H11.8H4.19999H4.16146H4.16143C3.63429 15 3.17953 15 2.80496 14.9694C2.40961 14.9371 2.01639 14.8658 1.63801 14.673C1.07353 14.3854 0.614587 13.9265 0.326967 13.362C0.134173 12.9836 0.0628567 12.5904 0.0305557 12.195C-4.80413e-05 11.8205 -3.25441e-05 11.3657 -1.46627e-05 10.8385L-1.37091e-05 10.8V6.47214L-5.31673e-05 6.39293C-0.000323415 6.03346 -0.000556111 5.72398 0.0514026 5.44696C0.2795 4.23084 1.23083 3.27951 2.44695 3.05142C2.72397 2.99946 3.03344 2.99969 3.39291 2.99996H3.39291L3.47212 3H3.88195C4.18839 3 4.46852 2.82687 4.60556 2.55279ZM9.60556 3.44721C9.46852 3.17313 9.18839 3 8.88195 3H7.11802C6.81159 3 6.53145 3.17313 6.39441 3.44721C5.91859 4.39886 4.94593 5 3.88195 5H3.47212C2.98819 5 2.88398 5.00432 2.81564 5.01714C2.41027 5.09317 2.09316 5.41028 2.01713 5.81565C2.00431 5.884 1.99999 5.98821 1.99999 6.47214V10.8C1.99999 11.3766 2.00076 11.7488 2.02391 12.0322C2.04611 12.3038 2.08379 12.4045 2.10898 12.454C2.20485 12.6422 2.35783 12.7951 2.546 12.891C2.59544 12.9162 2.69616 12.9539 2.96782 12.9761C3.25116 12.9992 3.62343 13 4.19999 13H11.8C12.3765 13 12.7488 12.9992 13.0322 12.9761C13.3038 12.9539 13.4045 12.9162 13.454 12.891C13.6421 12.7951 13.7951 12.6422 13.891 12.454C13.9162 12.4045 13.9539 12.3038 13.9761 12.0322C13.9992 11.7488 14 11.3766 14 10.8V6.47214C14 5.98821 13.9957 5.884 13.9828 5.81565C13.9068 5.41028 13.5897 5.09317 13.1843 5.01714C13.116 5.00432 13.0118 5 12.5279 5H12.118C11.054 5 10.0814 4.39886 9.60556 3.44721ZM7.99999 8C7.4477 8 6.99999 8.44772 6.99999 9C6.99999 9.55228 7.4477 10 7.99999 10C8.55227 10 8.99999 9.55228 8.99999 9C8.99999 8.44772 8.55227 8 7.99999 8ZM4.99999 9C4.99999 7.34315 6.34313 6 7.99999 6C9.65684 6 11 7.34315 11 9C11 10.6569 9.65684 12 7.99999 12C6.34313 12 4.99999 10.6569 4.99999 9ZM12 8C12.5523 8 13 7.55228 13 7C13 6.44772 12.5523 6 12 6C11.4477 6 11 6.44772 11 7C11 7.55228 11.4477 8 12 8Z" fill="#525252"/>
</g>
<defs>
<clipPath id="clip0_34_6734">
<rect width="16" height="16" fill="white"/>
</clipPath>
</defs>
</svg>
