<svg width="16" height="16" viewBox="0 0 16 16" fill="none" xmlns="http://www.w3.org/2000/svg">
<g clip-path="url(#clip0_19_246)">
<path fill-rule="evenodd" clip-rule="evenodd" d="M5.8 0H5.7587C4.95373 -1.32322e-05 4.28937 -2.37226e-05 3.74817 0.0441936C3.18608 0.0901188 2.66937 0.188683 2.18404 0.435974C1.43139 0.819467 0.819467 1.43139 0.435974 2.18404C0.188683 2.66937 0.0901188 3.18608 0.0441936 3.74817C-2.37226e-05 4.28937 -1.32322e-05 4.95373 0 5.7587V5.8V10.2V10.2413C-1.32322e-05 11.0463 -2.37226e-05 11.7106 0.0441936 12.2518C0.0901188 12.8139 0.188683 13.3306 0.435974 13.816C0.819467 14.5686 1.43139 15.1805 2.18404 15.564C2.66937 15.8113 3.18608 15.9099 3.74817 15.9558C4.28937 16 4.95374 16 5.75872 16H5.8H10.2H10.2413C11.0463 16 11.7106 16 12.2518 15.9558C12.8139 15.9099 13.3306 15.8113 13.816 15.564C14.5686 15.1805 15.1805 14.5686 15.564 13.816C15.8113 13.3306 15.9099 12.8139 15.9558 12.2518C16 11.7106 16 11.0463 16 10.2413V10.2V5.8V5.75872C16 4.95374 16 4.28937 15.9558 3.74817C15.9099 3.18608 15.8113 2.66937 15.564 2.18404C15.1805 1.43139 14.5686 0.819467 13.816 0.435974C13.3306 0.188683 12.8139 0.0901188 12.2518 0.0441936C11.7106 -2.37226e-05 11.0463 -1.32322e-05 10.2413 0H10.2H5.8ZM3.09202 2.21799C3.24842 2.1383 3.47262 2.07337 3.91104 2.03755C4.36113 2.00078 4.94342 2 5.8 2H10.2C11.0566 2 11.6389 2.00078 12.089 2.03755C12.5274 2.07337 12.7516 2.1383 12.908 2.21799C13.2843 2.40973 13.5903 2.71569 13.782 3.09202C13.8617 3.24842 13.9266 3.47262 13.9624 3.91104C13.9992 4.36113 14 4.94342 14 5.8V10.2C14 11.0566 13.9992 11.6389 13.9624 12.089C13.9266 12.5274 13.8617 12.7516 13.782 12.908C13.5903 13.2843 13.2843 13.5903 12.908 13.782C12.7516 13.8617 12.5274 13.9266 12.089 13.9624C11.6389 13.9992 11.0566 14 10.2 14H5.8C4.94342 14 4.36113 13.9992 3.91104 13.9624C3.47262 13.9266 3.24842 13.8617 3.09202 13.782C2.71569 13.5903 2.40973 13.2843 2.21799 12.908C2.1383 12.7516 2.07337 12.5274 2.03755 12.089C2.00078 11.6389 2 11.0566 2 10.2V5.8C2 4.94342 2.00078 4.36113 2.03755 3.91104C2.07337 3.47262 2.1383 3.24842 2.21799 3.09202C2.40973 2.71569 2.71569 2.40973 3.09202 2.21799ZM11.7071 6.70711C12.0976 6.31658 12.0976 5.68342 11.7071 5.29289C11.3166 4.90237 10.6834 4.90237 10.2929 5.29289L7 8.58579L5.70711 7.29289C5.31658 6.90237 4.68342 6.90237 4.29289 7.29289C3.90237 7.68342 3.90237 8.31658 4.29289 8.70711L6.29289 10.7071C6.48043 10.8946 6.73478 11 7 11C7.26521 11 7.51957 10.8946 7.70711 10.7071L11.7071 6.70711Z" fill="#525252"/>
</g>
<defs>
<clipPath id="clip0_19_246">
<rect width="16" height="16" fill="white"/>
</clipPath>
</defs>
</svg>
