<svg width="16" height="16" viewBox="0 0 16 16" fill="none" xmlns="http://www.w3.org/2000/svg">
<g clip-path="url(#clip0_10_1500)">
<path opacity="0.2" d="M12.9497 3.05025C10.2161 0.316582 5.78392 0.316582 3.05025 3.05025L12.9497 12.9497C15.6834 10.2161 15.6834 5.78392 12.9497 3.05025Z" fill="#525252"/>
<path fill-rule="evenodd" clip-rule="evenodd" d="M4.52347 3.10925C5.50428 2.41079 6.70417 2 8 2C11.3137 2 14 4.68629 14 8C14 9.29583 13.5892 10.4957 12.8907 11.4765L4.52347 3.10925ZM3.10925 4.52347C2.41079 5.50428 2 6.70417 2 8C2 11.3137 4.68629 14 8 14C9.29583 14 10.4957 13.5892 11.4765 12.8907L3.10925 4.52347ZM8 0C3.58172 0 0 3.58172 0 8C0 12.4183 3.58172 16 8 16C12.4183 16 16 12.4183 16 8C16 3.58172 12.4183 0 8 0Z" fill="#525252"/>
</g>
<defs>
<clipPath id="clip0_10_1500">
<rect width="16" height="16" fill="white"/>
</clipPath>
</defs>
</svg>
