<svg width="16" height="16" viewBox="0 0 16 16" fill="none" xmlns="http://www.w3.org/2000/svg">
<path opacity="0.1" d="M8 14C11.3137 14 14 13.1046 14 12V4C14 4 11.5 6 8 6C4.5 6 2 4 2 4V12C2 13.1046 4.68629 14 8 14Z" fill="#525252"/>
<path fill-rule="evenodd" clip-rule="evenodd" d="M3.09935 4C3.27937 3.86078 3.59686 3.69338 4.07359 3.53447C5.03245 3.21485 6.42072 3 8 3C9.57928 3 10.9675 3.21485 11.9264 3.53447C12.4031 3.69338 12.7206 3.86078 12.9006 4C12.7206 4.13922 12.4031 4.30662 11.9264 4.46553C10.9675 4.78515 9.57928 5 8 5C6.42072 5 5.03245 4.78515 4.07359 4.46553C3.59686 4.30662 3.27937 4.13922 3.09935 4ZM13.0218 3.88654C13.0241 3.88209 13.0257 3.87988 13.0259 3.8799C13.0261 3.87991 13.025 3.88214 13.0218 3.88654ZM2.9782 3.88654C2.97504 3.88214 2.9739 3.87991 2.97412 3.8799C2.97433 3.87988 2.97591 3.88209 2.9782 3.88654ZM3.44113 1.6371C4.65384 1.23287 6.26557 1 8 1C9.73443 1 11.3462 1.23287 12.5589 1.6371C13.16 1.83748 13.7186 2.09812 14.1475 2.4361C14.5651 2.7652 15 3.28613 15 4V8V12C15 12.7139 14.5651 13.2348 14.1475 13.5639C13.7186 13.9019 13.16 14.1625 12.5589 14.3629C11.3462 14.7671 9.73443 15 8 15C6.26557 15 4.65384 14.7671 3.44113 14.3629C2.84 14.1625 2.2814 13.9019 1.85254 13.5639C1.43495 13.2348 1 12.7139 1 12V8V4C1 3.28613 1.43495 2.7652 1.85254 2.4361C2.2814 2.09812 2.84 1.83748 3.44113 1.6371ZM3 10.2012V11.9123C3.01773 11.9312 3.04625 11.9582 3.09048 11.9931C3.26885 12.1336 3.58893 12.304 4.07359 12.4655C5.03245 12.7852 6.42072 13 8 13C9.57928 13 10.9675 12.7852 11.9264 12.4655C12.4111 12.304 12.7311 12.1336 12.9095 11.9931C12.9537 11.9582 12.9823 11.9312 13 11.9123V10.2012C12.8565 10.259 12.709 10.3128 12.5589 10.3629C11.3462 10.7671 9.73443 11 8 11C6.26557 11 4.65384 10.7671 3.44113 10.3629C3.29098 10.3128 3.14348 10.259 3 10.2012ZM13 7.91233V6.2012C12.8565 6.25904 12.709 6.31285 12.5589 6.3629C11.3462 6.76713 9.73443 7 8 7C6.26557 7 4.65384 6.76713 3.44113 6.3629C3.29098 6.31285 3.14348 6.25904 3 6.2012V7.91233C3.01773 7.93121 3.04625 7.95822 3.09048 7.99308C3.26885 8.13365 3.58893 8.30398 4.07359 8.46553C5.03245 8.78515 6.42072 9 8 9C9.57928 9 10.9675 8.78515 11.9264 8.46553C12.4111 8.30398 12.7311 8.13365 12.9095 7.99308C12.9537 7.95822 12.9823 7.93121 13 7.91233ZM13.0259 11.8799C13.0261 11.8799 13.025 11.8821 13.0218 11.8865C13.023 11.8841 13.0241 11.8824 13.0248 11.8813L13.0259 11.8799ZM2.9782 11.8865C2.97504 11.8821 2.9739 11.8799 2.97412 11.8799C2.97433 11.8799 2.97591 11.8821 2.9782 11.8865Z" fill="#525252"/>
</svg>
