<svg width="16" height="16" viewBox="0 0 16 16" fill="none" xmlns="http://www.w3.org/2000/svg">
<g clip-path="url(#clip0_10_1184)">
<path opacity="0.1" d="M14 7L8 1V7H14Z" fill="#525252"/>
<path fill-rule="evenodd" clip-rule="evenodd" d="M7 2.00131C6.91373 2.0004 6.80733 2.00001 6.67452 2.00001H5.2C4.62345 2.00001 4.25117 2.00078 3.96784 2.02393C3.69617 2.04613 3.59546 2.08381 3.54601 2.109C3.35785 2.20487 3.20487 2.35785 3.109 2.54602C3.0838 2.59546 3.04612 2.69618 3.02393 2.96784C3.00078 3.25118 3 3.62345 3 4.20001V6.00001V11.8C3 12.3766 3.00078 12.7488 3.02393 13.0322C3.04612 13.3038 3.0838 13.4046 3.109 13.454C3.20487 13.6422 3.35785 13.7951 3.54601 13.891C3.59546 13.9162 3.69617 13.9539 3.96784 13.9761C4.25117 13.9992 4.62345 14 5.2 14H10.8C11.3766 14 11.7488 13.9992 12.0322 13.9761C12.3038 13.9539 12.4045 13.9162 12.454 13.891C12.6422 13.7951 12.7951 13.6422 12.891 13.454C12.9162 13.4046 12.9539 13.3038 12.9761 13.0322C12.9992 12.7488 13 12.3766 13 11.8V8.32549C13 8.19268 12.9996 8.08628 12.9987 8.00001H9.6L9.5681 8.00001H9.56807C9.3157 8.00004 9.06992 8.00007 8.86177 7.98306C8.63318 7.96438 8.36344 7.92032 8.09202 7.78202C7.7157 7.59027 7.40974 7.28431 7.21799 6.90799C7.07969 6.63656 7.03562 6.36683 7.01695 6.13824C6.99994 5.93009 6.99997 5.68431 7 5.43194V5.4319L7 5.40001V2.00131ZM11.5858 6.00001L9 3.41422V5.40001C9 5.69653 9.00078 5.85879 9.01031 5.97537L9.01145 5.98856L9.02464 5.9897C9.14122 5.99923 9.30347 6.00001 9.6 6.00001H11.5858ZM7.87191 0.0828968C7.52347 -0.000757337 7.16472 -0.000423551 6.75782 -4.49419e-05L6.67452 6.55651e-06H5.2L5.16146 5.60284e-06L5.16145 5.60271e-06C4.63431 -1.22786e-05 4.17954 -2.7705e-05 3.80497 0.030576C3.40963 0.062877 3.01641 0.134193 2.63803 0.326987C2.07354 0.614607 1.6146 1.07355 1.32698 1.63804C1.13419 2.01641 1.06287 2.40963 1.03057 2.80498C0.999968 3.17954 0.999983 3.63429 1 4.16142V4.16146V4.20001V6.00001V11.8V11.8386V11.8386C0.999983 12.3657 0.999968 12.8205 1.03057 13.195C1.06287 13.5904 1.13419 13.9836 1.32698 14.362C1.6146 14.9265 2.07354 15.3854 2.63803 15.673C3.01641 15.8658 3.40963 15.9371 3.80497 15.9694C4.17955 16 4.63432 16 5.16148 16H5.2H10.8H10.8385C11.3657 16 11.8205 16 12.195 15.9694C12.5904 15.9371 12.9836 15.8658 13.362 15.673C13.9265 15.3854 14.3854 14.9265 14.673 14.362C14.8658 13.9836 14.9371 13.5904 14.9694 13.195C15 12.8205 15 12.3657 15 11.8386V11.8385V11.8V8.32549L15.0001 8.24218C15.0004 7.83529 15.0008 7.47654 14.9171 7.1281C14.8436 6.82199 14.7224 6.52936 14.5579 6.26094C14.3707 5.9554 14.1168 5.70196 13.8288 5.41451L13.7698 5.35564L9.64437 1.23016L9.58549 1.17121C9.29805 0.883228 9.04461 0.62932 8.73907 0.442086C8.47065 0.2776 8.17802 0.156387 7.87191 0.0828968Z" fill="#525252"/>
</g>
<defs>
<clipPath id="clip0_10_1184">
<rect width="16" height="16" fill="white"/>
</clipPath>
</defs>
</svg>
