<svg width="16" height="16" viewBox="0 0 16 16" fill="none" xmlns="http://www.w3.org/2000/svg">
<g clip-path="url(#clip0_19_915)">
<circle opacity="0.1" cx="8" cy="8" r="2" fill="#525252"/>
<path fill-rule="evenodd" clip-rule="evenodd" d="M2.34792 8.17836C2.30055 8.11568 2.25628 8.05608 2.21522 8C2.25628 7.94392 2.30055 7.88432 2.34792 7.82164C2.68164 7.38002 3.16255 6.79408 3.75264 6.2118C4.97423 5.00636 6.4781 4 8 4C9.5219 4 11.0258 5.00636 12.2474 6.2118C12.8375 6.79408 13.3184 7.38002 13.6521 7.82164C13.6994 7.88432 13.7437 7.94392 13.7848 8C13.7437 8.05608 13.6994 8.11568 13.6521 8.17836C13.3184 8.61998 12.8375 9.20592 12.2474 9.7882C11.0258 10.9936 9.5219 12 8 12C6.4781 12 4.97423 10.9936 3.75264 9.7882C3.16255 9.20592 2.68164 8.61998 2.34792 8.17836ZM15.847 7.46839C15.8472 7.46865 15.8473 7.4689 15 8C15.8473 8.5311 15.8472 8.53134 15.847 8.53161L15.8466 8.53225L15.8456 8.53385L15.8427 8.53844L15.8334 8.55296C15.8258 8.56499 15.815 8.58166 15.8013 8.60266C15.7739 8.64465 15.7346 8.70402 15.6839 8.7783C15.5827 8.92675 15.4357 9.13536 15.2477 9.38414C14.873 9.88002 14.3288 10.5441 13.6521 11.2118C12.3402 12.5064 10.3441 14 8 14C5.65591 14 3.65978 12.5064 2.34787 11.2118C1.67121 10.5441 1.12699 9.88002 0.75227 9.38414C0.564274 9.13536 0.417316 8.92675 0.316069 8.7783C0.265409 8.70402 0.226085 8.64465 0.198683 8.60266C0.184979 8.58166 0.174246 8.56499 0.166559 8.55296L0.157316 8.53844L0.154422 8.53385L0.15341 8.53225L0.153013 8.53161C0.152845 8.53134 0.152688 8.5311 1 8C0.152688 7.4689 0.152845 7.46865 0.153013 7.46839L0.15341 7.46775L0.154422 7.46615L0.157316 7.46156L0.166559 7.44704C0.174246 7.43501 0.184979 7.41834 0.198683 7.39734C0.226085 7.35535 0.265409 7.29598 0.316069 7.2217C0.417316 7.07325 0.564274 6.86464 0.75227 6.61586C1.12699 6.11998 1.67121 5.45592 2.34787 4.7882C3.65978 3.49364 5.65591 2 8 2C10.3441 2 12.3402 3.49364 13.6521 4.7882C14.3288 5.45592 14.873 6.11998 15.2477 6.61586C15.4357 6.86464 15.5827 7.07325 15.6839 7.2217C15.7346 7.29598 15.7739 7.35535 15.8013 7.39734L15.8219 7.42905L15.8334 7.44704L15.8427 7.46156L15.8456 7.46615L15.8466 7.46775L15.847 7.46839ZM15 8L15.8473 7.4689C16.0509 7.7937 16.0509 8.2063 15.8473 8.5311L15 8ZM0.152688 7.4689L1 8L0.152688 8.5311C-0.0508962 8.2063 -0.0508962 7.7937 0.152688 7.4689ZM7 8C7 7.44772 7.44772 7 8 7C8.55228 7 9 7.44772 9 8C9 8.55228 8.55228 9 8 9C7.44772 9 7 8.55228 7 8ZM8 5C6.34315 5 5 6.34315 5 8C5 9.65685 6.34315 11 8 11C9.65685 11 11 9.65685 11 8C11 6.34315 9.65685 5 8 5Z" fill="#525252"/>
</g>
<defs>
<clipPath id="clip0_19_915">
<rect width="16" height="16" fill="white"/>
</clipPath>
</defs>
</svg>
