<svg width="16" height="16" viewBox="0 0 16 16" fill="none" xmlns="http://www.w3.org/2000/svg">
<g clip-path="url(#clip0_19_941)">
<path fill-rule="evenodd" clip-rule="evenodd" d="M2.70711 1.29289C2.31658 0.902369 1.68342 0.902369 1.29289 1.29289C0.902369 1.68342 0.902369 2.31658 1.29289 2.70711L13.2929 14.7071C13.6834 15.0976 14.3166 15.0976 14.7071 14.7071C15.0976 14.3166 15.0976 13.6834 14.7071 13.2929L2.70711 1.29289ZM6.95168 4.15085C7.30067 4.05267 7.65037 4 8 4C9.5219 4 11.0258 5.00636 12.2474 6.2118C12.8375 6.79408 13.3184 7.38002 13.6521 7.82164C13.6994 7.88432 13.7437 7.94392 13.7848 8L13.7775 8.00992C13.5249 8.35432 13.1566 8.82413 12.6975 9.32217C12.3231 9.72821 12.3488 10.3609 12.7549 10.7352C13.1609 11.1096 13.7936 11.0839 14.1679 10.6778C14.6886 10.113 15.1041 9.58282 15.3901 9.19294C15.5335 8.99754 15.6452 8.83617 15.7222 8.72178C15.7608 8.66455 15.7907 8.61899 15.8117 8.58669L15.8364 8.54837L15.8436 8.53703L15.8459 8.53338L15.8467 8.53206L15.847 8.53154L15.8472 8.53131C15.8472 8.5312 15.8473 8.5311 15 8L15.8473 8.5311C16.0509 8.2063 16.0509 7.7937 15.8473 7.4689L15 8C15.8473 7.4689 15.8472 7.46865 15.847 7.46839L15.8466 7.46775L15.8456 7.46615L15.8427 7.46156L15.8334 7.44704C15.8258 7.43501 15.815 7.41834 15.8013 7.39734C15.7739 7.35535 15.7346 7.29598 15.6839 7.2217C15.5827 7.07325 15.4357 6.86464 15.2477 6.61586C14.873 6.11998 14.3288 5.45592 13.6521 4.7882C12.3402 3.49364 10.3441 2 8 2C7.44775 2 6.91549 2.08339 6.41005 2.22558C5.87841 2.37515 5.56867 2.92738 5.71824 3.45903C5.8678 3.99067 6.42003 4.30041 6.95168 4.15085ZM3.30252 6.67783C3.67688 6.27179 3.65119 5.63914 3.24514 5.26478C2.83909 4.89043 2.20645 4.91612 1.83209 5.32217C1.31136 5.88698 0.895915 6.41717 0.60989 6.80706C0.466544 7.00246 0.35482 7.16383 0.277753 7.27822C0.239198 7.33545 0.209253 7.38101 0.188296 7.4133L0.163629 7.45163L0.156426 7.46297L0.154122 7.46662L0.153296 7.46794L0.152965 7.46846L0.15282 7.46869C0.152753 7.4688 0.152688 7.4689 1 8L0.152688 7.4689C-0.0508962 7.7937 -0.0508962 8.2063 0.152688 8.5311L1 8C0.152688 8.5311 0.152845 8.53135 0.153013 8.53161L0.15341 8.53225L0.154422 8.53385L0.157316 8.53844L0.166559 8.55296C0.174246 8.56499 0.184979 8.58166 0.198683 8.60266C0.226085 8.64465 0.265409 8.70402 0.316069 8.7783C0.417316 8.92675 0.564274 9.13536 0.75227 9.38414C1.12699 9.88002 1.67121 10.5441 2.34787 11.2118C3.65978 12.5064 5.65591 14 8 14C8.41562 14 8.82016 13.9528 9.21058 13.8687C9.75048 13.7524 10.0939 13.2204 9.97758 12.6805C9.86127 12.1406 9.32932 11.7972 8.78942 11.9135C8.52663 11.9701 8.26342 12 8 12C6.4781 12 4.97423 10.9936 3.75264 9.7882C3.16255 9.20592 2.68164 8.61998 2.34792 8.17836C2.30055 8.11568 2.25628 8.05608 2.21522 8L2.22249 7.99008C2.47514 7.64568 2.84335 7.17587 3.30252 6.67783Z" fill="#525252"/>
</g>
<defs>
<clipPath id="clip0_19_941">
<rect width="16" height="16" fill="white"/>
</clipPath>
</defs>
</svg>
