<svg width="16" height="16" viewBox="0 0 16 16" fill="none" xmlns="http://www.w3.org/2000/svg">
<g clip-path="url(#clip0_10_1405)">
<circle opacity="0.1" cx="8" cy="8" r="7" fill="#525252"/>
<path fill-rule="evenodd" clip-rule="evenodd" d="M2 8C2 4.68629 4.68629 2 8 2C11.3137 2 14 4.68629 14 8C14 11.3137 11.3137 14 8 14C4.68629 14 2 11.3137 2 8ZM8 0C3.58172 0 0 3.58172 0 8C0 12.4183 3.58172 16 8 16C12.4183 16 16 12.4183 16 8C16 3.58172 12.4183 0 8 0ZM6 7C6.55228 7 7 6.55228 7 6C7 5.44772 6.55228 5 6 5C5.44772 5 5 5.44772 5 6C5 6.55228 5.44772 7 6 7ZM11 6C11 6.55228 10.5523 7 10 7C9.44771 7 9 6.55228 9 6C9 5.44772 9.44771 5 10 5C10.5523 5 11 5.44772 11 6ZM5.55279 8.10557C6.03804 7.86294 6.62626 8.05188 6.88102 8.5269C6.88412 8.53177 6.89088 8.54201 6.90156 8.55625C6.92969 8.59376 6.98187 8.65487 7.06219 8.71913C7.21017 8.83751 7.49292 9 8 9C8.50708 9 8.78983 8.83751 8.93781 8.71913C9.01813 8.65487 9.07031 8.59376 9.09844 8.55625C9.10912 8.54201 9.11588 8.53177 9.11898 8.5269C9.37374 8.05188 9.96196 7.86294 10.4472 8.10557C10.9412 8.35256 11.1414 8.95323 10.8944 9.44721L10 9C10.8944 9.44721 10.8942 9.44774 10.8939 9.44827L10.8934 9.44936L10.8922 9.45161L10.8898 9.4564L10.8842 9.46714C10.8802 9.47482 10.8755 9.48351 10.8702 9.49315C10.8596 9.51242 10.8464 9.53554 10.8304 9.56195C10.7984 9.61467 10.7549 9.68103 10.6984 9.75625C10.5859 9.90624 10.4194 10.0951 10.1872 10.2809C9.71017 10.6625 8.99292 11 8 11C7.00708 11 6.28983 10.6625 5.81281 10.2809C5.58063 10.0951 5.41406 9.90624 5.30156 9.75625C5.24515 9.68103 5.20164 9.61467 5.16963 9.56195C5.1536 9.53554 5.14036 9.51242 5.12977 9.49315C5.12446 9.48351 5.11981 9.47482 5.11579 9.46714L5.11022 9.4564L5.10778 9.45161L5.10665 9.44936L5.1061 9.44827C5.10584 9.44774 5.10557 9.44721 6 9L5.10557 9.44721C4.85858 8.95323 5.05881 8.35256 5.55279 8.10557Z" fill="#525252"/>
</g>
<defs>
<clipPath id="clip0_10_1405">
<rect width="16" height="16" fill="white"/>
</clipPath>
</defs>
</svg>
