<svg width="16" height="16" viewBox="0 0 16 16" fill="none" xmlns="http://www.w3.org/2000/svg">
<g clip-path="url(#clip0_19_289)">
<path opacity="0.1" fill-rule="evenodd" clip-rule="evenodd" d="M8 15C11.866 15 15 11.866 15 8C15 4.13401 11.866 1 8 1C4.13401 1 1 4.13401 1 8C1 11.866 4.13401 15 8 15ZM5 9C5 9 5 12 8 12C11 12 11 9 11 9H5Z" fill="#525252"/>
<path fill-rule="evenodd" clip-rule="evenodd" d="M2 8C2 4.68629 4.68629 2 8 2C11.3137 2 14 4.68629 14 8C14 11.3137 11.3137 14 8 14C4.68629 14 2 11.3137 2 8ZM8 0C3.58172 0 0 3.58172 0 8C0 12.4183 3.58172 16 8 16C12.4183 16 16 12.4183 16 8C16 3.58172 12.4183 0 8 0ZM6 7C6.55228 7 7 6.55228 7 6C7 5.44772 6.55228 5 6 5C5.44772 5 5 5.44772 5 6C5 6.55228 5.44772 7 6 7ZM11 6C11 6.55228 10.5523 7 10 7C9.44771 7 9 6.55228 9 6C9 5.44772 9.44771 5 10 5C10.5523 5 11 5.44772 11 6ZM5 8C4.72846 8 4.4686 8.11042 4.28013 8.30589C4.09165 8.50137 3.99077 8.76508 4.00066 9.03643L5 9C4.00066 9.03643 4.00068 9.03692 4.0007 9.03741L4.00074 9.03846L4.00083 9.04077L4.00106 9.04624L4.00175 9.06054C4.00232 9.07153 4.00314 9.08545 4.00428 9.10211C4.00656 9.13538 4.01017 9.17974 4.01584 9.23361C4.02715 9.34104 4.04685 9.48815 4.08112 9.66208C4.14879 10.0055 4.27786 10.4771 4.52816 10.9601C4.7798 11.4457 5.16552 11.9641 5.75237 12.3601C6.34738 12.7617 7.0943 13 8 13C8.9057 13 9.65262 12.7617 10.2476 12.3601C10.8345 11.9641 11.2202 11.4457 11.4718 10.9601C11.7221 10.4771 11.8512 10.0055 11.9189 9.66208C11.9532 9.48815 11.9728 9.34104 11.9842 9.23361C11.9898 9.17974 11.9934 9.13538 11.9957 9.10211C11.9969 9.08545 11.9977 9.07153 11.9982 9.06054L11.9989 9.04624L11.9992 9.04077L11.9993 9.03846L11.9993 9.03741C11.9993 9.03692 11.9993 9.03643 11 9L11.9993 9.03643C12.0092 8.76508 11.9083 8.50137 11.7199 8.30589C11.5314 8.11042 11.2715 8 11 8H8H5ZM6.30387 10.0399C6.297 10.0266 6.29027 10.0133 6.28368 10H8H9.71632C9.70973 10.0133 9.703 10.0266 9.69613 10.0399C9.5591 10.3043 9.37548 10.5359 9.12883 10.7024C8.89035 10.8633 8.53961 11 8 11C7.46039 11 7.10965 10.8633 6.87117 10.7024C6.62452 10.5359 6.4409 10.3043 6.30387 10.0399Z" fill="#525252"/>
</g>
<defs>
<clipPath id="clip0_19_289">
<rect width="16" height="16" fill="white"/>
</clipPath>
</defs>
</svg>
