<svg width="16" height="16" viewBox="0 0 16 16" fill="none" xmlns="http://www.w3.org/2000/svg">
<g clip-path="url(#clip0_19_142)">
<path opacity="0.1" d="M5.8 15H10.2C11.8802 15 12.7202 15 13.362 14.673C13.9265 14.3854 14.3854 13.9265 14.673 13.362C15 12.7202 15 11.8802 15 10.2V5.8C15 4.11984 15 3.27976 14.673 2.63803C14.3854 2.07354 13.9265 1.6146 13.362 1.32698C12.7202 1 11.8802 1 10.2 1H5.8C4.11984 1 3.27976 1 2.63803 1.32698C2.07354 1.6146 1.6146 2.07354 1.32698 2.63803C1 3.27976 1 4.11984 1 5.8V10.2C1 11.8802 1 12.7202 1.32698 13.362C1.6146 13.9265 2.07354 14.3854 2.63803 14.673C3.27976 15 4.11984 15 5.8 15Z" fill="#525252"/>
<path fill-rule="evenodd" clip-rule="evenodd" d="M5.8 0H5.7587C4.95373 -1.32322e-05 4.28937 -2.37226e-05 3.74817 0.0441936C3.18608 0.0901188 2.66937 0.188683 2.18404 0.435974C1.43139 0.819467 0.819467 1.43139 0.435974 2.18404C0.188683 2.66937 0.0901188 3.18608 0.0441936 3.74817C-2.37226e-05 4.28937 -1.32322e-05 4.95373 0 5.7587V5.8V10.2V10.2413C-1.32322e-05 11.0463 -2.37226e-05 11.7106 0.0441936 12.2518C0.0901188 12.8139 0.188683 13.3306 0.435974 13.816C0.819467 14.5686 1.43139 15.1805 2.18404 15.564C2.66937 15.8113 3.18608 15.9099 3.74817 15.9558C4.28937 16 4.95374 16 5.75872 16H5.8H7H10.2H10.2413C11.0463 16 11.7106 16 12.2518 15.9558C12.8139 15.9099 13.3306 15.8113 13.816 15.564C14.5686 15.1805 15.1805 14.5686 15.564 13.816C15.8113 13.3306 15.9099 12.8139 15.9558 12.2518C16 11.7106 16 11.0463 16 10.2413V10.2V5.8V5.75872C16 4.95374 16 4.28937 15.9558 3.74817C15.9099 3.18608 15.8113 2.66937 15.564 2.18404C15.1805 1.43139 14.5686 0.819467 13.816 0.435974C13.3306 0.188683 12.8139 0.0901188 12.2518 0.0441936C11.7106 -2.37226e-05 11.0463 -1.32322e-05 10.2413 0H10.2H5.8ZM8 14H10.2C11.0566 14 11.6389 13.9992 12.089 13.9624C12.5274 13.9266 12.7516 13.8617 12.908 13.782C13.2843 13.5903 13.5903 13.2843 13.782 12.908C13.8617 12.7516 13.9266 12.5274 13.9624 12.089C13.9992 11.6389 14 11.0566 14 10.2V5.8C14 4.94342 13.9992 4.36113 13.9624 3.91104C13.9266 3.47262 13.8617 3.24842 13.782 3.09202C13.5903 2.71569 13.2843 2.40973 12.908 2.21799C12.7516 2.1383 12.5274 2.07337 12.089 2.03755C11.6389 2.00078 11.0566 2 10.2 2H5.8C4.94342 2 4.36113 2.00078 3.91104 2.03755C3.47262 2.07337 3.24842 2.1383 3.09202 2.21799C2.71569 2.40973 2.40973 2.71569 2.21799 3.09202C2.1383 3.24842 2.07337 3.47262 2.03755 3.91104C2.00078 4.36113 2 4.94342 2 5.8V10.2C2 11.0566 2.00078 11.6389 2.03755 12.089C2.07337 12.5274 2.1383 12.7516 2.21799 12.908C2.40973 13.2843 2.71569 13.5903 3.09202 13.782C3.24842 13.8617 3.47262 13.9266 3.91104 13.9624C4.36113 13.9992 4.94342 14 5.8 14H6L6 12.7888L6 10H5C4.44772 10 4 9.55228 4 9C4 8.44772 4.44772 8 5 8H6L6 7.96075C5.99995 7.49179 5.99991 7.00096 6.0546 6.56347C6.11197 6.10452 6.24006 5.59658 6.575 5.15C7.2676 4.22654 8.4915 4 10 4C10.5523 4 11 4.44772 11 5C11 5.55228 10.5523 6 10 6C8.5085 6 8.2324 6.27346 8.175 6.35C8.13494 6.40342 8.07553 6.52048 8.03915 6.81153C8.00162 7.11181 8 7.48074 8 8H9C9.55228 8 10 8.44772 10 9C10 9.55228 9.55228 10 9 10H8L8 12.7888L8 14Z" fill="#525252"/>
</g>
<defs>
<clipPath id="clip0_19_142">
<rect width="16" height="16" fill="white"/>
</clipPath>
</defs>
</svg>
