<svg width="16" height="16" viewBox="0 0 16 16" fill="none" xmlns="http://www.w3.org/2000/svg">
<g clip-path="url(#clip0_19_267)">
<circle opacity="0.1" cx="8" cy="8" r="7" fill="#525252"/>
<path fill-rule="evenodd" clip-rule="evenodd" d="M2 8C2 4.68629 4.68629 2 8 2C11.3137 2 14 4.68629 14 8C14 11.3137 11.3137 14 8 14C4.68629 14 2 11.3137 2 8ZM8 0C3.58172 0 0 3.58172 0 8C0 12.4183 3.58172 16 8 16C12.4183 16 16 12.4183 16 8C16 3.58172 12.4183 0 8 0ZM6 7C6.55228 7 7 6.55228 7 6C7 5.44772 6.55228 5 6 5C5.44772 5 5 5.44772 5 6C5 6.55228 5.44772 7 6 7ZM11 6C11 6.55228 10.5523 7 10 7C9.44771 7 9 6.55228 9 6C9 5.44772 9.44771 5 10 5C10.5523 5 11 5.44772 11 6ZM5.55279 10.8944C6.03804 11.1371 6.62626 10.9481 6.88102 10.4731C6.88412 10.4682 6.89088 10.458 6.90156 10.4438C6.92969 10.4062 6.98187 10.3451 7.06219 10.2809C7.21017 10.1625 7.49292 10 8 10C8.50708 10 8.78983 10.1625 8.93781 10.2809C9.01813 10.3451 9.07031 10.4062 9.09844 10.4438C9.10912 10.458 9.11588 10.4682 9.11898 10.4731C9.37374 10.9481 9.96196 11.1371 10.4472 10.8944C10.9412 10.6474 11.1414 10.0468 10.8944 9.55279L10 10C10.8944 9.55279 10.8942 9.55226 10.8939 9.55173L10.8934 9.55064L10.8922 9.54839L10.8898 9.5436L10.8842 9.53286C10.8802 9.52518 10.8755 9.51649 10.8702 9.50685C10.8596 9.48758 10.8464 9.46446 10.8304 9.43805C10.7984 9.38533 10.7549 9.31897 10.6984 9.24375C10.5859 9.09376 10.4194 8.90487 10.1872 8.71913C9.71017 8.33751 8.99292 8 8 8C7.00708 8 6.28983 8.33751 5.81281 8.71913C5.58063 8.90487 5.41406 9.09376 5.30156 9.24375C5.24515 9.31897 5.20164 9.38533 5.16963 9.43805C5.1536 9.46446 5.14036 9.48758 5.12977 9.50685C5.12446 9.51649 5.11981 9.52518 5.11579 9.53286L5.11022 9.5436L5.10778 9.54839L5.10665 9.55064L5.1061 9.55173C5.10584 9.55226 5.10557 9.55279 6 10L5.10557 9.55279C4.85858 10.0468 5.05881 10.6474 5.55279 10.8944Z" fill="#525252"/>
</g>
<defs>
<clipPath id="clip0_19_267">
<rect width="16" height="16" fill="white"/>
</clipPath>
</defs>
</svg>
