<svg width="16" height="16" viewBox="0 0 16 16" fill="none" xmlns="http://www.w3.org/2000/svg">
<g clip-path="url(#clip0_19_311)">
<circle opacity="0.1" cx="8" cy="8" r="7" fill="#525252"/>
<path fill-rule="evenodd" clip-rule="evenodd" d="M2 8C2 4.68629 4.68629 2 8 2C11.3137 2 14 4.68629 14 8C14 11.3137 11.3137 14 8 14C4.68629 14 2 11.3137 2 8ZM8 0C3.58172 0 0 3.58172 0 8C0 12.4183 3.58172 16 8 16C12.4183 16 16 12.4183 16 8C16 3.58172 12.4183 0 8 0ZM6 7C6.55228 7 7 6.55228 7 6C7 5.44772 6.55228 5 6 5C5.44772 5 5 5.44772 5 6C5 6.55228 5.44772 7 6 7ZM11 6C11 6.55228 10.5523 7 10 7C9.44771 7 9 6.55228 9 6C9 5.44772 9.44771 5 10 5C10.5523 5 11 5.44772 11 6ZM6 11C5.44772 11 5 10.5523 5 10C5 9.44771 5.44772 9 6 9H6.00781H6.01562H6.02344H6.03125H6.03906H6.04688H6.05469H6.0625H6.07031H6.07812H6.08594H6.09375H6.10156H6.10938H6.11719H6.125H6.13281H6.14062H6.14844H6.15625H6.16406H6.17188H6.17969H6.1875H6.19531H6.20312H6.21094H6.21875H6.22656H6.23438H6.24219H6.25H6.25781H6.26562H6.27344H6.28125H6.28906H6.29688H6.30469H6.3125H6.32031H6.32812H6.33594H6.34375H6.35156H6.35938H6.36719H6.375H6.38281H6.39062H6.39844H6.40625H6.41406H6.42188H6.42969H6.4375H6.44531H6.45312H6.46094H6.46875H6.47656H6.48438H6.49219H6.5H6.50781H6.51562H6.52344H6.53125H6.53906H6.54688H6.55469H6.5625H6.57031H6.57812H6.58594H6.59375H6.60156H6.60938H6.61719H6.625H6.63281H6.64062H6.64844H6.65625H6.66406H6.67188H6.67969H6.6875H6.69531H6.70312H6.71094H6.71875H6.72656H6.73438H6.74219H6.75H6.75781H6.76562H6.77344H6.78125H6.78906H6.79688H6.80469H6.8125H6.82031H6.82812H6.83594H6.84375H6.85156H6.85938H6.86719H6.875H6.88281H6.89062H6.89844H6.90625H6.91406H6.92188H6.92969H6.9375H6.94531H6.95312H6.96094H6.96875H6.97656H6.98438H6.99219H7H7.00781H7.01562H7.02344H7.03125H7.03906H7.04688H7.05469H7.0625H7.07031H7.07812H7.08594H7.09375H7.10156H7.10938H7.11719H7.125H7.13281H7.14062H7.14844H7.15625H7.16406H7.17188H7.17969H7.1875H7.19531H7.20312H7.21094H7.21875H7.22656H7.23438H7.24219H7.25H7.25781H7.26562H7.27344H7.28125H7.28906H7.29688H7.30469H7.3125H7.32031H7.32812H7.33594H7.34375H7.35156H7.35938H7.36719H7.375H7.38281H7.39062H7.39844H7.40625H7.41406H7.42188H7.42969H7.4375H7.44531H7.45312H7.46094H7.46875H7.47656H7.48438H7.49219H7.5H7.50781H7.51562H7.52344H7.53125H7.53906H7.54688H7.55469H7.5625H7.57031H7.57812H7.58594H7.59375H7.60156H7.60938H7.61719H7.625H7.63281H7.64062H7.64844H7.65625H7.66406H7.67188H7.67969H7.6875H7.69531H7.70312H7.71094H7.71875H7.72656H7.73438H7.74219H7.75H7.75781H7.76562H7.77344H7.78125H7.78906H7.79688H7.80469H7.8125H7.82031H7.82812H7.83594H7.84375H7.85156H7.85938H7.86719H7.875H7.88281H7.89062H7.89844H7.90625H7.91406H7.92188H7.92969H7.9375H7.94531H7.95312H7.96094H7.96875H7.97656H7.98438H7.99219H8H8.00781H8.01562H8.02344H8.03125H8.03906H8.04688H8.05469H8.0625H8.07031H8.07812H8.08594H8.09375H8.10156H8.10938H8.11719H8.125H8.13281H8.14062H8.14844H8.15625H8.16406H8.17188H8.17969H8.1875H8.19531H8.20312H8.21094H8.21875H8.22656H8.23438H8.24219H8.25H8.25781H8.26562H8.27344H8.28125H8.28906H8.29688H8.30469H8.3125H8.32031H8.32812H8.33594H8.34375H8.35156H8.35938H8.36719H8.375H8.38281H8.39062H8.39844H8.40625H8.41406H8.42188H8.42969H8.4375H8.44531H8.45312H8.46094H8.46875H8.47656H8.48438H8.49219H8.5H8.50781H8.51562H8.52344H8.53125H8.53906H8.54688H8.55469H8.5625H8.57031H8.57812H8.58594H8.59375H8.60156H8.60938H8.61719H8.625H8.63281H8.64062H8.64844H8.65625H8.66406H8.67188H8.67969H8.6875H8.69531H8.70312H8.71094H8.71875H8.72656H8.73438H8.74219H8.75H8.75781H8.76562H8.77344H8.78125H8.78906H8.79688H8.80469H8.8125H8.82031H8.82812H8.83594H8.84375H8.85156H8.85938H8.86719H8.875H8.88281H8.89062H8.89844H8.90625H8.91406H8.92188H8.92969H8.9375H8.94531H8.95312H8.96094H8.96875H8.97656H8.98438H8.99219H9H9.00781H9.01562H9.02344H9.03125H9.03906H9.04688H9.05469H9.0625H9.07031H9.07812H9.08594H9.09375H9.10156H9.10938H9.11719H9.125H9.13281H9.14062H9.14844H9.15625H9.16406H9.17188H9.17969H9.1875H9.19531H9.20312H9.21094H9.21875H9.22656H9.23438H9.24219H9.25H9.25781H9.26562H9.27344H9.28125H9.28906H9.29688H9.30469H9.3125H9.32031H9.32812H9.33594H9.34375H9.35156H9.35938H9.36719H9.375H9.38281H9.39062H9.39844H9.40625H9.41406H9.42188H9.42969H9.4375H9.44531H9.45312H9.46094H9.46875H9.47656H9.48438H9.49219H9.5H9.50781H9.51562H9.52344H9.53125H9.53906H9.54688H9.55469H9.5625H9.57031H9.57812H9.58594H9.59375H9.60156H9.60938H9.61719H9.625H9.63281H9.64062H9.64844H9.65625H9.66406H9.67188H9.67969H9.6875H9.69531H9.70312H9.71094H9.71875H9.72656H9.73438H9.74219H9.75H9.75781H9.76562H9.77344H9.78125H9.78906H9.79688H9.80469H9.8125H9.82031H9.82812H9.83594H9.84375H9.85156H9.85938H9.86719H9.875H9.88281H9.89062H9.89844H9.90625H9.91406H9.92188H9.92969H9.9375H9.94531H9.95312H9.96094H9.96875H9.97656H9.98438H9.99219H10C10.5523 9 11 9.44771 11 10C11 10.5523 10.5523 11 10 11H9.99219H9.98438H9.97656H9.96875H9.96094H9.95312H9.94531H9.9375H9.92969H9.92188H9.91406H9.90625H9.89844H9.89062H9.88281H9.875H9.86719H9.85938H9.85156H9.84375H9.83594H9.82812H9.82031H9.8125H9.80469H9.79688H9.78906H9.78125H9.77344H9.76562H9.75781H9.75H9.74219H9.73438H9.72656H9.71875H9.71094H9.70312H9.69531H9.6875H9.67969H9.67188H9.66406H9.65625H9.64844H9.64062H9.63281H9.625H9.61719H9.60938H9.60156H9.59375H9.58594H9.57812H9.57031H9.5625H9.55469H9.54688H9.53906H9.53125H9.52344H9.51562H9.50781H9.5H9.49219H9.48438H9.47656H9.46875H9.46094H9.45312H9.44531H9.4375H9.42969H9.42188H9.41406H9.40625H9.39844H9.39062H9.38281H9.375H9.36719H9.35938H9.35156H9.34375H9.33594H9.32812H9.32031H9.3125H9.30469H9.29688H9.28906H9.28125H9.27344H9.26562H9.25781H9.25H9.24219H9.23438H9.22656H9.21875H9.21094H9.20312H9.19531H9.1875H9.17969H9.17188H9.16406H9.15625H9.14844H9.14062H9.13281H9.125H9.11719H9.10938H9.10156H9.09375H9.08594H9.07812H9.07031H9.0625H9.05469H9.04688H9.03906H9.03125H9.02344H9.01562H9.00781H9H8.99219H8.98438H8.97656H8.96875H8.96094H8.95312H8.94531H8.9375H8.92969H8.92188H8.91406H8.90625H8.89844H8.89062H8.88281H8.875H8.86719H8.85938H8.85156H8.84375H8.83594H8.82812H8.82031H8.8125H8.80469H8.79688H8.78906H8.78125H8.77344H8.76562H8.75781H8.75H8.74219H8.73438H8.72656H8.71875H8.71094H8.70312H8.69531H8.6875H8.67969H8.67188H8.66406H8.65625H8.64844H8.64062H8.63281H8.625H8.61719H8.60938H8.60156H8.59375H8.58594H8.57812H8.57031H8.5625H8.55469H8.54688H8.53906H8.53125H8.52344H8.51562H8.50781H8.5H8.49219H8.48438H8.47656H8.46875H8.46094H8.45312H8.44531H8.4375H8.42969H8.42188H8.41406H8.40625H8.39844H8.39062H8.38281H8.375H8.36719H8.35938H8.35156H8.34375H8.33594H8.32812H8.32031H8.3125H8.30469H8.29688H8.28906H8.28125H8.27344H8.26562H8.25781H8.25H8.24219H8.23438H8.22656H8.21875H8.21094H8.20312H8.19531H8.1875H8.17969H8.17188H8.16406H8.15625H8.14844H8.14062H8.13281H8.125H8.11719H8.10938H8.10156H8.09375H8.08594H8.07812H8.07031H8.0625H8.05469H8.04688H8.03906H8.03125H8.02344H8.01562H8.00781H8H7.99219H7.98438H7.97656H7.96875H7.96094H7.95312H7.94531H7.9375H7.92969H7.92188H7.91406H7.90625H7.89844H7.89062H7.88281H7.875H7.86719H7.85938H7.85156H7.84375H7.83594H7.82812H7.82031H7.8125H7.80469H7.79688H7.78906H7.78125H7.77344H7.76562H7.75781H7.75H7.74219H7.73438H7.72656H7.71875H7.71094H7.70312H7.69531H7.6875H7.67969H7.67188H7.66406H7.65625H7.64844H7.64062H7.63281H7.625H7.61719H7.60938H7.60156H7.59375H7.58594H7.57812H7.57031H7.5625H7.55469H7.54688H7.53906H7.53125H7.52344H7.51562H7.50781H7.5H7.49219H7.48438H7.47656H7.46875H7.46094H7.45312H7.44531H7.4375H7.42969H7.42188H7.41406H7.40625H7.39844H7.39062H7.38281H7.375H7.36719H7.35938H7.35156H7.34375H7.33594H7.32812H7.32031H7.3125H7.30469H7.29688H7.28906H7.28125H7.27344H7.26562H7.25781H7.25H7.24219H7.23438H7.22656H7.21875H7.21094H7.20312H7.19531H7.1875H7.17969H7.17188H7.16406H7.15625H7.14844H7.14062H7.13281H7.125H7.11719H7.10938H7.10156H7.09375H7.08594H7.07812H7.07031H7.0625H7.05469H7.04688H7.03906H7.03125H7.02344H7.01562H7.00781H7H6.99219H6.98438H6.97656H6.96875H6.96094H6.95312H6.94531H6.9375H6.92969H6.92188H6.91406H6.90625H6.89844H6.89062H6.88281H6.875H6.86719H6.85938H6.85156H6.84375H6.83594H6.82812H6.82031H6.8125H6.80469H6.79688H6.78906H6.78125H6.77344H6.76562H6.75781H6.75H6.74219H6.73438H6.72656H6.71875H6.71094H6.70312H6.69531H6.6875H6.67969H6.67188H6.66406H6.65625H6.64844H6.64062H6.63281H6.625H6.61719H6.60938H6.60156H6.59375H6.58594H6.57812H6.57031H6.5625H6.55469H6.54688H6.53906H6.53125H6.52344H6.51562H6.50781H6.5H6.49219H6.48438H6.47656H6.46875H6.46094H6.45312H6.44531H6.4375H6.42969H6.42188H6.41406H6.40625H6.39844H6.39062H6.38281H6.375H6.36719H6.35938H6.35156H6.34375H6.33594H6.32812H6.32031H6.3125H6.30469H6.29688H6.28906H6.28125H6.27344H6.26562H6.25781H6.25H6.24219H6.23438H6.22656H6.21875H6.21094H6.20312H6.19531H6.1875H6.17969H6.17188H6.16406H6.15625H6.14844H6.14062H6.13281H6.125H6.11719H6.10938H6.10156H6.09375H6.08594H6.07812H6.07031H6.0625H6.05469H6.04688H6.03906H6.03125H6.02344H6.01562H6.00781H6Z" fill="#525252"/>
</g>
<defs>
<clipPath id="clip0_19_311">
<rect width="16" height="16" fill="white"/>
</clipPath>
</defs>
</svg>
