<svg width="16" height="16" viewBox="0 0 16 16" fill="none" xmlns="http://www.w3.org/2000/svg">
<g clip-path="url(#clip0_5_552)">
<path opacity="0.15" d="M15 8H1L2 13H14L15 8Z" fill="#525252"/>
<path fill-rule="evenodd" clip-rule="evenodd" d="M4.68945 1.99987C4.73532 1.99993 4.78165 1.99999 4.82843 1.99999C4.84776 1.99999 4.86693 1.99998 4.88594 1.99997C5.16676 1.99979 5.41388 1.99963 5.65741 2.03959C6.11342 2.11443 6.54598 2.2936 6.92135 2.56314C7.12181 2.70708 7.29644 2.88193 7.49488 3.08063C7.50832 3.09408 7.52186 3.10764 7.53553 3.12131L7.76985 3.35563C8.14941 3.73519 8.22848 3.80518 8.30593 3.85263C8.3954 3.90746 8.49294 3.94787 8.59498 3.97236C8.6833 3.99357 8.7887 3.99999 9.32548 3.99999H11L11.032 3.99999C11.4706 3.99998 11.8491 3.99997 12.1624 4.02134C12.4922 4.04385 12.8221 4.09335 13.148 4.22836C13.8831 4.53284 14.4672 5.11686 14.7716 5.85194C14.9066 6.17787 14.9561 6.50778 14.9786 6.83761C14.9822 6.88993 14.9852 6.94406 14.9877 6.99999H15C15.2996 6.99999 15.5834 7.13432 15.7733 7.36601C15.9633 7.59769 16.0393 7.90233 15.9806 8.19611L15.4951 10.6237L15.4884 10.6569C15.4025 11.0867 15.3275 11.4615 15.2418 11.7695C15.1504 12.0977 15.0298 12.4172 14.8203 12.7172C14.5039 13.1705 14.0684 13.5275 13.5618 13.7489C13.2265 13.8954 12.8896 13.9511 12.5499 13.9763C12.231 14 11.8488 14 11.4105 14H11.3766H4.62337H4.58947C4.15118 14 3.769 14 3.45009 13.9763C3.11042 13.9511 2.77347 13.8954 2.43822 13.7489C1.93165 13.5275 1.4961 13.1705 1.17966 12.7172C0.970244 12.4172 0.849615 12.0977 0.758244 11.7695C0.67246 11.4615 0.597521 11.0867 0.511582 10.6569L0.504933 10.6237L0.0194182 8.19611C-0.0393368 7.90233 0.0367181 7.59769 0.226657 7.36601C0.416596 7.13432 0.700406 6.99999 0.999999 6.99999V5.82842C0.999999 5.78164 0.999938 5.73532 0.999878 5.68944C0.999051 5.05833 0.998336 4.51259 1.15736 4.04115C1.45675 3.15355 2.15356 2.45674 3.04116 2.15735C3.5126 1.99833 4.05834 1.99905 4.68945 1.99987ZM2.2198 8.99999L2.46609 10.2314C2.56062 10.7041 2.62149 11.0052 2.68494 11.233C2.74501 11.4487 2.78981 11.5297 2.81962 11.5724C2.9251 11.7235 3.07029 11.8425 3.23915 11.9163C3.28687 11.9372 3.37503 11.9652 3.59833 11.9818C3.83422 11.9994 4.1414 12 4.62337 12H11.3766C11.8586 12 12.1658 11.9994 12.4017 11.9818C12.625 11.9652 12.7131 11.9372 12.7609 11.9163C12.9297 11.8425 13.0749 11.7235 13.1804 11.5724C13.2102 11.5297 13.255 11.4487 13.3151 11.233C13.3785 11.0052 13.4394 10.7041 13.5339 10.2314L13.7802 8.99999H2.2198ZM12.985 6.99999C12.9844 6.99115 12.9839 6.9824 12.9833 6.97375C12.9677 6.74576 12.9411 6.65892 12.9239 6.61731C12.8224 6.37228 12.6277 6.17761 12.3827 6.07611C12.3411 6.05888 12.2542 6.03226 12.0262 6.0167C11.7893 6.00054 11.4796 5.99999 11 5.99999H9.32548C9.29748 5.99999 9.26972 6.00002 9.24217 6.00005C8.83528 6.00042 8.47653 6.00076 8.12809 5.9171C7.82198 5.84361 7.52935 5.7224 7.26093 5.55791C6.95539 5.37068 6.70195 5.11677 6.4145 4.82878C6.39504 4.80929 6.37543 4.78964 6.35563 4.76984L6.12132 4.53553C5.85967 4.27388 5.80564 4.22419 5.75483 4.18771C5.62971 4.09786 5.48552 4.03814 5.33352 4.01319C5.27179 4.00306 5.19846 3.99999 4.82843 3.99999C3.97659 3.99999 3.79669 4.01322 3.68038 4.05245C3.38452 4.15224 3.15225 4.38451 3.05245 4.68038C3.01322 4.79668 3 4.97658 3 5.82842V6.99999H12.985Z" fill="#525252"/>
</g>
<defs>
<clipPath id="clip0_5_552">
<rect width="16" height="16" fill="white"/>
</clipPath>
</defs>
</svg>
