<svg width="16" height="16" viewBox="0 0 16 16" fill="none" xmlns="http://www.w3.org/2000/svg">
<g clip-path="url(#clip0_33_348)">
<path opacity="0.1" fill-rule="evenodd" clip-rule="evenodd" d="M2.58579 6.41421C2.21071 6.78929 2 7.29799 2 7.82843V12C2 13.1046 2.89543 14 4 14H6V10C6 9.44771 6.44772 9 7 9H9C9.55228 9 10 9.44771 10 10V14H12C13.1046 14 14 13.1046 14 12V7.82843C14 7.29799 13.7893 6.78929 13.4142 6.41421L9.41421 2.41421C8.63316 1.63316 7.36683 1.63316 6.58579 2.41421L2.58579 6.41421Z" fill="#525252"/>
<path fill-rule="evenodd" clip-rule="evenodd" d="M7.29289 3.12132C7.68342 2.7308 8.31658 2.7308 8.70711 3.12132L13 7.41421V12C13 12.5523 12.5523 13 12 13H11V10C11 8.89543 10.1046 8 9 8H7C5.89543 8 5 8.89543 5 10V13H4C3.44772 13 3 12.5523 3 12V7.41421L7.29289 3.12132ZM7 13V10H9V13H7ZM10 15H12C13.6569 15 15 13.6569 15 12V9C15.2559 9 15.5118 8.90237 15.7071 8.70711C16.0976 8.31658 16.0976 7.68342 15.7071 7.29289L14.7071 6.29289L10.1213 1.70711C8.94975 0.535532 7.05025 0.535534 5.87868 1.70711L1.29289 6.29289L0.292893 7.29289C-0.0976311 7.68342 -0.0976311 8.31658 0.292893 8.70711C0.488155 8.90237 0.744078 9 1 9V12C1 13.6569 2.34315 15 4 15H6H10Z" fill="#525252"/>
</g>
<defs>
<clipPath id="clip0_33_348">
<rect width="16" height="16" fill="white"/>
</clipPath>
</defs>
</svg>
