<svg width="16" height="16" viewBox="0 0 16 16" fill="none" xmlns="http://www.w3.org/2000/svg">
<g clip-path="url(#clip0_10_1876)">
<path opacity="0.1" fill-rule="evenodd" clip-rule="evenodd" d="M12.816 14.564C11.9603 15 10.8402 15 8.6 15H7.4C5.15979 15 4.03969 15 3.18404 14.564C2.43139 14.1805 1.81947 13.5686 1.43597 12.816C1 11.9603 1 10.8402 1 8.6V7.4C1 5.15979 1 4.03969 1.43597 3.18404C1.81947 2.43139 2.43139 1.81947 3.18404 1.43597C4.03969 1 5.15979 1 7.4 1H8.6C10.8402 1 11.9603 1 12.816 1.43597C13.5686 1.81947 14.1805 2.43139 14.564 3.18404C15 4.03969 15 5.15979 15 7.4V8.6C15 10.8402 15 11.9603 14.564 12.816C14.1805 13.5686 13.5686 14.1805 12.816 14.564ZM8 11C9.65685 11 11 9.65685 11 8C11 6.34315 9.65685 5 8 5C6.34315 5 5 6.34315 5 8C5 9.65685 6.34315 11 8 11Z" fill="#525252"/>
<path fill-rule="evenodd" clip-rule="evenodd" d="M7.35719 0H7.4H8.6H8.64281C9.72659 -1.0252e-05 10.6007 -1.8239e-05 11.3086 0.0578178C12.0375 0.117367 12.6777 0.24318 13.27 0.544967C14.2108 1.02433 14.9757 1.78924 15.455 2.73005C15.7568 3.32234 15.8826 3.96253 15.9422 4.69138C16 5.39926 16 6.27342 16 7.35722V7.4V8.6V8.64278C16 9.72658 16 10.6007 15.9422 11.3086C15.8826 12.0375 15.7568 12.6777 15.455 13.27C14.9757 14.2108 14.2108 14.9757 13.27 15.455C12.6777 15.7568 12.0375 15.8826 11.3086 15.9422C10.6007 16 9.72658 16 8.64278 16H8.6H7.4H7.35722C6.27342 16 5.39926 16 4.69138 15.9422C3.96253 15.8826 3.32234 15.7568 2.73005 15.455C1.78924 14.9757 1.02433 14.2108 0.544967 13.27C0.24318 12.6777 0.117367 12.0375 0.0578178 11.3086C-1.8239e-05 10.6007 -1.0252e-05 9.72659 0 8.64281V8.6V7.4V7.35719C-1.0252e-05 6.27341 -1.8239e-05 5.39925 0.0578178 4.69138C0.117367 3.96253 0.24318 3.32234 0.544967 2.73005C1.02433 1.78924 1.78924 1.02433 2.73005 0.544967C3.32234 0.24318 3.96253 0.117367 4.69138 0.0578178C5.39925 -1.8239e-05 6.27341 -1.0252e-05 7.35719 0ZM4.85424 2.05118C4.24907 2.10062 3.90138 2.19279 3.63803 2.32698C3.07354 2.6146 2.6146 3.07354 2.32698 3.63803C2.19279 3.90138 2.10062 4.24907 2.05118 4.85424C2.00078 5.47108 2 6.26339 2 7.4V8.6C2 9.73661 2.00078 10.5289 2.05118 11.1458C2.10062 11.7509 2.19279 12.0986 2.32698 12.362C2.6146 12.9265 3.07354 13.3854 3.63803 13.673C3.90138 13.8072 4.24907 13.8994 4.85424 13.9488C5.47108 13.9992 6.26339 14 7.4 14H8.6C9.73661 14 10.5289 13.9992 11.1458 13.9488C11.7509 13.8994 12.0986 13.8072 12.362 13.673C12.9265 13.3854 13.3854 12.9265 13.673 12.362C13.8072 12.0986 13.8994 11.7509 13.9488 11.1458C13.9992 10.5289 14 9.73661 14 8.6V7.4C14 6.26339 13.9992 5.47108 13.9488 4.85424C13.8994 4.24907 13.8072 3.90138 13.673 3.63803C13.3854 3.07354 12.9265 2.6146 12.362 2.32698C12.0986 2.19279 11.7509 2.10062 11.1458 2.05118C10.5289 2.00078 9.73661 2 8.6 2H7.4C6.26339 2 5.47108 2.00078 4.85424 2.05118ZM8 6C6.89543 6 6 6.89543 6 8C6 9.10457 6.89543 10 8 10C9.10457 10 10 9.10457 10 8C10 6.89543 9.10457 6 8 6ZM4 8C4 5.79086 5.79086 4 8 4C10.2091 4 12 5.79086 12 8C12 10.2091 10.2091 12 8 12C5.79086 12 4 10.2091 4 8ZM12 5C12.5523 5 13 4.55228 13 4C13 3.44772 12.5523 3 12 3C11.4477 3 11 3.44772 11 4C11 4.55228 11.4477 5 12 5Z" fill="#525252"/>
</g>
<defs>
<clipPath id="clip0_10_1876">
<rect width="16" height="16" fill="white"/>
</clipPath>
</defs>
</svg>
