<svg width="16" height="16" viewBox="0 0 16 16" fill="none" xmlns="http://www.w3.org/2000/svg">
<g clip-path="url(#clip0_19_1213)">
<path opacity="0.1" d="M5.8 15H10.2C11.8802 15 12.7202 15 13.362 14.673C13.9265 14.3854 14.3854 13.9265 14.673 13.362C15 12.7202 15 11.8802 15 10.2V5.8C15 4.11984 15 3.27976 14.673 2.63803C14.3854 2.07354 13.9265 1.6146 13.362 1.32698C12.7202 1 11.8802 1 10.2 1H5.8C4.11984 1 3.27976 1 2.63803 1.32698C2.07354 1.6146 1.6146 2.07354 1.32698 2.63803C1 3.27976 1 4.11984 1 5.8V10.2C1 11.8802 1 12.7202 1.32698 13.362C1.6146 13.9265 2.07354 14.3854 2.63803 14.673C3.27976 15 4.11984 15 5.8 15Z" fill="#525252"/>
<path fill-rule="evenodd" clip-rule="evenodd" d="M5.8 0H5.7587C4.95373 -1.32322e-05 4.28937 -2.37226e-05 3.74817 0.0441936C3.18608 0.0901188 2.66937 0.188683 2.18404 0.435974C1.43139 0.819467 0.819467 1.43139 0.435974 2.18404C0.188683 2.66937 0.0901188 3.18608 0.0441936 3.74817C-2.37226e-05 4.28937 -1.32322e-05 4.95373 0 5.7587V5.8V10.2V10.2413C-1.32322e-05 11.0463 -2.37226e-05 11.7106 0.0441936 12.2518C0.0901188 12.8139 0.188683 13.3306 0.435974 13.816C0.819467 14.5686 1.43139 15.1805 2.18404 15.564C2.66937 15.8113 3.18608 15.9099 3.74817 15.9558C4.28937 16 4.95374 16 5.75872 16H5.8H10.2H10.2413C11.0463 16 11.7106 16 12.2518 15.9558C12.8139 15.9099 13.3306 15.8113 13.816 15.564C14.5686 15.1805 15.1805 14.5686 15.564 13.816C15.8113 13.3306 15.9099 12.8139 15.9558 12.2518C16 11.7106 16 11.0463 16 10.2413V10.2V5.8V5.75872C16 4.95374 16 4.28937 15.9558 3.74817C15.9099 3.18608 15.8113 2.66937 15.564 2.18404C15.1805 1.43139 14.5686 0.819467 13.816 0.435974C13.3306 0.188683 12.8139 0.0901188 12.2518 0.0441936C11.7106 -2.37226e-05 11.0463 -1.32322e-05 10.2413 0H10.2H5.8ZM3.09202 2.21799C3.24842 2.1383 3.47262 2.07337 3.91104 2.03755C4.36113 2.00078 4.94342 2 5.8 2H10.2C11.0566 2 11.6389 2.00078 12.089 2.03755C12.5274 2.07337 12.7516 2.1383 12.908 2.21799C13.2843 2.40973 13.5903 2.71569 13.782 3.09202C13.8617 3.24842 13.9266 3.47262 13.9624 3.91104C13.9992 4.36113 14 4.94342 14 5.8V10.2C14 11.0566 13.9992 11.6389 13.9624 12.089C13.9266 12.5274 13.8617 12.7516 13.782 12.908C13.5903 13.2843 13.2843 13.5903 12.908 13.782C12.7516 13.8617 12.5274 13.9266 12.089 13.9624C11.6389 13.9992 11.0566 14 10.2 14H5.8C4.94342 14 4.36113 13.9992 3.91104 13.9624C3.47262 13.9266 3.24842 13.8617 3.09202 13.782C2.71569 13.5903 2.40973 13.2843 2.21799 12.908C2.1383 12.7516 2.07337 12.5274 2.03755 12.089C2.00078 11.6389 2 11.0566 2 10.2V5.8C2 4.94342 2.00078 4.36113 2.03755 3.91104C2.07337 3.47262 2.1383 3.24842 2.21799 3.09202C2.40973 2.71569 2.71569 2.40973 3.09202 2.21799ZM6 7C6 6.44772 5.55228 6 5 6C4.44772 6 4 6.44772 4 7V12C4 12.5523 4.44772 13 5 13C5.55228 13 6 12.5523 6 12V7ZM6 4C6 4.55228 5.55228 5 5 5C4.44772 5 4 4.55228 4 4C4 3.44772 4.44772 3 5 3C5.55228 3 6 3.44772 6 4ZM7 7V9V12C7 12.5523 7.44772 13 8 13C8.55229 13 9 12.5523 9 12V9C9 8.64857 9.0898 8.40429 9.20572 8.26518C9.29491 8.15816 9.49048 8 10 8C10.5095 8 10.7051 8.15816 10.7943 8.26518C10.9102 8.40429 11 8.64857 11 9V9.00587V9.01176V9.01768V9.02362V9.02958V9.03556V9.04157V9.0476V9.05365V9.05972V9.06581V9.07192V9.07806V9.08421V9.09039V9.09659V9.10281V9.10905V9.11531V9.12159V9.12789V9.13421V9.14055V9.14691V9.15329V9.15969V9.16611V9.17254V9.179V9.18548V9.19197V9.19849V9.20502V9.21157V9.21814V9.22473V9.23133V9.23796V9.2446V9.25126V9.25793V9.26463V9.27134V9.27806V9.28481V9.29157V9.29835V9.30515V9.31196V9.31878V9.32563V9.33249V9.33937V9.34626V9.35316V9.36009V9.36703V9.37398V9.38095V9.38793V9.39493V9.40195V9.40897V9.41602V9.42307V9.43014V9.43723V9.44433V9.45144V9.45857V9.46571V9.47286V9.48002V9.4872V9.4944V9.5016V9.50882V9.51605V9.52329V9.53055V9.53782V9.54509V9.55239V9.55969V9.567V9.57433V9.58167V9.58902V9.59638V9.60375V9.61113V9.61852V9.62592V9.63334V9.64076V9.64819V9.65564V9.66309V9.67055V9.67803V9.68551V9.693V9.7005V9.70801V9.71553V9.72306V9.73059V9.73814V9.74569V9.75325V9.76082V9.7684V9.77599V9.78358V9.79118V9.79879V9.80641V9.81403V9.82166V9.8293V9.83694V9.84459V9.85225V9.85991V9.86758V9.87526V9.88294V9.89062V9.89832V9.90602V9.91372V9.92143V9.92915V9.93687V9.94459V9.95232V9.96005V9.96779V9.97554V9.98328V9.99104V9.99879V10.0065V10.0143V10.0221V10.0298V10.0376V10.0454V10.0532V10.061V10.0687V10.0765V10.0843V10.0921V10.0999V10.1077V10.1155V10.1233V10.1311V10.1389V10.1467V10.1545V10.1623V10.1701V10.178V10.1858V10.1936V10.2014V10.2092V10.217V10.2248V10.2326V10.2405V10.2483V10.2561V10.2639V10.2717V10.2795V10.2873V10.2951V10.3029V10.3107V10.3185V10.3263V10.3341V10.3419V10.3497V10.3575V10.3653V10.3731V10.3809V10.3887V10.3965V10.4042V10.412V10.4198V10.4275V10.4353V10.4431V10.4508V10.4586V10.4663V10.4741V10.4818V10.4895V10.4973V10.505V10.5127V10.5204V10.5282V10.5359V10.5436V10.5513V10.5589V10.5666V10.5743V10.582V10.5896V10.5973V10.605V10.6126V10.6202V10.6279V10.6355V10.6431V10.6507V10.6583V10.6659V10.6735V10.6811V10.6887V10.6962V10.7038V10.7113V10.7189V10.7264V10.7339V10.7414V10.7489V10.7564V10.7639V10.7714V10.7789V10.7863V10.7938V10.8012V10.8086V10.8161V10.8235V10.8309V10.8382V10.8456V10.853V10.8603V10.8677V10.875V10.8823V10.8896V10.8969V10.9042V10.9115V10.9187V10.926V10.9332V10.9404V10.9476V10.9548V10.962V10.9692V10.9764V10.9835V10.9906V10.9977V11.0049V11.0119V11.019V11.0261V11.0331V11.0402V11.0472V11.0542V11.0612V11.0681V11.0751V11.082V11.089V11.0959V11.1028V11.1097V11.1165V11.1234V11.1302V11.137V11.1438V11.1506V11.1574V11.1641V11.1709V11.1776V11.1843V11.191V11.1976V11.2043V11.2109V11.2175V11.2241V11.2307V11.2372V11.2438V11.2503V11.2568V11.2633V11.2698V11.2762V11.2826V11.289V11.2954V11.3018V11.3081V11.3145V11.3208V11.327V11.3333V11.3396V11.3458V11.352V11.3582V11.3643V11.3705V11.3766V11.3827V11.3888V11.3948V11.4009V11.4069V11.4129V11.4188V11.4248V11.4307V11.4366V11.4425V11.4483V11.4542V11.46V11.4658V11.4715V11.4773V11.483V11.4887V11.4944V11.5V11.5056V11.5112V11.5168V11.5223V11.5278V11.5333V11.5388V11.5443V11.5497V11.5551V11.5605V11.5658V11.5711V11.5764V11.5817V11.5869V11.5921V11.5973V11.6025V11.6076V11.6127V11.6178V11.6229V11.6279V11.6329V11.6379V11.6428V11.6477V11.6526V11.6575V11.6623V11.6671V11.6719V11.6766V11.6813V11.686V11.6907V11.6953V11.6999V11.7045V11.709V11.7135V11.718V11.7225V11.7269V11.7313V11.7357V11.74V11.7443V11.7486V11.7528V11.757V11.7612V11.7653V11.7694V11.7735V11.7776V11.7816V11.7856V11.7895V11.7935V11.7974V11.8012V11.805V11.8088V11.8126V11.8163V11.82V11.8237V11.8273V11.8309V11.8345V11.838V11.8415V11.8449V11.8484V11.8517V11.8551V11.8584V11.8617V11.865V11.8682V11.8714V11.8745V11.8776V11.8807V11.8837V11.8867V11.8897V11.8926V11.8955V11.8984V11.9012V11.904V11.9067V11.9094V11.9121V11.9147V11.9173V11.9199V11.9224V11.9249V11.9274V11.9298V11.9321V11.9345V11.9368V11.939V11.9413V11.9434V11.9456V11.9477V11.9497V11.9518V11.9537V11.9557V11.9576V11.9595V11.9613V11.9631V11.9648V11.9665V11.9682V11.9698V11.9714V11.9729V11.9744V11.9759V11.9773V11.9787V11.98V11.9813V11.9825V11.9838V11.9849V11.986V11.9871V11.9882V11.9892V11.9901V11.991V11.9919V11.9927V11.9935V11.9942V11.9949V11.9956V11.9962V11.9967V11.9973V11.9977V11.9982V11.9985V11.9989V11.9992V11.9994V11.9996V11.9998V11.9999V12L12 12H11C11 12.5523 11.4477 13 12 13C12.5523 13 13 12.5523 13 12H12L13 12V11.9999V11.9998V11.9996V11.9994V11.9992V11.9989V11.9985V11.9982V11.9977V11.9973V11.9967V11.9962V11.9956V11.9949V11.9942V11.9935V11.9927V11.9919V11.991V11.9901V11.9892V11.9882V11.9871V11.986V11.9849V11.9838V11.9825V11.9813V11.98V11.9787V11.9773V11.9759V11.9744V11.9729V11.9714V11.9698V11.9682V11.9665V11.9648V11.9631V11.9613V11.9595V11.9576V11.9557V11.9537V11.9518V11.9497V11.9477V11.9456V11.9434V11.9413V11.939V11.9368V11.9345V11.9321V11.9298V11.9274V11.9249V11.9224V11.9199V11.9173V11.9147V11.9121V11.9094V11.9067V11.904V11.9012V11.8984V11.8955V11.8926V11.8897V11.8867V11.8837V11.8807V11.8776V11.8745V11.8714V11.8682V11.865V11.8617V11.8584V11.8551V11.8517V11.8484V11.8449V11.8415V11.838V11.8345V11.8309V11.8273V11.8237V11.82V11.8163V11.8126V11.8088V11.805V11.8012V11.7974V11.7935V11.7895V11.7856V11.7816V11.7776V11.7735V11.7694V11.7653V11.7612V11.757V11.7528V11.7486V11.7443V11.74V11.7357V11.7313V11.7269V11.7225V11.718V11.7135V11.709V11.7045V11.6999V11.6953V11.6907V11.686V11.6813V11.6766V11.6719V11.6671V11.6623V11.6575V11.6526V11.6477V11.6428V11.6379V11.6329V11.6279V11.6229V11.6178V11.6127V11.6076V11.6025V11.5973V11.5921V11.5869V11.5817V11.5764V11.5711V11.5658V11.5605V11.5551V11.5497V11.5443V11.5388V11.5333V11.5278V11.5223V11.5168V11.5112V11.5056V11.5V11.4944V11.4887V11.483V11.4773V11.4715V11.4658V11.46V11.4542V11.4483V11.4425V11.4366V11.4307V11.4248V11.4188V11.4129V11.4069V11.4009V11.3948V11.3888V11.3827V11.3766V11.3705V11.3643V11.3582V11.352V11.3458V11.3396V11.3333V11.327V11.3208V11.3145V11.3081V11.3018V11.2954V11.289V11.2826V11.2762V11.2698V11.2633V11.2568V11.2503V11.2438V11.2372V11.2307V11.2241V11.2175V11.2109V11.2043V11.1976V11.191V11.1843V11.1776V11.1709V11.1641V11.1574V11.1506V11.1438V11.137V11.1302V11.1234V11.1165V11.1097V11.1028V11.0959V11.089V11.082V11.0751V11.0681V11.0612V11.0542V11.0472V11.0402V11.0331V11.0261V11.019V11.0119V11.0049V10.9977V10.9906V10.9835V10.9764V10.9692V10.962V10.9548V10.9476V10.9404V10.9332V10.926V10.9187V10.9115V10.9042V10.8969V10.8896V10.8823V10.875V10.8677V10.8603V10.853V10.8456V10.8382V10.8309V10.8235V10.8161V10.8086V10.8012V10.7938V10.7863V10.7789V10.7714V10.7639V10.7564V10.7489V10.7414V10.7339V10.7264V10.7189V10.7113V10.7038V10.6962V10.6887V10.6811V10.6735V10.6659V10.6583V10.6507V10.6431V10.6355V10.6279V10.6202V10.6126V10.605V10.5973V10.5896V10.582V10.5743V10.5666V10.5589V10.5513V10.5436V10.5359V10.5282V10.5204V10.5127V10.505V10.4973V10.4895V10.4818V10.4741V10.4663V10.4586V10.4508V10.4431V10.4353V10.4275V10.4198V10.412V10.4042V10.3965V10.3887V10.3809V10.3731V10.3653V10.3575V10.3497V10.3419V10.3341V10.3263V10.3185V10.3107V10.3029V10.2951V10.2873V10.2795V10.2717V10.2639V10.2561V10.2483V10.2405V10.2326V10.2248V10.217V10.2092V10.2014V10.1936V10.1858V10.178V10.1701V10.1623V10.1545V10.1467V10.1389V10.1311V10.1233V10.1155V10.1077V10.0999V10.0921V10.0843V10.0765V10.0687V10.061V10.0532V10.0454V10.0376V10.0298V10.0221V10.0143V10.0065V9.99879V9.99104V9.98328V9.97554V9.96779V9.96005V9.95232V9.94459V9.93687V9.92915V9.92143V9.91372V9.90602V9.89832V9.89062V9.88294V9.87526V9.86758V9.85991V9.85225V9.84459V9.83694V9.8293V9.82166V9.81403V9.80641V9.79879V9.79118V9.78358V9.77599V9.7684V9.76082V9.75325V9.74569V9.73814V9.73059V9.72306V9.71553V9.70801V9.7005V9.693V9.68551V9.67803V9.67055V9.66309V9.65564V9.64819V9.64076V9.63334V9.62592V9.61852V9.61113V9.60375V9.59638V9.58902V9.58167V9.57433V9.567V9.55969V9.55239V9.54509V9.53782V9.53055V9.52329V9.51605V9.50882V9.5016V9.4944V9.4872V9.48002V9.47286V9.46571V9.45857V9.45144V9.44433V9.43723V9.43014V9.42307V9.41602V9.40897V9.40195V9.39493V9.38793V9.38095V9.37398V9.36703V9.36009V9.35316V9.34626V9.33937V9.33249V9.32563V9.31878V9.31196V9.30515V9.29835V9.29157V9.28481V9.27806V9.27134V9.26463V9.25793V9.25126V9.2446V9.23796V9.23133V9.22473V9.21814V9.21157V9.20502V9.19849V9.19197V9.18548V9.179V9.17254V9.16611V9.15969V9.15329V9.14691V9.14055V9.13421V9.12789V9.12159V9.11531V9.10905V9.10281V9.09659V9.09039V9.08421V9.07806V9.07192V9.06581V9.05972V9.05365V9.0476V9.04157V9.03556V9.02958V9.02362V9.01768V9.01176V9.00587V9C13 8.35143 12.8398 7.59571 12.3307 6.98482C11.7949 6.34184 10.9905 6 10 6C9.50441 6 9.0554 6.08558 8.66331 6.25164C8.4868 6.09507 8.2545 6 8 6C7.44772 6 7 6.44772 7 7Z" fill="#525252"/>
</g>
<defs>
<clipPath id="clip0_19_1213">
<rect width="16" height="16" fill="white"/>
</clipPath>
</defs>
</svg>
