<svg width="16" height="16" viewBox="0 0 16 16" fill="none" xmlns="http://www.w3.org/2000/svg">
<path fill-rule="evenodd" clip-rule="evenodd" d="M4.02229 5C4.8127 5 4.96938 5.01305 5.09 5.05465C5.23013 5.10299 5.35776 5.18187 5.46365 5.28558C5.55481 5.37487 5.63655 5.50917 5.99003 6.21613L8.22111 10.6783L8.27663 10.7896L8.27664 10.7896C8.54138 11.3208 8.7742 11.788 9.13691 12.1433C9.4546 12.4544 9.83748 12.691 10.2579 12.836C10.7378 13.0016 11.2598 13.0009 11.8533 13.0001L11.9777 13H13C13.5523 13 14 12.5523 14 12C14 11.4477 13.5523 11 13 11H11.9777C11.1873 11 11.0306 10.987 10.91 10.9453C10.7699 10.897 10.6422 10.8181 10.5363 10.7144C10.4452 10.6251 10.3635 10.4908 10.01 9.78387L7.77889 5.3217L7.72337 5.21042C7.45862 4.67917 7.2258 4.21199 6.86309 3.85675C6.5454 3.5456 6.16252 3.30896 5.74215 3.16396C5.26219 2.99842 4.74021 2.99911 4.14666 2.99989L4.02229 3H3C2.44772 3 2 3.44772 2 4C2 4.55228 2.44772 5 3 5H4.02229ZM10 3C9.44772 3 9 3.44772 9 4C9 4.55228 9.44772 5 10 5H13C13.5523 5 14 4.55228 14 4C14 3.44772 13.5523 3 13 3H10Z" fill="#525252"/>
</svg>
