<svg width="16" height="16" viewBox="0 0 16 16" fill="none" xmlns="http://www.w3.org/2000/svg">
<path fill-rule="evenodd" clip-rule="evenodd" d="M7.29289 2.29289C7.68342 1.90237 8.31658 1.90237 8.70711 2.29289C10.2444 3.83021 11.5219 5.36366 12.4144 6.51106C12.8612 7.08558 13.2131 7.56536 13.4544 7.90314C13.575 8.07208 13.6681 8.20564 13.7317 8.29793C13.7635 8.34408 13.7879 8.37992 13.8047 8.40473L13.8242 8.43357L13.8296 8.4416L13.8312 8.444L13.8317 8.44479L13.8319 8.44508C13.832 8.44519 13.8321 8.4453 13 9L13.8321 8.4453C14.0366 8.75216 14.0557 9.1467 13.8817 9.47186C13.7077 9.79702 13.3688 10 13 10H11V12.2C11 12.2076 11 12.2153 11 12.2231C11.0001 12.3422 11.0001 12.4845 10.9899 12.6098C10.978 12.755 10.9476 12.963 10.8365 13.181C10.6927 13.4632 10.4632 13.6927 10.181 13.8365C9.96304 13.9476 9.75505 13.978 9.60983 13.9899C9.48451 14.0001 9.34225 14.0001 9.22313 14C9.21532 14 9.2076 14 9.2 14H6.8C6.7924 14 6.78468 14 6.77687 14C6.65775 14.0001 6.51549 14.0001 6.39017 13.9899C6.24495 13.978 6.03696 13.9476 5.81902 13.8365C5.53677 13.6927 5.3073 13.4632 5.16349 13.181C5.05244 12.963 5.022 12.755 5.01013 12.6098C4.99989 12.4845 4.99995 12.3423 4.99999 12.2231C5 12.2153 5 12.2076 5 12.2V10H3C2.63121 10 2.29235 9.79702 2.11833 9.47186C1.94431 9.1467 1.96338 8.75216 2.16795 8.4453L3 9C2.16795 8.4453 2.16802 8.44519 2.1681 8.44508L2.16829 8.44479L2.16882 8.444L2.17042 8.4416L2.17581 8.43357L2.19528 8.40473C2.21208 8.37992 2.2365 8.34408 2.26829 8.29793C2.33187 8.20564 2.42497 8.07208 2.54564 7.90314C2.78691 7.56536 3.1388 7.08558 3.58565 6.51106C4.47807 5.36366 5.75558 3.83021 7.29289 2.29289ZM4.96284 8H5.2C5.20761 8 5.21532 8 5.22314 7.99999C5.34226 7.99995 5.48451 7.99989 5.60983 8.01013C5.75505 8.022 5.96304 8.05244 6.18099 8.16349C6.46323 8.3073 6.6927 8.53677 6.83651 8.81901C6.94756 9.03696 6.978 9.24495 6.98987 9.39017C7.00011 9.51549 7.00005 9.65774 7.00001 9.77686C7 9.78468 7 9.79239 7 9.8V12H9V9.8C9 9.79239 9 9.78468 8.99999 9.77686C8.99995 9.65774 8.99989 9.51549 9.01013 9.39017C9.022 9.24495 9.05244 9.03696 9.16349 8.81901C9.3073 8.53677 9.53677 8.3073 9.81901 8.16349C10.037 8.05244 10.245 8.022 10.3902 8.01013C10.5155 7.99989 10.6577 7.99995 10.7769 7.99999C10.7847 8 10.7924 8 10.8 8H11.0372C10.9725 7.91557 10.9053 7.82848 10.8356 7.73894C10.1202 6.81913 9.15089 5.64606 8 4.43323C6.84911 5.64606 5.87976 6.81913 5.16435 7.73894C5.09471 7.82848 5.02752 7.91557 4.96284 8Z" fill="#525252"/>
</svg>
