<svg width="16" height="16" viewBox="0 0 16 16" fill="none" xmlns="http://www.w3.org/2000/svg">
<path opacity="0.1" fill-rule="evenodd" clip-rule="evenodd" d="M8 14C12.375 14 15 11.4286 15 8C15 4.57143 12.375 2 8 2C3.625 2 1 4.57143 1 8C1 9.27639 1.3638 10.434 2.04627 11.3843L1 14C2.48262 14 3.69046 13.7252 4.62354 13.3794C5.58369 13.7787 6.71654 14 8 14Z" fill="#525252"/>
<path fill-rule="evenodd" clip-rule="evenodd" d="M2 8C2 6.55405 2.54674 5.33175 3.52443 4.46108C4.50964 3.58371 6.00679 3 8 3C9.99321 3 11.4904 3.58371 12.4756 4.46108C13.4533 5.33175 14 6.55405 14 8C14 9.44595 13.4533 10.6682 12.4756 11.5389C11.4904 12.4163 9.99321 13 8 13C6.83084 13 5.83082 12.7984 5.00754 12.456C4.77426 12.359 4.5129 12.3539 4.27599 12.4417C3.78314 12.6244 3.19861 12.7869 2.5215 12.8888L2.97474 11.7557C3.10162 11.4385 3.05779 11.0785 2.85853 10.801C2.30647 10.0323 2 9.08186 2 8ZM8 1C5.61821 1 3.61536 1.702 2.19432 2.96749C0.765762 4.23968 0 6.01738 0 8C0 9.27151 0.314687 10.4637 0.925075 11.4947L0.345801 12.9429C-0.0390671 13.9051 0.663841 15.0471 1.80164 14.9748C2.88286 14.9061 3.81804 14.7033 4.60562 14.4447C5.6151 14.8088 6.75517 15 8 15C10.3818 15 12.3846 14.298 13.8057 13.0325C15.2342 11.7603 16 9.98262 16 8C16 6.01738 15.2342 4.23968 13.8057 2.96749C12.3846 1.702 10.3818 1 8 1ZM5 9C5.55228 9 6 8.55228 6 8C6 7.44772 5.55228 7 5 7C4.44772 7 4 7.44772 4 8C4 8.55228 4.44772 9 5 9ZM9 8C9 8.55228 8.55228 9 8 9C7.44772 9 7 8.55228 7 8C7 7.44772 7.44772 7 8 7C8.55228 7 9 7.44772 9 8ZM11 9C11.5523 9 12 8.55228 12 8C12 7.44772 11.5523 7 11 7C10.4477 7 10 7.44772 10 8C10 8.55228 10.4477 9 11 9Z" fill="#525252"/>
</svg>
