<svg width="16" height="16" viewBox="0 0 16 16" fill="none" xmlns="http://www.w3.org/2000/svg">
<path opacity="0.1" fill-rule="evenodd" clip-rule="evenodd" d="M8 14C12.375 14 15 11.4286 15 8C15 4.57143 12.375 2 8 2C3.625 2 1 4.57143 1 8C1 9.27639 1.3638 10.434 2.04627 11.3843L1 14C2.48262 14 3.69046 13.7252 4.62354 13.3794C5.58369 13.7787 6.71654 14 8 14Z" fill="#525252"/>
<path fill-rule="evenodd" clip-rule="evenodd" d="M3.52443 4.46108C2.54674 5.33175 2 6.55405 2 8C2 9.08186 2.30647 10.0323 2.85853 10.801C3.05779 11.0785 3.10162 11.4385 2.97474 11.7557L2.5215 12.8888C3.19861 12.7869 3.78314 12.6244 4.27599 12.4417C4.5129 12.3539 4.77426 12.359 5.00754 12.456C5.83082 12.7984 6.83084 13 8 13C9.99321 13 11.4904 12.4163 12.4756 11.5389C13.4533 10.6682 14 9.44595 14 8C14 6.55405 13.4533 5.33175 12.4756 4.46108C11.4904 3.58372 9.99321 3 8 3C6.00679 3 4.50964 3.58372 3.52443 4.46108ZM2.19432 2.96749C3.61536 1.702 5.61821 1 8 1C10.3818 1 12.3846 1.702 13.8057 2.96749C15.2342 4.23968 16 6.01738 16 8C16 9.98262 15.2342 11.7603 13.8057 13.0325C12.3846 14.298 10.3818 15 8 15C6.75517 15 5.6151 14.8088 4.60562 14.4447C3.81804 14.7033 2.88286 14.9061 1.80164 14.9748C0.663841 15.0471 -0.0390671 13.9051 0.345801 12.9429L0.925075 11.4947C0.314687 10.4637 0 9.2715 0 8C0 6.01738 0.765762 4.23968 2.19432 2.96749Z" fill="#525252"/>
</svg>
