<svg width="16" height="16" viewBox="0 0 16 16" fill="none" xmlns="http://www.w3.org/2000/svg">
<g clip-path="url(#clip0_5_815)">
<circle opacity="0.1" cx="8" cy="8" r="7" fill="#525252"/>
<path fill-rule="evenodd" clip-rule="evenodd" d="M2 8C2 4.68629 4.68629 2 8 2C11.3137 2 14 4.68629 14 8C14 11.3137 11.3137 14 8 14C4.68629 14 2 11.3137 2 8ZM8 0C3.58172 0 0 3.58172 0 8C0 12.4183 3.58172 16 8 16C12.4183 16 16 12.4183 16 8C16 3.58172 12.4183 0 8 0ZM5 7C4.44772 7 4 7.44772 4 8C4 8.55229 4.44772 9 5 9H11C11.5523 9 12 8.55229 12 8C12 7.44772 11.5523 7 11 7H5Z" fill="#525252"/>
</g>
<defs>
<clipPath id="clip0_5_815">
<rect width="16" height="16" fill="white"/>
</clipPath>
</defs>
</svg>
