<svg width="16" height="16" viewBox="0 0 16 16" fill="none" xmlns="http://www.w3.org/2000/svg">
<path opacity="0.1" d="M6 12L4 14C3.44772 14.5523 2.55228 14.5523 2 14C1.44772 13.4477 1.44771 12.5523 2 12L4 10C4.27262 9.72738 4.40894 9.59106 4.48181 9.44402C4.62045 9.16424 4.62045 8.83576 4.48181 8.55598C4.40894 8.40894 4.27262 8.27262 4 8C3.72738 7.72738 3.59106 7.59106 3.51819 7.44402C3.37955 7.16424 3.37955 6.83576 3.51819 6.55598C3.59106 6.40894 3.72737 6.27263 4 6L4 6L5 5L11 11L10 12C9.72738 12.2726 9.59106 12.4089 9.44402 12.4818C9.16424 12.6204 8.83576 12.6204 8.55598 12.4818C8.40894 12.4089 8.27262 12.2726 8 12C7.72738 11.7274 7.59106 11.5911 7.44402 11.5182C7.16424 11.3796 6.83576 11.3796 6.55598 11.5182C6.40894 11.5911 6.27263 11.7274 6 12Z" fill="#525252"/>
<path fill-rule="evenodd" clip-rule="evenodd" d="M8.53044 1.15228L8 2C8.53044 1.15228 8.53051 1.15232 8.53058 1.15237L8.53079 1.1525L8.53138 1.15287L8.53328 1.15406L8.53996 1.15825L8.56448 1.17371C8.58566 1.18709 8.61636 1.20656 8.65559 1.23161C8.73405 1.28171 8.84675 1.35423 8.98579 1.44521C9.26356 1.62698 9.64802 1.88345 10.0755 2.18281C10.9153 2.77087 11.977 3.56278 12.7071 4.29289C13.4545 5.04033 14.0054 5.8708 14.3661 6.5016C14.5481 6.81973 14.6855 7.09391 14.7787 7.29132C14.8253 7.39019 14.861 7.47024 14.8859 7.52746C14.8983 7.55608 14.908 7.57902 14.915 7.59579L14.9235 7.61626L14.9262 7.62291L14.9272 7.62532L14.9275 7.6263L14.9277 7.62673C14.9278 7.62692 14.9279 7.62712 14 8L14.9279 7.62712C15.0773 7.99884 14.9904 8.42383 14.7071 8.70711L11.7071 11.7071L10.7071 12.7071L10.648 12.7665C10.4424 12.9736 10.1896 13.2284 9.88803 13.3778C9.32848 13.6551 8.67152 13.6551 8.11197 13.3778C7.81039 13.2284 7.55756 12.9736 7.35202 12.7665L7.29289 12.7071C7.14859 12.5628 7.06943 12.4842 7.0089 12.4301L7 12.4223L6.9911 12.4301C6.93057 12.4842 6.85141 12.5628 6.70711 12.7071L4.70711 14.7071C3.7643 15.6499 2.2357 15.6499 1.29289 14.7071C0.350084 13.7643 0.350081 12.2357 1.29289 11.2929L3.29289 9.29289C3.43719 9.1486 3.51583 9.06943 3.56987 9.0089L3.57774 9L3.56987 8.9911C3.51583 8.93057 3.43719 8.85141 3.29289 8.70711L3.23346 8.64797L3.23345 8.64797C3.02636 8.44243 2.77162 8.1896 2.62217 7.88803C2.34489 7.32848 2.34489 6.67152 2.62217 6.11197C2.77162 5.8104 3.02636 5.55757 3.23346 5.35203L3.29289 5.29289L4.29289 4.29289L7.29289 1.29289C7.6223 0.963487 8.13553 0.905172 8.53044 1.15228ZM10.547 5.03883L10.2929 5.29289C9.90237 5.68342 9.90237 6.31658 10.2929 6.70711C10.6834 7.09763 11.3166 7.09763 11.7071 6.70711L11.9501 6.46407C12.2236 6.82331 12.4509 7.18139 12.63 7.4945C12.6907 7.6006 12.7452 7.70048 12.7936 7.79222L11 9.58579L6.41421 5L8.13457 3.27964C8.36293 3.43147 8.63526 3.61586 8.92836 3.8211C9.46234 4.19501 10.0421 4.62221 10.547 5.03883ZM5 6.41421L4.70711 6.70711C4.56281 6.85141 4.48417 6.93057 4.43013 6.9911L4.42225 7L4.43013 7.0089C4.48417 7.06943 4.56281 7.1486 4.70711 7.29289L4.76654 7.35203L4.76655 7.35203C4.97364 7.55757 5.22838 7.8104 5.37782 8.11197C5.65511 8.67152 5.65511 9.32848 5.37782 9.88803C5.22838 10.1896 4.97365 10.4424 4.76655 10.648L4.76655 10.648L4.76654 10.648L4.70711 10.7071L2.7071 12.7071C2.54535 12.8689 2.54534 13.1311 2.70711 13.2929C2.86887 13.4547 3.13113 13.4547 3.29289 13.2929L5.29289 11.2929L5.35202 11.2335C5.55756 11.0264 5.81039 10.7716 6.11197 10.6222C6.67152 10.3449 7.32848 10.3449 7.88803 10.6222C8.1896 10.7716 8.44243 11.0264 8.64797 11.2335L8.70711 11.2929C8.8514 11.4372 8.93057 11.5158 8.9911 11.5699L9 11.5777L9.0089 11.5699C9.06943 11.5158 9.14859 11.4372 9.29289 11.2929L9.58579 11L5 6.41421Z" fill="#525252"/>
</svg>
