<svg width="16" height="16" viewBox="0 0 16 16" fill="none" xmlns="http://www.w3.org/2000/svg">
<g clip-path="url(#clip0_33_269)">
<path opacity="0.1" d="M12 7C11 12.5 9.50001 14 2 14C5.5 10 1 5 9 4L12 7Z" fill="#525252"/>
<path fill-rule="evenodd" clip-rule="evenodd" d="M8.64539 5.0596C7.04677 5.31109 6.18115 5.73189 5.68684 6.17014C5.17237 6.62627 4.93715 7.20987 4.7989 8.0394C4.73383 8.42981 4.69511 8.84123 4.65113 9.30854L4.63911 9.43597C4.59126 9.94188 4.53514 10.5017 4.42835 11.074C4.3138 11.688 4.13965 12.3248 3.85003 12.9617C6.42849 12.8442 7.90243 12.4536 8.84311 11.7583C9.86871 11.0003 10.441 9.7394 10.9189 7.33313L8.64539 5.0596ZM12.7122 6.29786C12.7071 6.29276 12.7021 6.28772 12.6969 6.28273L9.71446 3.30025C9.71085 3.29657 9.70722 3.29292 9.70355 3.28929C9.54536 3.12726 9.54654 2.86768 9.70711 2.70711C9.86887 2.54535 10.1311 2.54535 10.2929 2.70711L13.2929 5.70711C13.4547 5.86887 13.4547 6.13114 13.2929 6.2929C13.1328 6.45299 12.8743 6.45464 12.7122 6.29786ZM12.7382 8.40006C12.2508 10.5654 11.5384 12.2532 10.0319 13.3667C8.30268 14.6448 5.73961 15 2 15C1.60763 15 1.25151 14.7705 1.08937 14.4132C0.927234 14.0559 0.989044 13.6368 1.24743 13.3415C1.97052 12.5151 2.28889 11.6366 2.46228 10.7072C2.5508 10.2327 2.60015 9.75343 2.648 9.24762L2.66083 9.11126C2.7033 8.6586 2.74861 8.17557 2.82611 7.7106C3.00035 6.66513 3.35888 5.56124 4.36003 4.67362C5.1214 3.99859 6.17369 3.52077 7.59572 3.21943C7.53323 2.53066 7.76562 1.82017 8.2929 1.2929C9.23571 0.350087 10.7643 0.350087 11.7071 1.2929L14.7071 4.2929C15.6499 5.23571 15.6499 6.7643 14.7071 7.70711C14.169 8.24521 13.4401 8.47619 12.7382 8.40006Z" fill="#525252"/>
</g>
<defs>
<clipPath id="clip0_33_269">
<rect width="16" height="16" fill="white"/>
</clipPath>
</defs>
</svg>
