<svg width="16" height="16" viewBox="0 0 16 16" fill="none" xmlns="http://www.w3.org/2000/svg">
<path opacity="0.1" d="M12 4L8 2V12L12 4Z" fill="#525252"/>
<path opacity="0.2" d="M14 7L12 4L9 11L14 7Z" fill="#525252"/>
<path fill-rule="evenodd" clip-rule="evenodd" d="M3.6 0.999999L3.5681 0.999997L3.56809 0.999997C3.31571 0.999967 3.06992 0.999938 2.86177 1.01694C2.63317 1.03562 2.36344 1.07969 2.09202 1.21799C1.71569 1.40973 1.40973 1.71569 1.21798 2.09202C1.07969 2.36344 1.03562 2.63318 1.01694 2.86177C0.999936 3.06992 0.999965 3.31571 0.999995 3.56809L0.999995 3.5681L0.999997 3.6V11C0.999997 13.2091 2.79086 15 5 15C6.54967 15 7.89352 14.1188 8.55775 12.8301C8.58602 12.811 8.61354 12.7904 8.64018 12.7682L13.5357 8.68863L13.5585 8.66965L13.5585 8.66964C13.734 8.52345 13.9067 8.37956 14.0445 8.24528C14.1971 8.09653 14.3628 7.90772 14.4817 7.65319C14.6481 7.29689 14.7057 6.89945 14.6474 6.51056C14.6058 6.23276 14.5005 6.00464 14.3964 5.81866C14.3024 5.65076 14.1777 5.46374 14.051 5.27372L14.0345 5.24904L12.832 3.4453C12.7355 3.3005 12.6029 3.1834 12.4472 3.10557L8.44721 1.10557C8.30836 1.03614 8.15524 0.999999 8 0.999999H3.6ZM7 11C7 12.1046 6.10457 13 5 13C3.89543 13 3 12.1046 3 11V3.6C3 3.30347 3.00078 3.14122 3.0103 3.02463L3.01145 3.01145L3.02463 3.0103C3.14122 3.00078 3.30347 3 3.6 3H7V11ZM10.6584 4.44721L9 3.61803V7.76393L10.6584 4.44721ZM12.2553 7.15219L11.0324 8.17131L12.1238 5.98847L12.3704 6.35844C12.52 6.58283 12.6 6.70401 12.6512 6.79548L12.6565 6.80515L12.6486 6.81291C12.5736 6.88606 12.4625 6.97954 12.2553 7.15219ZM5 12C5.55228 12 6 11.5523 6 11C6 10.4477 5.55228 10 5 10C4.44771 10 4 10.4477 4 11C4 11.5523 4.44771 12 5 12Z" fill="#525252"/>
</svg>
