<svg width="16" height="16" viewBox="0 0 16 16" fill="none" xmlns="http://www.w3.org/2000/svg">
<path opacity="0.1" d="M9 4C8.44771 3.44771 8.44772 2.55228 9 2V2C9.55228 1.44772 10.4477 1.44771 11 2L14 5C14.5523 5.55229 14.5523 6.44772 14 7V7C13.4477 7.55229 12.5523 7.55229 12 7L9 4Z" fill="#525252"/>
<path fill-rule="evenodd" clip-rule="evenodd" d="M4.83488 5.85283L8.67133 5.08554L10.9145 7.32867L10.1472 11.1651L5.13535 12.2789L7.4165 9.99771C7.44414 9.99923 7.47198 10 7.5 10C8.32843 10 9 9.32843 9 8.5C9 7.67157 8.32843 7 7.5 7C6.67157 7 6 7.67157 6 8.5C6 8.52802 6.00077 8.55586 6.00229 8.5835L3.72114 10.8646L4.83488 5.85283ZM12.6962 6.28194L12.7126 6.29825C12.8747 6.45463 13.1329 6.45285 13.2929 6.29289C13.4547 6.13113 13.4547 5.86887 13.2929 5.70711L10.2929 2.70711C10.1311 2.54535 9.86887 2.54535 9.70711 2.70711C9.54717 2.86705 9.54537 3.12525 9.70171 3.2874L9.71812 3.30391L12.6962 6.28194ZM11.9806 12.1961L12.7398 8.40023C13.4412 8.47584 14.1694 8.2448 14.7071 7.70711C15.6499 6.7643 15.6499 5.2357 14.7071 4.29289L11.7071 1.29289C10.7643 0.350084 9.23571 0.350085 8.2929 1.29289C7.7552 1.83059 7.52416 2.55881 7.59977 3.26024L3.80389 4.01942C3.41561 4.09708 3.10971 4.39653 3.02382 4.78307L1.02382 13.7831C0.949648 14.1168 1.05114 14.4653 1.2929 14.7071C1.53466 14.9489 1.88318 15.0504 2.21693 14.9762L11.2169 12.9762C11.6035 12.8903 11.9029 12.5844 11.9806 12.1961Z" fill="#525252"/>
</svg>
