<svg width="16" height="16" viewBox="0 0 16 16" fill="none" xmlns="http://www.w3.org/2000/svg">
<path opacity="0.1" d="M10.5 5.5C11.3055 6.3055 12.6344 6.23875 13.3636 5.36364C14.0046 4.59451 13.9579 3.45794 13.25 2.75C12.5421 2.04206 11.4055 1.99542 10.6364 2.63636C9.76125 3.36563 9.6945 4.6945 10.5 5.5Z" fill="#525252"/>
<path fill-rule="evenodd" clip-rule="evenodd" d="M9.87868 1.70711C11.0503 0.535534 12.9497 0.535536 14.1213 1.70711L14.2929 1.87868C15.4645 3.05025 15.4645 4.94975 14.2929 6.12132L12.7076 7.7066L12.7071 7.70711L12.7066 7.70762L7.70711 12.7071C6.54843 13.8658 5.60364 14.2049 4.6644 14.3614C4.45407 14.3965 4.26498 14.4217 4.08787 14.4454H4.08786C3.51969 14.5212 3.07477 14.5807 2.44721 14.8944C2.06222 15.0869 1.59725 15.0115 1.29289 14.7071C0.988533 14.4027 0.913078 13.9378 1.10557 13.5528C1.41935 12.9252 1.47877 12.4803 1.55465 11.9121C1.5783 11.735 1.60355 11.5459 1.63861 11.3356C1.79515 10.3964 2.13421 9.45157 3.29289 8.29289L8.29269 3.2931L8.29289 3.29289L8.2931 3.29269L9.87868 1.70711ZM12.8787 4.70711L12 5.58579L10.4142 4L11.2929 3.12132C11.6834 2.7308 12.3166 2.7308 12.7071 3.12132L12.8787 3.29289C13.2692 3.68342 13.2692 4.31658 12.8787 4.70711ZM4.70711 9.70711L9 5.41421L10.5858 7L6.29289 11.2929C5.84564 11.7401 5.47924 11.9951 5.14989 12.1499L3.85011 10.8501C4.00488 10.5208 4.25985 10.1544 4.70711 9.70711Z" fill="#525252"/>
</svg>
