<svg width="16" height="16" viewBox="0 0 16 16" fill="none" xmlns="http://www.w3.org/2000/svg">
<path opacity="0.1" d="M10.5 5.5C11.3055 6.3055 12.6344 6.23875 13.3636 5.36364C14.0046 4.59451 13.9579 3.45794 13.25 2.75C12.5421 2.04206 11.4055 1.99542 10.6364 2.63636C9.76125 3.36563 9.6945 4.6945 10.5 5.5Z" fill="#525252"/>
<path fill-rule="evenodd" clip-rule="evenodd" d="M14.0179 1.60849C12.8737 0.568408 11.1263 0.568408 9.98211 1.60849C9.92867 1.65707 9.87258 1.71318 9.8073 1.77848L9.80729 1.77849L9.79289 1.79289L8.29289 3.29289L2.69878 8.88701L2.62671 8.95903L2.62671 8.95904C2.17749 9.40783 1.83806 9.74693 1.58944 10.1526C1.37012 10.5105 1.20851 10.9007 1.11052 11.3089C0.999437 11.7716 0.999666 12.2513 0.999968 12.8863L1 12.9882V14C1 14.5523 1.44772 15 2 15H3.01177L3.11366 15C3.74865 15.0003 4.22845 15.0006 4.69114 14.8895C5.09929 14.7915 5.48946 14.6299 5.84735 14.4106C6.25307 14.1619 6.59217 13.8225 7.04096 13.3733L7.04097 13.3733L7.11299 13.3012L12.7066 7.70763C12.7068 7.70746 12.7069 7.70728 12.7071 7.70711C12.7073 7.70693 12.7075 7.70676 12.7076 7.70659L14.2071 6.20711L14.2215 6.19272L14.2215 6.19268C14.2868 6.12741 14.3429 6.07133 14.3915 6.01789C15.4316 4.87366 15.4316 3.12634 14.3915 1.98211C14.3429 1.92867 14.2868 1.87258 14.2215 1.8073L14.2071 1.79289L14.1927 1.77849L14.1927 1.77845C14.1274 1.71316 14.0713 1.65706 14.0179 1.60849ZM12 5.58579L12.7929 4.79289C12.8807 4.70509 12.8996 4.68582 12.9116 4.67263C13.2582 4.29122 13.2582 3.70878 12.9116 3.32737C12.8996 3.31419 12.8807 3.29491 12.7929 3.20711C12.7051 3.1193 12.6858 3.10043 12.6726 3.08845C12.2912 2.74175 11.7088 2.74175 11.3274 3.08845C11.3142 3.10043 11.2949 3.1193 11.2071 3.20711L10.4142 4L12 5.58579ZM9 5.41421L4.11299 10.3012C3.56048 10.8537 3.40402 11.0193 3.29472 11.1976C3.18506 11.3766 3.10425 11.5717 3.05526 11.7758C3.00643 11.9792 3 12.2069 3 12.9882V13H3.01177C3.79314 13 4.02084 12.9936 4.22425 12.9447C4.42832 12.8957 4.62341 12.8149 4.80236 12.7053C4.98072 12.596 5.14627 12.4395 5.69878 11.887L10.5858 7L9 5.41421Z" fill="#525252"/>
</svg>
