<svg width="16" height="16" viewBox="0 0 16 16" fill="none" xmlns="http://www.w3.org/2000/svg">
<path opacity="0.1" d="M7 6C6.44771 5.44771 6.44772 4.55228 7 4V4C7.55228 3.44772 8.44772 3.44771 9 4L12 7C12.5523 7.55229 12.5523 8.44772 12 9V9C11.4477 9.55229 10.5523 9.55229 10 9L7 6Z" fill="#525252"/>
<path opacity="0.2" d="M8 10H3V13H6L8 10Z" fill="#525252"/>
<path fill-rule="evenodd" clip-rule="evenodd" d="M13.7071 2.29289C13.0793 1.6651 12.0957 1.5677 11.3569 2.06018L9.6252 3.21468C8.67775 2.35085 7.20886 2.37692 6.29289 3.29289C5.6023 3.98349 5.41755 4.98838 5.73866 5.84713L3.29289 8.29289C2.13421 9.45157 1.79514 10.3964 1.6386 11.3356C1.60355 11.5459 1.5783 11.735 1.55464 11.9121C1.47877 12.4803 1.41935 12.9252 1.10557 13.5528C0.913075 13.9378 0.98853 14.4027 1.29289 14.7071C1.59725 15.0115 2.06222 15.0869 2.44721 14.8944C3.07476 14.5807 3.51968 14.5212 4.08786 14.4454C4.26497 14.4217 4.45406 14.3965 4.6644 14.3614C5.60364 14.2049 6.54843 13.8658 7.7071 12.7071L10.1529 10.2613C11.0116 10.5824 12.0165 10.3977 12.7071 9.70711C13.6231 8.79113 13.6492 7.32224 12.7853 6.37479L13.9398 4.64305C14.4323 3.90433 14.3349 2.92069 13.7071 2.29289ZM8.8075 5.22172C8.79811 5.21269 8.78887 5.20345 8.77978 5.194L8.29289 4.70711C8.13113 4.54535 7.86886 4.54535 7.7071 4.70711C7.54534 4.86887 7.54534 5.13113 7.7071 5.29289L10.7071 8.29289C10.8689 8.45465 11.1311 8.45465 11.2929 8.29289C11.4547 8.13113 11.4547 7.86887 11.2929 7.70711L10.806 7.22025C10.7966 7.21114 10.7873 7.20188 10.7782 7.19246L8.8075 5.22172ZM7 7.41421L4.7071 9.70711C3.86578 10.5484 3.70485 11.1036 3.61139 11.6644C3.59212 11.7801 3.57554 11.909 3.55743 12.05L3.55742 12.05L3.55742 12.0501C3.53939 12.1904 3.51983 12.3426 3.49455 12.5054C3.65732 12.4802 3.80943 12.4606 3.94964 12.4426L3.94985 12.4426L3.94993 12.4426C4.09095 12.4245 4.21993 12.4079 4.3356 12.3886C4.89636 12.2951 5.45157 12.1342 6.29289 11.2929L8.58578 9L7 7.41421Z" fill="#525252"/>
</svg>
