<svg width="16" height="16" viewBox="0 0 16 16" fill="none" xmlns="http://www.w3.org/2000/svg">
<path opacity="0.1" d="M14 3.5C14 3.03406 14 2.80109 13.9239 2.61732C13.8224 2.37229 13.6277 2.17761 13.3827 2.07612C13.1989 2 12.9659 2 12.5 2H11C9.34315 2 8 3.34315 8 5V5C8 6.65685 9.34315 8 11 8V8C12.6569 8 14 6.65685 14 5V3.5Z" fill="#525252"/>
<path fill-rule="evenodd" clip-rule="evenodd" d="M12.5 1L12.5265 0.999996H12.5266C12.7366 0.999977 12.9412 0.999958 13.1152 1.01183C13.3056 1.02482 13.5313 1.0553 13.7654 1.15224C14.2554 1.35523 14.6448 1.74458 14.8478 2.23463C14.9447 2.46868 14.9752 2.6944 14.9882 2.88477C15 3.05886 15 3.26348 15 3.47353L15 3.5V5C15 7.20914 13.2091 9 11 9C10.4653 9 9.95513 8.89509 9.48891 8.70473C9.43388 8.86414 9.38545 9.0257 9.34261 9.18992C9.00661 10.4779 8.99999 11.9622 9 14C9 14.5523 8.55229 15 8 15C7.44772 15 7 14.5523 7 14V13.9992C6.99993 13.0839 6.88476 12.5517 6.62584 12.0856C6.39916 11.6776 6.02431 11.2506 5.35519 10.6772C4.94814 10.8836 4.48766 11 4 11C2.34315 11 1 9.65685 1 8V7C1 5.89543 1.89543 5 3 5H4C5.65685 5 7 6.34315 7 8C7 8.43763 6.90629 8.85336 6.73785 9.22825C6.90306 9.37169 7.05933 9.51363 7.20658 9.65541C7.25906 9.32477 7.32487 9.00137 7.40738 8.68508C7.51876 8.25812 7.65953 7.84639 7.83545 7.44686C7.31171 6.77049 7 5.92165 7 5C7 2.79086 8.79086 1 11 1H12.5ZM10.4769 6.93089C10.7889 6.5441 11.1709 6.15931 11.6402 5.76822C12.0645 5.41466 12.1218 4.78409 11.7682 4.35982C11.4147 3.93554 10.7841 3.87821 10.3598 4.23178C9.85938 4.64881 9.43042 5.07066 9.06359 5.50227C9.02208 5.34178 9 5.17347 9 5C9 3.89543 9.89543 3 11 3H12.5C12.7467 3 12.8816 3.00054 12.9791 3.00719L12.9919 3.00813L12.9928 3.02092C12.9995 3.11844 13 3.25335 13 3.5V5C13 6.10457 12.1046 7 11 7C10.819 7 10.6436 6.97596 10.4769 6.93089ZM4 9C4.55228 9 5 8.55228 5 8C5 7.44771 4.55228 7 4 7H3V8C3 8.55228 3.44772 9 4 9Z" fill="#525252"/>
</svg>
