<svg width="16" height="16" viewBox="0 0 16 16" fill="none" xmlns="http://www.w3.org/2000/svg">
<g clip-path="url(#clip0_33_856)">
<circle opacity="0.1" cx="8" cy="8" r="7" fill="#525252"/>
<path fill-rule="evenodd" clip-rule="evenodd" d="M8 2C4.68629 2 2 4.68629 2 8C2 11.3137 4.68629 14 8 14C11.3137 14 14 11.3137 14 8C14 4.68629 11.3137 2 8 2ZM0 8C0 3.58172 3.58172 0 8 0C12.4183 0 16 3.58172 16 8C16 12.4183 12.4183 16 8 16C3.58172 16 0 12.4183 0 8ZM5.87868 4.70711C6.33143 4.25435 6.9455 4 7.58579 4C8.91912 4 10 5.08088 10 6.41421C10 7.0545 9.74565 7.66857 9.29289 8.12132L8.70711 8.70711C8.31658 9.09763 7.68342 9.09763 7.29289 8.70711C6.90237 8.31658 6.90237 7.68342 7.29289 7.29289L7.87868 6.70711C7.95636 6.62943 8 6.52407 8 6.41421C8 6.18545 7.81455 6 7.58579 6C7.47593 6 7.37057 6.04364 7.29289 6.12132L6.70711 6.70711C6.31658 7.09763 5.68342 7.09763 5.29289 6.70711C4.90237 6.31658 4.90237 5.68342 5.29289 5.29289L5.87868 4.70711ZM7 11C7 11.5523 7.44772 12 8 12C8.55228 12 9 11.5523 9 11C9 10.4477 8.55228 10 8 10C7.44772 10 7 10.4477 7 11Z" fill="#525252"/>
</g>
<defs>
<clipPath id="clip0_33_856">
<rect width="16" height="16" fill="white"/>
</clipPath>
</defs>
</svg>
