<svg width="16" height="16" viewBox="0 0 16 16" fill="none" xmlns="http://www.w3.org/2000/svg">
<g clip-path="url(#clip0_19_1087)">
<path opacity="0.1" d="M2 2C2 2 5 1 8 1C11 1 14 2 14 2V8C14 12 10.5 13.3281 8 14.8281C5.5 13.3281 2 12 2 8V2Z" fill="#525252"/>
<path fill-rule="evenodd" clip-rule="evenodd" d="M1.70711 0.292893C1.31658 -0.0976311 0.683417 -0.0976311 0.292893 0.292893C-0.0976311 0.683417 -0.0976311 1.31658 0.292893 1.70711L14.2929 15.7071C14.6834 16.0976 15.3166 16.0976 15.7071 15.7071C16.0976 15.3166 16.0976 14.6834 15.7071 14.2929L1.70711 0.292893ZM5.16937 2.26362C6.04844 2.11255 7.0312 2 8 2C9.39919 2 10.8207 2.23455 11.9081 2.47619C12.337 2.5715 12.7087 2.66673 13 2.7466V8C13 8.64251 12.8943 9.18302 12.7195 9.64828C12.5253 10.1653 12.7869 10.7419 13.3039 10.9361C13.8209 11.1304 14.3975 10.8687 14.5917 10.3517C14.8559 9.64878 15 8.86873 15 8V2V1.27924L14.3162 1.05132L14 2C14.3162 1.05132 14.3161 1.05127 14.3159 1.05121L14.3155 1.05109L14.3146 1.05076L14.3118 1.04985L14.303 1.04695L14.2726 1.03706C14.2467 1.02871 14.2097 1.01692 14.1623 1.00217C14.0676 0.9727 13.9312 0.931396 13.7591 0.882226C13.4152 0.783977 12.927 0.653823 12.3419 0.523813C11.1793 0.265455 9.60081 0 8 0C6.88502 0 5.784 0.128678 4.83063 0.292513C4.28633 0.386051 3.92091 0.903126 4.01445 1.44743C4.10799 1.99174 4.62506 2.35716 5.16937 2.26362ZM3 6C3 5.44772 2.55228 5 2 5C1.44772 5 1 5.44772 1 6V8C1 10.3562 2.0565 11.9473 3.41109 13.1103C4.35714 13.9225 5.52515 14.5765 6.52563 15.1366C6.87087 15.3299 7.19617 15.512 7.4855 15.6856L8 15.9943L8.5145 15.6856C8.86698 15.4741 9.18909 15.2943 9.52995 15.1039L9.52998 15.1039C9.82955 14.9366 10.1436 14.7612 10.5055 14.5491C10.9821 14.2699 11.142 13.6573 10.8628 13.1808C10.5836 12.7043 9.97098 12.5443 9.49446 12.8235C9.23274 12.9769 8.9249 13.1497 8.61166 13.3256L8.61161 13.3256C8.40664 13.4407 8.19936 13.5571 8.00117 13.6702C7.7775 13.542 7.55569 13.4178 7.33653 13.2951L7.33645 13.295C6.39192 12.7662 5.49661 12.2648 4.71391 11.5928C3.6935 10.7168 3 9.6438 3 8V6Z" fill="#525252"/>
</g>
<defs>
<clipPath id="clip0_19_1087">
<rect width="16" height="16" fill="white"/>
</clipPath>
</defs>
</svg>
