<svg width="16" height="16" viewBox="0 0 16 16" fill="none" xmlns="http://www.w3.org/2000/svg">
<circle opacity="0.2" cx="6" cy="8" r="2" fill="#525252"/>
<path fill-rule="evenodd" clip-rule="evenodd" d="M6 2C2.68629 2 0 4.68629 0 8C0 11.3137 2.68629 14 6 14H10C13.3137 14 16 11.3137 16 8C16 4.68629 13.3137 2 10 2H6ZM2 8C2 5.79086 3.79086 4 6 4H10C12.2091 4 14 5.79086 14 8C14 10.2091 12.2091 12 10 12H6C3.79086 12 2 10.2091 2 8ZM5 8C5 7.44772 5.44772 7 6 7C6.55228 7 7 7.44772 7 8C7 8.55228 6.55228 9 6 9C5.44772 9 5 8.55228 5 8ZM6 5C4.34315 5 3 6.34315 3 8C3 9.65685 4.34315 11 6 11C7.65685 11 9 9.65685 9 8C9 6.34315 7.65685 5 6 5Z" fill="#525252"/>
</svg>
