<svg width="16" height="16" viewBox="0 0 16 16" fill="none" xmlns="http://www.w3.org/2000/svg">
<g clip-path="url(#clip0_34_6782)">
<path fill-rule="evenodd" clip-rule="evenodd" d="M8.71861 0.26449C8.27071 0.0200211 7.72925 0.0200217 7.28134 0.264491C6.86193 0.493412 6.6795 0.913698 6.60359 1.0908C6.50752 1.31492 6.40957 1.60886 6.30466 1.92367L6.29235 1.96061L5.27923 5H2.93517L2.89578 5H2.89575C2.49394 4.99998 2.13482 4.99996 1.85978 5.02115C1.71578 5.03224 1.54857 5.05201 1.38495 5.09664C1.22752 5.13958 0.985873 5.22836 0.776551 5.43661C0.397943 5.81327 0.248158 6.36283 0.38328 6.87951C0.457986 7.16517 0.621168 7.3643 0.73503 7.48117C0.85338 7.60266 0.987434 7.70454 1.10589 7.78717C1.33215 7.945 1.64163 8.12721 1.98791 8.33109L2.02182 8.35106L3.79745 9.39665L2.89568 12.1271L2.88335 12.1644L2.88334 12.1645C2.76714 12.5162 2.6614 12.8363 2.5994 13.0904C2.56668 13.2246 2.53465 13.3845 2.52684 13.5506C2.51918 13.7135 2.53058 13.9578 2.65261 14.2102C2.88091 14.6823 3.33922 15.001 3.86133 15.0505C4.14043 15.077 4.37336 15.0026 4.52344 14.9387C4.67642 14.8735 4.81514 14.7878 4.9295 14.7104C5.14613 14.5638 5.40936 14.3532 5.69864 14.1217L5.72933 14.0971L7.99998 12.2806L10.2706 14.0972L10.3014 14.1217L10.3014 14.1218C10.5907 14.3532 10.8539 14.5638 11.0705 14.7104C11.1848 14.7878 11.3236 14.8735 11.4765 14.9387C11.6266 15.0026 11.8595 15.077 12.1386 15.0505C12.6608 15.001 13.1191 14.6823 13.3474 14.2102C13.4694 13.9578 13.4808 13.7135 13.4731 13.5506C13.4653 13.3845 13.4333 13.2246 13.4006 13.0904C13.3386 12.8363 13.2328 12.5162 13.1166 12.1645L13.1166 12.1644L13.1043 12.1271L12.2025 9.39665L13.9782 8.35106L14.0121 8.33109C14.3583 8.12721 14.6678 7.945 14.8941 7.78717C15.0125 7.70454 15.1466 7.60266 15.2649 7.48117C15.3788 7.3643 15.542 7.16517 15.6167 6.87951C15.7518 6.36283 15.602 5.81327 15.2234 5.43661C15.0141 5.22836 14.7724 5.13958 14.615 5.09664C14.4514 5.05201 14.2842 5.03224 14.1402 5.02115C13.8651 4.99996 13.506 4.99998 13.1042 5H13.1042L13.0648 5H10.7207L9.70761 1.96061L9.69529 1.92363C9.59039 1.60883 9.49244 1.31491 9.39637 1.0908C9.32046 0.913696 9.13803 0.49341 8.71861 0.26449Z" fill="#525252"/>
</g>
<defs>
<clipPath id="clip0_34_6782">
<rect width="16" height="16" fill="white"/>
</clipPath>
</defs>
</svg>
