<svg width="16" height="16" viewBox="0 0 16 16" fill="none" xmlns="http://www.w3.org/2000/svg">
<g clip-path="url(#clip0_34_6631)">
<path fill-rule="evenodd" clip-rule="evenodd" d="M7.28134 0.264491C7.72925 0.0200217 8.27071 0.0200211 8.71861 0.26449C9.13803 0.49341 9.32046 0.913696 9.39637 1.0908C9.49244 1.31491 9.59039 1.60883 9.69529 1.92363L9.70761 1.96061L10.7207 5H13.0648L13.1042 5C13.506 4.99998 13.8651 4.99996 14.1402 5.02115C14.2842 5.03224 14.4514 5.05201 14.615 5.09664C14.7724 5.13958 15.0141 5.22836 15.2234 5.43661C15.602 5.81327 15.7518 6.36283 15.6167 6.87951C15.542 7.16517 15.3788 7.3643 15.2649 7.48117C15.1466 7.60266 15.0125 7.70454 14.8941 7.78717C14.6678 7.945 14.3583 8.12721 14.0121 8.33109L13.9782 8.35106L12.2025 9.39665L13.1043 12.1271L13.1166 12.1644C13.2328 12.5162 13.3386 12.8363 13.4006 13.0904C13.4333 13.2246 13.4653 13.3845 13.4731 13.5506C13.4808 13.7135 13.4694 13.9578 13.3474 14.2102C13.1191 14.6823 12.6608 15.001 12.1386 15.0505C11.8595 15.077 11.6266 15.0026 11.4765 14.9387C11.3236 14.8735 11.1848 14.7878 11.0705 14.7104C10.8539 14.5638 10.5906 14.3532 10.3014 14.1217L10.2706 14.0972L7.99998 12.2806L5.72933 14.0971L5.69864 14.1217C5.40936 14.3532 5.14613 14.5638 4.9295 14.7104C4.81514 14.7878 4.67642 14.8735 4.52344 14.9387C4.37336 15.0026 4.14043 15.077 3.86133 15.0505C3.33922 15.001 2.88091 14.6823 2.65261 14.2102C2.53058 13.9578 2.51918 13.7135 2.52684 13.5506C2.53465 13.3845 2.56668 13.2246 2.5994 13.0904C2.6614 12.8363 2.76714 12.5162 2.88335 12.1644L2.89568 12.1271L3.79745 9.39665L2.02182 8.35106L1.98791 8.33109C1.64163 8.12721 1.33215 7.945 1.10589 7.78717C0.987434 7.70454 0.85338 7.60266 0.73503 7.48117C0.621168 7.3643 0.457986 7.16517 0.38328 6.87951C0.248158 6.36283 0.397943 5.81327 0.776551 5.43661C0.985873 5.22836 1.22752 5.13958 1.38495 5.09664C1.54857 5.05201 1.71578 5.03224 1.85978 5.02115C2.13483 4.99996 2.49395 4.99998 2.89578 5C2.90886 5 2.922 5 2.93517 5H5.27923L6.29235 1.96061L6.30466 1.92367C6.40957 1.60886 6.50752 1.31492 6.60359 1.0908C6.6795 0.913698 6.86193 0.493412 7.28134 0.264491ZM7.99998 3.16228L7.13101 5.76921C7.12735 5.7802 7.12322 5.79306 7.11856 5.80757C7.07419 5.94583 6.98205 6.23295 6.79028 6.46226C6.62919 6.6549 6.42231 6.80401 6.18862 6.89592C5.91042 7.00533 5.60891 7.00195 5.4637 7.00032C5.44847 7.00015 5.43496 7 5.42338 7H3.66897L4.95131 7.75511C4.95682 7.75836 4.96244 7.76167 4.96815 7.76502C5.05206 7.81439 5.15555 7.87527 5.244 7.93653C5.34884 8.00914 5.48776 8.11852 5.60958 8.28513C5.77083 8.50567 5.86879 8.76606 5.89288 9.03819C5.91108 9.24379 5.87869 9.41761 5.8477 9.54131C5.82155 9.64569 5.78385 9.75969 5.75329 9.85212C5.75121 9.85841 5.74916 9.86459 5.74716 9.87067L5.0061 12.1145L6.87553 10.6189C6.88049 10.615 6.88554 10.6109 6.89067 10.6068C6.96607 10.5464 7.05918 10.4719 7.14733 10.4114C7.25188 10.3396 7.40246 10.2493 7.60003 10.1946C7.86175 10.1222 8.13821 10.1222 8.39993 10.1946C8.5975 10.2493 8.74807 10.3396 8.85263 10.4114C8.94079 10.4719 9.03389 10.5465 9.1093 10.6068C9.11443 10.6109 9.11947 10.615 9.12443 10.6189L10.9939 12.1145L10.2528 9.87066C10.2508 9.8646 10.2488 9.85842 10.2467 9.85214C10.2161 9.75971 10.1784 9.64569 10.1523 9.54131C10.1213 9.41761 10.0889 9.24379 10.1071 9.03819C10.1312 8.76606 10.2291 8.50567 10.3904 8.28513C10.5122 8.11852 10.6511 8.00914 10.756 7.93653C10.8444 7.87528 10.9479 7.8144 11.0318 7.76503C11.0375 7.76167 11.0431 7.75836 11.0487 7.75511L12.331 7H10.5766C10.565 7 10.5515 7.00015 10.5363 7.00032C10.3911 7.00195 10.0895 7.00533 9.81136 6.89592C9.57766 6.80401 9.37079 6.6549 9.20969 6.46226C9.01792 6.23295 8.92578 5.94583 8.88141 5.80756C8.87675 5.79306 8.87263 5.7802 8.86896 5.76921L7.99998 3.16228Z" fill="#525252"/>
</g>
<defs>
<clipPath id="clip0_34_6631">
<rect width="16" height="16" fill="white"/>
</clipPath>
</defs>
</svg>
