<svg width="16" height="16" viewBox="0 0 16 16" fill="none" xmlns="http://www.w3.org/2000/svg">
<g clip-path="url(#clip0_19_1141)">
<circle opacity="0.1" cx="8" cy="8" r="3" fill="#525252"/>
<path fill-rule="evenodd" clip-rule="evenodd" d="M8 0C8.55229 0 9 0.447715 9 1V2C9 2.55228 8.55229 3 8 3C7.44772 3 7 2.55228 7 2V1C7 0.447715 7.44772 0 8 0ZM8 6C6.89543 6 6 6.89543 6 8C6 9.10457 6.89543 10 8 10C9.10457 10 10 9.10457 10 8C10 6.89543 9.10457 6 8 6ZM4 8C4 5.79086 5.79086 4 8 4C10.2091 4 12 5.79086 12 8C12 10.2091 10.2091 12 8 12C5.79086 12 4 10.2091 4 8ZM13 8C13 7.44772 13.4477 7 14 7H15C15.5523 7 16 7.44772 16 8C16 8.55229 15.5523 9 15 9H14C13.4477 9 13 8.55229 13 8ZM1 7C0.447715 7 0 7.44772 0 8C0 8.55229 0.447715 9 1 9H2C2.55228 9 3 8.55229 3 8C3 7.44772 2.55228 7 2 7H1ZM9 14C9 13.4477 8.55229 13 8 13C7.44772 13 7 13.4477 7 14V15C7 15.5523 7.44772 16 8 16C8.55229 16 9 15.5523 9 15V14ZM12.7071 11.2929L13.7071 12.2929C14.0976 12.6834 14.0976 13.3166 13.7071 13.7071C13.3166 14.0976 12.6834 14.0976 12.2929 13.7071L11.2929 12.7071C10.9024 12.3166 10.9024 11.6834 11.2929 11.2929C11.6834 10.9024 12.3166 10.9024 12.7071 11.2929ZM3.70711 13.7071L4.70711 12.7071C5.09763 12.3166 5.09763 11.6834 4.70711 11.2929C4.31658 10.9024 3.68342 10.9024 3.29289 11.2929L2.29289 12.2929C1.90237 12.6834 1.90237 13.3166 2.29289 13.7071C2.68342 14.0976 3.31658 14.0976 3.70711 13.7071ZM2.29289 2.29289C2.68342 1.90237 3.31658 1.90237 3.70711 2.29289L4.70711 3.29289C5.09763 3.68342 5.09763 4.31658 4.70711 4.70711C4.31658 5.09763 3.68342 5.09763 3.29289 4.70711L2.29289 3.70711C1.90237 3.31658 1.90237 2.68342 2.29289 2.29289ZM13.7071 3.70711C14.0976 3.31658 14.0976 2.68342 13.7071 2.29289C13.3166 1.90237 12.6834 1.90237 12.2929 2.29289L11.2929 3.29289C10.9024 3.68342 10.9024 4.31658 11.2929 4.70711C11.6834 5.09763 12.3166 5.09763 12.7071 4.70711L13.7071 3.70711Z" fill="#525252"/>
</g>
<defs>
<clipPath id="clip0_19_1141">
<rect width="16" height="16" fill="white"/>
</clipPath>
</defs>
</svg>
