<svg width="16" height="16" viewBox="0 0 16 16" fill="none" xmlns="http://www.w3.org/2000/svg">
<path opacity="0.1" d="M8.29289 12.2929L3.70711 7.70711C3.31658 7.31658 3.31658 6.68342 3.70711 6.29289L4.12597 5.87403C4.66163 5.33837 5.45397 5.15132 6.17264 5.39088L6.82736 5.60912C7.54603 5.84868 8.33837 5.66163 8.87403 5.12597L10 4C10.5523 3.44772 11.4477 3.44772 12 4C12.5523 4.55228 12.5523 5.44772 12 6L10.874 7.12597C10.3384 7.66163 10.1513 8.45397 10.3909 9.17264L10.6091 9.82736C10.8487 10.546 10.6616 11.3384 10.126 11.874L9.70711 12.2929C9.31658 12.6834 8.68342 12.6834 8.29289 12.2929Z" fill="#525252"/>
<path fill-rule="evenodd" clip-rule="evenodd" d="M9.29289 1.29289C9.68342 0.902369 10.3166 0.902369 10.7071 1.29289L11.7068 2.29262C11.7069 2.29271 11.707 2.2928 11.7071 2.29289L13.7071 4.29289C13.7072 4.29302 13.7074 4.29314 13.7075 4.29327L14.7071 5.29289C15.0976 5.68342 15.0976 6.31658 14.7071 6.70711C14.3166 7.09763 13.6834 7.09763 13.2929 6.70711L13 6.41421L11.8251 7.58907C11.5662 7.84803 11.5155 7.90275 11.4807 7.95034C11.3217 8.16806 11.2573 8.44076 11.3022 8.70661C11.312 8.76453 11.3335 8.83829 11.4515 9.19218L11.4693 9.24566L11.4693 9.24567C11.5536 9.49806 11.6271 9.71806 11.6659 9.93719C11.8097 10.7498 11.6123 11.5858 11.1203 12.2484C10.9876 12.427 10.8256 12.5888 10.6404 12.7739L10.6015 12.8127L10.5636 12.8507C10.432 12.983 10.271 13.1448 10.0916 13.2616C9.42804 13.6938 8.57196 13.6938 7.90841 13.2616C7.72901 13.1448 7.56804 12.983 7.43639 12.8507L7.39847 12.8127L6 11.4142L2.70711 14.7071C2.31658 15.0976 1.68342 15.0976 1.29289 14.7071C0.902369 14.3166 0.902369 13.6834 1.29289 13.2929L4.58579 10L3.18732 8.60153L3.14927 8.56361C3.01698 8.43196 2.85524 8.271 2.73838 8.09159C2.30616 7.42804 2.30616 6.57196 2.73838 5.90841C2.85523 5.72901 3.01697 5.56805 3.14927 5.4364L3.14927 5.43639L3.18732 5.39847L3.22614 5.35962L3.22614 5.35961C3.41119 5.17435 3.57298 5.01236 3.7516 4.87972C4.41417 4.3877 5.25016 4.19035 6.06281 4.33412C6.28194 4.37289 6.50194 4.44636 6.75433 4.53066L6.80782 4.54851C7.16171 4.66648 7.23547 4.68803 7.29339 4.69781C7.55924 4.74268 7.83194 4.6783 8.04966 4.51928C8.09725 4.48451 8.15197 4.43382 8.41093 4.17486L9.58579 3L9.29289 2.70711C8.90237 2.31658 8.90237 1.68342 9.29289 1.29289ZM11 4.41421L9.82514 5.58907L9.78424 5.63001C9.58923 5.82526 9.4187 5.996 9.22933 6.13432C8.57618 6.6114 7.75807 6.80453 6.96052 6.66991C6.72924 6.63088 6.49749 6.55346 6.23169 6.46468L6.23168 6.46468L6.17537 6.44588C5.83933 6.33387 5.76925 6.31324 5.71439 6.30354C5.44351 6.25561 5.16484 6.3214 4.94399 6.4854C4.8991 6.51874 4.84724 6.56697 4.60153 6.81268C4.5094 6.90481 4.45915 6.95528 4.42372 6.99338L4.41761 7L4.42372 7.00662C4.45915 7.04472 4.5094 7.09519 4.60153 7.18732L6.70711 9.29289L8.81268 11.3985C8.90481 11.4906 8.95528 11.5409 8.99338 11.5763L9 11.5824L9.00662 11.5763C9.04472 11.5409 9.09519 11.4906 9.18732 11.3985C9.43303 11.1528 9.48126 11.1009 9.5146 11.056C9.6786 10.8352 9.74439 10.5565 9.69646 10.2856C9.68676 10.2307 9.66613 10.1607 9.55412 9.82463L9.53532 9.76833C9.44654 9.50252 9.36912 9.27076 9.33009 9.03948C9.19547 8.24193 9.3886 7.42382 9.86568 6.77067C10.004 6.5813 10.1747 6.41078 10.37 6.21578L10.37 6.21576L10.4109 6.17486L11.5858 5L11 4.41421Z" fill="#525252"/>
</svg>
