<svg width="16" height="16" viewBox="0 0 16 16" fill="none" xmlns="http://www.w3.org/2000/svg">
<g clip-path="url(#clip0_10_1473)">
<path opacity="0.1" d="M2.31725 7.48972C2.20721 6.27933 2.15219 5.67414 2.35406 5.20686C2.53139 4.79635 2.84119 4.45711 3.23396 4.24334C3.68105 4 4.28873 4 5.50411 4H10.4959C11.7113 4 12.319 4 12.766 4.24334C13.1588 4.45711 13.4686 4.79635 13.6459 5.20686C13.8478 5.67414 13.7928 6.27933 13.6828 7.48971L13.2646 12.0897C13.1712 13.117 13.1245 13.6307 12.8944 14.0192C12.6918 14.3613 12.3918 14.6352 12.0328 14.806C11.6251 15 11.1093 15 10.0777 15H5.92229C4.89073 15 4.37495 15 3.96725 14.806C3.60819 14.6352 3.3082 14.3613 3.10559 14.0192C2.87552 13.6307 2.82882 13.117 2.73543 12.0897L2.31725 7.48972Z" fill="#525252"/>
<path fill-rule="evenodd" clip-rule="evenodd" d="M7 3C7 2.44772 7.44772 2 8 2H8.10146C8.63353 2 9.07243 2.41664 9.1001 2.94799L9.10281 3H7ZM5 3C5 1.34315 6.34315 0 8 0H8.10146C9.69767 0 11.0144 1.24991 11.0974 2.84396L11.1055 3H13H14C14.5523 3 15 3.44772 15 4C15 4.55228 14.5523 5 14 5H13.9132L13.2605 12.1802L13.2572 12.2165C13.2133 12.6992 13.1753 13.1178 13.1165 13.4622C13.0542 13.8274 12.9573 14.1869 12.7548 14.5288C12.4509 15.0419 12.0009 15.4529 11.4623 15.7091C11.1036 15.8797 10.7368 15.9437 10.3674 15.9727C10.0191 16 9.59885 16 9.1142 16H9.11418H9.11416H9.11414H9.07771H6.92229H6.88586H6.88584H6.88582H6.8858C6.40115 16 5.98089 16 5.63256 15.9727C5.26323 15.9437 4.89642 15.8797 4.53765 15.7091C3.99908 15.4529 3.54909 15.0419 3.24517 14.5288C3.04271 14.1869 2.94581 13.8274 2.8835 13.4622C2.82473 13.1178 2.7867 12.6992 2.74283 12.2165L2.73954 12.1803L2.08679 5H2C1.44772 5 1 4.55228 1 4C1 3.44772 1.44772 3 2 3H3H5ZM10.1625 5H11.905L11.2687 11.9992C11.2206 12.5285 11.189 12.8681 11.145 13.1258C11.1031 13.3714 11.0616 13.463 11.034 13.5096C10.9327 13.6806 10.7827 13.8176 10.6032 13.903C10.5542 13.9263 10.4593 13.9593 10.2109 13.9788C9.95026 13.9993 9.60921 14 9.07771 14H6.92229C6.39079 14 6.04974 13.9993 5.78908 13.9788C5.5407 13.9593 5.44577 13.9263 5.39684 13.903C5.21731 13.8176 5.06732 13.6806 4.96601 13.5096C4.9384 13.463 4.89691 13.3714 4.85501 13.1258C4.81103 12.8681 4.77944 12.5285 4.73132 11.9992L4.09503 5H6H10.1483H10.1625ZM5.9005 6.00496C5.35095 6.05992 4.95001 6.54996 5.00496 7.0995L5.50496 12.0995C5.55992 12.649 6.04996 13.05 6.5995 12.995C7.14905 12.9401 7.54999 12.45 7.49504 11.9005L6.99504 6.9005C6.94008 6.35095 6.45004 5.95001 5.9005 6.00496ZM10.995 7.0995C11.05 6.54996 10.649 6.05992 10.0995 6.00496C9.54996 5.95001 9.05992 6.35095 9.00496 6.9005L8.50496 11.9005C8.45001 12.45 8.85095 12.9401 9.4005 12.995C9.95004 13.05 10.4401 12.649 10.495 12.0995L10.995 7.0995Z" fill="#525252"/>
</g>
<defs>
<clipPath id="clip0_10_1473">
<rect width="16" height="16" fill="white"/>
</clipPath>
</defs>
</svg>
