<svg width="16" height="16" viewBox="0 0 16 16" fill="none" xmlns="http://www.w3.org/2000/svg">
<path opacity="0.1" d="M13 6C13 9.75 10.7614 11 8 11C5.23858 11 3 9.75 3 6C3 2.25 5.23858 1 8 1C10.7614 1 13 2.25 13 6Z" fill="#525252"/>
<path fill-rule="evenodd" clip-rule="evenodd" d="M4 6C4 4.32987 4.49073 3.39225 5.118 2.85065C5.7727 2.28536 6.74985 2 8 2C9.25015 2 10.2273 2.28536 10.882 2.85065C11.5093 3.39225 12 4.32987 12 6C12 7.67013 11.5093 8.60775 10.882 9.14935C10.4136 9.55374 9.78028 9.81488 9 9.93077V7.61803L10.4472 6.89443C10.9412 6.64744 11.1414 6.04676 10.8944 5.55279C10.6474 5.05881 10.0468 4.85858 9.55279 5.10557L8.19745 5.78324L6.70711 4.29289C6.31658 3.90237 5.68342 3.90237 5.29289 4.29289C4.90237 4.68342 4.90237 5.31658 5.29289 5.70711L7 7.41421V9.93077C6.21972 9.81488 5.58635 9.55374 5.118 9.14935C4.49073 8.60775 4 7.67013 4 6ZM7 11.9468C5.83332 11.8177 4.71052 11.4399 3.81094 10.6632C2.62856 9.64225 2 8.07987 2 6C2 3.92013 2.62856 2.35775 3.81094 1.33685C4.96587 0.339643 6.48872 0 8 0C9.51128 0 11.0341 0.339643 12.1891 1.33685C13.3714 2.35775 14 3.92013 14 6C14 8.07987 13.3714 9.64225 12.1891 10.6632C11.2895 11.4399 10.1667 11.8177 9 11.9468V15C9 15.5523 8.55228 16 8 16C7.44772 16 7 15.5523 7 15V11.9468Z" fill="#525252"/>
</svg>
