<svg width="16" height="16" viewBox="0 0 16 16" fill="none" xmlns="http://www.w3.org/2000/svg">
<path opacity="0.1" fill-rule="evenodd" clip-rule="evenodd" d="M8 7C9.65685 7 11 5.65685 11 4C11 2.34315 9.65685 1 8 1C6.34315 1 5 2.34315 5 4C5 5.65685 6.34315 7 8 7ZM3 14.2857C3 11.9188 5.23858 10 8 10C10.7614 10 13 11.9188 13 14.2857C13 14.2857 11.2143 15 8 15C4.78571 15 3 14.2857 3 14.2857Z" fill="#525252"/>
<path fill-rule="evenodd" clip-rule="evenodd" d="M6 4C6 2.89543 6.89543 2 8 2C9.10457 2 10 2.89543 10 4C10 5.10457 9.10457 6 8 6C6.89543 6 6 5.10457 6 4ZM8 0C5.79086 0 4 1.79086 4 4C4 6.20914 5.79086 8 8 8C10.2091 8 12 6.20914 12 4C12 1.79086 10.2091 0 8 0ZM2.62861 15.2142L3 14.2857C2.62861 15.2142 2.6289 15.2143 2.62919 15.2144L2.62982 15.2147L2.63119 15.2152L2.63444 15.2165L2.64292 15.2198L2.66778 15.2293C2.68786 15.2369 2.71495 15.2469 2.74894 15.259C2.81692 15.2831 2.91256 15.3154 3.03516 15.3531C3.28033 15.4285 3.63338 15.5256 4.08863 15.6214C4.99932 15.8131 6.31845 16 8 16C9.68155 16 11.0007 15.8131 11.9114 15.6214C12.3666 15.5256 12.7197 15.4285 12.9648 15.3531C13.0874 15.3154 13.1831 15.2831 13.2511 15.259C13.2851 15.2469 13.3121 15.2369 13.3322 15.2293L13.3571 15.2198L13.3656 15.2165L13.3688 15.2152L13.3702 15.2147L13.3708 15.2144C13.3711 15.2143 13.3714 15.2142 13 14.2857L13.3714 15.2142C13.751 15.0623 14 14.6946 14 14.2857C14 11.2274 11.1635 9 8 9C4.83647 9 2 11.2274 2 14.2857C2 14.6946 2.24895 15.0623 2.62861 15.2142ZM8 11C10.0205 11 11.514 12.1809 11.9012 13.5725C11.7815 13.6021 11.6474 13.6331 11.4993 13.6643C10.7136 13.8297 9.53273 14 8 14C6.46727 14 5.28639 13.8297 4.50065 13.6643C4.35258 13.6331 4.21853 13.6021 4.09878 13.5725C4.48605 12.1809 5.9795 11 8 11Z" fill="#525252"/>
</svg>
