<svg width="16" height="16" viewBox="0 0 16 16" fill="none" xmlns="http://www.w3.org/2000/svg">
<g clip-path="url(#clip0_19_795)">
<path opacity="0.1" d="M6.56892 3.86217C7.02952 2.94095 7.25983 2.48035 7.57148 2.33254C7.84268 2.20391 8.15732 2.20391 8.42852 2.33254C8.74017 2.48035 8.97048 2.94095 9.43108 3.86217L13.8422 12.6845C14.2256 13.4512 14.4173 13.8345 14.3712 14.1462C14.331 14.4183 14.1805 14.6618 13.9551 14.8195C13.697 15 13.2684 15 12.4111 15H3.58886C2.73164 15 2.30303 15 2.04489 14.8195C1.81949 14.6618 1.66898 14.4183 1.62877 14.1462C1.58273 13.8345 1.77441 13.4512 2.15777 12.6845L6.56892 3.86217Z" fill="#525252"/>
<path fill-rule="evenodd" clip-rule="evenodd" d="M7.14293 1.42901C7.68534 1.17176 8.31462 1.17176 8.85703 1.42901C9.28574 1.63233 9.54819 1.99685 9.72404 2.28072C9.90243 2.56871 10.0924 2.94875 10.3058 3.37551L10.3255 3.41495L14.7366 12.2372L14.755 12.274C14.9309 12.6257 15.0922 12.9483 15.1992 13.2221C15.3094 13.5042 15.422 13.8761 15.3605 14.2923C15.2801 14.8365 14.979 15.3236 14.5282 15.6389C14.1834 15.8801 13.8004 15.9457 13.4989 15.9733C13.2062 16.0001 12.8454 16 12.4523 16L12.4111 16H3.58884L3.54768 16C3.15455 16 2.79381 16.0001 2.50105 15.9733C2.19955 15.9457 1.81652 15.8801 1.47173 15.6389C1.02093 15.3236 0.719901 14.8365 0.639494 14.2923C0.577998 13.8761 0.690609 13.5042 0.800763 13.2221C0.90772 12.9483 1.06908 12.6257 1.24492 12.2741L1.26333 12.2372L5.67447 3.41496L5.69417 3.37556C5.90752 2.94878 6.09753 2.56872 6.27593 2.28072C6.45177 1.99685 6.71423 1.63233 7.14293 1.42901ZM7.97615 3.33393C7.8518 3.53466 7.70254 3.83095 7.46333 4.30938L3.05218 13.1317C2.85178 13.5325 2.73319 13.7719 2.66369 13.9498L2.65274 13.9785L2.68335 13.9816C2.87355 13.999 3.14072 14 3.58884 14H12.4111C12.8592 14 13.1264 13.999 13.3166 13.9816L13.3472 13.9785L13.3363 13.9498C13.2668 13.7719 13.1482 13.5325 12.9478 13.1317L8.53664 4.30938C8.29742 3.83095 8.14816 3.53466 8.02382 3.33393C8.01537 3.32029 8.00742 3.30777 7.99998 3.29629C7.99254 3.30777 7.9846 3.32029 7.97615 3.33393ZM7.99998 6C8.55227 6 8.99998 6.44772 8.99998 7V9C8.99998 9.55229 8.55227 10 7.99998 10C7.4477 10 6.99998 9.55229 6.99998 9V7C6.99998 6.44772 7.4477 6 7.99998 6ZM7.99998 13C8.55227 13 8.99998 12.5523 8.99998 12C8.99998 11.4477 8.55227 11 7.99998 11C7.4477 11 6.99998 11.4477 6.99998 12C6.99998 12.5523 7.4477 13 7.99998 13Z" fill="#525252"/>
</g>
<defs>
<clipPath id="clip0_19_795">
<rect width="16" height="16" fill="white"/>
</clipPath>
</defs>
</svg>
