<svg width="16" height="16" viewBox="0 0 16 16" fill="none" xmlns="http://www.w3.org/2000/svg">
<g clip-path="url(#clip0_34_6703)">
<path opacity="0.1" fill-rule="evenodd" clip-rule="evenodd" d="M1.27099 4.10294C1 4.69646 1 5.28419 1 6.45964V9.54036C1 10.7158 1 11.3035 1.27099 11.8971C1.47958 12.3539 1.95509 12.9029 2.37753 13.1745C2.92634 13.5273 3.40956 13.597 4.37601 13.7362C5.41974 13.8866 6.65318 14 8 14C9.34682 14 10.5803 13.8866 11.624 13.7362C12.5904 13.597 13.0737 13.5273 13.6225 13.1745C14.0449 12.9029 14.5204 12.3539 14.729 11.8971C15 11.3035 15 10.7158 15 9.54036V6.45964C15 5.28419 15 4.69646 14.729 4.10294C14.5204 3.64607 14.0449 3.09714 13.6225 2.82552C13.0737 2.47265 12.5904 2.40302 11.624 2.26376C10.5803 2.11337 9.34682 2 8 2C6.65318 2 5.41974 2.11337 4.376 2.26376C3.40956 2.40302 2.92634 2.47265 2.37753 2.82552C1.95509 3.09714 1.47958 3.64607 1.27099 4.10294ZM10 8L6 6V10L10 8Z" fill="#525252"/>
<path fill-rule="evenodd" clip-rule="evenodd" d="M4.51863 3.25354C5.5233 3.10878 6.70851 3 8 3C9.29149 3 10.4767 3.10878 11.4814 3.25354C12.488 3.39859 12.7464 3.45112 13.0816 3.66666C13.3429 3.83462 13.6904 4.23575 13.8193 4.51827C13.9811 4.87259 14 5.21402 14 6.45964V9.54036C14 10.786 13.9811 11.1274 13.8193 11.4817C13.6904 11.7642 13.3429 12.1654 13.0816 12.3333C12.7464 12.5489 12.488 12.6014 11.4814 12.7465C10.4767 12.8912 9.29149 13 8 13C6.70851 13 5.5233 12.8912 4.51863 12.7465C3.51202 12.6014 3.25358 12.5489 2.91836 12.3333C2.65712 12.1654 2.30965 11.7642 2.18066 11.4817C2.01889 11.1274 2 10.786 2 9.54036V6.45964C2 5.21402 2.01889 4.87259 2.18066 4.51827C2.30965 4.23575 2.65712 3.83462 2.91836 3.66666C3.25358 3.45112 3.51202 3.39859 4.51863 3.25354ZM8 1C6.59786 1 5.31618 1.11796 4.23339 1.27399L4.13 1.28884C3.25389 1.41454 2.5705 1.51258 1.83671 1.98438C1.25305 2.35966 0.649516 3.05639 0.36132 3.68761C-0.00151932 4.48231 -0.000891089 5.27818 -7.67708e-05 6.30986L1.66893e-06 6.45964V9.54036L-7.67708e-05 9.69014C-0.000891089 10.7218 -0.00151932 11.5177 0.36132 12.3124C0.649516 12.9436 1.25305 13.6403 1.83671 14.0156C2.5705 14.4874 3.25389 14.5855 4.13 14.7112L4.23339 14.726C5.31618 14.882 6.59786 15 8 15C9.40214 15 10.6838 14.882 11.7666 14.726L11.87 14.7112C12.7461 14.5855 13.4295 14.4874 14.1633 14.0156C14.747 13.6403 15.3505 12.9436 15.6387 12.3124C16.0015 11.5177 16.0009 10.7218 16.0001 9.69014L16 9.54036V6.45964L16.0001 6.30986C16.0009 5.27818 16.0015 4.48231 15.6387 3.68761C15.3505 3.05639 14.747 2.35966 14.1633 1.98438C13.4295 1.51258 12.7461 1.41454 11.87 1.28884L11.7666 1.27399C10.6838 1.11796 9.40214 1 8 1ZM6.44722 5.10557C6.13723 4.95058 5.76909 4.96714 5.47427 5.14935C5.17945 5.33156 5 5.65342 5 6V10C5 10.3466 5.17945 10.6684 5.47427 10.8507C5.76909 11.0329 6.13723 11.0494 6.44722 10.8944L10.4472 8.89443C10.786 8.72504 11 8.37877 11 8C11 7.62123 10.786 7.27496 10.4472 7.10557L6.44722 5.10557ZM7.76393 8L7 8.38197V7.61803L7.76393 8Z" fill="#525252"/>
</g>
<defs>
<clipPath id="clip0_34_6703">
<rect width="16" height="16" fill="white"/>
</clipPath>
</defs>
</svg>
