<svg width="16" height="16" viewBox="0 0 16 16" fill="none" xmlns="http://www.w3.org/2000/svg">
<g clip-path="url(#clip0_5_450)">
<circle opacity="0.1" cx="7" cy="7" r="6" fill="#525252"/>
<path fill-rule="evenodd" clip-rule="evenodd" d="M2 7C2 4.23858 4.23858 2 7 2C9.76142 2 12 4.23858 12 7C12 9.76142 9.76142 12 7 12C4.23858 12 2 9.76142 2 7ZM7 0C3.13401 0 0 3.13401 0 7C0 10.866 3.13401 14 7 14C8.57234 14 10.0236 13.4816 11.1922 12.6064L14.2929 15.7071C14.6834 16.0976 15.3166 16.0976 15.7071 15.7071C16.0976 15.3166 16.0976 14.6834 15.7071 14.2929L12.6064 11.1922C13.4816 10.0236 14 8.57234 14 7C14 3.13401 10.866 0 7 0ZM4 7C4 6.44772 4.44772 6 5 6H6V5C6 4.44772 6.44772 4 7 4C7.55228 4 8 4.44772 8 5V6H9C9.55228 6 10 6.44772 10 7C10 7.55228 9.55228 8 9 8H8V9C8 9.55229 7.55228 10 7 10C6.44771 10 6 9.55228 6 9V8H5C4.44772 8 4 7.55228 4 7Z" fill="#525252"/>
</g>
<defs>
<clipPath id="clip0_5_450">
<rect width="16" height="16" fill="white"/>
</clipPath>
</defs>
</svg>
