<svg width="16" height="16" viewBox="0 0 16 16" fill="none" xmlns="http://www.w3.org/2000/svg">
<g clip-path="url(#clip0_34_383)">
<path fill-rule="evenodd" clip-rule="evenodd" d="M2 8C2 4.68629 4.68629 2 8 2C11.3137 2 14 4.68629 14 8C14 11.3137 11.3137 14 8 14C4.68629 14 2 11.3137 2 8ZM8 0C3.58172 0 0 3.58172 0 8C0 12.4183 3.58172 16 8 16C12.4183 16 16 12.4183 16 8C16 3.58172 12.4183 0 8 0ZM6.70711 5.29289C6.31658 4.90237 5.68342 4.90237 5.29289 5.29289C4.90237 5.68342 4.90237 6.31658 5.29289 6.70711L7.58579 9H6C5.44772 9 5 9.44771 5 10C5 10.5523 5.44772 11 6 11H10C10.2652 11 10.5196 10.8946 10.7071 10.7071C10.8946 10.5196 11 10.2652 11 10V6C11 5.44772 10.5523 5 10 5C9.44772 5 9 5.44772 9 6V7.58579L6.70711 5.29289Z" fill="#525252"/>
</g>
<defs>
<clipPath id="clip0_34_383">
<rect width="16" height="16" fill="white"/>
</clipPath>
</defs>
</svg>
