<svg width="16" height="16" viewBox="0 0 16 16" fill="none" xmlns="http://www.w3.org/2000/svg">
<path fill-rule="evenodd" clip-rule="evenodd" d="M5 3.00001L12 3C12.2652 3 12.5196 3.10536 12.7071 3.29289C12.8946 3.48043 13 3.73478 13 4V11C13 11.5523 12.5523 12 12 12C11.4477 12 11 11.5523 11 11V6.41422L4.70711 12.7071C4.31658 13.0976 3.68342 13.0976 3.29289 12.7071C2.90237 12.3166 2.90237 11.6834 3.29289 11.2929L9.58578 5L5 5.00001C4.44772 5.00001 4 4.55229 4 4.00001C4 3.44772 4.44771 3.00001 5 3.00001Z" fill="#525252"/>
</svg>
