<svg width="16" height="16" viewBox="0 0 16 16" fill="none" xmlns="http://www.w3.org/2000/svg">
<g clip-path="url(#clip0_34_362)">
<path fill-rule="evenodd" clip-rule="evenodd" d="M2 8C2 4.68629 4.68629 2 8 2C11.3137 2 14 4.68629 14 8C14 11.3137 11.3137 14 8 14C4.68629 14 2 11.3137 2 8ZM8 0C3.58172 0 0 3.58172 0 8C0 12.4183 3.58172 16 8 16C12.4183 16 16 12.4183 16 8C16 3.58172 12.4183 0 8 0ZM10.7071 5.29289C10.5196 5.10536 10.2652 5 10 5L6 5C5.44771 5 5 5.44772 5 6C5 6.55229 5.44771 7 6 7L7.58578 7L5.29289 9.29289C4.90237 9.68342 4.90237 10.3166 5.29289 10.7071C5.68342 11.0976 6.31658 11.0976 6.70711 10.7071L9 8.41421V10C9 10.5523 9.44771 11 10 11C10.5523 11 11 10.5523 11 10V6C11 5.73478 10.8946 5.48043 10.7071 5.29289Z" fill="#525252"/>
</g>
<defs>
<clipPath id="clip0_34_362">
<rect width="16" height="16" fill="white"/>
</clipPath>
</defs>
</svg>
