<svg width="16" height="16" viewBox="0 0 16 16" fill="none" xmlns="http://www.w3.org/2000/svg">
<g clip-path="url(#clip0_34_2558)">
<path fill-rule="evenodd" clip-rule="evenodd" d="M6.16146 -1.04724e-06L6.2 -9.3564e-08H9.8L9.83855 -1.04724e-06C10.3657 -1.89286e-05 10.8205 -3.44258e-05 11.195 0.0305693C11.5904 0.0628703 11.9836 0.134186 12.362 0.32698C12.9265 0.6146 13.3854 1.07354 13.673 1.63803C13.8658 2.01641 13.9371 2.40963 13.9694 2.80497C14 3.17955 14 3.63432 14 4.16148V4.2V15C14 15.3844 13.7797 15.7348 13.4332 15.9013C13.0867 16.0678 12.6755 16.021 12.3753 15.7809L8 12.2806L3.6247 15.7809C3.32453 16.021 2.91328 16.0678 2.56681 15.9013C2.22035 15.7348 2 15.3844 2 15V4.2L2 4.16146C1.99998 3.63431 1.99997 3.17954 2.03057 2.80497C2.06287 2.40963 2.13419 2.01641 2.32698 1.63803C2.6146 1.07354 3.07354 0.6146 3.63803 0.32698C4.01641 0.134186 4.40963 0.0628703 4.80497 0.0305693C5.17955 -3.44258e-05 5.63431 -1.89286e-05 6.16146 -1.04724e-06ZM4.96784 2.02393C4.69617 2.04612 4.59546 2.0838 4.54601 2.10899C4.35785 2.20487 4.20487 2.35785 4.109 2.54601C4.0838 2.59545 4.04612 2.69617 4.02393 2.96784C4.00078 3.25117 4 3.62345 4 4.2V12.9194L7.37531 10.2191C7.74053 9.92696 8.25948 9.92696 8.6247 10.2191L12 12.9194V4.2C12 3.62345 11.9992 3.25117 11.9761 2.96784C11.9539 2.69617 11.9162 2.59545 11.891 2.54601C11.7951 2.35785 11.6422 2.20487 11.454 2.10899C11.4045 2.0838 11.3038 2.04612 11.0322 2.02393C10.7488 2.00078 10.3766 2 9.8 2H6.2C5.62345 2 5.25117 2.00078 4.96784 2.02393Z" fill="#525252"/>
</g>
<defs>
<clipPath id="clip0_34_2558">
<rect width="16" height="16" fill="white"/>
</clipPath>
</defs>
</svg>
