<svg width="16" height="16" viewBox="0 0 16 16" fill="none" xmlns="http://www.w3.org/2000/svg">
<g clip-path="url(#clip0_34_1938)">
<path fill-rule="evenodd" clip-rule="evenodd" d="M5 0C5.55229 0 6 0.447715 6 1V2H10V1C10 0.447715 10.4477 0 11 0C11.5523 0 12 0.447715 12 1V2.01762C12.0672 2.02117 12.1323 2.02544 12.195 2.03057C12.5904 2.06287 12.9836 2.13419 13.362 2.32698C13.9265 2.6146 14.3854 3.07354 14.673 3.63803C14.8658 4.01641 14.9371 4.40963 14.9694 4.80497C15 5.17954 15 5.6343 15 6.16145V6.16148V6.2V7V11.8V11.8385V11.8386C15 12.3657 15 12.8205 14.9694 13.195C14.9371 13.5904 14.8658 13.9836 14.673 14.362C14.3854 14.9265 13.9265 15.3854 13.362 15.673C12.9836 15.8658 12.5904 15.9371 12.195 15.9694C11.8205 16 11.3657 16 10.8385 16H10.8H5.2H5.16148C4.63432 16 4.17955 16 3.80497 15.9694C3.40963 15.9371 3.01641 15.8658 2.63803 15.673C2.07354 15.3854 1.6146 14.9265 1.32698 14.362C1.13419 13.9836 1.06287 13.5904 1.03057 13.195C0.999968 12.8205 0.999983 12.3657 1 11.8386V11.8385V11.8V7V6.2V6.16146V6.16141C0.999983 5.63428 0.999968 5.17953 1.03057 4.80497C1.06287 4.40963 1.13419 4.01641 1.32698 3.63803C1.6146 3.07354 2.07354 2.6146 2.63803 2.32698C3.01641 2.13419 3.40963 2.06287 3.80497 2.03057C3.86774 2.02544 3.93277 2.02117 4 2.01762V1C4 0.447715 4.44772 0 5 0ZM3.96784 4.02393C3.69617 4.04612 3.59546 4.0838 3.54601 4.10899C3.35785 4.20487 3.20487 4.35785 3.109 4.54601C3.0838 4.59545 3.04612 4.69617 3.02393 4.96784C3.00357 5.21698 3.00052 5.5349 3.00007 6H12.9999C12.9995 5.5349 12.9964 5.21698 12.9761 4.96784C12.9539 4.69617 12.9162 4.59545 12.891 4.54601C12.7951 4.35785 12.6422 4.20487 12.454 4.10899C12.4045 4.0838 12.3038 4.04612 12.0322 4.02393C11.7488 4.00078 11.3766 4 10.8 4H5.2C4.62345 4 4.25117 4.00078 3.96784 4.02393ZM13 8H3V11.8C3 12.3766 3.00078 12.7488 3.02393 13.0322C3.04612 13.3038 3.0838 13.4045 3.109 13.454C3.20487 13.6422 3.35785 13.7951 3.54601 13.891C3.59546 13.9162 3.69617 13.9539 3.96784 13.9761C4.25117 13.9992 4.62345 14 5.2 14H10.8C11.3766 14 11.7488 13.9992 12.0322 13.9761C12.3038 13.9539 12.4045 13.9162 12.454 13.891C12.6422 13.7951 12.7951 13.6422 12.891 13.454C12.9162 13.4045 12.9539 13.3038 12.9761 13.0322C12.9992 12.7488 13 12.3766 13 11.8V8Z" fill="#525252"/>
</g>
<defs>
<clipPath id="clip0_34_1938">
<rect width="16" height="16" fill="white"/>
</clipPath>
</defs>
</svg>
