<svg width="16" height="16" viewBox="0 0 16 16" fill="none" xmlns="http://www.w3.org/2000/svg">
<g clip-path="url(#clip0_34_800)">
<path fill-rule="evenodd" clip-rule="evenodd" d="M2 6C2 4.86424 2.55994 3.88691 3.48894 3.16435C4.42877 2.43337 5.70985 2 7 2C8.29015 2 9.57123 2.43337 10.5111 3.16435C11.4401 3.88691 12 4.86424 12 6C12 7.13576 11.4401 8.11309 10.5111 8.83565C9.57123 9.56663 8.29015 10 7 10C6.09239 10 5.18241 9.78513 4.39118 9.39648C4.09581 9.2514 3.74797 9.26092 3.46098 9.42194C3.17001 9.5852 2.82355 9.731 2.41122 9.83533C2.53257 9.38404 2.63225 8.91413 2.67982 8.43323C2.70188 8.21022 2.64839 7.98626 2.52793 7.79728C2.19223 7.27062 2 6.66923 2 6ZM7 0C5.29015 0 3.57123 0.566629 2.26106 1.58565C0.940057 2.61309 0 4.13576 0 6C0 6.93458 0.23796 7.7927 0.649019 8.54654C0.574418 9.01115 0.437243 9.49857 0.26494 10.0356C-0.0314507 10.9593 0.646224 12.0707 1.78643 11.9641C2.63079 11.8851 3.35619 11.6808 3.9745 11.4011C4.3769 11.5667 4.79603 11.6997 5.22491 11.798C5.52905 12.6423 6.11519 13.336 6.81879 13.8468C7.84706 14.5932 9.18158 15 10.5 15C10.5295 15 10.559 14.9987 10.5883 14.9961L11.2645 14.9361C11.4251 15.0182 11.6472 15.1264 11.9124 15.2423C12.4558 15.4797 13.2172 15.7651 14.0204 15.9081C14.6265 16.0159 15.1514 15.7338 15.443 15.322C15.7221 14.9279 15.8059 14.4025 15.6303 13.9148C15.4937 13.5353 15.3724 13.1291 15.2841 12.8121L15.2696 12.7595C15.7201 12.1239 16 11.3599 16 10.5C16 8.92617 15.0871 7.72405 13.9121 6.97156C13.9696 6.65934 14 6.33519 14 6C14 4.13576 13.0599 2.61309 11.7389 1.58565C10.4288 0.566629 8.70985 0 7 0ZM13.1522 8.88192C12.7744 9.47141 12.2898 9.98593 11.7389 10.4144C10.6031 11.2978 9.15996 11.8412 7.68189 11.9702C7.77637 12.0598 7.88037 12.146 7.99371 12.2282C8.64303 12.6996 9.54094 12.9911 10.458 12.9998L11.3838 12.9177C11.5871 12.8997 11.791 12.9443 11.9682 13.0455L11.9685 13.0456L11.9751 13.0493L12.0103 13.0688C12.043 13.0865 12.0933 13.1135 12.159 13.1472C12.2906 13.2147 12.4817 13.3085 12.713 13.4095C12.9371 13.5074 13.1906 13.6085 13.458 13.6987C13.4208 13.5732 13.3871 13.4552 13.3574 13.3485C13.3095 13.1764 13.2712 13.031 13.2447 12.9279C13.2315 12.8763 13.2211 12.8352 13.214 12.8064L13.2057 12.7729L13.2034 12.7635L13.2028 12.7607L13.2026 12.7599L13.2025 12.7595L13.2024 12.7594C13.2024 12.7594 13.2024 12.7593 14.1745 12.5248L13.2024 12.7593C13.124 12.4342 13.2133 12.0914 13.4403 11.8458C13.8054 11.4511 14 10.9989 14 10.5C14 9.9028 13.7045 9.33351 13.1522 8.88192Z" fill="#525252"/>
</g>
<defs>
<clipPath id="clip0_34_800">
<rect width="16" height="16" fill="white"/>
</clipPath>
</defs>
</svg>
