<svg width="16" height="16" viewBox="0 0 16 16" fill="none" xmlns="http://www.w3.org/2000/svg">
<g clip-path="url(#clip0_34_2002)">
<path fill-rule="evenodd" clip-rule="evenodd" d="M5.7587 -4.76837e-07L5.8 0H10.2L10.2413 -4.76837e-07C11.0463 -1.32322e-05 11.7106 -2.37226e-05 12.2518 0.0441936C12.8139 0.0901188 13.3306 0.188683 13.816 0.435974C14.5686 0.819467 15.1805 1.43139 15.564 2.18404C15.8113 2.66937 15.9099 3.18608 15.9558 3.74817C16 4.28937 16 4.95374 16 5.75872V5.8V10.2V10.2413C16 11.0463 16 11.7106 15.9558 12.2518C15.9099 12.8139 15.8113 13.3306 15.564 13.816C15.1805 14.5686 14.5686 15.1805 13.816 15.564C13.3306 15.8113 12.8139 15.9099 12.2518 15.9558C11.7106 16 11.0463 16 10.2413 16H10.2H5.8H5.75873C4.95374 16 4.28938 16 3.74818 15.9558C3.18608 15.9099 2.66937 15.8113 2.18404 15.564C1.43139 15.1805 0.819468 14.5686 0.435975 13.816C0.188684 13.3306 0.0901198 12.8139 0.0441946 12.2518C-2.2769e-05 11.7106 -1.22786e-05 11.0463 4.76837e-07 10.2413L9.53674e-07 10.2V5.8L4.76837e-07 5.7587C-1.22786e-05 4.95373 -2.2769e-05 4.28937 0.0441946 3.74817C0.0901198 3.18608 0.188684 2.66937 0.435975 2.18404C0.819468 1.43139 1.43139 0.819467 2.18404 0.435974C2.66937 0.188683 3.18608 0.0901188 3.74817 0.0441936C4.28937 -2.37226e-05 4.95373 -1.32322e-05 5.7587 -4.76837e-07ZM3.91104 2.03755C3.47262 2.07337 3.24842 2.1383 3.09202 2.21799C2.7157 2.40973 2.40973 2.71569 2.21799 3.09202C2.1383 3.24842 2.07337 3.47262 2.03755 3.91104C2.00078 4.36113 2 4.94342 2 5.8V10.2C2 11.0566 2.00078 11.6389 2.03755 12.089C2.07337 12.5274 2.1383 12.7516 2.21799 12.908C2.40973 13.2843 2.7157 13.5903 3.09202 13.782C3.24842 13.8617 3.47262 13.9266 3.91104 13.9624C4.36113 13.9992 4.94342 14 5.8 14H10.2C11.0566 14 11.6389 13.9992 12.089 13.9624C12.5274 13.9266 12.7516 13.8617 12.908 13.782C13.2843 13.5903 13.5903 13.2843 13.782 12.908C13.8617 12.7516 13.9266 12.5274 13.9624 12.089C13.9992 11.6389 14 11.0566 14 10.2V5.8C14 4.94342 13.9992 4.36113 13.9624 3.91104C13.9266 3.47262 13.8617 3.24842 13.782 3.09202C13.5903 2.71569 13.2843 2.40973 12.908 2.21799C12.7516 2.1383 12.5274 2.07337 12.089 2.03755C11.6389 2.00078 11.0566 2 10.2 2H5.8C4.94342 2 4.36113 2.00078 3.91104 2.03755Z" fill="#525252"/>
</g>
<defs>
<clipPath id="clip0_34_2002">
<rect width="16" height="16" fill="white"/>
</clipPath>
</defs>
</svg>
