<svg width="16" height="16" viewBox="0 0 16 16" fill="none" xmlns="http://www.w3.org/2000/svg">
<g clip-path="url(#clip0_34_1099)">
<path fill-rule="evenodd" clip-rule="evenodd" d="M1.49012e-08 6C1.49012e-08 5.44772 0.447715 5 1 5H3.58579L0.292893 1.70711C-0.0976311 1.31658 -0.0976311 0.683417 0.292893 0.292893C0.683418 -0.097631 1.31658 -0.097631 1.70711 0.292893L5 3.58579V1C5 0.447715 5.44772 0 6 0C6.55228 0 7 0.447715 7 1V6C7 6.55228 6.55228 7 6 7H1C0.447715 7 1.49012e-08 6.55228 1.49012e-08 6ZM6 9H1C0.447715 9 1.49012e-08 9.44771 1.49012e-08 10C1.49012e-08 10.5523 0.447715 11 1 11H3.58579L0.292893 14.2929C-0.0976311 14.6834 -0.0976311 15.3166 0.292893 15.7071C0.683418 16.0976 1.31658 16.0976 1.70711 15.7071L5 12.4142V15C5 15.5523 5.44772 16 6 16C6.55228 16 7 15.5523 7 15V10C7 9.44771 6.55228 9 6 9ZM15 5C15.5523 5 16 5.44772 16 6C16 6.55228 15.5523 7 15 7H10C9.44772 7 9 6.55228 9 6V1C9 0.447715 9.44772 0 10 0C10.5523 0 11 0.447715 11 1V3.58579L14.2929 0.292893C14.6834 -0.097631 15.3166 -0.097631 15.7071 0.292893C16.0976 0.683417 16.0976 1.31658 15.7071 1.70711L12.4142 5H15ZM10 9H15C15.5523 9 16 9.44771 16 10C16 10.5523 15.5523 11 15 11H12.4142L15.7071 14.2929C16.0976 14.6834 16.0976 15.3166 15.7071 15.7071C15.3166 16.0976 14.6834 16.0976 14.2929 15.7071L11 12.4142V15C11 15.5523 10.5523 16 10 16C9.44772 16 9 15.5523 9 15V10C9 9.44771 9.44772 9 10 9Z" fill="#525252"/>
</g>
<defs>
<clipPath id="clip0_34_1099">
<rect width="16" height="16" fill="white"/>
</clipPath>
</defs>
</svg>
