<svg width="16" height="16" viewBox="0 0 16 16" fill="none" xmlns="http://www.w3.org/2000/svg">
<g clip-path="url(#clip0_34_1764)">
<path fill-rule="evenodd" clip-rule="evenodd" d="M6.67452 2.00001C6.80733 2.00001 6.91373 2.0004 7 2.00131V5.40001L7 5.4319V5.43194C6.99997 5.68431 6.99994 5.93009 7.01695 6.13824C7.03562 6.36683 7.07969 6.63656 7.21799 6.90799C7.40974 7.28431 7.7157 7.59027 8.09202 7.78202C8.36344 7.92032 8.63318 7.96438 8.86177 7.98306C9.06992 8.00007 9.3157 8.00004 9.56807 8.00001H9.5681L9.6 8.00001H12.9987C12.9996 8.08628 13 8.19268 13 8.32549V11.8C13 12.3766 12.9992 12.7488 12.9761 13.0322C12.9539 13.3038 12.9162 13.4046 12.891 13.454C12.7951 13.6422 12.6422 13.7951 12.454 13.891C12.4045 13.9162 12.3038 13.9539 12.0322 13.9761C11.7488 13.9992 11.3766 14 10.8 14H5.2C4.62345 14 4.25117 13.9992 3.96784 13.9761C3.69617 13.9539 3.59546 13.9162 3.54601 13.891C3.35785 13.7951 3.20487 13.6422 3.109 13.454C3.0838 13.4046 3.04612 13.3038 3.02393 13.0322C3.00078 12.7488 3 12.3766 3 11.8V6.00001V4.20001C3 3.62345 3.00078 3.25118 3.02393 2.96784C3.04612 2.69618 3.0838 2.59546 3.109 2.54602C3.20487 2.35785 3.35785 2.20487 3.54601 2.109C3.59546 2.08381 3.69617 2.04613 3.96784 2.02393C4.25117 2.00078 4.62345 2.00001 5.2 2.00001H6.67452ZM9 3.41422L11.5858 6.00001H9.6C9.30347 6.00001 9.14122 5.99923 9.02464 5.9897L9.01145 5.98856L9.01031 5.97537C9.00078 5.85879 9 5.69653 9 5.40001V3.41422ZM6.75782 -4.49419e-05C7.16472 -0.000423551 7.52347 -0.000757337 7.87191 0.0828968C8.17802 0.156387 8.47065 0.2776 8.73907 0.442086C9.04461 0.62932 9.29805 0.883228 9.58549 1.17121L9.64437 1.23016L13.7698 5.35564L13.8288 5.41451C14.1168 5.70196 14.3707 5.9554 14.5579 6.26094C14.7224 6.52936 14.8436 6.82199 14.9171 7.1281C15.0008 7.47654 15.0004 7.83529 15.0001 8.24218L15 8.32549V11.8V11.8385V11.8386C15 12.3657 15 12.8205 14.9694 13.195C14.9371 13.5904 14.8658 13.9836 14.673 14.362C14.3854 14.9265 13.9265 15.3854 13.362 15.673C12.9836 15.8658 12.5904 15.9371 12.195 15.9694C11.8205 16 11.3657 16 10.8385 16H10.8H5.2H5.16148C4.63432 16 4.17955 16 3.80497 15.9694C3.40963 15.9371 3.01641 15.8658 2.63803 15.673C2.07354 15.3854 1.6146 14.9265 1.32698 14.362C1.13419 13.9836 1.06287 13.5904 1.03057 13.195C0.999968 12.8205 0.999983 12.3657 1 11.8386V11.8386V11.8V6.00001V4.20001V4.16146V4.16142C0.999983 3.63429 0.999968 3.17954 1.03057 2.80498C1.06287 2.40963 1.13419 2.01641 1.32698 1.63804C1.6146 1.07355 2.07354 0.614607 2.63803 0.326987C3.01641 0.134193 3.40963 0.062877 3.80497 0.030576C4.17954 -2.7705e-05 4.63431 -1.22786e-05 5.16145 5.60271e-06L5.16146 5.60284e-06L5.2 6.55651e-06H6.67452L6.75782 -4.49419e-05ZM5 6.00001C5.55229 6.00001 6 5.55229 6 5.00001C6 4.44772 5.55229 4.00001 5 4.00001C4.44772 4.00001 4 4.44772 4 5.00001C4 5.55229 4.44772 6.00001 5 6.00001ZM4 11C4 10.4477 4.44772 10 5 10H11C11.5523 10 12 10.4477 12 11C12 11.5523 11.5523 12 11 12H5C4.44772 12 4 11.5523 4 11ZM5 7.00001C4.44772 7.00001 4 7.44772 4 8.00001C4 8.55229 4.44772 9.00001 5 9.00001H6C6.55229 9.00001 7 8.55229 7 8.00001C7 7.44772 6.55229 7.00001 6 7.00001H5Z" fill="#525252"/>
</g>
<defs>
<clipPath id="clip0_34_1764">
<rect width="16" height="16" fill="white"/>
</clipPath>
</defs>
</svg>
