<svg width="16" height="16" viewBox="0 0 16 16" fill="none" xmlns="http://www.w3.org/2000/svg">
<path fill-rule="evenodd" clip-rule="evenodd" d="M11.7071 6.7071C12.0976 6.31657 12.0976 5.68341 11.7071 5.29288C11.3166 4.90236 10.6834 4.90236 10.2929 5.29288L9 6.58579L9 2C9 1.44772 8.55229 1 8 1C7.44772 1 7 1.44772 7 2L7 6.58578L5.70711 5.29289C5.31658 4.90236 4.68342 4.90236 4.2929 5.29288C3.90237 5.68341 3.90237 6.31657 4.29289 6.7071L7.29289 9.70711C7.48043 9.89464 7.73478 10 8 10C8.26522 10 8.51957 9.89464 8.70711 9.70711L11.7071 6.7071ZM4 10C4 9.44771 3.55229 9 3 9C2.44772 9 2 9.44771 2 10V10.8V10.8385V10.8386C1.99998 11.3657 1.99997 11.8205 2.03057 12.195C2.06287 12.5904 2.13419 12.9836 2.32698 13.362C2.6146 13.9265 3.07354 14.3854 3.63803 14.673C4.01641 14.8658 4.40963 14.9371 4.80497 14.9694C5.17955 15 5.63431 15 6.16146 15L6.2 15H9.8L9.83855 15C10.3657 15 10.8205 15 11.195 14.9694C11.5904 14.9371 11.9836 14.8658 12.362 14.673C12.9265 14.3854 13.3854 13.9265 13.673 13.362C13.8658 12.9836 13.9371 12.5904 13.9694 12.195C14 11.8205 14 11.3657 14 10.8386V10.8385V10.8V10C14 9.44771 13.5523 9 13 9C12.4477 9 12 9.44771 12 10V10.8C12 11.3766 11.9992 11.7488 11.9761 12.0322C11.9539 12.3038 11.9162 12.4045 11.891 12.454C11.7951 12.6422 11.6422 12.7951 11.454 12.891C11.4045 12.9162 11.3038 12.9539 11.0322 12.9761C10.7488 12.9992 10.3766 13 9.8 13H6.2C5.62345 13 5.25117 12.9992 4.96784 12.9761C4.69617 12.9539 4.59546 12.9162 4.54601 12.891C4.35785 12.7951 4.20487 12.6422 4.109 12.454C4.0838 12.4045 4.04612 12.3038 4.02393 12.0322C4.00078 11.7488 4 11.3766 4 10.8V10Z" fill="#525252"/>
</svg>
