<svg width="16" height="16" viewBox="0 0 16 16" fill="none" xmlns="http://www.w3.org/2000/svg">
<path fill-rule="evenodd" clip-rule="evenodd" d="M9.2 0.999999H9.16146H9.16142C8.63429 0.999982 8.17954 0.999967 7.80497 1.03057C7.40963 1.06287 7.01641 1.13419 6.63803 1.32698C6.07354 1.6146 5.6146 2.07354 5.32698 2.63803C5.13419 3.01641 5.06287 3.40963 5.03057 3.80497C5.00314 4.14076 5.00031 4.54098 5.00003 5.00003C4.54098 5.00031 4.14076 5.00314 3.80497 5.03057C3.40963 5.06287 3.01641 5.13419 2.63803 5.32698C2.07354 5.6146 1.6146 6.07354 1.32698 6.63803C1.13419 7.01641 1.06287 7.40963 1.03057 7.80497C0.999969 8.17954 0.999984 8.63428 1 9.16142V9.16146V9.2V10.8V10.8385V10.8386C0.999984 11.3657 0.999969 11.8205 1.03057 12.195C1.06287 12.5904 1.13419 12.9836 1.32698 13.362C1.6146 13.9265 2.07354 14.3854 2.63803 14.673C3.01641 14.8658 3.40963 14.9371 3.80497 14.9694C4.17954 15 4.6343 15 5.16145 15H5.16148H5.2H6.8H6.83853H6.83856C7.3657 15 7.82046 15 8.19503 14.9694C8.59038 14.9371 8.98359 14.8658 9.36197 14.673C9.92646 14.3854 10.3854 13.9265 10.673 13.362C10.8658 12.9836 10.9371 12.5904 10.9694 12.195C10.9969 11.8592 10.9997 11.459 11 11C11.459 10.9997 11.8592 10.9969 12.195 10.9694C12.5904 10.9371 12.9836 10.8658 13.362 10.673C13.9265 10.3854 14.3854 9.92646 14.673 9.36197C14.8658 8.98359 14.9371 8.59037 14.9694 8.19503C15 7.82046 15 7.3657 15 6.83855V6.83852V6.8V5.2V5.16148V5.16145C15 4.6343 15 4.17954 14.9694 3.80497C14.9371 3.40963 14.8658 3.01641 14.673 2.63803C14.3854 2.07354 13.9265 1.6146 13.362 1.32698C12.9836 1.13419 12.5904 1.06287 12.195 1.03057C11.8205 0.999967 11.3657 0.999982 10.8386 0.999999H10.8385H10.8H9.2ZM8.99993 11C8.54093 10.9997 8.14073 10.9969 7.80497 10.9694C7.40963 10.9371 7.01641 10.8658 6.63803 10.673C6.07354 10.3854 5.6146 9.92646 5.32698 9.36197C5.13419 8.98359 5.06287 8.59037 5.03057 8.19503C5.00314 7.85927 5.00031 7.45908 5.00003 7.00007C4.53491 7.00051 4.21699 7.00357 3.96784 7.02393C3.69618 7.04612 3.59546 7.0838 3.54601 7.10899C3.35785 7.20487 3.20487 7.35785 3.109 7.54601C3.0838 7.59545 3.04613 7.69617 3.02393 7.96784C3.00078 8.25117 3 8.62345 3 9.2V10.8C3 11.3766 3.00078 11.7488 3.02393 12.0322C3.04613 12.3038 3.0838 12.4045 3.109 12.454C3.20487 12.6422 3.35785 12.7951 3.54601 12.891C3.59546 12.9162 3.69618 12.9539 3.96784 12.9761C4.25118 12.9992 4.62345 13 5.2 13H6.8C7.37656 13 7.74883 12.9992 8.03217 12.9761C8.30383 12.9539 8.40455 12.9162 8.45399 12.891C8.64216 12.7951 8.79514 12.6422 8.89101 12.454C8.9162 12.4045 8.95388 12.3038 8.97608 12.0322C8.99643 11.783 8.99949 11.4651 8.99993 11ZM7.54601 3.10899C7.59546 3.0838 7.69618 3.04612 7.96784 3.02393C8.25118 3.00078 8.62345 3 9.2 3H10.8C11.3766 3 11.7488 3.00078 12.0322 3.02393C12.3038 3.04612 12.4045 3.0838 12.454 3.10899C12.6422 3.20487 12.7951 3.35785 12.891 3.54601C12.9162 3.59545 12.9539 3.69617 12.9761 3.96784C12.9992 4.25117 13 4.62345 13 5.2V6.8C13 7.37655 12.9992 7.74883 12.9761 8.03216C12.9539 8.30383 12.9162 8.40455 12.891 8.45399C12.7951 8.64215 12.6422 8.79513 12.454 8.89101C12.4045 8.9162 12.3038 8.95388 12.0322 8.97607C11.7488 8.99922 11.3766 9 10.8 9H9.2C8.62345 9 8.25118 8.99922 7.96784 8.97607C7.69618 8.95388 7.59546 8.9162 7.54601 8.89101C7.35785 8.79513 7.20487 8.64215 7.109 8.45399C7.0838 8.40455 7.04613 8.30383 7.02393 8.03216C7.00078 7.74883 7 7.37655 7 6.8V5.2C7 4.62345 7.00078 4.25117 7.02393 3.96784C7.04613 3.69617 7.0838 3.59545 7.109 3.54601C7.20487 3.35785 7.35785 3.20487 7.54601 3.10899Z" fill="#525252"/>
</svg>
