<svg width="16" height="16" viewBox="0 0 16 16" fill="none" xmlns="http://www.w3.org/2000/svg">
<path fill-rule="evenodd" clip-rule="evenodd" d="M9.98211 1.60849C11.1263 0.568408 12.8737 0.568408 14.0179 1.60849C14.0713 1.65706 14.1274 1.71316 14.1927 1.77845L14.1927 1.77849L14.2071 1.79289L14.2215 1.8073C14.2868 1.87258 14.3429 1.92867 14.3915 1.98211C15.4316 3.12634 15.4316 4.87366 14.3915 6.01789C14.343 6.0713 14.2869 6.12734 14.2217 6.19256L14.2215 6.19268L14.2215 6.19272L14.2071 6.20711L12.7076 7.70659L12.7071 7.70711L12.7066 7.70763L7.11299 13.3012L7.04097 13.3733L7.04096 13.3733C6.59217 13.8225 6.25307 14.1619 5.84735 14.4106C5.48946 14.6299 5.09929 14.7915 4.69114 14.8895C4.22845 15.0006 3.74865 15.0003 3.11366 15L3.01177 15H2C1.44772 15 1 14.5523 1 14V12.9882L0.999968 12.8863C0.999666 12.2513 0.999437 11.7716 1.11052 11.3089C1.20851 10.9007 1.37012 10.5105 1.58944 10.1526C1.83806 9.74693 2.17749 9.40783 2.62671 8.95904L2.62671 8.95903L2.69878 8.88701L8.29289 3.29289L9.79289 1.79289L9.80729 1.77849L9.8073 1.77848L9.80733 1.77846C9.87259 1.71316 9.92868 1.65706 9.98211 1.60849ZM12.7929 4.79289L12 5.58579L10.4142 4L11.2071 3.20711C11.2949 3.1193 11.3142 3.10043 11.3274 3.08845C11.7088 2.74175 12.2912 2.74175 12.6726 3.08845C12.6858 3.10043 12.7051 3.1193 12.7929 3.20711C12.8807 3.29491 12.8996 3.31419 12.9116 3.32737C13.2582 3.70878 13.2582 4.29122 12.9116 4.67263C12.8996 4.68582 12.8807 4.70509 12.7929 4.79289ZM4.11299 10.3012L9 5.41421L10.5858 7L5.69878 11.887C5.14627 12.4395 4.98072 12.596 4.80236 12.7053C4.62341 12.8149 4.42832 12.8957 4.22425 12.9447C4.02084 12.9936 3.79314 13 3.01177 13H3V12.9882C3 12.2069 3.00643 11.9792 3.05526 11.7758C3.10425 11.5717 3.18506 11.3766 3.29472 11.1976C3.40402 11.0193 3.56048 10.8537 4.11299 10.3012ZM14 13H9C8.44772 13 8 13.4477 8 14C8 14.5523 8.44772 15 9 15H14C14.5523 15 15 14.5523 15 14C15 13.4477 14.5523 13 14 13Z" fill="#525252"/>
</svg>
