<svg width="16" height="16" viewBox="0 0 16 16" fill="none" xmlns="http://www.w3.org/2000/svg">
<g clip-path="url(#clip0_34_1813)">
<path fill-rule="evenodd" clip-rule="evenodd" d="M4.2 2H4.16146H4.16142C3.63429 1.99998 3.17954 1.99997 2.80497 2.03057C2.40963 2.06287 2.01641 2.13419 1.63803 2.32698C1.07354 2.6146 0.614602 3.07354 0.326982 3.63803C0.134188 4.01641 0.0628723 4.40963 0.0305712 4.80497C-3.24474e-05 5.17954 -1.70215e-05 5.6343 8.59995e-07 6.16145V6.16145V6.2V9.8V9.83854V9.83855C-1.70215e-05 10.3657 -3.24478e-05 10.8205 0.0305712 11.195C0.0628723 11.5904 0.134188 11.9836 0.326982 12.362C0.614602 12.9265 1.07354 13.3854 1.63803 13.673C2.01641 13.8658 2.40963 13.9371 2.80497 13.9694C3.17953 14 3.63428 14 4.1614 14H4.16144H4.2H11.8H11.8386H11.8386C12.3657 14 12.8205 14 13.195 13.9694C13.5904 13.9371 13.9836 13.8658 14.362 13.673C14.9265 13.3854 15.3854 12.9265 15.673 12.362C15.8658 11.9836 15.9371 11.5904 15.9694 11.195C16 10.8204 16 10.3657 16 9.83852V9.8V6.2V6.16148C16 5.63432 16 5.17955 15.9694 4.80497C15.9371 4.40963 15.8658 4.01641 15.673 3.63803C15.3854 3.07354 14.9265 2.6146 14.362 2.32698C13.9836 2.13419 13.5904 2.06287 13.195 2.03057C12.8205 1.99997 12.3657 1.99998 11.8386 2H11.8385H11.8H4.2ZM2.64096 4.07363C2.7068 4.0555 2.80758 4.03702 2.96784 4.02393C3.25117 4.00078 3.62345 4 4.2 4H11.8C12.3766 4 12.7488 4.00078 13.0322 4.02393C13.1924 4.03702 13.2932 4.0555 13.359 4.07363L8 7.78374L2.64096 4.07363ZM2.00003 6.06243C2.00001 6.10696 2 6.1528 2 6.2V9.8C2 10.3766 2.00078 10.7488 2.02393 11.0322C2.04612 11.3038 2.0838 11.4045 2.109 11.454C2.20487 11.6422 2.35785 11.7951 2.54601 11.891C2.59546 11.9162 2.69617 11.9539 2.96784 11.9761C3.25117 11.9992 3.62345 12 4.2 12H11.8C12.3766 12 12.7488 11.9992 13.0322 11.9761C13.3038 11.9539 13.4045 11.9162 13.454 11.891C13.6422 11.7951 13.7951 11.6422 13.891 11.454C13.9162 11.4045 13.9539 11.3038 13.9761 11.0322C13.9992 10.7488 14 10.3766 14 9.8V6.2C14 6.1528 14 6.10696 14 6.06243L8.85382 9.62516C8.34015 9.98077 7.65985 9.98077 7.14619 9.62516L2.00003 6.06243Z" fill="#525252"/>
</g>
<defs>
<clipPath id="clip0_34_1813">
<rect width="16" height="16" fill="white"/>
</clipPath>
</defs>
</svg>
