<svg width="16" height="16" viewBox="0 0 16 16" fill="none" xmlns="http://www.w3.org/2000/svg">
<g clip-path="url(#clip0_34_1074)">
<path fill-rule="evenodd" clip-rule="evenodd" d="M7 1C7 1.55228 6.55228 2 6 2H3.41421L6.70711 5.29289C7.09763 5.68342 7.09763 6.31658 6.70711 6.70711C6.31658 7.09763 5.68342 7.09763 5.29289 6.70711L2 3.41421V6C2 6.55228 1.55228 7 1 7C0.447715 7 0 6.55228 0 6V1C0 0.447715 0.447715 0 1 0H6C6.55228 0 7 0.447715 7 1ZM1 16H6C6.55228 16 7 15.5523 7 15C7 14.4477 6.55228 14 6 14H3.41421L6.70711 10.7071C7.09763 10.3166 7.09763 9.68342 6.70711 9.29289C6.31658 8.90237 5.68342 8.90237 5.29289 9.29289L2 12.5858V10C2 9.44772 1.55228 9 1 9C0.447715 9 0 9.44772 0 10V15C0 15.5523 0.447715 16 1 16ZM10 2C9.44771 2 9 1.55228 9 1C9 0.447715 9.44771 0 10 0H15C15.5523 0 16 0.447715 16 1V6C16 6.55228 15.5523 7 15 7C14.4477 7 14 6.55228 14 6V3.41421L10.7071 6.70711C10.3166 7.09763 9.68342 7.09763 9.29289 6.70711C8.90237 6.31658 8.90237 5.68342 9.29289 5.29289L12.5858 2H10ZM15 16H10C9.44771 16 9 15.5523 9 15C9 14.4477 9.44771 14 10 14H12.5858L9.29289 10.7071C8.90237 10.3166 8.90237 9.68342 9.29289 9.29289C9.68342 8.90237 10.3166 8.90237 10.7071 9.29289L14 12.5858V10C14 9.44772 14.4477 9 15 9C15.5523 9 16 9.44772 16 10V15C16 15.5523 15.5523 16 15 16Z" fill="#525252"/>
</g>
<defs>
<clipPath id="clip0_34_1074">
<rect width="16" height="16" fill="white"/>
</clipPath>
</defs>
</svg>
