<svg width="16" height="16" viewBox="0 0 16 16" fill="none" xmlns="http://www.w3.org/2000/svg">
<path fill-rule="evenodd" clip-rule="evenodd" d="M10 1C9.44772 1 9 1.44772 9 2C9 2.55228 9.44772 3 10 3H11.5858L7.29289 7.29289C6.90237 7.68342 6.90237 8.31658 7.29289 8.70711C7.68342 9.09763 8.31658 9.09763 8.70711 8.70711L13 4.41421V6C13 6.55228 13.4477 7 14 7C14.5523 7 15 6.55228 15 6V2C15 1.44772 14.5523 1 14 1H10ZM6.8 3L6.7587 3C5.95373 2.99999 5.28937 2.99998 4.74817 3.04419C4.18608 3.09012 3.66937 3.18868 3.18404 3.43597C2.43139 3.81947 1.81947 4.43139 1.43597 5.18404C1.18868 5.66937 1.09012 6.18608 1.04419 6.74817C0.999978 7.28937 0.999988 7.95372 1 8.75868V8.7587V8.8V9.2V9.2413V9.24132C0.999988 10.0463 0.999978 10.7106 1.04419 11.2518C1.09012 11.8139 1.18868 12.3306 1.43597 12.816C1.81947 13.5686 2.43139 14.1805 3.18404 14.564C3.66937 14.8113 4.18608 14.9099 4.74817 14.9558C5.28938 15 5.95374 15 6.75873 15H6.8H7.2H7.24128C8.04626 15 8.71063 15 9.25183 14.9558C9.81392 14.9099 10.3306 14.8113 10.816 14.564C11.5686 14.1805 12.1805 13.5686 12.564 12.816C12.8113 12.3306 12.9099 11.8139 12.9558 11.2518C13 10.7106 13 10.0463 13 9.24128V9.2V9C13 8.44772 12.5523 8 12 8C11.4477 8 11 8.44772 11 9V9.2C11 10.0566 10.9992 10.6389 10.9624 11.089C10.9266 11.5274 10.8617 11.7516 10.782 11.908C10.5903 12.2843 10.2843 12.5903 9.90798 12.782C9.75158 12.8617 9.52738 12.9266 9.08896 12.9624C8.63887 12.9992 8.05658 13 7.2 13H6.8C5.94342 13 5.36113 12.9992 4.91104 12.9624C4.47262 12.9266 4.24842 12.8617 4.09202 12.782C3.7157 12.5903 3.40973 12.2843 3.21799 11.908C3.1383 11.7516 3.07337 11.5274 3.03755 11.089C3.00078 10.6389 3 10.0566 3 9.2V8.8C3 7.94342 3.00078 7.36113 3.03755 6.91104C3.07337 6.47262 3.1383 6.24842 3.21799 6.09202C3.40973 5.71569 3.7157 5.40973 4.09202 5.21799C4.24842 5.1383 4.47262 5.07337 4.91104 5.03755C5.36113 5.00078 5.94342 5 6.8 5H7C7.55229 5 8 4.55228 8 4C8 3.44772 7.55229 3 7 3H6.8Z" fill="#525252"/>
</svg>
