<svg width="16" height="16" viewBox="0 0 16 16" fill="none" xmlns="http://www.w3.org/2000/svg">
<g clip-path="url(#clip0_34_2401)">
<path fill-rule="evenodd" clip-rule="evenodd" d="M1.78682 5.38284C1.44613 4.94847 0.817838 4.87233 0.383238 5.21284C-0.0515001 5.55346 -0.1278 6.18201 0.212819 6.61675L0.999982 6C0.212819 6.61675 0.213011 6.61699 0.213216 6.61725L0.213686 6.61785L0.214845 6.61933L0.218034 6.62337L0.227875 6.63574C0.235966 6.64586 0.247109 6.6597 0.261231 6.67702C0.289468 6.71163 0.329657 6.76017 0.381212 6.82065C0.484249 6.94151 0.633115 7.11053 0.823115 7.31168C1.202 7.71279 1.75034 8.24788 2.43062 8.7849C2.53927 8.87068 2.65213 8.95717 2.76901 9.04368L1.16793 11.4453C0.86158 11.9048 0.985754 12.5257 1.44528 12.8321C1.90481 13.1384 2.52568 13.0142 2.83203 12.5547L4.46927 10.0989C5.23446 10.4835 6.08647 10.7907 6.99998 10.9256V13C6.99998 13.5523 7.4477 14 7.99998 14C8.55227 14 8.99998 13.5523 8.99998 13V10.9256C9.91349 10.7907 10.7655 10.4835 11.5307 10.0989L13.1679 12.5547C13.4743 13.0142 14.0952 13.1384 14.5547 12.8321C15.0142 12.5257 15.1384 11.9048 14.832 11.4453L13.231 9.04368C13.3478 8.95717 13.4607 8.87068 13.5693 8.7849C14.2496 8.24788 14.798 7.71279 15.1769 7.31168C15.3669 7.11053 15.5157 6.94151 15.6188 6.82065C15.6703 6.76017 15.7105 6.71163 15.7387 6.67702C15.7529 6.6597 15.764 6.64586 15.7721 6.63574L15.7819 6.62337L15.7851 6.61933L15.7863 6.61785L15.7867 6.61725C15.787 6.61699 15.7871 6.61675 15 6L15.7871 6.61675C16.1278 6.18201 16.0515 5.55346 15.6167 5.21284C15.1821 4.87233 14.5538 4.94847 14.2131 5.38284L14.2128 5.38326L14.2097 5.38721L14.189 5.41283C14.1694 5.43681 14.1385 5.4742 14.0968 5.52311C14.0133 5.621 13.8871 5.76447 13.7229 5.93832C13.3934 6.28721 12.9166 6.75212 12.3301 7.2151C11.1319 8.16098 9.60157 8.99969 8.00088 9H7.99998C6.39896 9 4.86828 8.16116 3.66985 7.2151C3.08338 6.75212 2.6066 6.28721 2.27704 5.93832C2.11282 5.76447 1.98664 5.621 1.90318 5.52311C1.86149 5.4742 1.83057 5.43681 1.81101 5.41283L1.79031 5.38721L1.78715 5.38326L0.999982 6C1.78715 5.38326 1.78698 5.38304 1.78682 5.38284Z" fill="#525252"/>
</g>
<defs>
<clipPath id="clip0_34_2401">
<rect width="16" height="16" fill="white"/>
</clipPath>
</defs>
</svg>
