<svg width="16" height="16" viewBox="0 0 16 16" fill="none" xmlns="http://www.w3.org/2000/svg">
<path fill-rule="evenodd" clip-rule="evenodd" d="M3 4C3 2.34315 4.34315 1 6 1H7H8H9H10C11.6569 1 13 2.34315 13 4C13 4.76836 12.7111 5.46924 12.2361 6C12.7111 6.53075 13 7.23164 13 8C13 9.65685 11.6569 11 10 11C9.64936 11 9.31278 10.9398 9 10.8293V11V12C9 13.6569 7.65685 15 6 15C4.34315 15 3 13.6569 3 12C3 11.2316 3.28885 10.5308 3.7639 10C3.28885 9.46925 3 8.76836 3 8C3 7.23165 3.28885 6.53076 3.76389 6C3.28885 5.46924 3 4.76835 3 4ZM7 5V3H6C5.44772 3 5 3.44772 5 4C5 4.55228 5.44772 5 6 5H7ZM7 7V8V9H6C5.44772 9 5 8.55228 5 8C5 7.44772 5.44772 7 6 7H7ZM10 7C10.5523 7 11 7.44772 11 8C11 8.55228 10.5523 9 10 9C9.44772 9 9 8.55228 9 8C9 7.44772 9.44772 7 10 7ZM10 5C10.5523 5 11 4.55228 11 4C11 3.44772 10.5523 3 10 3H9V5H10ZM7 11H6C5.44772 11 5 11.4477 5 12C5 12.5523 5.44772 13 6 13C6.55228 13 7 12.5523 7 12V11Z" fill="#525252"/>
</svg>
