<svg width="16" height="16" viewBox="0 0 16 16" fill="none" xmlns="http://www.w3.org/2000/svg">
<path fill-rule="evenodd" clip-rule="evenodd" d="M4.68945 1.99987C4.73532 1.99993 4.78165 1.99999 4.82843 1.99999C4.84776 1.99999 4.86693 1.99998 4.88594 1.99997C5.16677 1.99979 5.41388 1.99963 5.65741 2.03959C6.11342 2.11443 6.54599 2.2936 6.92136 2.56314C7.12181 2.70708 7.29644 2.88193 7.49488 3.08063C7.50832 3.09408 7.52187 3.10764 7.53554 3.12131L7.76985 3.35563C8.14941 3.73519 8.22849 3.80518 8.30593 3.85263C8.3954 3.90746 8.49295 3.94787 8.59498 3.97236C8.6833 3.99357 8.78871 3.99999 9.32548 3.99999H11L11.032 3.99999C11.4706 3.99998 11.8491 3.99997 12.1624 4.02134C12.4922 4.04385 12.8221 4.09335 13.1481 4.22836C13.8831 4.53284 14.4672 5.11686 14.7716 5.85194C14.9066 6.17787 14.9561 6.50778 14.9787 6.83761C15 7.15087 15 7.52936 15 7.968V7.99999V9.79999V9.83852C15 10.3657 15 10.8204 14.9694 11.195C14.9371 11.5904 14.8658 11.9836 14.673 12.362C14.3854 12.9265 13.9265 13.3854 13.362 13.673C12.9836 13.8658 12.5904 13.9371 12.195 13.9694C11.8205 14 11.3657 14 10.8385 14H10.8H5.2H5.16148C4.63432 14 4.17955 14 3.80497 13.9694C3.40963 13.9371 3.01641 13.8658 2.63803 13.673C2.07354 13.3854 1.6146 12.9265 1.32698 12.362C1.13419 11.9836 1.06287 11.5904 1.03057 11.195C0.999967 10.8205 0.999983 10.3657 1 9.83854L1 9.79999V7.99999V5.82842C1 5.78164 0.999941 5.73532 0.999881 5.68944C0.999054 5.05833 0.998339 4.51259 1.15736 4.04115C1.45675 3.15355 2.15356 2.45674 3.04116 2.15735C3.5126 1.99833 4.05834 1.99905 4.68945 1.99987ZM12.985 6.99999C12.9845 6.99115 12.9839 6.9824 12.9833 6.97375C12.9677 6.74576 12.9411 6.65892 12.9239 6.61731C12.8224 6.37228 12.6277 6.17761 12.3827 6.07611C12.3411 6.05888 12.2542 6.03226 12.0262 6.0167C11.7893 6.00054 11.4796 5.99999 11 5.99999H9.32548C9.29749 5.99999 9.26972 6.00002 9.24218 6.00005C8.83528 6.00042 8.47654 6.00076 8.12809 5.9171C7.82198 5.84361 7.52935 5.7224 7.26093 5.55791C6.95539 5.37068 6.70196 5.11677 6.4145 4.82878C6.39505 4.80929 6.37543 4.78964 6.35564 4.76984L6.12132 4.53553C5.85967 4.27388 5.80564 4.22419 5.75484 4.18771C5.62971 4.09786 5.48552 4.03814 5.33352 4.01319C5.2718 4.00306 5.19846 3.99999 4.82843 3.99999C3.97659 3.99999 3.79669 4.01322 3.68039 4.05245C3.38452 4.15224 3.15225 4.38451 3.05245 4.68038C3.01322 4.79668 3 4.97658 3 5.82842V6.99999H12.985ZM3 8.99999H13V9.79999C13 10.3765 12.9992 10.7488 12.9761 11.0322C12.9539 11.3038 12.9162 11.4045 12.891 11.454C12.7951 11.6421 12.6422 11.7951 12.454 11.891C12.4045 11.9162 12.3038 11.9539 12.0322 11.9761C11.7488 11.9992 11.3766 12 10.8 12H5.2C4.62345 12 4.25117 11.9992 3.96784 11.9761C3.69617 11.9539 3.59545 11.9162 3.54601 11.891C3.35785 11.7951 3.20487 11.6421 3.109 11.454C3.0838 11.4045 3.04612 11.3038 3.02393 11.0322C3.00078 10.7488 3 10.3765 3 9.79999V8.99999Z" fill="#525252"/>
</svg>
