<svg width="16" height="16" viewBox="0 0 16 16" fill="none" xmlns="http://www.w3.org/2000/svg">
<g clip-path="url(#clip0_34_1895)">
<path fill-rule="evenodd" clip-rule="evenodd" d="M8.70711 1.29289C8.31658 0.902369 7.68342 0.902369 7.29289 1.29289L2.29289 6.29289L0.292893 8.29289C-0.0976311 8.68342 -0.0976311 9.31658 0.292893 9.70711C0.683417 10.0976 1.31658 10.0976 1.70711 9.70711L2 9.41421V13C2 14.1046 2.89543 15 4 15H5.9986C5.99907 15 5.99953 15 6 15C6.00047 15 6.00093 15 6.0014 15H9.9986C9.99907 15 9.99953 15 10 15C10.0005 15 10.0009 15 10.0014 15H12C13.1046 15 14 14.1046 14 13V9.41421L14.2929 9.70711C14.6834 10.0976 15.3166 10.0976 15.7071 9.70711C16.0976 9.31658 16.0976 8.68342 15.7071 8.29289L13.7071 6.29289L8.70711 1.29289ZM11 13H12V7.41421L8 3.41421L4 7.41421V13H5V10C5 8.89543 5.89543 8 7 8H9C10.1046 8 11 8.89543 11 10V13ZM7 13H9V10H7V13Z" fill="#525252"/>
</g>
<defs>
<clipPath id="clip0_34_1895">
<rect width="16" height="16" fill="white"/>
</clipPath>
</defs>
</svg>
