<svg width="16" height="16" viewBox="0 0 16 16" fill="none" xmlns="http://www.w3.org/2000/svg">
<g clip-path="url(#clip0_34_1788)">
<path fill-rule="evenodd" clip-rule="evenodd" d="M4.2 1H4.16146H4.16142C3.63429 0.999984 3.17954 0.999969 2.80497 1.03057C2.40963 1.06287 2.01641 1.13419 1.63803 1.32698C1.07354 1.6146 0.614602 2.07354 0.326982 2.63803C0.134188 3.01641 0.0628723 3.40963 0.0305712 3.80497C-3.24473e-05 4.17955 -1.70214e-05 4.63431 8.6011e-07 5.16145V5.16146V5.2V10.8V10.8385C-1.70213e-05 11.3657 -3.25185e-05 11.8205 0.0305712 12.195C0.0628723 12.5904 0.134188 12.9836 0.326982 13.362C0.614602 13.9265 1.07354 14.3854 1.63803 14.673C2.01641 14.8658 2.40963 14.9371 2.80497 14.9694C3.17953 15 3.63428 15 4.1614 15H4.16144H4.2H11.8H11.8386H11.8386C12.3657 15 12.8205 15 13.195 14.9694C13.5904 14.9371 13.9836 14.8658 14.362 14.673C14.9265 14.3854 15.3854 13.9265 15.673 13.362C15.8658 12.9836 15.9371 12.5904 15.9694 12.195C16 11.8205 16 11.3657 16 10.8385V10.8V5.2V5.16148C16 4.63432 16 4.17955 15.9694 3.80497C15.9371 3.40963 15.8658 3.01641 15.673 2.63803C15.3854 2.07354 14.9265 1.6146 14.362 1.32698C13.9836 1.13419 13.5904 1.06287 13.195 1.03057C12.8205 0.999969 12.3657 0.999984 11.8386 1H11.8385H11.8H4.2ZM2.54601 3.109C2.59546 3.0838 2.69617 3.04613 2.96784 3.02393C3.25117 3.00078 3.62345 3 4.2 3H11.8C12.3766 3 12.7488 3.00078 13.0322 3.02393C13.3038 3.04613 13.4045 3.0838 13.454 3.109C13.6422 3.20487 13.7951 3.35785 13.891 3.54601C13.9162 3.59546 13.9539 3.69618 13.9761 3.96784C13.9992 4.25118 14 4.62345 14 5.2V10.8C14 11.1153 13.9998 11.3696 13.9958 11.5816L11.7071 9.2929C11.3166 8.90237 10.6834 8.90237 10.2929 9.2929L8.67424 10.9116L5.77396 7.36676C5.58129 7.13128 5.29189 6.99632 4.98766 7.00008C4.68342 7.00383 4.39745 7.14589 4.21065 7.38606L2 10.2283V5.2C2 4.62345 2.00078 4.25118 2.02393 3.96784C2.04612 3.69618 2.0838 3.59546 2.109 3.54601C2.20487 3.35785 2.35785 3.20487 2.54601 3.109ZM11 11.4142L12.5816 12.9958C12.3696 12.9998 12.1153 13 11.8 13H10.3662C10.3395 12.9539 10.3088 12.9093 10.274 12.8668L9.94703 12.4672L11 11.4142ZM2.48776 12.8588C2.50677 12.8702 2.5262 12.8809 2.54601 12.891C2.59546 12.9162 2.69617 12.9539 2.96784 12.9761C3.25117 12.9992 3.62345 13 4.2 13H7.79885L5.01979 9.60338L2.48776 12.8588ZM9 6.5C9 6.22386 9.22386 6 9.5 6C9.77614 6 10 6.22386 10 6.5C10 6.77614 9.77614 7 9.5 7C9.22386 7 9 6.77614 9 6.5ZM9.5 4C8.11929 4 7 5.11929 7 6.5C7 7.88071 8.11929 9 9.5 9C10.8807 9 12 7.88071 12 6.5C12 5.11929 10.8807 4 9.5 4Z" fill="#525252"/>
</g>
<defs>
<clipPath id="clip0_34_1788">
<rect width="16" height="16" fill="white"/>
</clipPath>
</defs>
</svg>
