<svg width="16" height="16" viewBox="0 0 16 16" fill="none" xmlns="http://www.w3.org/2000/svg">
<g clip-path="url(#clip0_34_2472)">
<path fill-rule="evenodd" clip-rule="evenodd" d="M6 4C6 2.89543 6.89543 2 8 2C9.10457 2 10 2.89543 10 4V6C10 6.00001 10 6.00002 10 6.00003C9.94696 6 9.89314 6 9.83854 6L9.8 6H6.2L6.16146 6C6.10686 6 6.05304 6 6 6.00003C6 6.00002 6 6.00001 6 6V4ZM4.01499 6.17347C4.00514 6.11713 4 6.05917 4 6V4C4 1.79086 5.79086 0 8 0C10.2091 0 12 1.79086 12 4V6C12 6.05917 11.9949 6.11713 11.985 6.17347C12.112 6.2135 12.2378 6.26369 12.362 6.32698C12.9265 6.6146 13.3854 7.07354 13.673 7.63803C13.8658 8.01641 13.9371 8.40963 13.9694 8.80497C14 9.17954 14 9.6343 14 10.1614V10.1615V10.2V11.8V11.8385V11.8386C14 12.3657 14 12.8205 13.9694 13.195C13.9371 13.5904 13.8658 13.9836 13.673 14.362C13.3854 14.9265 12.9265 15.3854 12.362 15.673C11.9836 15.8658 11.5904 15.9371 11.195 15.9694C10.8205 16 10.3657 16 9.83852 16H9.8H6.2H6.16148C5.63432 16 5.17955 16 4.80497 15.9694C4.40963 15.9371 4.01641 15.8658 3.63803 15.673C3.07354 15.3854 2.6146 14.9265 2.32698 14.362C2.13419 13.9836 2.06287 13.5904 2.03057 13.195C1.99997 12.8205 1.99998 12.3657 2 11.8386V11.8385V11.8V10.2V10.1615V10.1614C1.99998 9.63428 1.99997 9.17953 2.03057 8.80497C2.06287 8.40963 2.13419 8.01641 2.32698 7.63803C2.6146 7.07354 3.07354 6.6146 3.63803 6.32698C3.76223 6.26369 3.88804 6.2135 4.01499 6.17347ZM4.54601 8.10899C4.59545 8.0838 4.69617 8.04612 4.96784 8.02393C5.25117 8.00078 5.62345 8 6.2 8H9.8C10.3766 8 10.7488 8.00078 11.0322 8.02393C11.3038 8.04612 11.4045 8.0838 11.454 8.10899C11.6422 8.20487 11.7951 8.35785 11.891 8.54601C11.9162 8.59545 11.9539 8.69617 11.9761 8.96784C11.9992 9.25117 12 9.62345 12 10.2V11.8C12 12.3766 11.9992 12.7488 11.9761 13.0322C11.9539 13.3038 11.9162 13.4045 11.891 13.454C11.7951 13.6422 11.6422 13.7951 11.454 13.891C11.4045 13.9162 11.3038 13.9539 11.0322 13.9761C10.7488 13.9992 10.3766 14 9.8 14H6.2C5.62345 14 5.25117 13.9992 4.96784 13.9761C4.69617 13.9539 4.59545 13.9162 4.54601 13.891C4.35785 13.7951 4.20487 13.6422 4.10899 13.454C4.0838 13.4045 4.04612 13.3038 4.02393 13.0322C4.00078 12.7488 4 12.3766 4 11.8V10.2C4 9.62345 4.00078 9.25117 4.02393 8.96784C4.04612 8.69617 4.0838 8.59545 4.10899 8.54601C4.20487 8.35785 4.35785 8.20487 4.54601 8.10899Z" fill="#525252"/>
</g>
<defs>
<clipPath id="clip0_34_2472">
<rect width="16" height="16" fill="white"/>
</clipPath>
</defs>
</svg>
