<svg width="16" height="16" viewBox="0 0 16 16" fill="none" xmlns="http://www.w3.org/2000/svg">
<g clip-path="url(#clip0_34_2493)">
<path fill-rule="evenodd" clip-rule="evenodd" d="M6 3.47214C6 2.6591 6.6591 2 7.47214 2C8.02974 2 8.53949 2.31504 8.78886 2.81378L9.10557 3.44721C9.35256 3.94119 9.95324 4.14142 10.4472 3.89443C10.9412 3.64744 11.1414 3.04676 10.8944 2.55279L10.5777 1.91935C9.98956 0.743045 8.78729 0 7.47214 0C5.55453 0 4 1.55453 4 3.47214V6C4 6.05917 4.00514 6.11713 4.01499 6.17347C3.88804 6.2135 3.76224 6.26369 3.63803 6.32698C3.07354 6.6146 2.6146 7.07354 2.32698 7.63803C2.13419 8.01641 2.06287 8.40963 2.03057 8.80497C1.99997 9.17953 1.99998 9.63428 2 10.1614V10.1615V10.2V11.8V11.8385V11.8386C1.99998 12.3657 1.99997 12.8205 2.03057 13.195C2.06287 13.5904 2.13419 13.9836 2.32698 14.362C2.6146 14.9265 3.07354 15.3854 3.63803 15.673C4.01641 15.8658 4.40963 15.9371 4.80497 15.9694C5.17955 16 5.63432 16 6.16148 16H6.2H9.8H9.83852C10.3657 16 10.8205 16 11.195 15.9694C11.5904 15.9371 11.9836 15.8658 12.362 15.673C12.9265 15.3854 13.3854 14.9265 13.673 14.362C13.8658 13.9836 13.9371 13.5904 13.9694 13.195C14 12.8205 14 12.3657 14 11.8386V11.8385V11.8V10.2V10.1615V10.1614C14 9.6343 14 9.17954 13.9694 8.80497C13.9371 8.40963 13.8658 8.01641 13.673 7.63803C13.3854 7.07354 12.9265 6.6146 12.362 6.32698C11.9836 6.13419 11.5904 6.06287 11.195 6.03057C10.8205 5.99997 10.3657 5.99998 9.83855 6L9.8 6H6.2L6.16146 6C6.10686 6 6.05304 6 6 6.00003C6 6.00002 6 6.00001 6 6V3.47214ZM4.54601 8.10899C4.59546 8.0838 4.69617 8.04612 4.96784 8.02393C5.25117 8.00078 5.62345 8 6.2 8H9.8C10.3766 8 10.7488 8.00078 11.0322 8.02393C11.3038 8.04612 11.4045 8.0838 11.454 8.10899C11.6422 8.20487 11.7951 8.35785 11.891 8.54601C11.9162 8.59545 11.9539 8.69617 11.9761 8.96784C11.9992 9.25117 12 9.62345 12 10.2V11.8C12 12.3766 11.9992 12.7488 11.9761 13.0322C11.9539 13.3038 11.9162 13.4045 11.891 13.454C11.7951 13.6422 11.6422 13.7951 11.454 13.891C11.4045 13.9162 11.3038 13.9539 11.0322 13.9761C10.7488 13.9992 10.3766 14 9.8 14H6.2C5.62345 14 5.25117 13.9992 4.96784 13.9761C4.69617 13.9539 4.59546 13.9162 4.54601 13.891C4.35785 13.7951 4.20487 13.6422 4.109 13.454C4.0838 13.4045 4.04612 13.3038 4.02393 13.0322C4.00078 12.7488 4 12.3766 4 11.8V10.2C4 9.62345 4.00078 9.25117 4.02393 8.96784C4.04612 8.69617 4.0838 8.59545 4.109 8.54601C4.20487 8.35785 4.35785 8.20487 4.54601 8.10899Z" fill="#525252"/>
</g>
<defs>
<clipPath id="clip0_34_2493">
<rect width="16" height="16" fill="white"/>
</clipPath>
</defs>
</svg>
