<svg width="16" height="16" viewBox="0 0 16 16" fill="none" xmlns="http://www.w3.org/2000/svg">
<path fill-rule="evenodd" clip-rule="evenodd" d="M7.29288 2.29289C7.68341 1.90237 8.31657 1.90237 8.7071 2.29289C10.2444 3.83021 11.5219 5.36366 12.4143 6.51106C12.8612 7.08558 13.2131 7.56536 13.4543 7.90314C13.575 8.07208 13.6681 8.20564 13.7317 8.29793C13.7635 8.34408 13.7879 8.37992 13.8047 8.40473L13.8242 8.43357L13.8296 8.4416L13.8312 8.444L13.8317 8.44479L13.8319 8.44508C13.832 8.44519 13.832 8.4453 13 9L13.832 8.4453C14.0366 8.75216 14.0557 9.1467 13.8817 9.47186C13.7076 9.79702 13.3688 10 13 10H11V12.2C11 12.2076 11 12.2153 11 12.2231C11 12.3422 11.0001 12.4845 10.9899 12.6098C10.978 12.755 10.9475 12.963 10.8365 13.181C10.6927 13.4632 10.4632 13.6927 10.181 13.8365C9.96303 13.9476 9.75504 13.978 9.60982 13.9899C9.4845 14.0001 9.34224 14.0001 9.22312 14C9.21531 14 9.20759 14 9.19999 14H6.79999C6.79239 14 6.78467 14 6.77686 14C6.65774 14.0001 6.51548 14.0001 6.39016 13.9899C6.24494 13.978 6.03695 13.9476 5.819 13.8365C5.53676 13.6927 5.30729 13.4632 5.16348 13.181C5.05243 12.963 5.02199 12.755 5.01012 12.6098C4.99988 12.4845 4.99994 12.3423 4.99998 12.2231C4.99999 12.2153 4.99999 12.2076 4.99999 12.2V10H2.99999C2.63119 10 2.29233 9.79702 2.11832 9.47186C1.9443 9.1467 1.96337 8.75216 2.16794 8.4453L2.99999 9C2.16794 8.4453 2.16801 8.44519 2.16809 8.44508L2.16828 8.44479L2.16881 8.444L2.17041 8.4416L2.1758 8.43357L2.19526 8.40473C2.21207 8.37992 2.23649 8.34408 2.26828 8.29793C2.33186 8.20564 2.42496 8.07208 2.54563 7.90314C2.7869 7.56536 3.13879 7.08558 3.58564 6.51106C4.47806 5.36366 5.75557 3.83021 7.29288 2.29289ZM4.96283 8H5.19999C5.2076 8 5.21531 8 5.22313 7.99999C5.34225 7.99995 5.4845 7.99989 5.60982 8.01013C5.75504 8.022 5.96303 8.05244 6.18098 8.16349C6.46322 8.3073 6.69269 8.53677 6.8365 8.81901C6.94755 9.03696 6.97799 9.24495 6.98986 9.39017C7.0001 9.51549 7.00004 9.65774 7 9.77686C6.99999 9.78468 6.99999 9.79239 6.99999 9.8V12H8.99999V9.8C8.99999 9.79239 8.99999 9.78468 8.99998 9.77686C8.99994 9.65774 8.99988 9.51549 9.01012 9.39017C9.02199 9.24495 9.05243 9.03696 9.16348 8.81901C9.30729 8.53677 9.53676 8.3073 9.819 8.16349C10.037 8.05244 10.2449 8.022 10.3902 8.01013C10.5155 7.99989 10.6577 7.99995 10.7769 7.99999C10.7847 8 10.7924 8 10.8 8H11.0372C10.9725 7.91557 10.9053 7.82848 10.8356 7.73894C10.1202 6.81913 9.15088 5.64606 7.99999 4.43323C6.8491 5.64606 5.87975 6.81913 5.16434 7.73894C5.0947 7.82848 5.02751 7.91557 4.96283 8Z" fill="#525252"/>
</svg>
