<svg width="16" height="16" viewBox="0 0 16 16" fill="none" xmlns="http://www.w3.org/2000/svg">
<path fill-rule="evenodd" clip-rule="evenodd" d="M4.02229 5.00022C4.8127 5.00022 4.96938 5.01326 5.09 5.05487C5.23013 5.1032 5.35776 5.18208 5.46365 5.2858C5.55481 5.37508 5.63655 5.50938 5.99003 6.21635L8.22111 10.6785L8.27663 10.7898L8.27664 10.7898C8.54138 11.321 8.7742 11.7882 9.13691 12.1435C9.4546 12.4546 9.83748 12.6913 10.2579 12.8363C10.7378 13.0018 11.2598 13.0011 11.8533 13.0003L11.9777 13.0002H13C13.5523 13.0002 14 12.5525 14 12.0002C14 11.4479 13.5523 11.0002 13 11.0002H11.9777C11.1873 11.0002 11.0306 10.9872 10.91 10.9456C10.7699 10.8972 10.6422 10.8184 10.5363 10.7146C10.4452 10.6253 10.3635 10.4911 10.01 9.78409L7.77889 5.32192L7.72337 5.21064C7.45862 4.67939 7.2258 4.21221 6.86309 3.85696C6.5454 3.54581 6.16252 3.30918 5.74215 3.16418C5.26219 2.99863 4.74021 2.99932 4.14666 3.00011L4.02229 3.00022H3C2.44772 3.00022 2 3.44793 2 4.00022C2 4.5525 2.44772 5.00022 3 5.00022H4.02229ZM10 3.00022C9.44772 3.00022 9 3.44793 9 4.00022C9 4.5525 9.44772 5.00022 10 5.00022H13C13.5523 5.00022 14 4.5525 14 4.00022C14 3.44793 13.5523 3.00022 13 3.00022H10Z" fill="#525252"/>
</svg>
