<svg width="16" height="16" viewBox="0 0 16 16" fill="none" xmlns="http://www.w3.org/2000/svg">
<path fill-rule="evenodd" clip-rule="evenodd" d="M3 6.83333C3 4.43009 4.99037 2 8 2C11.0096 2 13 4.43009 13 6.83333C13 7.96612 12.5534 8.91069 11.587 10.0516C10.8924 10.8715 10.0045 11.7116 8.91197 12.7454C8.62243 13.0194 8.31851 13.307 8 13.6114C7.68151 13.307 7.37761 13.0194 7.08808 12.7455L7.08803 12.7454C5.99546 11.7116 5.1076 10.8715 4.41305 10.0516C3.44665 8.91069 3 7.96612 3 6.83333ZM8 0C3.80963 0 1 3.40325 1 6.83333C1 8.61722 1.75335 10.006 2.88695 11.3443C3.65595 12.2521 4.66937 13.2112 5.81005 14.2908L5.81008 14.2909L5.81016 14.2909C6.28827 14.7434 6.78873 15.2171 7.30292 15.717C7.69104 16.0943 8.30896 16.0943 8.69708 15.717C9.2113 15.2171 9.71179 14.7434 10.1899 14.2909L10.1899 14.2908C11.3306 13.2112 12.3441 12.2521 13.113 11.3443C14.2466 10.006 15 8.61722 15 6.83333C15 3.40325 12.1904 0 8 0ZM7 7C7 6.44772 7.44772 6 8 6C8.55228 6 9 6.44772 9 7C9 7.55228 8.55228 8 8 8C7.44772 8 7 7.55228 7 7ZM8 4C6.34315 4 5 5.34315 5 7C5 8.65685 6.34315 10 8 10C9.65685 10 11 8.65685 11 7C11 5.34315 9.65685 4 8 4Z" fill="#525252"/>
</svg>
