<svg width="16" height="16" viewBox="0 0 16 16" fill="none" xmlns="http://www.w3.org/2000/svg">
<path fill-rule="evenodd" clip-rule="evenodd" d="M2 7.99976C2 6.55381 2.54674 5.33152 3.52443 4.46085C4.50964 3.58348 6.00679 2.99976 8 2.99976C9.99321 2.99976 11.4904 3.58348 12.4756 4.46085C13.4533 5.33152 14 6.55381 14 7.99976C14 9.44571 13.4533 10.668 12.4756 11.5387C11.4904 12.416 9.99321 12.9998 8 12.9998C6.83084 12.9998 5.83082 12.7982 5.00754 12.4558C4.77426 12.3588 4.5129 12.3537 4.27599 12.4415C3.78314 12.6242 3.19861 12.7867 2.5215 12.8886L2.97474 11.7555C3.10162 11.4383 3.05779 11.0783 2.85853 10.8008C2.30647 10.0321 2 9.08162 2 7.99976ZM8 0.999763C5.61821 0.999763 3.61536 1.70176 2.19432 2.96725C0.765762 4.23944 0 6.01714 0 7.99976C0 9.27127 0.314687 10.4634 0.925075 11.4945L0.345801 12.9427C-0.0390671 13.9048 0.663841 15.0468 1.80164 14.9746C2.88286 14.9059 3.81804 14.7031 4.60562 14.4445C5.6151 14.8086 6.75517 14.9998 8 14.9998C10.3818 14.9998 12.3846 14.2978 13.8057 13.0323C15.2342 11.7601 16 9.98238 16 7.99976C16 6.01714 15.2342 4.23944 13.8057 2.96725C12.3846 1.70176 10.3818 0.999763 8 0.999763ZM5 8.99976C5.55228 8.99976 6 8.55205 6 7.99976C6 7.44748 5.55228 6.99976 5 6.99976C4.44772 6.99976 4 7.44748 4 7.99976C4 8.55205 4.44772 8.99976 5 8.99976ZM9 7.99976C9 8.55205 8.55229 8.99976 8 8.99976C7.44772 8.99976 7 8.55205 7 7.99976C7 7.44748 7.44772 6.99976 8 6.99976C8.55229 6.99976 9 7.44748 9 7.99976ZM11 8.99976C11.5523 8.99976 12 8.55205 12 7.99976C12 7.44748 11.5523 6.99976 11 6.99976C10.4477 6.99976 10 7.44748 10 7.99976C10 8.55205 10.4477 8.99976 11 8.99976Z" fill="#525252"/>
</svg>
