<svg width="16" height="16" viewBox="0 0 16 16" fill="none" xmlns="http://www.w3.org/2000/svg">
<path fill-rule="evenodd" clip-rule="evenodd" d="M3.52443 4.46085C2.54674 5.33152 2 6.55381 2 7.99976C2 9.08162 2.30647 10.0321 2.85853 10.8008C3.05779 11.0783 3.10162 11.4383 2.97474 11.7555L2.5215 12.8886C3.19861 12.7867 3.78314 12.6242 4.27599 12.4415C4.5129 12.3537 4.77426 12.3588 5.00754 12.4558C5.83082 12.7982 6.83084 12.9998 8 12.9998C9.99321 12.9998 11.4904 12.416 12.4756 11.5387C13.4533 10.668 14 9.44572 14 7.99976C14 6.55381 13.4533 5.33152 12.4756 4.46085C11.4904 3.58348 9.99321 2.99976 8 2.99976C6.00679 2.99976 4.50964 3.58348 3.52443 4.46085ZM2.19432 2.96725C3.61536 1.70176 5.61821 0.999763 8 0.999763C10.3818 0.999763 12.3846 1.70176 13.8057 2.96725C15.2342 4.23944 16 6.01714 16 7.99976C16 9.98238 15.2342 11.7601 13.8057 13.0323C12.3846 14.2978 10.3818 14.9998 8 14.9998C6.75517 14.9998 5.6151 14.8086 4.60562 14.4445C3.81804 14.7031 2.88286 14.9059 1.80164 14.9746C0.663841 15.0468 -0.0390671 13.9048 0.345801 12.9427L0.925075 11.4945C0.314687 10.4634 0 9.27127 0 7.99976C0 6.01714 0.765762 4.23944 2.19432 2.96725Z" fill="#525252"/>
</svg>
