<svg width="16" height="16" viewBox="0 0 16 16" fill="none" xmlns="http://www.w3.org/2000/svg">
<path d="M13.1992 10.9968L14.0651 11.4969C14.2467 11.1825 14.2436 10.7943 14.057 10.4828C13.8704 10.1713 13.5295 9.98545 13.1666 9.99729L13.1992 10.9968ZM7.80082 2.00324L8.66674 2.50343C8.84837 2.18898 8.84527 1.80078 8.65863 1.48928C8.47199 1.17778 8.13116 0.991936 7.76822 1.00377L7.80082 2.00324ZM13.1666 9.99729C13.1113 9.99909 13.0558 10 13 10V12C13.0775 12 13.1548 11.9987 13.2318 11.9962L13.1666 9.99729ZM13 10C10.2386 10 8 7.76142 8 5H6C6 8.86599 9.13401 12 13 12V10ZM8 5C8 4.08873 8.24287 3.23723 8.66674 2.50343L6.9349 1.50306C6.34007 2.53283 6 3.72822 6 5H8ZM3 8C3 5.29431 5.14944 3.09025 7.83342 3.00271L7.76822 1.00377C4.00918 1.12638 1 4.21157 1 8H3ZM8 13C5.23858 13 3 10.7614 3 8H1C1 11.866 4.13401 15 8 15V13ZM12.3333 10.4966C11.4676 11.9952 9.85056 13 8 13V15C10.5938 15 12.8568 13.5887 14.0651 11.4969L12.3333 10.4966Z" fill="#525252"/>
</svg>
