<svg width="16" height="16" viewBox="0 0 16 16" fill="none" xmlns="http://www.w3.org/2000/svg">
<path fill-rule="evenodd" clip-rule="evenodd" d="M8.6454 5.0596C7.04678 5.31109 6.18116 5.73189 5.68686 6.17013C5.17239 6.62626 4.93716 7.20987 4.79891 8.0394C4.73384 8.42981 4.69512 8.84123 4.65114 9.30854L4.63912 9.43597C4.59127 9.94188 4.53515 10.5017 4.42837 11.074C4.31382 11.688 4.13966 12.3248 3.85005 12.9617C6.4285 12.8442 7.90244 12.4536 8.84313 11.7583C9.86873 11.0003 10.441 9.7394 10.9189 7.33313L8.6454 5.0596ZM12.7122 6.29786C12.7072 6.29276 12.7021 6.28772 12.697 6.28273L9.71447 3.30025C9.71086 3.29657 9.70723 3.29292 9.70356 3.28929C9.54537 3.12726 9.54656 2.86767 9.70712 2.70711C9.86888 2.54535 10.1311 2.54535 10.2929 2.70711L13.2929 5.70711C13.4547 5.86887 13.4547 6.13114 13.2929 6.2929C13.1328 6.45299 12.8743 6.45464 12.7122 6.29786ZM12.7382 8.40006C12.2508 10.5654 11.5384 12.2532 10.0319 13.3667C8.30269 14.6448 5.73963 15 2.00002 15C1.60764 15 1.25152 14.7705 1.08938 14.4132C0.927247 14.0559 0.989057 13.6368 1.24744 13.3415C1.97053 12.5151 2.2889 11.6366 2.46229 10.7072C2.55082 10.2327 2.60017 9.75343 2.64801 9.24762L2.66084 9.11126C2.70331 8.6586 2.74863 8.17557 2.82612 7.7106C3.00036 6.66513 3.35889 5.56124 4.36005 4.67362C5.12141 3.99859 6.1737 3.52077 7.59573 3.21943C7.53324 2.53066 7.76564 1.82017 8.29291 1.2929C9.23572 0.350087 10.7643 0.350087 11.7071 1.2929L14.7071 4.2929C15.6499 5.23571 15.6499 6.7643 14.7071 7.70711C14.169 8.24521 13.4401 8.47619 12.7382 8.40006Z" fill="#525252"/>
</svg>
