<svg width="16" height="16" viewBox="0 0 16 16" fill="none" xmlns="http://www.w3.org/2000/svg">
<g clip-path="url(#clip0_34_1452)">
<path fill-rule="evenodd" clip-rule="evenodd" d="M8 0C5.7927 0 3.77966 0.694291 2.31095 2.09071C0.834151 3.49482 0 5.52152 0 8C0 10.4314 0.92249 12.4238 2.61934 13.8126C4.28682 15.1774 6.60947 15.8858 9.31004 15.9872C10.0839 16.0163 10.786 15.6238 11.1934 15.0127C11.8461 14.0336 11.6203 12.7152 10.6789 12.0092L10.3407 11.7555C10.2984 11.7238 10.2848 11.6664 10.3085 11.6191L10.3493 11.5374C10.374 11.4881 10.4229 11.4365 10.5156 11.402C10.6129 11.3658 10.735 11.3593 10.8501 11.3937C11.6255 11.6255 12.856 11.8793 13.9538 11.4926C14.5405 11.2859 15.0809 10.8984 15.4596 10.2719C15.8282 9.66204 16 8.8986 16 8C16 5.51802 15.1661 3.49097 13.6887 2.0875C12.2197 0.691856 10.2065 0 8 0ZM2 8C2 5.98628 2.66585 4.51298 3.68905 3.54014C4.72034 2.55961 6.2073 2 8 2C9.79351 2 11.2803 2.55814 12.3113 3.5375C13.3339 4.50903 14 5.98198 14 8C14 8.65639 13.8733 9.03001 13.748 9.23733C13.6328 9.42793 13.484 9.53761 13.2893 9.60621C12.8242 9.77005 12.1229 9.68671 11.4229 9.4775C10.4019 9.17236 9.11802 9.5279 8.56049 10.643L8.51962 10.7247C8.06372 11.6365 8.32514 12.7439 9.14068 13.3555L9.47889 13.6092C9.57108 13.6783 9.5932 13.8074 9.52927 13.9033C9.48518 13.9695 9.42457 13.9901 9.3851 13.9886C6.96281 13.8976 5.11168 13.268 3.88608 12.2649C2.68986 11.2859 2 9.88051 2 8ZM4.5 10C5.32843 10 6 9.32843 6 8.5C6 7.67157 5.32843 7 4.5 7C3.67157 7 3 7.67157 3 8.5C3 9.32843 3.67157 10 4.5 10ZM8 4.5C8 5.32843 7.32843 6 6.5 6C5.67157 6 5 5.32843 5 4.5C5 3.67157 5.67157 3 6.5 3C7.32843 3 8 3.67157 8 4.5ZM10.5 8C11.3284 8 12 7.32843 12 6.5C12 5.67157 11.3284 5 10.5 5C9.67157 5 9 5.67157 9 6.5C9 7.32843 9.67157 8 10.5 8Z" fill="#525252"/>
</g>
<defs>
<clipPath id="clip0_34_1452">
<rect width="16" height="16" fill="white"/>
</clipPath>
</defs>
</svg>
