<svg width="16" height="16" viewBox="0 0 16 16" fill="none" xmlns="http://www.w3.org/2000/svg">
<path fill-rule="evenodd" clip-rule="evenodd" d="M9.87871 1.70711C11.0503 0.535534 12.9498 0.535536 14.1213 1.70711L14.2929 1.87868C15.4645 3.05025 15.4645 4.94975 14.2929 6.12132L12.7076 7.7066L12.7071 7.70711L12.7066 7.70762L7.70713 12.7071C6.54846 13.8658 5.60367 14.2049 4.66443 14.3614C4.4541 14.3965 4.26501 14.4217 4.08789 14.4454H4.08789C3.51972 14.5212 3.07479 14.5807 2.44724 14.8944C2.06225 15.0869 1.59728 15.0115 1.29292 14.7071C0.98856 14.4027 0.913106 13.9378 1.1056 13.5528C1.41938 12.9252 1.4788 12.4803 1.55467 11.9121C1.57833 11.735 1.60358 11.5459 1.63863 11.3356C1.79517 10.3964 2.13424 9.45157 3.29292 8.29289L8.29272 3.2931L8.29292 3.29289L8.29312 3.29269L9.87871 1.70711ZM12.8787 4.70711L12 5.58579L10.4142 4L11.2929 3.12132C11.6834 2.7308 12.3166 2.7308 12.7071 3.12132L12.8787 3.29289C13.2692 3.68342 13.2692 4.31658 12.8787 4.70711ZM4.70713 9.70711L9.00003 5.41421L10.5858 7L6.29292 11.2929C5.84567 11.7401 5.47927 11.9951 5.14991 12.1499L3.85014 10.8501C4.00491 10.5208 4.25988 10.1544 4.70713 9.70711Z" fill="#525252"/>
</svg>
