<svg width="16" height="16" viewBox="0 0 16 16" fill="none" xmlns="http://www.w3.org/2000/svg">
<path fill-rule="evenodd" clip-rule="evenodd" d="M14.018 1.60849C12.8737 0.568408 11.1264 0.568408 9.98218 1.60849C9.92873 1.65707 9.87264 1.71318 9.80736 1.77848L9.80736 1.77849L9.79296 1.79289L8.29296 3.29289L2.69884 8.88701L2.62677 8.95903L2.62677 8.95904C2.17755 9.40783 1.83813 9.74693 1.5895 10.1526C1.37019 10.5105 1.20857 10.9007 1.11058 11.3089C0.9995 11.7716 0.999729 12.2513 1.00003 12.8863L1.00006 12.9882V14C1.00006 14.5523 1.44778 15 2.00006 15H3.01184L3.11372 15C3.74872 15.0003 4.22851 15.0006 4.6912 14.8895C5.09935 14.7915 5.48953 14.6299 5.84742 14.4106C6.25313 14.1619 6.59224 13.8225 7.04102 13.3733L7.04103 13.3733L7.11306 13.3012L12.7066 7.70763C12.7068 7.70746 12.707 7.70728 12.7072 7.70711C12.7073 7.70693 12.7075 7.70676 12.7077 7.70659L14.2072 6.20711L14.2216 6.19272L14.2216 6.19268C14.2869 6.12741 14.343 6.07133 14.3916 6.01789C15.4317 4.87366 15.4317 3.12634 14.3916 1.98211C14.343 1.92867 14.2869 1.87258 14.2216 1.8073L14.2072 1.79289L14.1928 1.77849L14.1927 1.77845C14.1275 1.71316 14.0714 1.65706 14.018 1.60849ZM12.0001 5.58579L12.793 4.79289C12.8808 4.70509 12.8996 4.68582 12.9116 4.67263C13.2583 4.29122 13.2583 3.70878 12.9116 3.32737C12.8996 3.31419 12.8808 3.29491 12.793 3.20711C12.7052 3.1193 12.6859 3.10043 12.6727 3.08845C12.2913 2.74175 11.7088 2.74175 11.3274 3.08845C11.3142 3.10043 11.295 3.1193 11.2072 3.20711L10.4143 4L12.0001 5.58579ZM9.00006 5.41421L4.11306 10.3012C3.56054 10.8537 3.40408 11.0193 3.29478 11.1976C3.18513 11.3766 3.10432 11.5717 3.05532 11.7758C3.00649 11.9792 3.00006 12.2069 3.00006 12.9882V13H3.01184C3.79321 13 4.02091 12.9936 4.22431 12.9447C4.42839 12.8957 4.62347 12.8149 4.80242 12.7053C4.98078 12.596 5.14633 12.4395 5.69884 11.887L10.5858 7L9.00006 5.41421Z" fill="#525252"/>
</svg>
