<svg width="16" height="16" viewBox="0 0 16 16" fill="none" xmlns="http://www.w3.org/2000/svg">
<path fill-rule="evenodd" clip-rule="evenodd" d="M13.7071 2.29289C13.0793 1.6651 12.0957 1.5677 11.357 2.06018L9.62521 3.21468C8.67776 2.35085 7.20887 2.37692 6.29289 3.29289C5.6023 3.98349 5.41756 4.98838 5.73866 5.84713L3.29289 8.29289C2.13422 9.45157 1.79515 10.3964 1.63861 11.3356C1.60355 11.5459 1.5783 11.735 1.55465 11.9121C1.47877 12.4803 1.41935 12.9252 1.10557 13.5528C0.913079 13.9378 0.988533 14.4027 1.29289 14.7071C1.59725 15.0115 2.06223 15.0869 2.44721 14.8944C3.07477 14.5807 3.51969 14.5212 4.08786 14.4454C4.26497 14.4217 4.45407 14.3965 4.6644 14.3614C5.60364 14.2049 6.54843 13.8658 7.70711 12.7071L10.1529 10.2613C11.0116 10.5824 12.0165 10.3977 12.7071 9.70711C13.6231 8.79113 13.6492 7.32224 12.7853 6.37479L13.9398 4.64305C14.4323 3.90433 14.3349 2.92069 13.7071 2.29289ZM8.80751 5.22172C8.79811 5.21269 8.78887 5.20345 8.77978 5.194L8.29289 4.70711C8.13113 4.54535 7.86887 4.54535 7.70711 4.70711C7.54535 4.86887 7.54535 5.13113 7.70711 5.29289L10.7071 8.29289C10.8689 8.45465 11.1311 8.45465 11.2929 8.29289C11.4547 8.13113 11.4547 7.86887 11.2929 7.70711L10.806 7.22025C10.7966 7.21114 10.7873 7.20188 10.7782 7.19246L8.80751 5.22172ZM7 7.41421L4.70711 9.70711C3.86579 10.5484 3.70486 11.1036 3.6114 11.6644C3.59212 11.7801 3.57555 11.909 3.55743 12.05L3.55742 12.05L3.55742 12.0501C3.53939 12.1904 3.51983 12.3426 3.49456 12.5054C3.65732 12.4802 3.80943 12.4606 3.94964 12.4426L3.94986 12.4426L3.94993 12.4426C4.09095 12.4245 4.21993 12.4079 4.3356 12.3886C4.89636 12.2951 5.45157 12.1342 6.29289 11.2929L8.58579 9L7 7.41421Z" fill="#525252"/>
</svg>
