<svg width="16" height="16" viewBox="0 0 16 16" fill="none" xmlns="http://www.w3.org/2000/svg">
<path fill-rule="evenodd" clip-rule="evenodd" d="M9 2C9 1.44772 8.55228 1 8 1C7.44772 1 7 1.44772 7 2V8C7 8.55228 7.44772 9 8 9C8.55228 9 9 8.55228 9 8V2ZM4.46447 4.46447C4.85499 4.07394 4.85499 3.44078 4.46447 3.05025C4.07394 2.65973 3.44078 2.65973 3.05025 3.05025C0.316583 5.78392 0.316583 10.2161 3.05025 12.9497C5.78392 15.6834 10.2161 15.6834 12.9497 12.9497C15.6834 10.2161 15.6834 5.78392 12.9497 3.05025C12.5592 2.65973 11.9261 2.65973 11.5355 3.05025C11.145 3.44078 11.145 4.07394 11.5355 4.46447C13.4882 6.41709 13.4882 9.58291 11.5355 11.5355C9.58291 13.4882 6.41709 13.4882 4.46447 11.5355C2.51184 9.58291 2.51184 6.41709 4.46447 4.46447Z" fill="#525252"/>
</svg>
