<svg width="16" height="16" viewBox="0 0 16 16" fill="none" xmlns="http://www.w3.org/2000/svg">
<g clip-path="url(#clip0_34_2443)">
<path fill-rule="evenodd" clip-rule="evenodd" d="M7.43272 -1.19209e-07L7.39243 -4.95911e-05C7.25251 -0.000304222 7.08176 -0.00061512 6.92346 0.0242768C6.06591 0.159123 5.39326 0.831773 5.25841 1.68933C5.23352 1.84763 5.23383 2.01838 5.23408 2.15829L5.23413 2.19858C5.23413 2.2789 5.2341 2.32742 5.23355 2.36286L5.23331 2.37544L5.2016 2.39332C5.15208 2.42093 5.08286 2.45854 4.9805 2.51413C4.89734 2.5593 4.81533 2.60626 4.73452 2.65497C4.62934 2.71838 4.5587 2.76094 4.50742 2.79098L4.47554 2.80945L4.46441 2.80339C4.43145 2.78529 4.38677 2.75976 4.3122 2.7171L4.27398 2.69516L4.27398 2.69516C4.14119 2.61883 3.97898 2.52559 3.81377 2.46553C3.02412 2.17847 2.13925 2.41557 1.59891 3.05898C1.48586 3.19359 1.392 3.35545 1.31516 3.48795L1.31516 3.48795L1.29303 3.52605L0.745123 4.46654L0.724424 4.50197C0.652534 4.62485 0.564838 4.77474 0.506112 4.92656C0.192161 5.73819 0.439063 6.65967 1.11676 7.2056C1.24352 7.30771 1.39441 7.39368 1.5181 7.46415L1.51811 7.46415L1.55375 7.48448C1.62429 7.52485 1.66694 7.54928 1.69781 7.5676L1.70879 7.57417L1.7086 7.61121C1.70803 7.6687 1.70635 7.74858 1.70386 7.86662C1.70292 7.91098 1.70244 7.95544 1.70244 8C1.70244 8.04455 1.70292 8.089 1.70385 8.13335C1.70635 8.25139 1.70803 8.33128 1.7086 8.38877L1.7088 8.42581L1.69781 8.43238C1.66693 8.45071 1.62429 8.47514 1.55374 8.51551L1.5181 8.53584C1.39439 8.60632 1.24348 8.69229 1.1167 8.79442C0.439037 9.34034 0.192142 10.2618 0.506072 11.0734C0.564801 11.2252 0.652505 11.3752 0.724401 11.498L0.745104 11.5335L1.293 12.4739L1.31513 12.512C1.39197 12.6445 1.48584 12.8064 1.59889 12.941C2.13923 13.5844 3.02409 13.8215 3.81373 13.5345C3.97893 13.4744 4.14114 13.3812 4.27393 13.3049L4.27396 13.3048L4.31218 13.2829C4.38675 13.2402 4.43143 13.2147 4.46439 13.1966L4.47553 13.1905L4.50741 13.209C4.55869 13.2391 4.62933 13.2816 4.73452 13.345C4.81533 13.3937 4.89734 13.4407 4.9805 13.4859C5.08286 13.5415 5.15208 13.5791 5.2016 13.6067L5.23331 13.6246L5.23355 13.6371C5.2341 13.6726 5.23413 13.7211 5.23413 13.8014L5.23408 13.8417C5.23383 13.9816 5.23352 14.1524 5.25841 14.3107C5.39326 15.1682 6.06591 15.8409 6.92346 15.9757C7.08175 16.0006 7.2525 16.0003 7.39241 16.0001H7.39243L7.43272 16H8.56724L8.60752 16.0001H8.60755C8.74746 16.0003 8.9182 16.0006 9.0765 15.9757C9.93405 15.8409 10.6067 15.1682 10.7415 14.3107C10.7664 14.1524 10.7661 13.9816 10.7659 13.8417L10.7658 13.8014C10.7658 13.7211 10.7659 13.6726 10.7664 13.6371L10.7666 13.6246L10.7984 13.6067C10.8479 13.5791 10.9171 13.5415 11.0195 13.4859C11.1026 13.4407 11.1846 13.3937 11.2654 13.345C11.3706 13.2816 11.4413 13.239 11.4926 13.209L11.5245 13.1905L11.5356 13.1966C11.5685 13.2147 11.6132 13.2402 11.6878 13.2829L11.726 13.3048L11.726 13.3048C11.8588 13.3812 12.0211 13.4744 12.1863 13.5345C12.9759 13.8215 13.8608 13.5844 14.4011 12.9411C14.5142 12.8064 14.608 12.6445 14.6849 12.512L14.707 12.4739L15.2549 11.5335L15.2756 11.4981C15.3475 11.3752 15.4352 11.2252 15.494 11.0734C15.8078 10.2618 15.561 9.34037 14.8833 8.79446C14.7566 8.69231 14.6056 8.60632 14.4819 8.53583L14.4819 8.53582L14.4462 8.51549C14.3757 8.47512 14.333 8.45068 14.3022 8.43236L14.2912 8.42578L14.2914 8.38874C14.2919 8.33124 14.2936 8.25135 14.2961 8.1333C14.297 8.08896 14.2975 8.04453 14.2975 8C14.2975 7.95546 14.297 7.91102 14.2961 7.86667C14.2936 7.74863 14.2919 7.66874 14.2914 7.61124L14.2912 7.5742L14.3021 7.56763C14.333 7.54931 14.3757 7.52487 14.4462 7.4845L14.4819 7.46416C14.6056 7.39368 14.7565 7.3077 14.8833 7.20556C15.5609 6.65964 15.8078 5.73821 15.4939 4.92661C15.4352 4.77477 15.3475 4.62484 15.2756 4.50195L15.2549 4.46651L14.707 3.52607L14.6849 3.48796C14.608 3.35545 14.5141 3.19358 14.4011 3.05896C13.8607 2.41557 12.9759 2.17848 12.1863 2.46552C12.021 2.52558 11.8588 2.61883 11.726 2.69517L11.6878 2.7171C11.6132 2.75977 11.5685 2.7853 11.5356 2.8034L11.5244 2.80947L11.4926 2.791C11.4413 2.76095 11.3706 2.71839 11.2654 2.65498C11.1846 2.60626 11.1026 2.5593 11.0195 2.51413C10.9171 2.45854 10.8479 2.42093 10.7984 2.39332L10.7666 2.37544L10.7664 2.36286C10.7659 2.32742 10.7658 2.2789 10.7658 2.19858L10.7659 2.15829C10.7661 2.01837 10.7664 1.84762 10.7415 1.68933C10.6067 0.831773 9.93405 0.159123 9.0765 0.0242768C8.9182 -0.00061512 8.74744 -0.000304222 8.60753 -4.95911e-05L8.56724 -1.19209e-07H7.43272ZM7.23528 2.00859L7.2355 2.00136L7.24272 2.00115C7.28174 2.00009 7.33509 2 7.43272 2H8.56724C8.66486 2 8.71822 2.00009 8.75724 2.00115L8.76445 2.00136L8.76467 2.00859C8.76574 2.0476 8.76582 2.10096 8.76582 2.19858L8.76579 2.23428C8.76566 2.3485 8.7655 2.48001 8.77717 2.58911C8.80485 2.84791 8.87115 3.13104 9.03478 3.40611C9.19841 3.68118 9.41557 3.87457 9.62978 4.02241C9.72037 4.08493 9.86733 4.16456 10.0138 4.24394L10.0649 4.27166C10.1217 4.30249 10.1777 4.33456 10.2329 4.36782L10.2849 4.39922C10.4351 4.48998 10.5877 4.58223 10.6971 4.63187C10.9249 4.73535 11.1919 4.8205 11.501 4.82402C11.8102 4.82754 12.079 4.74851 12.3092 4.65025C12.4193 4.60326 12.5421 4.53273 12.6482 4.47189L12.681 4.45304C12.7738 4.39996 12.8245 4.37107 12.8622 4.351L12.8689 4.3474L12.873 4.35391C12.8956 4.39012 12.9251 4.44048 12.9789 4.53283L13.5267 5.47328C13.5768 5.55913 13.6041 5.60616 13.6231 5.64107L13.6266 5.64757L13.6203 5.65144C13.5864 5.67214 13.5392 5.69922 13.453 5.74857L13.4216 5.7665L13.4216 5.76651C13.3212 5.82379 13.2057 5.8897 13.1159 5.95475C12.9065 6.10659 12.6942 6.30388 12.5369 6.58188C12.3795 6.85989 12.3197 7.1435 12.2974 7.40121C12.2878 7.51194 12.2915 7.6811 12.2953 7.84997V7.84998L12.2965 7.90897C12.2972 7.93922 12.2975 7.96956 12.2975 8C12.2975 8.03043 12.2972 8.06077 12.2965 8.09101L12.2953 8.15002V8.15004C12.2915 8.31891 12.2878 8.48806 12.2974 8.5988C12.3197 8.85651 12.3795 9.14011 12.5369 9.4181C12.6942 9.6961 12.9065 9.89339 13.1159 10.0452C13.2056 10.1103 13.3212 10.1762 13.4216 10.2335L13.453 10.2514C13.5392 10.3008 13.5864 10.3279 13.6204 10.3486L13.6267 10.3524L13.6231 10.3589C13.6041 10.3938 13.5768 10.4409 13.5268 10.5267L12.9789 11.4672C12.9251 11.5595 12.8956 11.6099 12.8731 11.6461L12.869 11.6526L12.8622 11.649C12.8245 11.6289 12.7738 11.6 12.6811 11.547L12.6482 11.5281C12.5422 11.4673 12.4193 11.3967 12.3092 11.3497C12.079 11.2515 11.8102 11.1724 11.501 11.176C11.1919 11.1795 10.9249 11.2646 10.6971 11.3681C10.5878 11.4178 10.4351 11.51 10.2849 11.6008L10.2329 11.6322C10.1777 11.6654 10.1217 11.6975 10.0649 11.7283L10.0138 11.7561L10.0138 11.7561C9.86727 11.8355 9.72035 11.9151 9.62978 11.9776C9.41557 12.1254 9.19841 12.3188 9.03478 12.5939C8.87115 12.869 8.80485 13.1521 8.77717 13.4109C8.7655 13.52 8.76566 13.6515 8.76579 13.7657L8.76582 13.8014C8.76582 13.899 8.76574 13.9524 8.76467 13.9914L8.76446 13.9986L8.75724 13.9989C8.71822 13.9999 8.66486 14 8.56724 14H7.43272C7.3351 14 7.28174 13.9999 7.24272 13.9989L7.2355 13.9986L7.23528 13.9914C7.23422 13.9524 7.23413 13.899 7.23413 13.8014L7.23416 13.7657C7.2343 13.6515 7.23446 13.52 7.22279 13.4109C7.1951 13.1521 7.1288 12.869 6.96517 12.5939C6.80154 12.3188 6.58438 12.1254 6.37017 11.9776C6.2796 11.9151 6.13267 11.8355 5.98618 11.7561L5.98613 11.7561L5.93501 11.7283C5.87824 11.6975 5.82225 11.6654 5.76707 11.6322L5.71508 11.6008C5.5649 11.51 5.41223 11.4178 5.30292 11.3681C5.07504 11.2647 4.80809 11.1795 4.49893 11.176C4.18977 11.1725 3.92095 11.2515 3.69077 11.3498C3.58071 11.3967 3.45783 11.4673 3.35182 11.5281L3.35181 11.5281L3.31893 11.547C3.22617 11.6 3.17548 11.6289 3.13783 11.649L3.13104 11.6526L3.12695 11.6461C3.10438 11.6099 3.07492 11.5595 3.02113 11.4672L2.47323 10.5267C2.42322 10.4409 2.39592 10.3938 2.37686 10.3589L2.37333 10.3524L2.37964 10.3486C2.4136 10.3279 2.46075 10.3008 2.54699 10.2514L2.5784 10.2335C2.67879 10.1762 2.7943 10.1103 2.884 10.0453C3.09343 9.89344 3.30578 9.69614 3.4631 9.41813C3.62043 9.14011 3.68024 8.8565 3.70258 8.59878C3.71217 8.48805 3.70843 8.31891 3.70469 8.15005L3.70469 8.15003L3.70341 8.09105C3.70277 8.06079 3.70244 8.03044 3.70244 8C3.70244 7.96955 3.70277 7.93919 3.70341 7.90893L3.70469 7.84996V7.84995C3.70843 7.68109 3.71218 7.51196 3.70258 7.40123C3.68024 7.14351 3.62044 6.85988 3.46311 6.58186C3.30578 6.30384 3.09343 6.10654 2.88399 5.9547C2.79429 5.88966 2.67878 5.82376 2.5784 5.76648L2.57839 5.76648L2.547 5.74855C2.46077 5.69922 2.41363 5.67214 2.37966 5.65144L2.37336 5.64757L2.37689 5.64107C2.39595 5.60617 2.42324 5.55915 2.47325 5.47331L3.02116 4.53282C3.07496 4.44048 3.10441 4.39012 3.12698 4.35391L3.13106 4.3474L3.13786 4.351C3.1755 4.37107 3.22619 4.39995 3.31895 4.45303L3.35184 4.47189C3.45784 4.53272 3.58072 4.60324 3.69077 4.65022C3.92095 4.74849 4.18978 4.82753 4.49894 4.824C4.8081 4.82048 5.07506 4.73533 5.30294 4.63185C5.41225 4.58222 5.5649 4.48997 5.71507 4.39922L5.76707 4.36782C5.82225 4.33455 5.87824 4.30249 5.93501 4.27166L5.98614 4.24393L5.98615 4.24393C6.13265 4.16455 6.2796 4.08493 6.37017 4.02241C6.58438 3.87457 6.80154 3.68118 6.96517 3.40611C7.1288 3.13104 7.1951 2.84791 7.22279 2.58911C7.23446 2.48001 7.2343 2.3485 7.23416 2.23428V2.23428L7.23413 2.19858C7.23413 2.10096 7.23422 2.0476 7.23528 2.00859ZM7 8C7 7.44772 7.44772 7 8 7C8.55229 7 9 7.44772 9 8C9 8.55228 8.55229 9 8 9C7.44772 9 7 8.55228 7 8ZM8 5C6.34315 5 5 6.34315 5 8C5 9.65685 6.34315 11 8 11C9.65686 11 11 9.65685 11 8C11 6.34315 9.65686 5 8 5Z" fill="#525252"/>
</g>
<defs>
<clipPath id="clip0_34_2443">
<rect width="16" height="16" fill="white"/>
</clipPath>
</defs>
</svg>
