<svg width="16" height="16" viewBox="0 0 16 16" fill="none" xmlns="http://www.w3.org/2000/svg">
<path fill-rule="evenodd" clip-rule="evenodd" d="M3 2.7466V8C3 9.6438 3.6935 10.7168 4.71391 11.5928C5.49661 12.2648 6.39192 12.7662 7.33645 13.295C7.55526 13.4176 7.7767 13.5416 8 13.6695C8.2233 13.5416 8.44474 13.4176 8.66355 13.295C9.60808 12.7662 10.5034 12.2648 11.2861 11.5928C12.3065 10.7168 13 9.6438 13 8V2.7466C12.7087 2.66673 12.337 2.5715 11.9081 2.47619C10.8207 2.23455 9.39919 2 8 2C6.60081 2 5.17932 2.23455 4.09193 2.47619C3.663 2.5715 3.29131 2.66673 3 2.7466ZM14 2L14.3162 1.05132L15 1.27924V2V8C15 10.3562 13.9435 11.9473 12.5889 13.1103C11.6429 13.9225 10.4748 14.5765 9.47437 15.1366C9.12913 15.3299 8.80383 15.512 8.5145 15.6856L8 15.9943L7.4855 15.6856C7.19617 15.512 6.87087 15.3299 6.52563 15.1366C5.52515 14.5765 4.35714 13.9225 3.41109 13.1103C2.0565 11.9473 1 10.3562 1 8V2V1.27924L1.68377 1.05132L2 2C1.68377 1.05132 1.68392 1.05127 1.68408 1.05121L1.68447 1.05109L1.68544 1.05076L1.6882 1.04985L1.697 1.04695L1.72742 1.03706C1.75331 1.02871 1.79032 1.01692 1.8377 1.00217C1.93244 0.9727 2.06881 0.931396 2.2409 0.882226C2.58478 0.783977 3.07302 0.653823 3.65807 0.523813C4.82068 0.265455 6.39919 0 8 0C9.60081 0 11.1793 0.265455 12.3419 0.523813C12.927 0.653823 13.4152 0.783977 13.7591 0.882226C13.9312 0.931396 14.0676 0.9727 14.1623 1.00217C14.2097 1.01692 14.2467 1.02871 14.2726 1.03706L14.303 1.04695L14.3118 1.04985L14.3146 1.05076L14.3155 1.05109L14.3159 1.05121C14.3161 1.05127 14.3162 1.05132 14 2Z" fill="#525252"/>
</svg>
