<svg width="16" height="16" viewBox="0 0 16 16" fill="none" xmlns="http://www.w3.org/2000/svg">
<path fill-rule="evenodd" clip-rule="evenodd" d="M3 8V2.7466C3.29131 2.66673 3.663 2.5715 4.09193 2.47619C5.17932 2.23455 6.60081 2 8 2C9.39919 2 10.8207 2.23455 11.9081 2.47619C12.337 2.5715 12.7087 2.66673 13 2.7466V8C13 9.6438 12.3065 10.7168 11.2861 11.5928C10.5034 12.2648 9.60808 12.7662 8.66355 13.295C8.44474 13.4176 8.2233 13.5416 8 13.6695C7.7767 13.5416 7.55526 13.4176 7.33645 13.295C6.39192 12.7662 5.49661 12.2648 4.71391 11.5928C3.6935 10.7168 3 9.6438 3 8ZM14.3162 1.05132L14 2C14.3162 1.05132 14.3161 1.05127 14.3159 1.05121L14.3155 1.05109L14.3146 1.05076L14.3118 1.04985L14.303 1.04695L14.2726 1.03706C14.2467 1.02871 14.2097 1.01692 14.1623 1.00217C14.0676 0.9727 13.9312 0.931396 13.7591 0.882226C13.4152 0.783977 12.927 0.653823 12.3419 0.523813C11.1793 0.265455 9.60081 0 8 0C6.39919 0 4.82068 0.265455 3.65807 0.523813C3.07302 0.653823 2.58478 0.783977 2.2409 0.882226C2.06881 0.931396 1.93244 0.9727 1.8377 1.00217C1.79032 1.01692 1.75331 1.02871 1.72742 1.03706L1.697 1.04695L1.6882 1.04985L1.68544 1.05076L1.68447 1.05109L1.68408 1.05121C1.68392 1.05127 1.68377 1.05132 2 2L1.68377 1.05132L1 1.27924V2V8C1 10.3562 2.0565 11.9473 3.41109 13.1103C4.35714 13.9225 5.52515 14.5765 6.52563 15.1366C6.87087 15.3299 7.19617 15.512 7.4855 15.6856L8 15.9943L8.5145 15.6856C8.80383 15.512 9.12912 15.3299 9.47436 15.1366L9.47437 15.1366C10.4748 14.5765 11.6429 13.9225 12.5889 13.1103C13.9435 11.9473 15 10.3562 15 8V2V1.27924L14.3162 1.05132ZM11.7071 5.70711C12.0976 5.31658 12.0976 4.68342 11.7071 4.29289C11.3166 3.90237 10.6834 3.90237 10.2929 4.29289L7 7.58579L5.70711 6.29289C5.31658 5.90237 4.68342 5.90237 4.29289 6.29289C3.90237 6.68342 3.90237 7.31658 4.29289 7.70711L6.29289 9.70711C6.48043 9.89464 6.73478 10 7 10C7.26521 10 7.51957 9.89465 7.70711 9.70711L11.7071 5.70711Z" fill="#525252"/>
</svg>
