<svg width="16" height="16" viewBox="0 0 16 16" fill="none" xmlns="http://www.w3.org/2000/svg">
<path fill-rule="evenodd" clip-rule="evenodd" d="M6 2C2.68629 2 0 4.68629 0 8C0 11.3137 2.68629 14 6 14H10C13.3137 14 16 11.3137 16 8C16 4.68629 13.3137 2 10 2H6ZM2 8C2 5.79086 3.79086 4 6 4H10C12.2091 4 14 5.79086 14 8C14 10.2091 12.2091 12 10 12H6C3.79086 12 2 10.2091 2 8ZM9 8C9 7.44772 9.44772 7 10 7C10.5523 7 11 7.44772 11 8C11 8.55228 10.5523 9 10 9C9.44772 9 9 8.55228 9 8ZM10 5C8.34315 5 7 6.34315 7 8C7 9.65685 8.34315 11 10 11C11.6569 11 13 9.65685 13 8C13 6.34315 11.6569 5 10 5Z" fill="#525252"/>
</svg>
