<svg width="16" height="16" viewBox="0 0 16 16" fill="none" xmlns="http://www.w3.org/2000/svg">
<g clip-path="url(#clip0_34_2514)">
<path opacity="0.1" d="M2.31725 7.48972C2.20721 6.27933 2.15219 5.67414 2.35406 5.20686C2.53139 4.79635 2.84119 4.45711 3.23396 4.24334C3.68105 4 4.28873 4 5.50411 4H10.4959C11.7113 4 12.319 4 12.766 4.24334C13.1588 4.45711 13.4686 4.79635 13.6459 5.20686C13.8478 5.67414 13.7928 6.27933 13.6828 7.48971L13.2646 12.0897C13.1712 13.117 13.1245 13.6307 12.8944 14.0192C12.6918 14.3613 12.3918 14.6352 12.0328 14.806C11.6251 15 11.1093 15 10.0777 15H5.92229C4.89073 15 4.37495 15 3.96725 14.806C3.60819 14.6352 3.3082 14.3613 3.10559 14.0192C2.87552 13.6307 2.82882 13.117 2.73543 12.0897L2.31725 7.48972Z" fill="#525252"/>
<path fill-rule="evenodd" clip-rule="evenodd" d="M7 3C7 2.44772 7.44772 2 8 2H8.10146C8.63353 2 9.07243 2.41664 9.1001 2.94799L9.10281 3H7ZM5 3C5 1.34315 6.34315 0 8 0H8.10146C9.69767 0 11.0144 1.24991 11.0974 2.84396L11.1055 3H14H15C15.5523 3 16 3.44772 16 4C16 4.55228 15.5523 5 15 5H14.9132L14.2605 12.1802L14.2572 12.2165C14.2133 12.6992 14.1753 13.1178 14.1165 13.4622C14.0542 13.8274 13.9573 14.1869 13.7548 14.5288C13.4509 15.0419 13.0009 15.4529 12.4623 15.7091C12.1036 15.8797 11.7368 15.9437 11.3674 15.9727C11.0191 16 10.5988 16 10.1142 16H10.1142H10.1142H10.1141H10.0777H5.92229H5.88586H5.88584H5.88582H5.8858C5.40115 16 4.98089 16 4.63256 15.9727C4.26323 15.9437 3.89642 15.8797 3.53765 15.7091C2.99908 15.4529 2.54909 15.0419 2.24517 14.5288C2.04271 14.1869 1.94581 13.8274 1.8835 13.4622C1.82473 13.1178 1.7867 12.6992 1.74283 12.2165L1.73954 12.1803L1.08679 5H1C0.447715 5 0 4.55228 0 4C0 3.44772 0.447715 3 1 3H2H5ZM10.1625 5H12.905L12.2687 11.9992C12.2206 12.5285 12.189 12.8681 12.145 13.1258C12.1031 13.3714 12.0616 13.463 12.034 13.5096C11.9327 13.6806 11.7827 13.8176 11.6032 13.903C11.5542 13.9263 11.4593 13.9593 11.2109 13.9788C10.9503 13.9993 10.6092 14 10.0777 14H5.92229C5.39079 14 5.04974 13.9993 4.78908 13.9788C4.5407 13.9593 4.44577 13.9263 4.39684 13.903C4.21731 13.8176 4.06732 13.6806 3.96601 13.5096C3.9384 13.463 3.89691 13.3714 3.85501 13.1258C3.81103 12.8681 3.77944 12.5285 3.73132 11.9992L3.09503 5H6H10.1483H10.1625ZM6 6C5.44772 6 5 6.44772 5 7V12C5 12.5523 5.44772 13 6 13C6.55228 13 7 12.5523 7 12V7C7 6.44772 6.55228 6 6 6ZM9 7C9 6.44772 9.44771 6 10 6C10.5523 6 11 6.44772 11 7V12C11 12.5523 10.5523 13 10 13C9.44771 13 9 12.5523 9 12V7Z" fill="#525252"/>
</g>
<defs>
<clipPath id="clip0_34_2514">
<rect width="16" height="16" fill="white"/>
</clipPath>
</defs>
</svg>
