<svg width="16" height="16" viewBox="0 0 16 16" fill="none" xmlns="http://www.w3.org/2000/svg">
<path fill-rule="evenodd" clip-rule="evenodd" d="M4 1C3.44772 1 3 1.44772 3 2V6C3 8.41896 4.71776 10.4367 7 10.9V14C7 14.5523 7.44772 15 8 15C8.55228 15 9 14.5523 9 14V10.9C11.2822 10.4367 13 8.41896 13 6V2C13 1.44772 12.5523 1 12 1C9.98931 1 8.7249 2.35337 8.027 3.47L8 3.51353L7.973 3.47C7.2751 2.35337 6.01069 1 4 1ZM8.97014 6.24254L8.96999 6.24316C8.85848 6.68799 8.45865 7 8 7C7.54195 7 7.14257 6.68881 7.03046 6.24491L7.03035 6.2445L7.03015 6.24371L7.03015 6.2437L7.02971 6.24206L7.02383 6.22023C7.01796 6.19888 7.00819 6.16438 6.99429 6.11861C6.96644 6.02687 6.9224 5.89108 6.86055 5.72612C6.73562 5.39297 6.54417 4.95747 6.277 4.53C5.92975 3.97439 5.5099 3.51243 5 3.24612V6C5 7.65685 6.34315 9 8 9C9.65685 9 11 7.65685 11 6V3.24612C10.4901 3.51243 10.0703 3.97439 9.723 4.53C9.45583 4.95747 9.26439 5.39297 9.13945 5.72612C9.0776 5.89108 9.03356 6.02687 9.00571 6.11861C8.99181 6.16438 8.98204 6.19888 8.97617 6.22023L8.97029 6.24206L8.97014 6.24254Z" fill="#525252"/>
</svg>
