<svg width="16" height="16" viewBox="0 0 16 16" fill="none" xmlns="http://www.w3.org/2000/svg">
<g clip-path="url(#clip0_34_2578)">
<path fill-rule="evenodd" clip-rule="evenodd" d="M4.16146 -1.90735e-06H4.2H11.8H11.8385H11.8386C12.3657 -1.89551e-05 12.8205 -3.36607e-05 13.195 0.0305693C13.5904 0.0628703 13.9836 0.134186 14.362 0.32698C14.9265 0.6146 15.3854 1.07354 15.673 1.63803C15.8658 2.01641 15.9371 2.40963 15.9694 2.80497C16 3.17951 16 3.63424 16 4.16133V4.16136V4.16148V4.2L16 5L16 11.8V11.8385V11.8386V11.8387C16 12.3658 16 12.8205 15.9694 13.195C15.9371 13.5904 15.8658 13.9836 15.673 14.362C15.3854 14.9265 14.9265 15.3854 14.362 15.673C13.9836 15.8658 13.5904 15.9371 13.195 15.9694C12.8205 16 12.3658 16 11.8387 16H11.8386H11.8385H11.8H6H4.2H4.16148H4.16136H4.16133C3.63424 16 3.17952 16 2.80497 15.9694C2.40963 15.9371 2.01641 15.8658 1.63803 15.673C1.07354 15.3854 0.614602 14.9265 0.326982 14.362C0.134188 13.9836 0.0628722 13.5904 0.0305712 13.195C-3.17525e-05 12.8205 -1.70477e-05 12.3657 0 11.8386V11.8385V11.8V5V4.2V4.16146V4.16141C-1.70477e-05 3.63428 -3.17534e-05 3.17953 0.0305712 2.80497C0.0628722 2.40963 0.134188 2.01641 0.326982 1.63803C0.614602 1.07354 1.07354 0.6146 1.63803 0.32698C2.01641 0.134186 2.40963 0.0628703 2.80497 0.0305693C3.17954 -3.36617e-05 3.63429 -1.89551e-05 4.16142 -1.90735e-06H4.16146ZM7 14H11.8C12.3766 14 12.7488 13.9992 13.0322 13.9761C13.3038 13.9539 13.4045 13.9162 13.454 13.891C13.6422 13.7951 13.7951 13.6422 13.891 13.454C13.9162 13.4045 13.9539 13.3038 13.9761 13.0322C13.9992 12.7488 14 12.3766 14 11.8V6H7V14ZM5 6V14H4.2C3.62345 14 3.25117 13.9992 2.96784 13.9761C2.69617 13.9539 2.59546 13.9162 2.54601 13.891C2.35785 13.7951 2.20487 13.6422 2.109 13.454C2.0838 13.4045 2.04612 13.3038 2.02393 13.0322C2.00078 12.7488 2 12.3766 2 11.8V6H5ZM6 4H13.9999C13.9995 3.5349 13.9964 3.21698 13.9761 2.96784C13.9539 2.69617 13.9162 2.59545 13.891 2.54601C13.7951 2.35785 13.6422 2.20487 13.454 2.10899C13.4045 2.0838 13.3038 2.04612 13.0322 2.02393C12.7488 2.00078 12.3766 2 11.8 2H4.2C3.62345 2 3.25117 2.00078 2.96784 2.02393C2.69617 2.04612 2.59546 2.0838 2.54601 2.10899C2.35785 2.20487 2.20487 2.35785 2.109 2.54601C2.0838 2.59545 2.04612 2.69617 2.02393 2.96784C2.00357 3.21698 2.00052 3.5349 2.00007 4H6Z" fill="#525252"/>
</g>
<defs>
<clipPath id="clip0_34_2578">
<rect width="16" height="16" fill="white"/>
</clipPath>
</defs>
</svg>
