<svg width="16" height="16" viewBox="0 0 16 16" fill="none" xmlns="http://www.w3.org/2000/svg">
<g clip-path="url(#clip0_34_216)">
<path fill-rule="evenodd" clip-rule="evenodd" d="M7 2C4.23858 2 2 4.23858 2 7C2 9.76142 4.23858 12 7 12C9.76142 12 12 9.76142 12 7C12 4.23858 9.76142 2 7 2ZM0 7C0 3.13401 3.13401 0 7 0C10.866 0 14 3.13401 14 7C14 8.57234 13.4816 10.0236 12.6064 11.1922L15.7071 14.2929C16.0976 14.6834 16.0976 15.3166 15.7071 15.7071C15.3166 16.0976 14.6834 16.0976 14.2929 15.7071L11.1922 12.6064C10.0236 13.4816 8.57234 14 7 14C3.13401 14 0 10.866 0 7ZM5 6C4.44772 6 4 6.44772 4 7C4 7.55228 4.44772 8 5 8H9C9.55228 8 10 7.55228 10 7C10 6.44772 9.55228 6 9 6H5Z" fill="#525252"/>
</g>
<defs>
<clipPath id="clip0_34_216">
<rect width="16" height="16" fill="white"/>
</clipPath>
</defs>
</svg>
